<svg width="291" height="265" viewBox="0 0 291 265" fill="none" xmlns="http://www.w3.org/2000/svg">
<path d="M128.914 2.50293C134.268 2.46447 137.956 2.79051 141.339 3.74219C144.505 4.63301 147.543 6.11182 151.516 8.57715L152.323 9.08301C157.97 12.6586 163.13 18.2118 166.875 24.3613C170.633 30.5324 172.823 37.0681 172.823 42.543V55.709L177.149 51.082L183.894 43.8691C187.611 39.8948 192.946 36.598 198.597 34.5459C204.269 32.4861 209.994 31.7751 214.469 32.6689C228.997 35.5697 240.478 48.359 241.457 62.502C241.926 69.2835 241.896 73.3649 241.1 76.8164C240.317 80.2057 238.748 83.1813 235.713 87.6484H235.712L229.557 96.71L226.348 101.433L231.995 100.587L242.62 98.9961C275.283 94.1044 299.665 131.883 282.238 161.584C278.115 168.612 273.142 173.708 267.246 177.062C261.349 180.416 254.379 182.112 246.137 182.112H227.422L230.375 186.1L235.54 193.074V193.075C238.67 197.304 240.412 204.305 240.419 211.627C240.426 218.95 238.697 225.937 235.579 230.14C227.475 241.063 216.523 247.052 205.47 247.052C198.976 247.052 193.765 245.966 188.936 243.484C184.072 240.986 179.42 236.984 174.188 230.879L174.188 230.878L165.761 221.047L161.603 216.196L161.364 222.58L161.046 231.099C160.692 240.472 157.18 248.073 151.431 253.34C145.67 258.617 137.478 261.721 127.482 261.728C122.522 261.731 119.378 261.398 116.642 260.45C113.921 259.508 111.396 257.886 107.81 254.935H107.809C97.9308 246.802 93.4875 235.173 95.6338 223.735L97.293 214.909L98.6299 207.797L93.1875 212.567L84.6309 220.069H84.6299C76.5967 227.114 68.4995 230.82 60.1104 231.465C51.7041 232.111 42.7054 229.708 32.8438 223.991H32.8447C21.1921 217.234 13.6378 203.186 13.6377 187.513C13.6377 178.203 15.5785 170.563 19.4639 164.239C23.3496 157.915 29.297 152.716 37.6221 148.48H37.623L44.5947 144.932L49.6162 142.375L44.3516 140.367L33.1182 136.084C19.2852 130.806 7.50299 117.148 4.07422 102.449L3.91699 101.748C2.52338 95.2569 2.13708 90.4247 2.84863 85.6279C3.56399 80.806 5.41708 75.8283 8.79785 69.0859C14.5657 57.582 26.0947 49.4996 38.627 46.2832C51.176 43.0626 64.269 44.8265 73.2305 52.3574L80.5947 58.5479L84.7031 62.001V45.3047C84.7031 28.2536 93.1461 14.6107 109.101 6.19141C110.793 5.29802 113.861 4.37183 117.586 3.66504C121.254 2.96911 125.329 2.52863 128.914 2.50293Z" fill="#FCCE02" stroke="white" stroke-width="5"/>
</svg>
