<svg width="357" height="66" viewBox="0 0 357 66" fill="none" xmlns="http://www.w3.org/2000/svg">
<path d="M287.235 2.19852C287.404 2.02857 287.574 1.96059 287.71 1.96059C287.96 1.96059 288.141 2.18719 288.141 2.45911C288.141 2.62905 288.062 2.799 287.903 2.95762C281.592 10.7979 277.015 19.9637 277.015 32.6871C277.015 45.4105 281.604 54.3838 287.903 62.224C288.062 62.3826 288.13 62.5752 288.141 62.7225C288.141 62.9944 287.971 63.221 287.71 63.221C287.563 63.221 287.404 63.1531 287.235 62.9831L260.36 36.9925C259.023 35.8481 258.162 34.4999 258.162 32.5965C258.162 30.6931 259.023 29.3448 260.36 28.2005L287.235 2.19852Z" fill="#031B3D"/>
<path d="M307.888 0C297.363 0 293.261 14.9101 293.261 32.6866C293.261 50.4631 297.374 65.1806 307.888 65.1806C314.21 65.1806 319.592 61.4757 319.603 58.4393C319.603 57.7708 319.343 57.1364 318.788 56.5812C315.796 53.6921 314.629 50.803 314.618 48.2538C314.607 43.382 318.821 39.7564 322.719 39.7564C328.078 39.7564 331.228 43.9598 331.228 49.4094C331.228 54.5758 329.03 58.8698 326.639 62.3141C326.548 62.4501 326.503 62.6087 326.503 62.7446C326.503 63.0166 326.662 63.2318 326.9 63.2318C327.047 63.2318 327.217 63.1525 327.398 62.9712L354.284 36.9806C355.621 35.8363 356.482 34.488 356.482 32.5846C356.482 30.6812 355.621 29.333 354.284 28.1886L327.398 2.18666C327.217 2.00538 327.047 1.92607 326.9 1.92607C326.662 1.92607 326.503 2.15267 326.503 2.42459C326.503 2.56054 326.548 2.71916 326.639 2.86645C329.03 6.31072 331.228 10.6161 331.228 15.7711C331.228 21.2208 328.067 25.4355 322.719 25.4355C318.833 25.4355 314.607 21.8099 314.618 16.9381C314.629 14.3889 315.796 11.4998 318.788 8.61068C319.343 8.05552 319.603 7.42104 319.603 6.75258C319.581 3.71619 314.199 0.0113301 307.888 0.0113301" fill="#031B3D"/>
<path d="M35.8703 43.3386C35.8703 40.6308 37.0599 38.4328 39.0767 36.9486C41.082 35.4644 43.8918 34.6826 47.1548 34.6826C49.1942 34.6826 51.2902 35.0565 52.7404 35.6797V32.6319C52.6951 29.5616 51.5282 27.8281 48.0952 27.7828C47.4494 27.7828 46.0105 27.9527 44.8322 28.3493C44.9455 28.7911 45.0135 29.2443 45.0135 29.6749C45.0135 30.6945 44.6849 31.6463 44.0618 32.3374C43.45 33.0285 42.5323 33.459 41.4219 33.459C39.4392 33.459 37.9324 31.8389 37.9324 29.8221C37.9777 26.0946 42.4983 23.5907 48.5257 23.5907C53.3183 23.5907 56.3207 24.7237 57.9295 26.7857C59.3911 28.6438 59.459 31.3517 59.459 35.1698V45.1174C59.4817 47.0435 60.5807 47.576 62.9826 47.9386L63.2545 47.9725L63.2319 48.2558C63.0959 50.8843 61.1585 51.972 59.0852 52.1306C58.9039 52.1419 58.7226 52.1533 58.5527 52.1533C56.5133 52.1533 54.5419 51.1562 53.6015 49.1169C52.3212 50.1932 49.4208 52.2212 45.6706 52.2212C40.0963 52.2212 35.8703 48.4597 35.859 43.316M206.792 50.941C206.294 50.2498 206.022 49.3661 205.795 48.3578C205.523 48.6637 205.195 49.0036 204.696 49.4794C202.872 51.1902 200.504 52.2099 197.819 52.2099C194.896 52.2099 192.403 51.0883 190.817 49.2188C188.381 46.3071 188.404 42.6249 188.393 37.3905V32.3374C188.336 30.298 187.701 29.5955 185.809 29.5502C185.56 29.5502 185.3 29.5729 185.005 29.5955L184.778 29.6182L184.699 29.4029C184.552 29.0291 184.484 28.6665 184.484 28.3153C184.54 25.8794 187.634 24.5651 189.446 24.1912C190.081 24.1006 190.681 23.9873 191.259 23.9873C192.732 23.9873 193.831 24.4631 194.522 25.3129C195.213 26.1626 195.485 27.3409 195.485 28.7118L195.44 37.3225C195.44 40.5062 195.666 42.8854 196.369 44.415C197.083 45.9332 198.159 46.647 200.142 46.6696C202.294 46.6696 203.609 45.7292 204.436 44.347C205.274 42.9534 205.569 41.084 205.569 39.2939V32.3147C205.512 30.2753 204.866 29.5729 202.974 29.5276C202.725 29.5276 202.464 29.5502 202.17 29.5729L201.943 29.5955L201.852 29.3803C201.705 29.0064 201.637 28.6438 201.637 28.2926C201.694 25.8567 204.787 24.5424 206.611 24.1686C207.245 24.0779 207.846 23.9646 208.424 23.9646C209.908 23.9646 210.996 24.4405 211.687 25.2902C212.378 26.1399 212.65 27.3183 212.65 28.6778C212.65 29.6635 212.559 31.4197 212.559 38.7614C212.559 41.8658 212.503 43.5086 212.503 44.0184C212.548 46.1371 213.262 47.0775 215.222 47.1228C215.426 47.1228 215.641 47.1115 215.89 47.0888L216.117 47.0662L216.196 47.2814C216.343 47.6553 216.411 48.0065 216.411 48.3464C216.332 50.7257 213.239 51.6887 211.449 52.04C210.826 52.1306 210.259 52.2326 209.749 52.2326H209.715C208.333 52.2326 207.393 51.7454 206.804 50.9296M108.891 38.3648C108.891 34.0822 110.296 30.3886 112.766 27.7601C115.225 25.1316 118.748 23.5907 122.917 23.5907C126.713 23.5907 129.534 24.9956 131.37 27.0123C133.216 29.0291 134.1 31.6349 134.1 34.0482C134.1 35.4757 133.805 36.79 133.182 37.9116L133.103 38.0703H116.131C116.414 43.0101 119.553 46.4657 125.036 46.477C128.401 46.477 130.996 44.6302 131.857 43.5199L132.038 43.282L132.276 43.4633C132.763 43.8145 133.296 44.4603 133.284 45.6839C133.262 48.5277 129.931 52.1759 122.532 52.1872C115.021 52.1759 108.914 46.1938 108.902 38.3648M169.041 52.1533C165.212 52.1533 161.733 50.7144 159.196 48.1991C156.669 45.6839 155.106 42.0924 155.106 37.821C155.117 29.3689 161.779 23.6134 169.279 23.5907C173.324 23.5907 176.825 25.0296 179.306 27.5335C181.799 30.0374 183.249 33.6063 183.249 37.821C183.249 42.0357 181.719 45.6386 179.181 48.1652C176.632 50.6917 173.075 52.1533 169.041 52.1533ZM221.057 51.3035C219.878 50.9863 219.119 50.3405 219.119 49.3661C219.119 48.9809 219.232 48.573 219.436 48.1312L219.504 47.9952L219.652 47.9725C220.093 47.8819 220.864 47.6553 221.498 47.1341C222.201 46.5563 222.473 45.7519 222.473 43.4859V32.0881C222.416 30.1734 221.986 29.4936 220.388 29.4483C220.026 29.4483 219.606 29.4936 219.119 29.5842L218.881 29.6295L218.791 29.4029C218.621 28.9724 218.541 28.5645 218.541 28.1793C218.587 25.902 221.079 24.7237 222.756 24.2025C223.436 23.9986 224.036 23.8966 224.648 23.8966C226.925 23.8966 228.16 25.5281 228.682 27.6355C230.177 25.1882 232.556 23.5681 234.902 23.5567C237.1 23.5567 239.309 24.9956 239.32 27.7261C239.32 29.6635 237.949 31.7029 235.661 31.7142C233.961 31.7142 232.477 30.5926 232.148 28.9497C230.857 29.3803 229.033 31.0004 229.01 36.62V43.4973C229.01 45.7519 229.339 46.5676 229.973 47.1341C230.642 47.6327 231.99 47.8819 232.454 47.9725L232.602 47.9952L232.67 48.1312C232.896 48.6183 233.021 49.0602 233.021 49.4681C233.021 50.3858 232.341 51.0203 231.231 51.3262C230.109 51.6547 228.478 51.7794 226.257 51.7794C224.036 51.7794 222.257 51.6434 221.068 51.3035M138.847 51.3035C137.658 50.975 136.898 50.3292 136.898 49.3548C136.898 48.9809 137.012 48.573 137.216 48.1312L137.284 47.9952L137.431 47.9725C137.896 47.8819 138.632 47.6553 139.3 47.1455C139.98 46.5676 140.263 45.7519 140.275 43.4973V28.5192L136.253 28.3833L136.185 28.202C135.981 27.7035 135.879 27.2389 135.879 26.7857C135.879 25.3242 137.012 24.3498 138.417 24.3498H140.173V22.6957C140.173 18.6849 140.921 16.4076 141.94 14.8781C143.504 12.4422 146.234 10.7654 150.381 10.7767C155.593 10.7767 159.966 13.2013 160 17.0987C160 18.7869 158.822 20.8829 156.363 20.8829C154.528 20.8829 152.84 19.342 152.828 17.3933C152.828 16.6795 153.066 15.9544 153.429 15.4106C152.885 14.9347 151.831 14.6402 150.834 14.6515C149.214 14.6628 148.33 15.218 147.764 16.147C147.197 17.0761 147.016 18.447 147.016 19.9878V24.2932H153.927L154.007 24.4745C154.21 24.973 154.312 25.4602 154.312 25.9133C154.312 27.4089 153.247 28.5305 151.899 28.6552C151.389 28.7118 150.834 28.7118 150.347 28.7118C149.203 28.7118 148.058 28.6325 147.22 28.6099V43.4746C147.22 45.7179 147.594 46.5337 148.274 47.1115C148.885 47.5987 150.596 47.8593 151.095 47.9499L151.242 47.9725L151.31 48.1085C151.491 48.5164 151.593 48.8789 151.593 49.2415C151.593 50.2725 150.755 50.9183 149.497 51.2582C148.217 51.6208 146.393 51.7567 144.07 51.7567C141.748 51.7567 140.071 51.6208 138.859 51.2809M90.6274 51.3035C89.4491 50.9863 88.7014 50.3292 88.7014 49.3661C88.7014 48.9809 88.8147 48.573 89.0186 48.1312L89.0866 47.9952L89.2339 47.9725C89.687 47.8819 90.4348 47.6553 91.1033 47.1455C91.7831 46.5676 92.0663 45.7519 92.0777 43.4973V32.0994C92.021 30.1847 91.5678 29.5049 89.9816 29.4596C89.6191 29.4596 89.1999 29.5049 88.7127 29.5955L88.4634 29.6409L88.3728 29.4143C88.2028 28.9837 88.1122 28.5645 88.1122 28.168C88.1575 25.902 90.6501 24.735 92.3269 24.2139C92.9954 24.0099 93.6072 23.908 94.185 23.908C96.485 23.908 97.7199 25.5168 98.2524 27.5902C99.7479 25.1656 102.139 23.5681 104.484 23.5567C106.659 23.5567 108.891 24.9956 108.902 27.7261C108.902 29.6635 107.532 31.7029 105.22 31.7142C103.532 31.7142 102.059 30.5926 101.731 28.9497C100.428 29.3803 98.5696 31.0004 98.5583 36.62V43.4973C98.5583 45.7519 98.8982 46.5563 99.578 47.1341C100.212 47.6327 101.561 47.8819 102.048 47.9725L102.195 47.9952L102.263 48.1312C102.478 48.607 102.603 49.0489 102.603 49.4568C102.614 50.3745 101.923 51.0203 100.802 51.3262C99.68 51.6547 98.0371 51.7907 95.8165 51.7907C93.5958 51.7907 91.8284 51.6547 90.6274 51.3149M67.8431 51.3035C66.6648 50.9863 65.917 50.3292 65.917 49.3661C65.917 48.9809 66.0303 48.573 66.2343 48.1312L66.3023 47.9952L66.4496 47.9725C66.9027 47.8819 67.6505 47.6553 68.319 47.1455C69.0101 46.5676 69.282 45.7519 69.2933 43.4973V32.0994C69.2367 30.1847 68.7835 29.5049 67.1973 29.4596C66.8348 29.4596 66.4156 29.5049 65.9284 29.5955L65.6791 29.6409L65.5885 29.4143C65.4185 28.9837 65.3279 28.5645 65.3279 28.168C65.3732 25.902 67.8658 24.735 69.5539 24.2139C70.2111 24.0099 70.8342 23.908 71.4007 23.908C73.7007 23.908 74.9356 25.5168 75.4681 27.5902C76.9636 25.1769 79.3542 23.5794 81.6882 23.5681C83.8635 23.5681 86.1068 25.007 86.1068 27.7375C86.1068 29.6749 84.7246 31.7142 82.4246 31.7256C80.7365 31.7256 79.2523 30.6039 78.935 28.9611C77.6321 29.3916 75.7853 31.0118 75.7627 36.6314V43.5086C75.7627 45.7632 76.0912 46.5676 76.771 47.1455C77.4055 47.644 78.7538 47.8932 79.2409 47.9839L79.3882 48.0065L79.4562 48.1425C79.6715 48.6183 79.7961 49.0602 79.7961 49.4681C79.7961 50.3858 79.105 51.0316 77.9947 51.3375C76.873 51.6661 75.2302 51.802 72.9982 51.802C70.7662 51.802 69.0101 51.6661 67.8091 51.3262M162.878 37.0506C162.889 44.5396 166.152 47.7573 169.347 47.7686C172.995 47.7686 175.635 44.5396 175.658 38.2402C175.658 34.9546 174.933 32.3147 173.743 30.5359C172.554 28.7458 170.922 27.8054 169.053 27.8054C165.257 27.8054 162.9 31.2384 162.878 37.0619M48.3218 38.6254C45.3194 38.6594 43.2914 40.0643 43.28 42.8628C43.3027 45.5026 45.0815 47.2814 47.8799 47.2928C49.6927 47.2928 51.5508 46.2957 52.7291 44.8455V40.982C52.7291 40.4495 52.3779 39.883 51.6415 39.4185C50.905 38.954 49.772 38.6368 48.3331 38.6368M126.203 34.0935C126.747 34.0822 126.894 33.9575 126.996 33.7876C127.11 33.6063 127.132 33.2438 127.132 32.7906C127.076 30.196 125.059 27.7828 121.943 27.7828C118.023 27.7828 116.437 30.9211 116.188 34.0935H126.214H126.203ZM5.43837 47.2361C2.13005 43.8372 -0.0112851 38.886 4.4741e-05 32.7113C4.4741e-05 26.8084 2.08474 21.8233 5.3364 18.3224C8.59939 14.8214 13.018 12.7934 17.6973 12.7934C26.07 12.8047 31.9955 18.6623 32.0182 23.738C32.0182 26.4459 30.296 28.5419 27.9734 28.5532C26.8291 28.5532 25.7528 28.1567 24.971 27.4202C24.1893 26.6838 23.6907 25.5961 23.7021 24.2705C23.7021 22.6843 24.5178 21.7213 25.1183 21.0302C24.0193 19.1154 21.8326 17.5406 18.4224 17.5406C15.5219 17.5406 13.0747 19.0475 11.3072 21.6987C9.5511 24.3498 8.50875 28.1567 8.50875 32.6659C8.50875 37.1752 9.59642 40.9594 11.3979 43.5992C13.2106 46.2391 15.7032 47.746 18.615 47.746C22.0253 47.746 24.2119 46.1824 25.3109 44.2564C24.6991 43.5766 23.8947 42.6135 23.8947 41.0387C23.8947 39.7131 24.3819 38.6254 25.1636 37.8777C25.9567 37.1412 27.0217 36.7447 28.166 36.7447C30.4886 36.7447 32.1994 38.8294 32.1994 41.5372C32.1768 46.6243 26.2513 52.4705 17.8785 52.4818C13.2106 52.4818 8.73535 50.6351 5.42704 47.2361M5.43837 47.2361C2.13005 43.8372 -0.0112851 38.886 4.4741e-05 32.7113C4.4741e-05 26.8084 2.08474 21.8233 5.3364 18.3224C8.59939 14.8214 13.018 12.7934 17.6973 12.7934C26.07 12.8047 31.9955 18.6623 32.0182 23.738C32.0182 26.4459 30.296 28.5419 27.9734 28.5532C26.8291 28.5532 25.7528 28.1567 24.971 27.4202C24.1893 26.6838 23.6907 25.5961 23.7021 24.2705C23.7021 22.6843 24.5178 21.7213 25.1183 21.0302C24.0193 19.1154 21.8326 17.5406 18.4224 17.5406C15.5219 17.5406 13.0747 19.0475 11.3072 21.6987C9.5511 24.3498 8.50875 28.1567 8.50875 32.6659C8.50875 37.1752 9.59642 40.9594 11.3979 43.5992C13.2106 46.2391 15.7032 47.746 18.615 47.746C22.0253 47.746 24.2119 46.1824 25.3109 44.2564C24.6991 43.5766 23.8947 42.6135 23.8947 41.0387C23.8947 39.7131 24.3819 38.6254 25.1636 37.8777C25.9567 37.1412 27.0217 36.7447 28.166 36.7447C30.4886 36.7447 32.1994 38.8294 32.1994 41.5372C32.1768 46.6243 26.2513 52.4705 17.8785 52.4818C13.2106 52.4818 8.73535 50.6351 5.42704 47.2361M5.43837 47.2361C2.13005 43.8372 -0.0112851 38.886 4.4741e-05 32.7113C4.4741e-05 26.8084 2.08474 21.8233 5.3364 18.3224C8.59939 14.8214 13.018 12.7934 17.6973 12.7934C26.07 12.8047 31.9955 18.6623 32.0182 23.738C32.0182 26.4459 30.296 28.5419 27.9734 28.5532C26.8291 28.5532 25.7528 28.1567 24.971 27.4202C24.1893 26.6838 23.6907 25.5961 23.7021 24.2705C23.7021 22.6843 24.5178 21.7213 25.1183 21.0302C24.0193 19.1154 21.8326 17.5406 18.4224 17.5406C15.5219 17.5406 13.0747 19.0475 11.3072 21.6987C9.5511 24.3498 8.50875 28.1567 8.50875 32.6659C8.50875 37.1752 9.59642 40.9594 11.3979 43.5992C13.2106 46.2391 15.7032 47.746 18.615 47.746C22.0253 47.746 24.2119 46.1824 25.3109 44.2564C24.6991 43.5766 23.8947 42.6135 23.8947 41.0387C23.8947 39.7131 24.3819 38.6254 25.1636 37.8777C25.9567 37.1412 27.0217 36.7447 28.166 36.7447C30.4886 36.7447 32.1994 38.8294 32.1994 41.5372C32.1768 46.6243 26.2513 52.4705 17.8785 52.4818C13.2106 52.4818 8.73535 50.6351 5.42704 47.2361" fill="#031B3D"/>
</svg>
