<?xml version="1.0" encoding="UTF-8"?>
<svg id="Calque_1" data-name="Calque 1" xmlns="http://www.w3.org/2000/svg" viewBox="0 0 329.48 70.61">
  <defs>
    <style>
      .cls-1 {
        fill: #014e9f;
      }

      .cls-2 {
        fill: #e50011;
      }
    </style>
  </defs>
  <path class="cls-2" d="M260.94,8.48c.15-.15.3-.21.42-.21.22,0,.38.2.38.44,0,.15-.07.3-.21.44-5.57,6.92-9.61,15.01-9.61,26.24s4.05,19.15,9.61,26.07c.14.14.2.31.21.44,0,.24-.15.44-.38.44-.13,0-.27-.06-.42-.21l-23.72-22.94c-1.18-1.01-1.94-2.2-1.94-3.88s.76-2.87,1.94-3.88l23.72-22.95Z"/>
  <path class="cls-1" d="M279.17,6.54c-9.29,0-12.91,13.16-12.91,28.85s3.63,28.68,12.91,28.68c5.58,0,10.33-3.27,10.34-5.95,0-.59-.23-1.15-.72-1.64-2.64-2.55-3.67-5.1-3.68-7.35-.01-4.3,3.71-7.5,7.15-7.5,4.73,0,7.51,3.71,7.51,8.52,0,4.56-1.94,8.35-4.05,11.39-.08.12-.12.26-.12.38,0,.24.14.43.35.43.13,0,.28-.07.44-.23l23.73-22.94c1.18-1.01,1.94-2.2,1.94-3.88s-.76-2.87-1.94-3.88l-23.73-22.95c-.16-.16-.31-.23-.44-.23-.21,0-.35.2-.35.44,0,.12.04.26.12.39,2.11,3.04,4.05,6.84,4.05,11.39,0,4.81-2.79,8.53-7.51,8.53-3.43,0-7.16-3.2-7.15-7.5.01-2.25,1.04-4.8,3.68-7.35.49-.49.72-1.05.72-1.64-.02-2.68-4.77-5.95-10.34-5.95"/>
  <path class="cls-1" d="M39.08,44.79c0-2.39,1.05-4.33,2.83-5.64,1.77-1.31,4.25-2,7.13-2,1.8,0,3.65.33,4.93.88v-2.69c-.04-2.71-1.07-4.24-4.1-4.28-.57,0-1.84.15-2.88.5.1.39.16.79.16,1.17,0,.9-.29,1.74-.84,2.35-.54.61-1.35.99-2.33.99-1.75,0-3.08-1.43-3.08-3.21.04-3.29,4.03-5.5,9.35-5.5,4.23,0,6.88,1,8.3,2.82,1.29,1.64,1.35,4.03,1.35,7.4v8.78c.02,1.7.99,2.17,3.11,2.49l.24.03-.02.25c-.12,2.32-1.83,3.28-3.66,3.42-.16.01-.32.02-.47.02-1.8,0-3.54-.88-4.37-2.68-1.13.95-3.69,2.74-7,2.74-4.92,0-8.65-3.32-8.66-7.86M189.94,51.5c-.44-.61-.68-1.39-.88-2.28-.24.27-.53.57-.97.99-1.61,1.51-3.7,2.41-6.07,2.41-2.58,0-4.78-.99-6.18-2.64-2.15-2.57-2.13-5.82-2.14-10.44v-4.46c-.05-1.8-.61-2.42-2.28-2.46-.22,0-.45.02-.71.04l-.2.02-.07-.19c-.13-.33-.19-.65-.19-.96.05-2.15,2.78-3.31,4.38-3.64.56-.08,1.09-.18,1.6-.18,1.3,0,2.27.42,2.88,1.17.61.75.85,1.79.85,3l-.04,7.6c0,2.81.2,4.91.82,6.26.63,1.34,1.58,1.97,3.33,1.99,1.9,0,3.06-.83,3.79-2.05.74-1.23,1-2.88,1-4.46v-6.16c-.05-1.8-.62-2.42-2.29-2.46-.22,0-.45.02-.71.04l-.2.02-.08-.19c-.13-.33-.19-.65-.19-.96.05-2.15,2.78-3.31,4.39-3.64.56-.08,1.09-.18,1.6-.18,1.31,0,2.27.42,2.88,1.17.61.75.85,1.79.85,2.99,0,.87-.08,2.42-.08,8.9,0,2.74-.05,4.19-.05,4.64.04,1.87.67,2.7,2.4,2.74.18,0,.37-.01.59-.03l.2-.02.07.19c.13.33.19.64.19.94-.07,2.1-2.8,2.95-4.38,3.26-.55.08-1.05.17-1.5.17h-.03c-1.22,0-2.05-.43-2.57-1.15M103.53,40.4c0-3.78,1.24-7.04,3.42-9.36,2.17-2.32,5.28-3.68,8.96-3.68,3.35,0,5.84,1.24,7.46,3.02,1.63,1.78,2.41,4.08,2.41,6.21,0,1.26-.26,2.42-.81,3.41l-.07.14h-14.98c.25,4.36,3.02,7.41,7.86,7.42,2.97,0,5.26-1.63,6.02-2.61l.16-.21.21.16c.43.31.9.88.89,1.96-.02,2.51-2.96,5.73-9.49,5.74-6.63-.01-12.02-5.29-12.03-12.2M156.62,52.57c-3.38,0-6.45-1.27-8.69-3.49-2.23-2.22-3.61-5.39-3.61-9.16.01-7.46,5.89-12.54,12.51-12.56,3.57,0,6.66,1.27,8.85,3.48,2.2,2.21,3.48,5.36,3.48,9.08s-1.35,6.9-3.59,9.13c-2.25,2.23-5.39,3.52-8.95,3.52h0ZM202.53,51.82c-1.04-.28-1.71-.85-1.71-1.71,0-.34.1-.7.28-1.09l.06-.12.13-.02c.39-.08,1.07-.28,1.63-.74.62-.51.86-1.22.86-3.22v-10.06c-.05-1.69-.43-2.29-1.84-2.33-.32,0-.69.04-1.12.12l-.21.04-.08-.2c-.15-.38-.22-.74-.22-1.08.04-2.01,2.24-3.05,3.72-3.51.6-.18,1.13-.27,1.67-.27,2.01,0,3.1,1.44,3.56,3.3,1.32-2.16,3.42-3.59,5.49-3.6,1.94,0,3.89,1.27,3.9,3.68,0,1.71-1.21,3.51-3.23,3.52-1.5,0-2.81-.99-3.1-2.44-1.14.38-2.75,1.81-2.77,6.77v6.07c0,1.99.29,2.71.85,3.21.59.44,1.78.66,2.19.74l.13.02.06.12c.2.43.31.82.31,1.18,0,.81-.6,1.37-1.58,1.64-.99.29-2.43.4-4.39.4s-3.53-.12-4.58-.42M129.97,51.82c-1.05-.29-1.72-.86-1.72-1.72,0-.33.1-.69.28-1.08l.06-.12.13-.02c.41-.08,1.06-.28,1.65-.73.6-.51.85-1.23.86-3.22v-13.22l-3.55-.12-.06-.16c-.18-.44-.27-.85-.27-1.25,0-1.29,1-2.15,2.24-2.15h1.55v-1.46c0-3.54.66-5.55,1.56-6.9,1.38-2.15,3.79-3.63,7.45-3.62,4.6,0,8.46,2.14,8.49,5.58,0,1.49-1.04,3.34-3.21,3.34-1.62,0-3.11-1.36-3.12-3.08,0-.63.21-1.27.53-1.75-.48-.42-1.41-.68-2.29-.67-1.43.01-2.21.5-2.71,1.32-.5.82-.66,2.03-.66,3.39v3.8h6.1l.07.16c.18.44.27.87.27,1.27,0,1.32-.94,2.31-2.13,2.42-.45.05-.94.05-1.37.05-1.01,0-2.02-.07-2.76-.09v13.12c0,1.98.33,2.7.93,3.21.54.43,2.05.66,2.49.74l.13.02.06.12c.16.36.25.68.25,1,0,.91-.74,1.48-1.85,1.78-1.13.32-2.74.44-4.79.44s-3.53-.12-4.6-.42M87.41,51.82c-1.04-.28-1.7-.86-1.7-1.71,0-.34.1-.7.28-1.09l.06-.12.13-.02c.4-.08,1.06-.28,1.65-.73.6-.51.85-1.23.86-3.22v-10.06c-.05-1.69-.45-2.29-1.85-2.33-.32,0-.69.04-1.12.12l-.22.04-.08-.2c-.15-.38-.23-.75-.23-1.1.04-2,2.24-3.03,3.72-3.49.59-.18,1.13-.27,1.64-.27,2.03,0,3.12,1.42,3.59,3.25,1.32-2.14,3.43-3.55,5.5-3.56,1.92,0,3.89,1.27,3.9,3.68,0,1.71-1.21,3.51-3.25,3.52-1.49,0-2.79-.99-3.08-2.44-1.15.38-2.79,1.81-2.8,6.77v6.07c0,1.99.3,2.7.9,3.21.56.44,1.75.66,2.18.74l.13.02.06.12c.19.42.3.81.3,1.17.01.81-.6,1.38-1.59,1.65-.99.29-2.44.41-4.4.41s-3.52-.12-4.58-.42M67.3,51.82c-1.04-.28-1.7-.86-1.7-1.71,0-.34.1-.7.28-1.09l.06-.12.13-.02c.4-.08,1.06-.28,1.65-.73.61-.51.85-1.23.86-3.22v-10.06c-.05-1.69-.45-2.29-1.85-2.33-.32,0-.69.04-1.12.12l-.22.04-.08-.2c-.15-.38-.23-.75-.23-1.1.04-2,2.24-3.03,3.73-3.49.58-.18,1.13-.27,1.63-.27,2.03,0,3.12,1.42,3.59,3.25,1.32-2.13,3.43-3.54,5.49-3.55,1.92,0,3.9,1.27,3.9,3.68,0,1.71-1.22,3.51-3.25,3.52-1.49,0-2.8-.99-3.08-2.44-1.15.38-2.78,1.81-2.8,6.77v6.07c0,1.99.29,2.7.89,3.21.56.44,1.75.66,2.18.74l.13.02.06.12c.19.42.3.81.3,1.17,0,.81-.61,1.38-1.59,1.65-.99.29-2.44.41-4.41.41s-3.52-.12-4.58-.42M151.18,39.24c.01,6.61,2.89,9.45,5.71,9.46,3.22,0,5.55-2.85,5.57-8.41,0-2.9-.64-5.23-1.69-6.8-1.05-1.58-2.49-2.41-4.14-2.41-3.35,0-5.43,3.03-5.45,8.17M50.07,40.63c-2.65.03-4.44,1.27-4.45,3.74.02,2.33,1.59,3.9,4.06,3.91,1.6,0,3.24-.88,4.28-2.16v-3.41c0-.47-.31-.97-.96-1.38-.65-.41-1.65-.69-2.92-.69M118.81,36.63c.48-.01.61-.12.7-.27.1-.16.12-.48.12-.88-.05-2.29-1.83-4.42-4.58-4.42-3.46,0-4.86,2.77-5.08,5.57h8.85ZM12.22,48.23c-2.92-3-4.81-7.37-4.8-12.82,0-5.21,1.84-9.61,4.71-12.7,2.88-3.09,6.78-4.88,10.91-4.88,7.39.01,12.62,5.18,12.64,9.66,0,2.39-1.52,4.24-3.57,4.25-1.01,0-1.96-.35-2.65-1-.69-.65-1.13-1.61-1.12-2.78,0-1.4.72-2.25,1.25-2.86-.97-1.69-2.9-3.08-5.91-3.08-2.56,0-4.72,1.33-6.28,3.67-1.55,2.34-2.47,5.7-2.47,9.68s.96,7.32,2.55,9.65c1.6,2.33,3.8,3.66,6.37,3.66,3.01,0,4.94-1.38,5.91-3.08-.54-.6-1.25-1.45-1.25-2.84,0-1.17.43-2.13,1.12-2.79.7-.65,1.64-1,2.65-1,2.05,0,3.56,1.84,3.56,4.23-.02,4.49-5.25,9.65-12.64,9.66-4.12,0-8.07-1.63-10.99-4.63M12.22,48.23c-2.92-3-4.81-7.37-4.8-12.82,0-5.21,1.84-9.61,4.71-12.7,2.88-3.09,6.78-4.88,10.91-4.88,7.39.01,12.62,5.18,12.64,9.66,0,2.39-1.52,4.24-3.57,4.25-1.01,0-1.96-.35-2.65-1-.69-.65-1.13-1.61-1.12-2.78,0-1.4.72-2.25,1.25-2.86-.97-1.69-2.9-3.08-5.91-3.08-2.56,0-4.72,1.33-6.28,3.67-1.55,2.34-2.47,5.7-2.47,9.68s.96,7.32,2.55,9.65c1.6,2.33,3.8,3.66,6.37,3.66,3.01,0,4.94-1.38,5.91-3.08-.54-.6-1.25-1.45-1.25-2.84,0-1.17.43-2.13,1.12-2.79.7-.65,1.64-1,2.65-1,2.05,0,3.56,1.84,3.56,4.23-.02,4.49-5.25,9.65-12.64,9.66-4.12,0-8.07-1.63-10.99-4.63M12.22,48.23c-2.92-3-4.81-7.37-4.8-12.82,0-5.21,1.84-9.61,4.71-12.7,2.88-3.09,6.78-4.88,10.91-4.88,7.39.01,12.62,5.18,12.64,9.66,0,2.39-1.52,4.24-3.57,4.25-1.01,0-1.96-.35-2.65-1-.69-.65-1.13-1.61-1.12-2.78,0-1.4.72-2.25,1.25-2.86-.97-1.69-2.9-3.08-5.91-3.08-2.56,0-4.72,1.33-6.28,3.67-1.55,2.34-2.47,5.7-2.47,9.68s.96,7.32,2.55,9.65c1.6,2.33,3.8,3.66,6.37,3.66,3.01,0,4.94-1.38,5.91-3.08-.54-.6-1.25-1.45-1.25-2.84,0-1.17.43-2.13,1.12-2.79.7-.65,1.64-1,2.65-1,2.05,0,3.56,1.84,3.56,4.23-.02,4.49-5.25,9.65-12.64,9.66-4.12,0-8.07-1.63-10.99-4.63"/>
</svg>