<svg width="17" height="19" viewBox="0 0 17 19" fill="none" xmlns="http://www.w3.org/2000/svg">
<path d="M13.4107 18.224C14.1575 18.224 14.7831 17.9717 15.2876 17.4672C15.772 16.9425 16.0142 16.337 16.0142 15.6508C16.0142 15.1463 15.8628 14.672 15.5601 14.228C15.2574 13.7639 14.8033 13.3804 14.1978 13.0777L6.29671 9.112L14.1978 5.14631C14.8033 4.84359 15.2674 4.46014 15.5903 3.99596C15.8931 3.5116 16.0444 3.01715 16.0444 2.51261C16.0444 1.82644 15.8023 1.24117 15.3179 0.756812C14.8134 0.252271 14.1776 0 13.4107 0C12.8053 0 12.0687 0.191726 11.2008 0.575178C10.3129 0.958628 9.2735 1.47326 8.08279 2.11907L7.47734 2.45207L6.62971 2.90615C4.85373 3.83451 3.54192 4.57114 2.69429 5.11604C1.84667 5.64076 1.19076 6.22603 0.726587 6.87184C0.242227 7.49747 4.74696e-05 8.24419 4.74696e-05 9.112C4.74696e-05 9.97981 0.242227 10.7366 0.726587 11.3824C1.19076 12.0081 1.84667 12.5933 2.69429 13.1382C3.54192 13.663 4.85373 14.3895 6.62971 15.3178L7.47734 15.7719L8.08279 16.1049C9.2735 16.7507 10.3129 17.2654 11.2008 17.6488C12.0687 18.0323 12.8053 18.224 13.4107 18.224Z"/>
</svg>
