<svg width="17" height="19" viewBox="0 0 17 19" fill="none" xmlns="http://www.w3.org/2000/svg">
<path d="M2.6337 18.224C1.88698 18.224 1.26135 17.9717 0.756811 17.4672C0.272452 16.9425 0.0302724 16.337 0.0302724 15.6508C0.0302724 15.1463 0.181634 14.672 0.484359 14.228C0.787083 13.7639 1.24117 13.3804 1.84662 13.0777L9.74772 9.112L1.84662 5.14631C1.24117 4.84359 0.776992 4.46014 0.454086 3.99596C0.151362 3.5116 0 3.01715 0 2.51261C0 1.82644 0.242179 1.24117 0.726538 0.756812C1.23108 0.252271 1.8668 0 2.6337 0C3.23915 0 3.97578 0.191726 4.84359 0.575178C5.73158 0.958628 6.77093 1.47326 7.96165 2.11907L8.5671 2.45207L9.41472 2.90615C11.1907 3.83451 12.5025 4.57114 13.3501 5.11604C14.1978 5.64076 14.8537 6.22603 15.3178 6.87184C15.8022 7.49747 16.0444 8.24419 16.0444 9.112C16.0444 9.97981 15.8022 10.7366 15.3178 11.3824C14.8537 12.0081 14.1978 12.5933 13.3501 13.1382C12.5025 13.663 11.1907 14.3895 9.41472 15.3178L8.5671 15.7719L7.96165 16.1049C6.77093 16.7507 5.73158 17.2654 4.84359 17.6488C3.97578 18.0323 3.23915 18.224 2.6337 18.224Z"/>
</svg>
