<svg width="31" height="31" viewBox="0 0 31 31" fill="none" xmlns="http://www.w3.org/2000/svg">
<path d="M28.0018 0.87684C28.5876 0.291053 29.5371 0.291053 30.1229 0.87684C30.7087 1.46263 30.7087 2.41215 30.1229 2.99793L17.621 15.4999L30.1229 28.0018C30.7087 28.5876 30.7087 29.5371 30.1229 30.1229C29.5371 30.7087 28.5876 30.7087 28.0018 30.1229L15.4999 17.621L2.99793 30.1229C2.41215 30.7087 1.46263 30.7087 0.87684 30.1229C0.291053 29.5371 0.291053 28.5876 0.87684 28.0018L13.3788 15.4999L0.87684 2.99793C0.291053 2.41215 0.291053 1.46263 0.87684 0.87684C1.46263 0.291053 2.41215 0.291053 2.99793 0.87684L15.4999 13.3788L28.0018 0.87684Z"/>
</svg>
