<svg width="107" height="115" viewBox="0 0 107 115" fill="none" xmlns="http://www.w3.org/2000/svg">
<g filter="url(#filter0_d_874_1329)">
<path d="M41.2767 0.423957C41.194 -0.141319 40.1128 -0.141319 40.0332 0.423957C37.3287 19.1096 23.5 41.8918 23.5 54.88C23.5 62.9069 31.3531 69.4116 40.655 69.4116C49.9568 69.4116 57.8069 62.9043 57.8069 54.88C57.8069 41.8918 43.9812 19.1096 41.2767 0.423957ZM38.6641 40.0119C38.4804 40.5869 38.2874 41.1811 38.0853 41.7945C36.8571 45.5385 35.4634 49.7846 35.4634 54.6933C35.4634 57.3541 33.6319 58.298 31.9228 58.298C31.4557 58.2966 30.9935 58.2162 30.5627 58.0613C30.1318 57.9064 29.7408 57.6801 29.4119 57.3954C29.0831 57.1107 28.8229 56.7731 28.6462 56.4019C28.4695 56.0307 28.3797 55.6333 28.3821 55.2323C28.3821 49.4297 31.6349 45.6384 34.5078 42.2967C35.4114 41.2503 36.2598 40.2591 36.9489 39.2731C37.2644 38.8209 38.1128 38.842 38.4987 39.2889C38.6794 39.4993 38.7407 39.7674 38.6641 40.0119Z" fill="white"/>
</g>
<g filter="url(#filter1_f_874_1329)">
<path d="M53.5 8.53125L54.5097 60.5313L53.5 112.531L52.4903 60.5313L53.5 8.53125Z" fill="white"/>
<path d="M1.5 60.5313L53.5 59.5215L105.5 60.5313L53.5 61.541L1.5 60.5313Z" fill="white"/>
<path d="M16.7304 97.3027L52.7859 59.8192L90.2695 23.7636L54.2139 61.2471L16.7304 97.3027Z" fill="white"/>
<path d="M90.2696 97.3027L54.2141 59.8192L16.7305 23.7636L52.7861 61.2471L90.2696 97.3027Z" fill="white"/>
</g>
<g filter="url(#filter2_f_874_1329)">
<path d="M65.5111 27.5312L54.1408 61.268L41.489 94.5312L52.8593 60.7945L65.5111 27.5312Z" fill="url(#paint0_radial_874_1329)"/>
<path d="M20.5 48.8387L53.7332 60.3812L86.5 73.2247L53.2668 61.6822L20.5 48.8387Z" fill="url(#paint1_radial_874_1329)"/>
<path d="M21.672 76.0995L53.2114 60.4058L85.3272 45.9668L53.7878 61.6605L21.672 76.0995Z" fill="url(#paint2_radial_874_1329)"/>
<path d="M68.3412 93.3426L54.1177 60.7402L38.6583 28.723L52.8817 61.3253L68.3412 93.3426Z" fill="url(#paint3_radial_874_1329)"/>
</g>
<g filter="url(#filter3_f_874_1329)">
<path d="M62.5 69.5312H44.5V51.5312H62.5V69.5312Z" fill="url(#paint4_radial_874_1329)"/>
</g>
<g filter="url(#filter4_f_874_1329)">
<circle cx="53.5" cy="60.5312" r="8" fill="white"/>
</g>
<g opacity="0.4" filter="url(#filter5_f_874_1329)">
<circle cx="53.5" cy="60.5312" r="13" fill="url(#paint5_radial_874_1329)"/>
</g>
<g opacity="0.3" filter="url(#filter6_f_874_1329)">
<circle cx="53.5" cy="60.5312" r="20" fill="url(#paint6_radial_874_1329)"/>
</g>
<g opacity="0.25" filter="url(#filter7_f_874_1329)">
<circle cx="53.5" cy="60.5312" r="25" fill="url(#paint7_radial_874_1329)"/>
</g>
<defs>
<filter id="filter0_d_874_1329" x="17.1173" y="0" width="47.072" height="82.1755" filterUnits="userSpaceOnUse" color-interpolation-filters="sRGB">
<feFlood flood-opacity="0" result="BackgroundImageFix"/>
<feColorMatrix in="SourceAlpha" type="matrix" values="0 0 0 0 0 0 0 0 0 0 0 0 0 0 0 0 0 0 127 0" result="hardAlpha"/>
<feOffset dy="6.38267"/>
<feGaussianBlur stdDeviation="3.19134"/>
<feComposite in2="hardAlpha" operator="out"/>
<feColorMatrix type="matrix" values="0 0 0 0 0 0 0 0 0 0 0 0 0 0 0 0 0 0 0.15 0"/>
<feBlend mode="normal" in2="BackgroundImageFix" result="effect1_dropShadow_874_1329"/>
<feBlend mode="normal" in="SourceGraphic" in2="effect1_dropShadow_874_1329" result="shape"/>
</filter>
<filter id="filter1_f_874_1329" x="0" y="7.03125" width="107" height="107" filterUnits="userSpaceOnUse" color-interpolation-filters="sRGB">
<feFlood flood-opacity="0" result="BackgroundImageFix"/>
<feBlend mode="normal" in="SourceGraphic" in2="BackgroundImageFix" result="shape"/>
<feGaussianBlur stdDeviation="0.75" result="effect1_foregroundBlur_874_1329"/>
</filter>
<filter id="filter2_f_874_1329" x="19.5" y="26.5312" width="68" height="69" filterUnits="userSpaceOnUse" color-interpolation-filters="sRGB">
<feFlood flood-opacity="0" result="BackgroundImageFix"/>
<feBlend mode="normal" in="SourceGraphic" in2="BackgroundImageFix" result="shape"/>
<feGaussianBlur stdDeviation="0.5" result="effect1_foregroundBlur_874_1329"/>
</filter>
<filter id="filter3_f_874_1329" x="38.5" y="45.5312" width="30" height="30" filterUnits="userSpaceOnUse" color-interpolation-filters="sRGB">
<feFlood flood-opacity="0" result="BackgroundImageFix"/>
<feBlend mode="normal" in="SourceGraphic" in2="BackgroundImageFix" result="shape"/>
<feGaussianBlur stdDeviation="3" result="effect1_foregroundBlur_874_1329"/>
</filter>
<filter id="filter4_f_874_1329" x="38.5" y="45.5312" width="30" height="30" filterUnits="userSpaceOnUse" color-interpolation-filters="sRGB">
<feFlood flood-opacity="0" result="BackgroundImageFix"/>
<feBlend mode="normal" in="SourceGraphic" in2="BackgroundImageFix" result="shape"/>
<feGaussianBlur stdDeviation="3.5" result="effect1_foregroundBlur_874_1329"/>
</filter>
<filter id="filter5_f_874_1329" x="37.5" y="44.5312" width="32" height="32" filterUnits="userSpaceOnUse" color-interpolation-filters="sRGB">
<feFlood flood-opacity="0" result="BackgroundImageFix"/>
<feBlend mode="normal" in="SourceGraphic" in2="BackgroundImageFix" result="shape"/>
<feGaussianBlur stdDeviation="1.5" result="effect1_foregroundBlur_874_1329"/>
</filter>
<filter id="filter6_f_874_1329" x="30.5" y="37.5312" width="46" height="46" filterUnits="userSpaceOnUse" color-interpolation-filters="sRGB">
<feFlood flood-opacity="0" result="BackgroundImageFix"/>
<feBlend mode="normal" in="SourceGraphic" in2="BackgroundImageFix" result="shape"/>
<feGaussianBlur stdDeviation="1.5" result="effect1_foregroundBlur_874_1329"/>
</filter>
<filter id="filter7_f_874_1329" x="25.5" y="32.5312" width="56" height="56" filterUnits="userSpaceOnUse" color-interpolation-filters="sRGB">
<feFlood flood-opacity="0" result="BackgroundImageFix"/>
<feBlend mode="normal" in="SourceGraphic" in2="BackgroundImageFix" result="shape"/>
<feGaussianBlur stdDeviation="1.5" result="effect1_foregroundBlur_874_1329"/>
</filter>
<radialGradient id="paint0_radial_874_1329" cx="0" cy="0" r="1" gradientUnits="userSpaceOnUse" gradientTransform="translate(53.9925 61.5312) rotate(90) scale(55.5 54.6716)">
<stop stop-color="white"/>
<stop offset="1" stop-color="white" stop-opacity="0.5"/>
</radialGradient>
<radialGradient id="paint1_radial_874_1329" cx="0" cy="0" r="1" gradientUnits="userSpaceOnUse" gradientTransform="translate(53.9925 61.5312) rotate(90) scale(55.5 54.6716)">
<stop stop-color="white"/>
<stop offset="1" stop-color="white" stop-opacity="0.5"/>
</radialGradient>
<radialGradient id="paint2_radial_874_1329" cx="0" cy="0" r="1" gradientUnits="userSpaceOnUse" gradientTransform="translate(53.9925 61.5312) rotate(90) scale(55.5 54.6716)">
<stop stop-color="white"/>
<stop offset="1" stop-color="white" stop-opacity="0.5"/>
</radialGradient>
<radialGradient id="paint3_radial_874_1329" cx="0" cy="0" r="1" gradientUnits="userSpaceOnUse" gradientTransform="translate(53.9925 61.5312) rotate(90) scale(55.5 54.6716)">
<stop stop-color="white"/>
<stop offset="1" stop-color="white" stop-opacity="0.5"/>
</radialGradient>
<radialGradient id="paint4_radial_874_1329" cx="0" cy="0" r="1" gradientUnits="userSpaceOnUse" gradientTransform="translate(53.4992 60.5338) rotate(-90) scale(9)">
<stop stop-color="white" stop-opacity="0.5"/>
<stop offset="1" stop-color="white" stop-opacity="0.5"/>
</radialGradient>
<radialGradient id="paint5_radial_874_1329" cx="0" cy="0" r="1" gradientUnits="userSpaceOnUse" gradientTransform="translate(53.5 60.5312) rotate(90) scale(13)">
<stop stop-color="white"/>
<stop offset="1" stop-color="white" stop-opacity="0.5"/>
</radialGradient>
<radialGradient id="paint6_radial_874_1329" cx="0" cy="0" r="1" gradientUnits="userSpaceOnUse" gradientTransform="translate(53.5 60.5312) rotate(90) scale(20)">
<stop stop-color="white"/>
<stop offset="1" stop-color="white" stop-opacity="0.5"/>
</radialGradient>
<radialGradient id="paint7_radial_874_1329" cx="0" cy="0" r="1" gradientUnits="userSpaceOnUse" gradientTransform="translate(53.5 60.5312) rotate(90) scale(25)">
<stop stop-color="white"/>
<stop offset="1" stop-color="white" stop-opacity="0.5"/>
</radialGradient>
</defs>
</svg>
