<svg width="85" height="85" viewBox="0 0 85 85" fill="none" xmlns="http://www.w3.org/2000/svg">
<path d="M42.2656 0C19.0195 0 0 18.9773 0 42.3502C0 63.483 15.4692 81.0232 35.6722 84.1931V54.6072H24.9367V42.3502H35.6722V33.0095C35.6722 22.4008 41.9698 16.5681 51.6486 16.5681C56.2555 16.5681 61.0738 17.3712 61.0738 17.3712V27.8108H55.7484C50.5074 27.8108 48.8591 31.0652 48.8591 34.4042V42.3502H60.6089L58.707 54.6072H48.8591V84.1931C58.8187 82.6202 67.8879 77.5385 74.4295 69.8653C80.971 62.1922 84.5539 52.4332 84.5312 42.3502C84.5312 18.9773 65.5117 0 42.2656 0Z" fill="#4064AC"/>
</svg>
