<svg width="60" height="60" viewBox="0 0 60 60" fill="none" xmlns="http://www.w3.org/2000/svg">
<path d="M29.7266 0C13.377 0 0 13.3472 0 29.786C0 44.6493 10.8799 56.9858 25.0892 59.2153V38.4067H17.5387V29.786H25.0892V23.2164C25.0892 15.7551 29.5185 11.6528 36.3259 11.6528C39.5661 11.6528 42.9549 12.2176 42.9549 12.2176V19.5601H39.2093C35.5232 19.5601 34.3639 21.849 34.3639 24.1974V29.786H42.6279L41.2902 38.4067H34.3639V59.2153C41.3688 58.109 47.7474 54.5349 52.3483 49.1382C56.9491 43.7415 59.469 36.8777 59.4531 29.786C59.4531 13.3472 46.0762 0 29.7266 0Z" fill="white"/>
</svg>
