<svg width="152" height="152" viewBox="0 0 152 152" fill="none" xmlns="http://www.w3.org/2000/svg">
<path fill-rule="evenodd" clip-rule="evenodd" d="M71.7178 0.05349C60.2556 0.917026 51.1997 3.32356 41.9263 7.97056C31.5541 13.1682 22.6018 20.5414 15.6809 29.5873C1.56115 48.042 -3.32373 71.527 2.25394 94.1382C7.00947 113.416 19.5969 130.452 36.6602 140.703C48.5886 147.87 61.6426 151.469 75.7277 151.477C82.6522 151.481 87.7005 150.874 94.2514 149.252C113.629 144.453 130.522 131.901 140.834 114.641C155.787 89.6126 155.044 58.1146 138.93 33.9478C126.42 15.1867 107.119 3.29409 84.651 0.503267C81.8249 0.152192 74.0138 -0.119358 71.7178 0.05349ZM71.466 4.13704C56.9524 4.96456 42.6631 10.4267 31.1373 19.5525C28.2403 21.8463 22.0727 27.9701 19.8194 30.7902C14.3804 37.5972 9.68779 46.4431 7.14794 54.6759C2.91796 68.3868 3.00427 84.0995 7.38323 97.6155C14.5989 119.886 31.7692 137.016 54.0589 144.183C60.6102 146.29 66.5385 147.252 74.0568 147.427C80.258 147.572 84.5385 147.218 90.0893 146.103C109.442 142.213 126.454 130.291 136.986 113.238C138.872 110.185 141.856 104.1 143.046 100.882C147.276 89.4367 148.541 76.8673 146.687 64.7039C144.357 49.4184 136.707 34.7362 125.513 24.0634C114.58 13.6388 101.302 7.06586 86.6651 4.83311C83.8764 4.40766 76.6759 3.84538 75.1093 3.93098C74.7877 3.94829 73.1481 4.04115 71.466 4.13704ZM72.6626 27.5257C69.4566 28.03 67.1934 28.9958 63.446 31.458C59.0661 34.3358 56.8146 35.0613 52.1877 35.0866C48.5331 35.1065 46.6274 34.6602 43.6911 33.0973C37.0445 29.5597 34.8566 28.8266 31.3618 28.9663L29.617 29.036L31.8305 29.5667C34.7208 30.2595 36.7367 31.2832 40.0252 33.7277C45.0083 37.4316 48.1025 38.5534 53.3572 38.5606C58.2584 38.5674 60.7255 37.7656 65.7559 34.5311C70.4513 31.5118 72.2446 30.9359 76.9805 30.9265C81.427 30.9174 82.7761 31.3317 88.3243 34.4074C91.4735 36.1531 93.7813 36.867 96.8399 37.0412C98.5048 37.1362 99.2263 37.1027 99.1232 36.9357C99.0402 36.8015 98.4933 36.6198 97.9079 36.5318C95.2151 36.1281 92.5753 34.8267 88.9091 32.0951C85.7756 29.7606 83.6404 28.64 81.0755 27.9839C78.9318 27.4357 74.7002 27.2053 72.6626 27.5257ZM73.389 38.8792C70.4506 39.5904 67.5281 41.6847 65.7465 44.356C64.7511 45.8485 63.8824 48.7348 63.8824 50.5493C63.8824 51.8818 63.9481 52.0923 64.4987 52.5252C65.8539 53.5913 67.6221 52.7147 67.6275 50.9741C67.6371 47.8993 69.5691 44.8004 72.3522 43.3954C76.7302 41.1854 82.1493 42.9936 84.1888 47.3452C84.7443 48.5301 84.8159 48.9637 84.8159 51.139C84.8159 53.4884 84.7815 53.6585 84.0209 55.0609C83.0388 56.8719 81.8298 57.9881 79.816 58.9421L78.2669 59.6761L47.8983 59.793L17.53 59.91L17.0828 60.4622C16.4604 61.231 16.513 62.2644 17.2101 62.9611L17.784 63.5353H47.9177C74.0189 63.5353 78.233 63.4881 79.4057 63.1826C85.9112 61.4883 90.007 54.9276 88.5758 48.4943C88.0114 45.9577 86.9872 44.0702 85.1864 42.2477C82.0974 39.1217 77.6422 37.8496 73.389 38.8792ZM106.037 42.6135C104.35 43.068 103.792 43.3856 101.539 45.1747C99.4013 46.873 98.7569 47.2542 96.9903 47.8658L95.8089 48.2752L96.7445 48.4578C98.2183 48.7458 100.379 48.245 102.999 47.0086L105.399 45.8763H108.205C111.314 45.8763 111.619 45.9779 114.912 48.1061C117.138 49.5454 119.101 50.0556 121.854 49.9117C124.65 49.7658 126.304 49.1733 128.279 47.6102C130.857 45.5699 131.799 44.9672 133.229 44.444C134.31 44.0482 134.536 43.8901 134.207 43.7596C133.335 43.4139 130.604 43.844 128.86 44.6016C124.258 46.6017 124.561 46.5198 122.14 46.4183C119.645 46.3137 118.541 45.9182 115.824 44.1551C113.749 42.8091 111.806 42.2472 109.292 42.2664C108.18 42.2748 106.715 42.4311 106.037 42.6135ZM105.84 53.4681C102.922 53.919 100.451 55.2534 98.3118 57.5329C96.8317 59.1101 95.8049 61.1957 95.3075 63.6364C94.6806 66.7097 95.281 67.9185 97.3617 67.7723C98.3034 67.7061 98.7705 66.9586 98.9623 65.21C99.6892 58.588 106.784 55.0775 112.272 58.6245C117.912 62.2702 117.432 70.6799 111.414 73.6426L109.853 74.4114L70.7086 74.5283L31.5646 74.6453L31 75.3016C30.2838 76.1343 30.2838 76.8986 31 77.7313L31.5646 78.3876H70.5865H109.609L111.256 77.8695C115.422 76.5585 118.755 73.0083 119.771 68.7979C120.133 67.2994 120.133 64.4515 119.772 62.9506C118.726 58.6079 114.9 54.7472 110.661 53.759C109.029 53.3785 107.152 53.2653 105.84 53.4681ZM102.39 84.8431C100.548 85.112 98.7403 85.9756 96.8816 87.4744C94.7 89.2333 93.6552 89.872 92.1836 90.3464L90.8972 90.761L91.8327 90.9596C93.2394 91.2578 95.1952 90.8184 97.8244 89.6133C100.559 88.3597 102.237 87.9936 104.202 88.2217C106.148 88.4474 107.168 88.8448 109.28 90.1992C111.71 91.7581 113.232 92.3258 115.386 92.4769C118.842 92.7197 121.289 91.887 124.227 89.4688C125.824 88.1543 128.373 86.6915 129.067 86.6911C129.22 86.6908 129.419 86.572 129.508 86.4268C129.626 86.2354 129.099 86.1901 127.592 86.2621C125.72 86.3517 125.281 86.4691 123.175 87.4442C120.359 88.7472 119.381 89.0267 117.631 89.0284C115.59 89.0305 114.111 88.6202 112.49 87.6021C110.042 86.0652 107.824 85.0847 106.217 84.8302C104.515 84.5605 104.321 84.5612 102.39 84.8431ZM17.6884 89.066C16.5465 89.6905 16.2684 91.1201 17.1128 92.0262C17.3749 92.3078 17.6119 92.563 17.639 92.5931C17.6661 92.6235 31.4238 92.7024 48.2115 92.7686L78.7347 92.889L80.0627 93.5413C81.8361 94.4121 83.7966 96.5387 84.4674 98.3189C85.1555 100.145 85.0486 103.323 84.2426 105C83.4128 106.726 81.8293 108.33 80.1249 109.168C74.7103 111.834 68.3152 108.203 67.7122 102.12C67.4986 99.9664 66.5542 99.0664 65.0556 99.5887C64.1306 99.9112 63.8824 100.41 63.8824 101.946C63.8824 108.329 69.643 113.859 76.2788 113.846C81.3536 113.836 85.4582 111.267 87.6378 106.735C91.114 99.5089 86.786 90.8081 78.8823 89.1327C77.5963 88.8602 72.2771 88.8045 47.7437 88.8071C26.7716 88.8092 18.02 88.8845 17.6884 89.066ZM49.4652 113.216C46.069 113.865 44.0466 114.832 40.403 117.55C36.5664 120.411 34.5713 121.398 31.1373 122.133C29.9292 122.391 29.892 122.42 30.5266 122.593C31.38 122.826 35.1123 122.377 36.7711 121.841C37.4639 121.617 38.8742 120.984 39.905 120.434C46.9333 116.682 48.2429 116.282 52.8894 116.468C57.158 116.639 59.1767 117.296 62.8739 119.717C68.6335 123.488 71.0545 124.253 76.5948 124.05C81.9074 123.856 83.9732 123.081 88.9091 119.429C92.2975 116.922 94.2701 115.91 97.3442 115.104L99.5512 114.526L96.7445 114.617C93.2557 114.731 91.7591 115.209 87.5048 117.565C82.9948 120.064 81.7779 120.438 77.7991 120.552C72.5435 120.702 70.5643 120.107 65.5087 116.856C62.593 114.981 60.6998 114.054 58.6114 113.479C56.6927 112.95 51.6219 112.805 49.4652 113.216Z"/>
</svg>
