<svg width="1986" height="1015" viewBox="0 0 1986 1015" fill="none" xmlns="http://www.w3.org/2000/svg">
<path opacity="0.5" d="M142.693 418.895C126.657 418.895 115.706 409.704 109.84 391.322C104.169 372.939 101.333 349.473 101.333 320.922C101.333 302.344 104.657 284.939 111.306 268.708C118.151 252.282 128.515 239.082 142.4 229.108C156.284 218.939 173.2 213.855 193.146 213.855C209.182 213.855 223.751 217.277 236.853 224.122C249.955 230.77 260.32 240.353 267.946 252.868C275.769 265.384 279.68 279.855 279.68 296.282C279.68 315.25 275.866 331.188 268.24 344.095C260.613 357.002 250.737 366.584 238.613 372.842C226.489 379.099 213.68 382.228 200.186 382.228C189.235 382.228 179.164 380.37 169.973 376.655C171.146 382.913 171.733 387.704 171.733 391.028C171.733 409.606 162.053 418.895 142.693 418.895ZM196.08 336.762C203.12 336.762 209.182 334.219 214.266 329.135C219.546 323.855 222.186 317.793 222.186 310.948C222.186 303.908 219.546 297.846 214.266 292.762C209.182 287.482 203.12 284.842 196.08 284.842C189.235 284.842 183.173 287.482 177.893 292.762C172.613 297.846 169.973 303.908 169.973 310.948C169.973 317.793 172.613 323.855 177.893 329.135C183.173 334.219 189.235 336.762 196.08 336.762ZM392.223 418.602C370.321 418.602 351.548 413.713 335.903 403.935C320.259 393.962 308.428 380.762 300.41 364.335C292.588 347.713 288.677 329.624 288.677 310.068C288.677 283.082 291.806 260.202 298.063 241.428C304.321 222.655 316.543 213.268 334.73 213.268C349.006 213.268 359.272 217.473 365.53 225.882C371.788 234.29 374.917 244.655 374.917 256.975C374.917 265.188 374.135 274.77 372.57 285.722C371.006 296.282 370.223 305.179 370.223 312.415C370.223 321.997 371.886 330.21 375.21 337.055C378.535 343.899 384.206 347.322 392.223 347.322C400.437 347.322 406.108 343.899 409.237 337.055C412.561 330.21 414.223 321.997 414.223 312.415C414.223 305.179 413.441 296.282 411.877 285.722C410.312 274.77 409.53 265.188 409.53 256.975C409.53 244.655 412.659 234.29 418.917 225.882C425.175 217.473 435.441 213.268 449.717 213.268C467.903 213.268 480.126 222.655 486.383 241.428C492.641 260.202 495.77 283.082 495.77 310.068C495.77 329.624 491.761 347.713 483.743 364.335C475.921 380.762 464.188 393.962 448.543 403.935C432.899 413.713 414.126 418.602 392.223 418.602ZM683.013 296.282C683.013 310.557 680.862 323.17 676.56 334.122C672.453 345.073 666.586 354.264 658.96 361.695C665.413 371.668 668.64 381.348 668.64 390.735C668.64 398.753 665.511 405.402 659.253 410.682C653.191 415.962 646.249 418.602 638.426 418.602C633.929 418.602 629.822 417.917 626.106 416.548C622.391 415.179 618.382 412.833 614.08 409.508C610.364 406.575 606.844 402.566 603.52 397.482C600.195 392.397 597.555 387.117 595.6 381.642C589.146 380.859 582.693 379.197 576.24 376.655C577.413 382.913 578 387.704 578 391.028C578 409.606 568.32 418.895 548.96 418.895C532.729 418.895 521.289 409.41 514.64 390.442C507.991 371.473 504.666 348.299 504.666 320.922C504.666 302.344 507.991 284.939 514.64 268.708C521.484 252.282 531.849 239.082 545.733 229.108C559.617 218.939 576.533 213.855 596.48 213.855C612.515 213.855 627.084 217.277 640.186 224.122C653.289 230.77 663.653 240.353 671.28 252.868C679.102 265.384 683.013 279.855 683.013 296.282ZM573.306 310.068C573.306 316.717 575.946 322.584 581.226 327.668C586.506 332.557 592.569 335.002 599.413 335.002C606.453 335.002 612.515 332.557 617.6 327.668C622.88 322.584 625.52 316.717 625.52 310.068C625.52 303.224 622.88 297.357 617.6 292.468C612.515 287.384 606.453 284.842 599.413 284.842C592.569 284.842 586.506 287.384 581.226 292.468C575.946 297.553 573.306 303.419 573.306 310.068ZM838.383 371.668C847.77 374.602 852.463 380.762 852.463 390.148C852.463 398.948 847.966 405.89 838.97 410.975C829.975 416.059 814.428 418.602 792.33 418.602C764.757 418.602 741.095 411.953 721.343 398.655C701.788 385.357 692.01 358.957 692.01 319.455C692.01 299.508 695.432 281.517 702.277 265.482C709.121 249.446 719.29 236.735 732.783 227.348C746.472 217.962 763.192 213.268 782.943 213.268C809.343 213.268 827.921 217.375 838.677 225.588C849.432 233.606 854.81 243.482 854.81 255.215C854.81 260.69 853.441 265.775 850.703 270.468C847.966 274.966 843.859 278.486 838.383 281.028C833.69 283.375 827.628 284.548 820.197 284.548L812.277 284.255C810.712 284.059 808.463 283.962 805.53 283.962C795.361 283.962 787.343 285.819 781.477 289.535C775.61 293.055 771.601 298.53 769.45 305.962C777.663 305.57 785.095 305.375 791.743 305.375C811.495 305.375 824.303 305.962 830.17 307.135C836.819 308.504 841.903 311.144 845.423 315.055C849.139 318.966 850.997 323.562 850.997 328.842C850.997 334.122 849.237 338.717 845.717 342.628C842.197 346.344 836.917 348.886 829.877 350.255C824.401 351.428 811.103 352.015 789.983 352.015C781.379 352.015 775.317 351.917 771.797 351.722C777.859 364.628 789.201 371.082 805.823 371.082C806.801 371.082 809.05 370.886 812.57 370.495C817.263 370.104 821.272 369.908 824.597 369.908C830.268 369.908 834.863 370.495 838.383 371.668ZM998.917 418.895C982.881 418.895 971.93 409.704 966.064 391.322C960.393 372.939 957.557 349.473 957.557 320.922C957.557 302.344 960.881 284.939 967.53 268.708C974.375 252.282 984.739 239.082 998.624 229.108C1012.51 218.939 1029.42 213.855 1049.37 213.855C1065.41 213.855 1079.97 217.277 1093.08 224.122C1106.18 230.77 1116.54 240.353 1124.17 252.868C1131.99 265.384 1135.9 279.855 1135.9 296.282C1135.9 315.25 1132.09 331.188 1124.46 344.095C1116.84 357.002 1106.96 366.584 1094.84 372.842C1082.71 379.099 1069.9 382.228 1056.41 382.228C1045.46 382.228 1035.39 380.37 1026.2 376.655C1027.37 382.913 1027.96 387.704 1027.96 391.028C1027.96 409.606 1018.28 418.895 998.917 418.895ZM1052.3 336.762C1059.34 336.762 1065.41 334.219 1070.49 329.135C1075.77 323.855 1078.41 317.793 1078.41 310.948C1078.41 303.908 1075.77 297.846 1070.49 292.762C1065.41 287.482 1059.34 284.842 1052.3 284.842C1045.46 284.842 1039.4 287.482 1034.12 292.762C1028.84 297.846 1026.2 303.908 1026.2 310.948C1026.2 317.793 1028.84 323.855 1034.12 329.135C1039.4 334.219 1045.46 336.762 1052.3 336.762ZM1244.93 418.895C1227.13 419.09 1210.61 414.69 1195.35 405.695C1180.3 396.699 1168.17 384.379 1158.98 368.735C1149.99 352.895 1145.29 335.393 1144.9 316.228C1144.71 297.846 1149.01 280.833 1157.81 265.188C1166.61 249.544 1178.73 237.126 1194.18 227.935C1209.63 218.548 1226.55 213.855 1244.93 213.855C1262.92 213.659 1279.54 218.157 1294.79 227.348C1310.24 236.539 1322.47 249.153 1331.46 265.188C1340.46 281.224 1344.95 298.922 1344.95 318.282C1344.95 336.468 1340.46 353.188 1331.46 368.442C1322.47 383.695 1310.24 395.819 1294.79 404.815C1279.54 413.81 1262.92 418.504 1244.93 418.895ZM1245.81 361.695C1254.8 361.695 1262.43 358.468 1268.69 352.015C1275.14 345.562 1278.27 337.153 1278.07 326.788C1278.07 316.228 1274.95 307.722 1268.69 301.268C1262.43 294.815 1254.8 291.588 1245.81 291.588C1236.81 291.588 1229.19 294.815 1222.93 301.268C1216.67 307.722 1213.54 316.228 1213.54 326.788C1213.54 337.153 1216.67 345.562 1222.93 352.015C1229.19 358.468 1236.81 361.695 1245.81 361.695ZM1431.16 418.602C1415.52 418.602 1401.83 414.299 1390.1 405.695C1378.56 397.09 1369.66 384.868 1363.4 369.028C1357.14 353.188 1354.02 334.513 1354.02 313.002C1354.02 300.486 1356.07 287.09 1360.18 272.815C1364.48 258.539 1370.54 246.513 1378.36 236.735C1386.38 226.762 1395.67 221.775 1406.23 221.775C1414.83 221.775 1421.97 224.904 1427.64 231.162C1433.31 237.419 1436.15 245.144 1436.15 254.335C1436.15 257.073 1435.46 260.788 1434.1 265.482C1432.92 269.979 1431.55 274.673 1429.99 279.562C1427.06 287.97 1424.81 295.402 1423.24 301.855C1421.68 308.113 1420.9 314.175 1420.9 320.042C1420.9 328.646 1422.17 334.904 1424.71 338.815C1427.25 342.726 1430.38 344.682 1434.1 344.682C1438.98 344.682 1442.41 342.237 1444.36 337.348C1446.51 332.264 1447.59 322.975 1447.59 309.482L1447.3 289.242C1447.3 273.597 1449.35 261.179 1453.46 251.988C1457.56 242.602 1465.78 237.908 1478.1 237.908C1487.29 237.908 1494.23 240.45 1498.92 245.535C1503.62 250.619 1506.65 257.073 1508.02 264.895C1509.38 272.522 1510.07 281.81 1510.07 292.762V307.722C1510.07 321.997 1511.24 332.166 1513.59 338.228C1516.13 344.095 1520.14 347.028 1525.62 347.028C1529.33 347.028 1532.17 345.17 1534.12 341.455C1536.27 337.544 1537.35 331.775 1537.35 324.148C1537.35 318.477 1536.66 312.806 1535.3 307.135C1533.93 301.464 1531.78 294.228 1528.84 285.428C1526.3 277.019 1524.44 270.762 1523.27 266.655C1522.29 262.353 1521.8 258.246 1521.8 254.335C1521.8 245.144 1524.74 237.517 1530.6 231.455C1536.66 225.393 1543.7 222.362 1551.72 222.362C1563.26 222.362 1572.94 227.25 1580.76 237.028C1588.78 246.61 1594.74 258.442 1598.66 272.522C1602.57 286.602 1604.52 300.095 1604.52 313.002C1604.52 334.513 1601.39 353.188 1595.14 369.028C1588.88 384.868 1579.88 397.09 1568.15 405.695C1556.61 414.104 1543.02 418.308 1527.38 418.308C1518.77 418.308 1510.36 416.353 1502.15 412.442C1493.94 408.53 1486.31 402.664 1479.27 394.842C1472.23 402.664 1464.5 408.628 1456.1 412.735C1447.88 416.646 1439.57 418.602 1431.16 418.602ZM1762.78 371.668C1772.17 374.602 1776.86 380.762 1776.86 390.148C1776.86 398.948 1772.37 405.89 1763.37 410.975C1754.38 416.059 1738.83 418.602 1716.73 418.602C1689.16 418.602 1665.5 411.953 1645.74 398.655C1626.19 385.357 1616.41 358.957 1616.41 319.455C1616.41 299.508 1619.83 281.517 1626.68 265.482C1633.52 249.446 1643.69 236.735 1657.18 227.348C1670.87 217.962 1687.59 213.268 1707.34 213.268C1733.74 213.268 1752.32 217.375 1763.08 225.588C1773.83 233.606 1779.21 243.482 1779.21 255.215C1779.21 260.69 1777.84 265.775 1775.1 270.468C1772.37 274.966 1768.26 278.486 1762.78 281.028C1758.09 283.375 1752.03 284.548 1744.6 284.548L1736.68 284.255C1735.11 284.059 1732.86 283.962 1729.93 283.962C1719.76 283.962 1711.74 285.819 1705.88 289.535C1700.01 293.055 1696 298.53 1693.85 305.962C1702.06 305.57 1709.5 305.375 1716.14 305.375C1735.9 305.375 1748.7 305.962 1754.57 307.135C1761.22 308.504 1766.3 311.144 1769.82 315.055C1773.54 318.966 1775.4 323.562 1775.4 328.842C1775.4 334.122 1773.64 338.717 1770.12 342.628C1766.6 346.344 1761.32 348.886 1754.28 350.255C1748.8 351.428 1735.5 352.015 1714.38 352.015C1705.78 352.015 1699.72 351.917 1696.2 351.722C1702.26 364.628 1713.6 371.082 1730.22 371.082C1731.2 371.082 1733.45 370.886 1736.97 370.495C1741.66 370.104 1745.67 369.908 1749 369.908C1754.67 369.908 1759.26 370.495 1762.78 371.668ZM1966.63 296.282C1966.63 310.557 1964.48 323.17 1960.18 334.122C1956.07 345.073 1950.21 354.264 1942.58 361.695C1949.03 371.668 1952.26 381.348 1952.26 390.735C1952.26 398.753 1949.13 405.402 1942.87 410.682C1936.81 415.962 1929.87 418.602 1922.05 418.602C1917.55 418.602 1913.44 417.917 1909.73 416.548C1906.01 415.179 1902 412.833 1897.7 409.508C1893.98 406.575 1890.46 402.566 1887.14 397.482C1883.81 392.397 1881.17 387.117 1879.22 381.642C1872.77 380.859 1866.31 379.197 1859.86 376.655C1861.03 382.913 1861.62 387.704 1861.62 391.028C1861.62 409.606 1851.94 418.895 1832.58 418.895C1816.35 418.895 1804.91 409.41 1798.26 390.442C1791.61 371.473 1788.29 348.299 1788.29 320.922C1788.29 302.344 1791.61 284.939 1798.26 268.708C1805.1 252.282 1815.47 239.082 1829.35 229.108C1843.24 218.939 1860.15 213.855 1880.1 213.855C1896.13 213.855 1910.7 217.277 1923.81 224.122C1936.91 230.77 1947.27 240.353 1954.9 252.868C1962.72 265.384 1966.63 279.855 1966.63 296.282ZM1856.93 310.068C1856.93 316.717 1859.57 322.584 1864.85 327.668C1870.13 332.557 1876.19 335.002 1883.03 335.002C1890.07 335.002 1896.13 332.557 1901.22 327.668C1906.5 322.584 1909.14 316.717 1909.14 310.068C1909.14 303.224 1906.5 297.357 1901.22 292.468C1896.13 287.384 1890.07 284.842 1883.03 284.842C1876.19 284.842 1870.13 287.384 1864.85 292.468C1859.57 297.553 1856.93 303.419 1856.93 310.068Z" fill="url(#paint0_linear_845_1241)"/>
<path opacity="0.5" d="M41.36 574.895C25.3244 574.895 14.3733 565.704 8.50663 547.322C2.83552 528.939 -4.03265e-05 505.473 -4.03265e-05 476.922C-4.03265e-05 458.344 3.3244 440.939 9.97329 424.708C16.8177 408.282 27.1822 395.082 41.0666 385.108C54.9511 374.939 71.8666 369.855 91.8133 369.855C107.849 369.855 122.418 373.277 135.52 380.122C148.622 386.77 158.987 396.353 166.613 408.868C174.436 421.384 178.347 435.855 178.347 452.282C178.347 471.25 174.533 487.188 166.907 500.095C159.28 513.002 149.404 522.584 137.28 528.842C125.156 535.099 112.347 538.228 98.8533 538.228C87.9022 538.228 77.8311 536.37 68.64 532.655C69.8133 538.913 70.4 543.704 70.4 547.028C70.4 565.606 60.72 574.895 41.36 574.895ZM94.7466 492.762C101.787 492.762 107.849 490.219 112.933 485.135C118.213 479.855 120.853 473.793 120.853 466.948C120.853 459.908 118.213 453.846 112.933 448.762C107.849 443.482 101.787 440.842 94.7466 440.842C87.9022 440.842 81.84 443.482 76.56 448.762C71.28 453.846 68.64 459.908 68.64 466.948C68.64 473.793 71.28 479.855 76.56 485.135C81.84 490.219 87.9022 492.762 94.7466 492.762ZM290.89 574.602C268.988 574.602 250.215 569.713 234.57 559.935C218.926 549.962 207.095 536.762 199.077 520.335C191.255 503.713 187.344 485.624 187.344 466.068C187.344 439.082 190.473 416.202 196.73 397.428C202.988 378.655 215.21 369.268 233.397 369.268C247.673 369.268 257.939 373.473 264.197 381.882C270.455 390.29 273.584 400.655 273.584 412.975C273.584 421.188 272.801 430.77 271.237 441.722C269.673 452.282 268.89 461.179 268.89 468.415C268.89 477.997 270.553 486.21 273.877 493.055C277.201 499.899 282.873 503.322 290.89 503.322C299.104 503.322 304.775 499.899 307.904 493.055C311.228 486.21 312.89 477.997 312.89 468.415C312.89 461.179 312.108 452.282 310.544 441.722C308.979 430.77 308.197 421.188 308.197 412.975C308.197 400.655 311.326 390.29 317.584 381.882C323.842 373.473 334.108 369.268 348.384 369.268C366.57 369.268 378.793 378.655 385.05 397.428C391.308 416.202 394.437 439.082 394.437 466.068C394.437 485.624 390.428 503.713 382.41 520.335C374.588 536.762 362.855 549.962 347.21 559.935C331.566 569.713 312.793 574.602 290.89 574.602ZM581.68 452.282C581.68 466.557 579.529 479.17 575.227 490.122C571.12 501.073 565.253 510.264 557.627 517.695C564.08 527.668 567.307 537.348 567.307 546.735C567.307 554.753 564.178 561.402 557.92 566.682C551.858 571.962 544.916 574.602 537.093 574.602C532.596 574.602 528.489 573.917 524.773 572.548C521.058 571.179 517.049 568.833 512.747 565.508C509.031 562.575 505.511 558.566 502.187 553.482C498.862 548.397 496.222 543.117 494.267 537.642C487.813 536.859 481.36 535.197 474.907 532.655C476.08 538.913 476.667 543.704 476.667 547.028C476.667 565.606 466.987 574.895 447.627 574.895C431.396 574.895 419.956 565.41 413.307 546.442C406.658 527.473 403.333 504.299 403.333 476.922C403.333 458.344 406.658 440.939 413.307 424.708C420.151 408.282 430.516 395.082 444.4 385.108C458.284 374.939 475.2 369.855 495.147 369.855C511.182 369.855 525.751 373.277 538.853 380.122C551.956 386.77 562.32 396.353 569.947 408.868C577.769 421.384 581.68 435.855 581.68 452.282ZM471.973 466.068C471.973 472.717 474.613 478.584 479.893 483.668C485.173 488.557 491.236 491.002 498.08 491.002C505.12 491.002 511.182 488.557 516.267 483.668C521.547 478.584 524.187 472.717 524.187 466.068C524.187 459.224 521.547 453.357 516.267 448.468C511.182 443.384 505.12 440.842 498.08 440.842C491.236 440.842 485.173 443.384 479.893 448.468C474.613 453.553 471.973 459.419 471.973 466.068ZM737.05 527.668C746.437 530.602 751.13 536.762 751.13 546.148C751.13 554.948 746.633 561.89 737.637 566.975C728.642 572.059 713.095 574.602 690.997 574.602C663.424 574.602 639.762 567.953 620.01 554.655C600.455 541.357 590.677 514.957 590.677 475.455C590.677 455.508 594.099 437.517 600.944 421.482C607.788 405.446 617.957 392.735 631.45 383.348C645.139 373.962 661.859 369.268 681.61 369.268C708.01 369.268 726.588 373.375 737.344 381.588C748.099 389.606 753.477 399.482 753.477 411.215C753.477 416.69 752.108 421.775 749.37 426.468C746.633 430.966 742.526 434.486 737.05 437.028C732.357 439.375 726.295 440.548 718.864 440.548L710.944 440.255C709.379 440.059 707.13 439.962 704.197 439.962C694.028 439.962 686.01 441.819 680.144 445.535C674.277 449.055 670.268 454.53 668.117 461.962C676.33 461.57 683.762 461.375 690.41 461.375C710.162 461.375 722.97 461.962 728.837 463.135C735.486 464.504 740.57 467.144 744.09 471.055C747.806 474.966 749.664 479.562 749.664 484.842C749.664 490.122 747.904 494.717 744.384 498.628C740.864 502.344 735.584 504.886 728.544 506.255C723.068 507.428 709.77 508.015 688.65 508.015C680.046 508.015 673.984 507.917 670.464 507.722C676.526 520.628 687.868 527.082 704.49 527.082C705.468 527.082 707.717 526.886 711.237 526.495C715.93 526.104 719.939 525.908 723.264 525.908C728.935 525.908 733.53 526.495 737.05 527.668ZM897.584 574.895C881.548 574.895 870.597 565.704 864.731 547.322C859.06 528.939 856.224 505.473 856.224 476.922C856.224 458.344 859.548 440.939 866.197 424.708C873.042 408.282 883.406 395.082 897.291 385.108C911.175 374.939 928.091 369.855 948.037 369.855C964.073 369.855 978.642 373.277 991.744 380.122C1004.85 386.77 1015.21 396.353 1022.84 408.868C1030.66 421.384 1034.57 435.855 1034.57 452.282C1034.57 471.25 1030.76 487.188 1023.13 500.095C1015.5 513.002 1005.63 522.584 993.504 528.842C981.38 535.099 968.571 538.228 955.077 538.228C944.126 538.228 934.055 536.37 924.864 532.655C926.037 538.913 926.624 543.704 926.624 547.028C926.624 565.606 916.944 574.895 897.584 574.895ZM950.971 492.762C958.011 492.762 964.073 490.219 969.157 485.135C974.437 479.855 977.077 473.793 977.077 466.948C977.077 459.908 974.437 453.846 969.157 448.762C964.073 443.482 958.011 440.842 950.971 440.842C944.126 440.842 938.064 443.482 932.784 448.762C927.504 453.846 924.864 459.908 924.864 466.948C924.864 473.793 927.504 479.855 932.784 485.135C938.064 490.219 944.126 492.762 950.971 492.762ZM1143.59 574.895C1125.8 575.09 1109.27 570.69 1094.02 561.695C1078.96 552.699 1066.84 540.379 1057.65 524.735C1048.65 508.895 1043.96 491.393 1043.57 472.228C1043.37 453.846 1047.67 436.833 1056.47 421.188C1065.27 405.544 1077.4 393.126 1092.85 383.935C1108.3 374.548 1125.21 369.855 1143.59 369.855C1161.59 369.659 1178.21 374.157 1193.46 383.348C1208.91 392.539 1221.13 405.153 1230.13 421.188C1239.12 437.224 1243.62 454.922 1243.62 474.282C1243.62 492.468 1239.12 509.188 1230.13 524.442C1221.13 539.695 1208.91 551.819 1193.46 560.815C1178.21 569.81 1161.59 574.504 1143.59 574.895ZM1144.47 517.695C1153.47 517.695 1161.1 514.468 1167.35 508.015C1173.81 501.562 1176.94 493.153 1176.74 482.788C1176.74 472.228 1173.61 463.722 1167.35 457.268C1161.1 450.815 1153.47 447.588 1144.47 447.588C1135.48 447.588 1127.85 450.815 1121.59 457.268C1115.34 463.722 1112.21 472.228 1112.21 482.788C1112.21 493.153 1115.34 501.562 1121.59 508.015C1127.85 514.468 1135.48 517.695 1144.47 517.695ZM1329.83 574.602C1314.18 574.602 1300.5 570.299 1288.76 561.695C1277.22 553.09 1268.33 540.868 1262.07 525.028C1255.81 509.188 1252.68 490.513 1252.68 469.002C1252.68 456.486 1254.74 443.09 1258.84 428.815C1263.14 414.539 1269.21 402.513 1277.03 392.735C1285.05 382.762 1294.34 377.775 1304.9 377.775C1313.5 377.775 1320.64 380.904 1326.31 387.162C1331.98 393.419 1334.82 401.144 1334.82 410.335C1334.82 413.073 1334.13 416.788 1332.76 421.482C1331.59 425.979 1330.22 430.673 1328.66 435.562C1325.72 443.97 1323.47 451.402 1321.91 457.855C1320.34 464.113 1319.56 470.175 1319.56 476.042C1319.56 484.646 1320.83 490.904 1323.38 494.815C1325.92 498.726 1329.05 500.682 1332.76 500.682C1337.65 500.682 1341.07 498.237 1343.03 493.348C1345.18 488.264 1346.26 478.975 1346.26 465.482L1345.96 445.242C1345.96 429.597 1348.02 417.179 1352.12 407.988C1356.23 398.602 1364.44 393.908 1376.76 393.908C1385.95 393.908 1392.9 396.45 1397.59 401.535C1402.28 406.619 1405.31 413.073 1406.68 420.895C1408.05 428.522 1408.74 437.81 1408.74 448.762V463.722C1408.74 477.997 1409.91 488.166 1412.26 494.228C1414.8 500.095 1418.81 503.028 1424.28 503.028C1428 503.028 1430.83 501.17 1432.79 497.455C1434.94 493.544 1436.02 487.775 1436.02 480.148C1436.02 474.477 1435.33 468.806 1433.96 463.135C1432.59 457.464 1430.44 450.228 1427.51 441.428C1424.97 433.019 1423.11 426.762 1421.94 422.655C1420.96 418.353 1420.47 414.246 1420.47 410.335C1420.47 401.144 1423.4 393.517 1429.27 387.455C1435.33 381.393 1442.37 378.362 1450.39 378.362C1461.93 378.362 1471.61 383.25 1479.43 393.028C1487.45 402.61 1493.41 414.442 1497.32 428.522C1501.23 442.602 1503.19 456.095 1503.19 469.002C1503.19 490.513 1500.06 509.188 1493.8 525.028C1487.54 540.868 1478.55 553.09 1466.82 561.695C1455.28 570.104 1441.69 574.308 1426.04 574.308C1417.44 574.308 1409.03 572.353 1400.82 568.442C1392.6 564.53 1384.98 558.664 1377.94 550.842C1370.9 558.664 1363.17 564.628 1354.76 568.735C1346.55 572.646 1338.24 574.602 1329.83 574.602ZM1661.45 527.668C1670.84 530.602 1675.53 536.762 1675.53 546.148C1675.53 554.948 1671.03 561.89 1662.04 566.975C1653.04 572.059 1637.5 574.602 1615.4 574.602C1587.82 574.602 1564.16 567.953 1544.41 554.655C1524.86 541.357 1515.08 514.957 1515.08 475.455C1515.08 455.508 1518.5 437.517 1525.34 421.482C1532.19 405.446 1542.36 392.735 1555.85 383.348C1569.54 373.962 1586.26 369.268 1606.01 369.268C1632.41 369.268 1650.99 373.375 1661.74 381.588C1672.5 389.606 1677.88 399.482 1677.88 411.215C1677.88 416.69 1676.51 421.775 1673.77 426.468C1671.03 430.966 1666.93 434.486 1661.45 437.028C1656.76 439.375 1650.7 440.548 1643.26 440.548L1635.34 440.255C1633.78 440.059 1631.53 439.962 1628.6 439.962C1618.43 439.962 1610.41 441.819 1604.54 445.535C1598.68 449.055 1594.67 454.53 1592.52 461.962C1600.73 461.57 1608.16 461.375 1614.81 461.375C1634.56 461.375 1647.37 461.962 1653.24 463.135C1659.89 464.504 1664.97 467.144 1668.49 471.055C1672.21 474.966 1674.06 479.562 1674.06 484.842C1674.06 490.122 1672.3 494.717 1668.78 498.628C1665.26 502.344 1659.98 504.886 1652.94 506.255C1647.47 507.428 1634.17 508.015 1613.05 508.015C1604.45 508.015 1598.38 507.917 1594.86 507.722C1600.93 520.628 1612.27 527.082 1628.89 527.082C1629.87 527.082 1632.12 526.886 1635.64 526.495C1640.33 526.104 1644.34 525.908 1647.66 525.908C1653.34 525.908 1657.93 526.495 1661.45 527.668ZM1865.3 452.282C1865.3 466.557 1863.15 479.17 1858.85 490.122C1854.74 501.073 1848.87 510.264 1841.25 517.695C1847.7 527.668 1850.93 537.348 1850.93 546.735C1850.93 554.753 1847.8 561.402 1841.54 566.682C1835.48 571.962 1828.54 574.602 1820.71 574.602C1816.22 574.602 1812.11 573.917 1808.39 572.548C1804.68 571.179 1800.67 568.833 1796.37 565.508C1792.65 562.575 1789.13 558.566 1785.81 553.482C1782.48 548.397 1779.84 543.117 1777.89 537.642C1771.43 536.859 1764.98 535.197 1758.53 532.655C1759.7 538.913 1760.29 543.704 1760.29 547.028C1760.29 565.606 1750.61 574.895 1731.25 574.895C1715.02 574.895 1703.58 565.41 1696.93 546.442C1690.28 527.473 1686.95 504.299 1686.95 476.922C1686.95 458.344 1690.28 440.939 1696.93 424.708C1703.77 408.282 1714.14 395.082 1728.02 385.108C1741.9 374.939 1758.82 369.855 1778.77 369.855C1794.8 369.855 1809.37 373.277 1822.47 380.122C1835.58 386.77 1845.94 396.353 1853.57 408.868C1861.39 421.384 1865.3 435.855 1865.3 452.282ZM1755.59 466.068C1755.59 472.717 1758.23 478.584 1763.51 483.668C1768.79 488.557 1774.86 491.002 1781.7 491.002C1788.74 491.002 1794.8 488.557 1799.89 483.668C1805.17 478.584 1807.81 472.717 1807.81 466.068C1807.81 459.224 1805.17 453.357 1799.89 448.468C1794.8 443.384 1788.74 440.842 1781.7 440.842C1774.86 440.842 1768.79 443.384 1763.51 448.468C1758.23 453.553 1755.59 459.419 1755.59 466.068Z" fill="url(#paint1_linear_845_1241)"/>
<path opacity="0.5" d="M60.026 942.895C43.9904 942.895 33.0393 933.704 27.1726 915.322C21.5015 896.939 18.666 873.473 18.666 844.922C18.666 826.344 21.9904 808.939 28.6393 792.708C35.4838 776.282 45.8482 763.082 59.7326 753.108C73.6171 742.939 90.5327 737.855 110.479 737.855C126.515 737.855 141.084 741.277 154.186 748.122C167.288 754.77 177.653 764.353 185.279 776.868C193.102 789.384 197.013 803.855 197.013 820.282C197.013 839.25 193.199 855.188 185.573 868.095C177.946 881.002 168.07 890.584 155.946 896.842C143.822 903.099 131.013 906.228 117.519 906.228C106.568 906.228 96.4971 904.37 87.306 900.655C88.4793 906.913 89.066 911.704 89.066 915.028C89.066 933.606 79.386 942.895 60.026 942.895ZM113.413 860.762C120.453 860.762 126.515 858.219 131.599 853.135C136.879 847.855 139.519 841.793 139.519 834.948C139.519 827.908 136.879 821.846 131.599 816.762C126.515 811.482 120.453 808.842 113.413 808.842C106.568 808.842 100.506 811.482 95.226 816.762C89.946 821.846 87.306 827.908 87.306 834.948C87.306 841.793 89.946 847.855 95.226 853.135C100.506 858.219 106.568 860.762 113.413 860.762ZM309.556 942.602C287.654 942.602 268.881 937.713 253.236 927.935C237.592 917.962 225.761 904.762 217.743 888.335C209.921 871.713 206.01 853.624 206.01 834.068C206.01 807.082 209.139 784.202 215.396 765.428C221.654 746.655 233.876 737.268 252.063 737.268C266.339 737.268 276.605 741.473 282.863 749.882C289.121 758.29 292.25 768.655 292.25 780.975C292.25 789.188 291.468 798.77 289.903 809.722C288.339 820.282 287.556 829.179 287.556 836.415C287.556 845.997 289.219 854.21 292.543 861.055C295.868 867.899 301.539 871.322 309.556 871.322C317.77 871.322 323.441 867.899 326.57 861.055C329.894 854.21 331.556 845.997 331.556 836.415C331.556 829.179 330.774 820.282 329.21 809.722C327.645 798.77 326.863 789.188 326.863 780.975C326.863 768.655 329.992 758.29 336.25 749.882C342.508 741.473 352.774 737.268 367.05 737.268C385.236 737.268 397.459 746.655 403.716 765.428C409.974 784.202 413.103 807.082 413.103 834.068C413.103 853.624 409.094 871.713 401.076 888.335C393.254 904.762 381.521 917.962 365.876 927.935C350.232 937.713 331.459 942.602 309.556 942.602ZM600.346 820.282C600.346 834.557 598.195 847.17 593.893 858.122C589.786 869.073 583.919 878.264 576.293 885.695C582.746 895.668 585.973 905.348 585.973 914.735C585.973 922.753 582.844 929.402 576.586 934.682C570.524 939.962 563.582 942.602 555.759 942.602C551.262 942.602 547.155 941.917 543.439 940.548C539.724 939.179 535.715 936.833 531.413 933.508C527.697 930.575 524.177 926.566 520.853 921.482C517.528 916.397 514.888 911.117 512.933 905.642C506.479 904.859 500.026 903.197 493.573 900.655C494.746 906.913 495.333 911.704 495.333 915.028C495.333 933.606 485.653 942.895 466.293 942.895C450.062 942.895 438.622 933.41 431.973 914.442C425.324 895.473 421.999 872.299 421.999 844.922C421.999 826.344 425.324 808.939 431.973 792.708C438.817 776.282 449.182 763.082 463.066 753.108C476.95 742.939 493.866 737.855 513.813 737.855C529.848 737.855 544.417 741.277 557.519 748.122C570.622 754.77 580.986 764.353 588.613 776.868C596.435 789.384 600.346 803.855 600.346 820.282ZM490.639 834.068C490.639 840.717 493.279 846.584 498.559 851.668C503.839 856.557 509.902 859.002 516.746 859.002C523.786 859.002 529.848 856.557 534.933 851.668C540.213 846.584 542.853 840.717 542.853 834.068C542.853 827.224 540.213 821.357 534.933 816.468C529.848 811.384 523.786 808.842 516.746 808.842C509.902 808.842 503.839 811.384 498.559 816.468C493.279 821.553 490.639 827.419 490.639 834.068ZM755.716 895.668C765.103 898.602 769.796 904.762 769.796 914.148C769.796 922.948 765.299 929.89 756.303 934.975C747.308 940.059 731.761 942.602 709.663 942.602C682.09 942.602 658.428 935.953 638.676 922.655C619.121 909.357 609.343 882.957 609.343 843.455C609.343 823.508 612.765 805.517 619.61 789.482C626.454 773.446 636.623 760.735 650.116 751.348C663.805 741.962 680.525 737.268 700.276 737.268C726.676 737.268 745.254 741.375 756.01 749.588C766.765 757.606 772.143 767.482 772.143 779.215C772.143 784.69 770.774 789.775 768.036 794.468C765.299 798.966 761.192 802.486 755.716 805.028C751.023 807.375 744.961 808.548 737.53 808.548L729.61 808.255C728.045 808.059 725.796 807.962 722.863 807.962C712.694 807.962 704.676 809.819 698.81 813.535C692.943 817.055 688.934 822.53 686.783 829.962C694.996 829.57 702.428 829.375 709.076 829.375C728.828 829.375 741.636 829.962 747.503 831.135C754.152 832.504 759.236 835.144 762.756 839.055C766.472 842.966 768.33 847.562 768.33 852.842C768.33 858.122 766.57 862.717 763.05 866.628C759.53 870.344 754.25 872.886 747.21 874.255C741.734 875.428 728.436 876.015 707.316 876.015C698.712 876.015 692.65 875.917 689.13 875.722C695.192 888.628 706.534 895.082 723.156 895.082C724.134 895.082 726.383 894.886 729.903 894.495C734.596 894.104 738.605 893.908 741.93 893.908C747.601 893.908 752.196 894.495 755.716 895.668ZM916.25 942.895C900.214 942.895 889.263 933.704 883.397 915.322C877.726 896.939 874.89 873.473 874.89 844.922C874.89 826.344 878.214 808.939 884.863 792.708C891.708 776.282 902.072 763.082 915.957 753.108C929.841 742.939 946.757 737.855 966.703 737.855C982.739 737.855 997.308 741.277 1010.41 748.122C1023.51 754.77 1033.88 764.353 1041.5 776.868C1049.33 789.384 1053.24 803.855 1053.24 820.282C1053.24 839.25 1049.42 855.188 1041.8 868.095C1034.17 881.002 1024.29 890.584 1012.17 896.842C1000.05 903.099 987.237 906.228 973.743 906.228C962.792 906.228 952.721 904.37 943.53 900.655C944.703 906.913 945.29 911.704 945.29 915.028C945.29 933.606 935.61 942.895 916.25 942.895ZM969.637 860.762C976.677 860.762 982.739 858.219 987.823 853.135C993.103 847.855 995.743 841.793 995.743 834.948C995.743 827.908 993.103 821.846 987.823 816.762C982.739 811.482 976.677 808.842 969.637 808.842C962.792 808.842 956.73 811.482 951.45 816.762C946.17 821.846 943.53 827.908 943.53 834.948C943.53 841.793 946.17 847.855 951.45 853.135C956.73 858.219 962.792 860.762 969.637 860.762ZM1162.26 942.895C1144.46 943.09 1127.94 938.69 1112.69 929.695C1097.63 920.699 1085.5 908.379 1076.31 892.735C1067.32 876.895 1062.62 859.393 1062.23 840.228C1062.04 821.846 1066.34 804.833 1075.14 789.188C1083.94 773.544 1096.06 761.126 1111.51 751.935C1126.96 742.548 1143.88 737.855 1162.26 737.855C1180.25 737.659 1196.87 742.157 1212.13 751.348C1227.58 760.539 1239.8 773.153 1248.79 789.188C1257.79 805.224 1262.29 822.922 1262.29 842.282C1262.29 860.468 1257.79 877.188 1248.79 892.442C1239.8 907.695 1227.58 919.819 1212.13 928.815C1196.87 937.81 1180.25 942.504 1162.26 942.895ZM1163.14 885.695C1172.14 885.695 1179.76 882.468 1186.02 876.015C1192.47 869.562 1195.6 861.153 1195.41 850.788C1195.41 840.228 1192.28 831.722 1186.02 825.268C1179.76 818.815 1172.14 815.588 1163.14 815.588C1154.14 815.588 1146.52 818.815 1140.26 825.268C1134 831.722 1130.87 840.228 1130.87 850.788C1130.87 861.153 1134 869.562 1140.26 876.015C1146.52 882.468 1154.14 885.695 1163.14 885.695ZM1348.5 942.602C1332.85 942.602 1319.16 938.299 1307.43 929.695C1295.89 921.09 1286.99 908.868 1280.74 893.028C1274.48 877.188 1271.35 858.513 1271.35 837.002C1271.35 824.486 1273.4 811.09 1277.51 796.815C1281.81 782.539 1287.87 770.513 1295.7 760.735C1303.71 750.762 1313 745.775 1323.56 745.775C1332.17 745.775 1339.3 748.904 1344.98 755.162C1350.65 761.419 1353.48 769.144 1353.48 778.335C1353.48 781.073 1352.8 784.788 1351.43 789.482C1350.26 793.979 1348.89 798.673 1347.32 803.562C1344.39 811.97 1342.14 819.402 1340.58 825.855C1339.01 832.113 1338.23 838.175 1338.23 844.042C1338.23 852.646 1339.5 858.904 1342.04 862.815C1344.58 866.726 1347.71 868.682 1351.43 868.682C1356.32 868.682 1359.74 866.237 1361.7 861.348C1363.85 856.264 1364.92 846.975 1364.92 833.482L1364.63 813.242C1364.63 797.597 1366.68 785.179 1370.79 775.988C1374.9 766.602 1383.11 761.908 1395.43 761.908C1404.62 761.908 1411.56 764.45 1416.26 769.535C1420.95 774.619 1423.98 781.073 1425.35 788.895C1426.72 796.522 1427.4 805.81 1427.4 816.762V831.722C1427.4 845.997 1428.58 856.166 1430.92 862.228C1433.46 868.095 1437.47 871.028 1442.95 871.028C1446.66 871.028 1449.5 869.17 1451.46 865.455C1453.61 861.544 1454.68 855.775 1454.68 848.148C1454.68 842.477 1454 836.806 1452.63 831.135C1451.26 825.464 1449.11 818.228 1446.18 809.428C1443.63 801.019 1441.78 794.762 1440.6 790.655C1439.62 786.353 1439.14 782.246 1439.14 778.335C1439.14 769.144 1442.07 761.517 1447.94 755.455C1454 749.393 1461.04 746.362 1469.06 746.362C1480.59 746.362 1490.27 751.25 1498.1 761.028C1506.11 770.61 1512.08 782.442 1515.99 796.522C1519.9 810.602 1521.86 824.095 1521.86 837.002C1521.86 858.513 1518.73 877.188 1512.47 893.028C1506.21 908.868 1497.22 921.09 1485.48 929.695C1473.94 938.104 1460.35 942.308 1444.71 942.308C1436.1 942.308 1427.7 940.353 1419.48 936.442C1411.27 932.53 1403.64 926.664 1396.6 918.842C1389.56 926.664 1381.84 932.628 1373.43 936.735C1365.22 940.646 1356.9 942.602 1348.5 942.602ZM1680.12 895.668C1689.5 898.602 1694.2 904.762 1694.2 914.148C1694.2 922.948 1689.7 929.89 1680.7 934.975C1671.71 940.059 1656.16 942.602 1634.06 942.602C1606.49 942.602 1582.83 935.953 1563.08 922.655C1543.52 909.357 1533.74 882.957 1533.74 843.455C1533.74 823.508 1537.17 805.517 1544.01 789.482C1550.86 773.446 1561.02 760.735 1574.52 751.348C1588.21 741.962 1604.93 737.268 1624.68 737.268C1651.08 737.268 1669.66 741.375 1680.41 749.588C1691.17 757.606 1696.54 767.482 1696.54 779.215C1696.54 784.69 1695.18 789.775 1692.44 794.468C1689.7 798.966 1685.59 802.486 1680.12 805.028C1675.42 807.375 1669.36 808.548 1661.93 808.548L1654.01 808.255C1652.45 808.059 1650.2 807.962 1647.26 807.962C1637.1 807.962 1629.08 809.819 1623.21 813.535C1617.34 817.055 1613.34 822.53 1611.18 829.962C1619.4 829.57 1626.83 829.375 1633.48 829.375C1653.23 829.375 1666.04 829.962 1671.9 831.135C1678.55 832.504 1683.64 835.144 1687.16 839.055C1690.87 842.966 1692.73 847.562 1692.73 852.842C1692.73 858.122 1690.97 862.717 1687.45 866.628C1683.93 870.344 1678.65 872.886 1671.61 874.255C1666.14 875.428 1652.84 876.015 1631.72 876.015C1623.11 876.015 1617.05 875.917 1613.53 875.722C1619.59 888.628 1630.94 895.082 1647.56 895.082C1648.54 895.082 1650.78 894.886 1654.3 894.495C1659 894.104 1663.01 893.908 1666.33 893.908C1672 893.908 1676.6 894.495 1680.12 895.668ZM1883.97 820.282C1883.97 834.557 1881.81 847.17 1877.51 858.122C1873.41 869.073 1867.54 878.264 1859.91 885.695C1866.37 895.668 1869.59 905.348 1869.59 914.735C1869.59 922.753 1866.46 929.402 1860.21 934.682C1854.14 939.962 1847.2 942.602 1839.38 942.602C1834.88 942.602 1830.77 941.917 1827.06 940.548C1823.34 939.179 1819.33 936.833 1815.03 933.508C1811.32 930.575 1807.8 926.566 1804.47 921.482C1801.15 916.397 1798.51 911.117 1796.55 905.642C1790.1 904.859 1783.65 903.197 1777.19 900.655C1778.37 906.913 1778.95 911.704 1778.95 915.028C1778.95 933.606 1769.27 942.895 1749.91 942.895C1733.68 942.895 1722.24 933.41 1715.59 914.442C1708.94 895.473 1705.62 872.299 1705.62 844.922C1705.62 826.344 1708.94 808.939 1715.59 792.708C1722.44 776.282 1732.8 763.082 1746.69 753.108C1760.57 742.939 1777.49 737.855 1797.43 737.855C1813.47 737.855 1828.04 741.277 1841.14 748.122C1854.24 754.77 1864.61 764.353 1872.23 776.868C1880.05 789.384 1883.97 803.855 1883.97 820.282ZM1774.26 834.068C1774.26 840.717 1776.9 846.584 1782.18 851.668C1787.46 856.557 1793.52 859.002 1800.37 859.002C1807.41 859.002 1813.47 856.557 1818.55 851.668C1823.83 846.584 1826.47 840.717 1826.47 834.068C1826.47 827.224 1823.83 821.357 1818.55 816.468C1813.47 811.384 1807.41 808.842 1800.37 808.842C1793.52 808.842 1787.46 811.384 1782.18 816.468C1776.9 821.553 1774.26 827.419 1774.26 834.068Z" fill="url(#paint2_linear_845_1241)"/>
<path opacity="0.5" d="M161.36 791.625C145.324 791.625 134.373 782.434 128.507 764.052C122.836 745.67 120 722.203 120 693.652C120 675.074 123.324 657.67 129.973 641.439C136.818 625.012 147.182 611.812 161.067 601.839C174.951 591.67 191.867 586.585 211.813 586.585C227.849 586.585 242.418 590.008 255.52 596.852C268.622 603.501 278.987 613.083 286.613 625.599C294.436 638.114 298.347 652.585 298.347 669.012C298.347 687.981 294.533 703.919 286.907 716.825C279.28 729.732 269.404 739.314 257.28 745.572C245.156 751.83 232.347 754.959 218.853 754.959C207.902 754.959 197.831 753.101 188.64 749.385C189.813 755.643 190.4 760.434 190.4 763.759C190.4 782.336 180.72 791.625 161.36 791.625ZM214.747 709.492C221.787 709.492 227.849 706.95 232.933 701.865C238.213 696.585 240.853 690.523 240.853 683.679C240.853 676.639 238.213 670.576 232.933 665.492C227.849 660.212 221.787 657.572 214.747 657.572C207.902 657.572 201.84 660.212 196.56 665.492C191.28 670.576 188.64 676.639 188.64 683.679C188.64 690.523 191.28 696.585 196.56 701.865C201.84 706.95 207.902 709.492 214.747 709.492ZM410.89 791.332C388.988 791.332 370.215 786.443 354.57 776.665C338.926 766.692 327.095 753.492 319.077 737.065C311.255 720.443 307.344 702.354 307.344 682.799C307.344 655.812 310.473 632.932 316.73 614.159C322.988 595.385 335.21 585.999 353.397 585.999C367.673 585.999 377.939 590.203 384.197 598.612C390.455 607.021 393.584 617.385 393.584 629.705C393.584 637.919 392.801 647.501 391.237 658.452C389.673 669.012 388.89 677.91 388.89 685.145C388.89 694.728 390.553 702.941 393.877 709.785C397.201 716.63 402.873 720.052 410.89 720.052C419.104 720.052 424.775 716.63 427.904 709.785C431.228 702.941 432.89 694.728 432.89 685.145C432.89 677.91 432.108 669.012 430.544 658.452C428.979 647.501 428.197 637.919 428.197 629.705C428.197 617.385 431.326 607.021 437.584 598.612C443.842 590.203 454.108 585.999 468.384 585.999C486.57 585.999 498.793 595.385 505.05 614.159C511.308 632.932 514.437 655.812 514.437 682.799C514.437 702.354 510.428 720.443 502.41 737.065C494.588 753.492 482.855 766.692 467.21 776.665C451.566 786.443 432.793 791.332 410.89 791.332ZM701.68 669.012C701.68 683.288 699.529 695.901 695.227 706.852C691.12 717.803 685.253 726.994 677.627 734.425C684.08 744.399 687.307 754.079 687.307 763.465C687.307 771.483 684.178 778.132 677.92 783.412C671.858 788.692 664.916 791.332 657.093 791.332C652.596 791.332 648.489 790.648 644.773 789.279C641.058 787.91 637.049 785.563 632.747 782.239C629.031 779.305 625.511 775.296 622.187 770.212C618.862 765.128 616.222 759.848 614.267 754.372C607.813 753.59 601.36 751.928 594.907 749.385C596.08 755.643 596.667 760.434 596.667 763.759C596.667 782.336 586.987 791.625 567.627 791.625C551.396 791.625 539.956 782.141 533.307 763.172C526.658 744.203 523.333 721.03 523.333 693.652C523.333 675.074 526.658 657.67 533.307 641.439C540.151 625.012 550.516 611.812 564.4 601.839C578.284 591.67 595.2 586.585 615.147 586.585C631.182 586.585 645.751 590.008 658.853 596.852C671.956 603.501 682.32 613.083 689.947 625.599C697.769 638.114 701.68 652.585 701.68 669.012ZM591.973 682.799C591.973 689.448 594.613 695.314 599.893 700.399C605.173 705.288 611.236 707.732 618.08 707.732C625.12 707.732 631.182 705.288 636.267 700.399C641.547 695.314 644.187 689.448 644.187 682.799C644.187 675.954 641.547 670.088 636.267 665.199C631.182 660.114 625.12 657.572 618.08 657.572C611.236 657.572 605.173 660.114 599.893 665.199C594.613 670.283 591.973 676.15 591.973 682.799ZM857.05 744.399C866.437 747.332 871.13 753.492 871.13 762.879C871.13 771.679 866.633 778.621 857.637 783.705C848.642 788.79 833.095 791.332 810.997 791.332C783.424 791.332 759.762 784.683 740.01 771.385C720.455 758.088 710.677 731.688 710.677 692.185C710.677 672.239 714.099 654.248 720.944 638.212C727.788 622.176 737.957 609.465 751.45 600.079C765.139 590.692 781.859 585.999 801.61 585.999C828.01 585.999 846.588 590.105 857.344 598.319C868.099 606.336 873.477 616.212 873.477 627.945C873.477 633.421 872.108 638.505 869.37 643.199C866.633 647.696 862.526 651.216 857.05 653.759C852.357 656.105 846.295 657.279 838.864 657.279L830.944 656.985C829.379 656.79 827.13 656.692 824.197 656.692C814.028 656.692 806.01 658.55 800.144 662.265C794.277 665.785 790.268 671.261 788.117 678.692C796.33 678.301 803.762 678.105 810.41 678.105C830.162 678.105 842.97 678.692 848.837 679.865C855.486 681.234 860.57 683.874 864.09 687.785C867.806 691.696 869.664 696.292 869.664 701.572C869.664 706.852 867.904 711.448 864.384 715.359C860.864 719.074 855.584 721.616 848.544 722.985C843.068 724.159 829.77 724.745 808.65 724.745C800.046 724.745 793.984 724.648 790.464 724.452C796.526 737.359 807.868 743.812 824.49 743.812C825.468 743.812 827.717 743.616 831.237 743.225C835.93 742.834 839.939 742.639 843.264 742.639C848.935 742.639 853.53 743.225 857.05 744.399ZM1017.58 791.625C1001.55 791.625 990.597 782.434 984.731 764.052C979.06 745.67 976.224 722.203 976.224 693.652C976.224 675.074 979.548 657.67 986.197 641.439C993.042 625.012 1003.41 611.812 1017.29 601.839C1031.18 591.67 1048.09 586.585 1068.04 586.585C1084.07 586.585 1098.64 590.008 1111.74 596.852C1124.85 603.501 1135.21 613.083 1142.84 625.599C1150.66 638.114 1154.57 652.585 1154.57 669.012C1154.57 687.981 1150.76 703.919 1143.13 716.825C1135.5 729.732 1125.63 739.314 1113.5 745.572C1101.38 751.83 1088.57 754.959 1075.08 754.959C1064.13 754.959 1054.06 753.101 1044.86 749.385C1046.04 755.643 1046.62 760.434 1046.62 763.759C1046.62 782.336 1036.94 791.625 1017.58 791.625ZM1070.97 709.492C1078.01 709.492 1084.07 706.95 1089.16 701.865C1094.44 696.585 1097.08 690.523 1097.08 683.679C1097.08 676.639 1094.44 670.576 1089.16 665.492C1084.07 660.212 1078.01 657.572 1070.97 657.572C1064.13 657.572 1058.06 660.212 1052.78 665.492C1047.5 670.576 1044.86 676.639 1044.86 683.679C1044.86 690.523 1047.5 696.585 1052.78 701.865C1058.06 706.95 1064.13 709.492 1070.97 709.492ZM1263.59 791.625C1245.8 791.821 1229.27 787.421 1214.02 778.425C1198.96 769.43 1186.84 757.11 1177.65 741.465C1168.65 725.625 1163.96 708.123 1163.57 688.959C1163.37 670.576 1167.67 653.563 1176.47 637.919C1185.27 622.274 1197.4 609.856 1212.85 600.665C1228.3 591.279 1245.21 586.585 1263.59 586.585C1281.59 586.39 1298.21 590.888 1313.46 600.079C1328.91 609.27 1341.13 621.883 1350.13 637.919C1359.12 653.954 1363.62 671.652 1363.62 691.012C1363.62 709.199 1359.12 725.919 1350.13 741.172C1341.13 756.425 1328.91 768.55 1313.46 777.545C1298.21 786.541 1281.59 791.234 1263.59 791.625ZM1264.47 734.425C1273.47 734.425 1281.1 731.199 1287.35 724.745C1293.81 718.292 1296.94 709.883 1296.74 699.519C1296.74 688.959 1293.61 680.452 1287.35 673.999C1281.1 667.545 1273.47 664.319 1264.47 664.319C1255.48 664.319 1247.85 667.545 1241.59 673.999C1235.34 680.452 1232.21 688.959 1232.21 699.519C1232.21 709.883 1235.34 718.292 1241.59 724.745C1247.85 731.199 1255.48 734.425 1264.47 734.425ZM1449.83 791.332C1434.18 791.332 1420.5 787.03 1408.76 778.425C1397.22 769.821 1388.33 757.599 1382.07 741.759C1375.81 725.919 1372.68 707.243 1372.68 685.732C1372.68 673.216 1374.74 659.821 1378.84 645.545C1383.14 631.27 1389.21 619.243 1397.03 609.465C1405.05 599.492 1414.34 594.505 1424.9 594.505C1433.5 594.505 1440.64 597.634 1446.31 603.892C1451.98 610.15 1454.82 617.874 1454.82 627.065C1454.82 629.803 1454.13 633.519 1452.76 638.212C1451.59 642.71 1450.22 647.403 1448.66 652.292C1445.72 660.701 1443.47 668.132 1441.91 674.585C1440.34 680.843 1439.56 686.905 1439.56 692.772C1439.56 701.376 1440.83 707.634 1443.38 711.545C1445.92 715.456 1449.05 717.412 1452.76 717.412C1457.65 717.412 1461.07 714.968 1463.03 710.079C1465.18 704.994 1466.26 695.705 1466.26 682.212L1465.96 661.972C1465.96 646.328 1468.02 633.91 1472.12 624.719C1476.23 615.332 1484.44 610.639 1496.76 610.639C1505.95 610.639 1512.9 613.181 1517.59 618.265C1522.28 623.35 1525.31 629.803 1526.68 637.625C1528.05 645.252 1528.74 654.541 1528.74 665.492V680.452C1528.74 694.728 1529.91 704.896 1532.26 710.959C1534.8 716.825 1538.81 719.759 1544.28 719.759C1548 719.759 1550.83 717.901 1552.79 714.185C1554.94 710.274 1556.02 704.505 1556.02 696.879C1556.02 691.208 1555.33 685.536 1553.96 679.865C1552.59 674.194 1550.44 666.959 1547.51 658.159C1544.97 649.75 1543.11 643.492 1541.94 639.385C1540.96 635.083 1540.47 630.976 1540.47 627.065C1540.47 617.874 1543.4 610.248 1549.27 604.185C1555.33 598.123 1562.37 595.092 1570.39 595.092C1581.93 595.092 1591.61 599.981 1599.43 609.759C1607.45 619.341 1613.41 631.172 1617.32 645.252C1621.23 659.332 1623.19 672.825 1623.19 685.732C1623.19 707.243 1620.06 725.919 1613.8 741.759C1607.54 757.599 1598.55 769.821 1586.82 778.425C1575.28 786.834 1561.69 791.039 1546.04 791.039C1537.44 791.039 1529.03 789.083 1520.82 785.172C1512.6 781.261 1504.98 775.394 1497.94 767.572C1490.9 775.394 1483.17 781.359 1474.76 785.465C1466.55 789.376 1458.24 791.332 1449.83 791.332ZM1781.45 744.399C1790.84 747.332 1795.53 753.492 1795.53 762.879C1795.53 771.679 1791.03 778.621 1782.04 783.705C1773.04 788.79 1757.5 791.332 1735.4 791.332C1707.82 791.332 1684.16 784.683 1664.41 771.385C1644.86 758.088 1635.08 731.688 1635.08 692.185C1635.08 672.239 1638.5 654.248 1645.34 638.212C1652.19 622.176 1662.36 609.465 1675.85 600.079C1689.54 590.692 1706.26 585.999 1726.01 585.999C1752.41 585.999 1770.99 590.105 1781.74 598.319C1792.5 606.336 1797.88 616.212 1797.88 627.945C1797.88 633.421 1796.51 638.505 1793.77 643.199C1791.03 647.696 1786.93 651.216 1781.45 653.759C1776.76 656.105 1770.7 657.279 1763.26 657.279L1755.34 656.985C1753.78 656.79 1751.53 656.692 1748.6 656.692C1738.43 656.692 1730.41 658.55 1724.54 662.265C1718.68 665.785 1714.67 671.261 1712.52 678.692C1720.73 678.301 1728.16 678.105 1734.81 678.105C1754.56 678.105 1767.37 678.692 1773.24 679.865C1779.89 681.234 1784.97 683.874 1788.49 687.785C1792.21 691.696 1794.06 696.292 1794.06 701.572C1794.06 706.852 1792.3 711.448 1788.78 715.359C1785.26 719.074 1779.98 721.616 1772.94 722.985C1767.47 724.159 1754.17 724.745 1733.05 724.745C1724.45 724.745 1718.38 724.648 1714.86 724.452C1720.93 737.359 1732.27 743.812 1748.89 743.812C1749.87 743.812 1752.12 743.616 1755.64 743.225C1760.33 742.834 1764.34 742.639 1767.66 742.639C1773.34 742.639 1777.93 743.225 1781.45 744.399ZM1985.3 669.012C1985.3 683.288 1983.15 695.901 1978.85 706.852C1974.74 717.803 1968.87 726.994 1961.25 734.425C1967.7 744.399 1970.93 754.079 1970.93 763.465C1970.93 771.483 1967.8 778.132 1961.54 783.412C1955.48 788.692 1948.54 791.332 1940.71 791.332C1936.22 791.332 1932.11 790.648 1928.39 789.279C1924.68 787.91 1920.67 785.563 1916.37 782.239C1912.65 779.305 1909.13 775.296 1905.81 770.212C1902.48 765.128 1899.84 759.848 1897.89 754.372C1891.43 753.59 1884.98 751.928 1878.53 749.385C1879.7 755.643 1880.29 760.434 1880.29 763.759C1880.29 782.336 1870.61 791.625 1851.25 791.625C1835.02 791.625 1823.58 782.141 1816.93 763.172C1810.28 744.203 1806.95 721.03 1806.95 693.652C1806.95 675.074 1810.28 657.67 1816.93 641.439C1823.77 625.012 1834.14 611.812 1848.02 601.839C1861.9 591.67 1878.82 586.585 1898.77 586.585C1914.8 586.585 1929.37 590.008 1942.47 596.852C1955.58 603.501 1965.94 613.083 1973.57 625.599C1981.39 638.114 1985.3 652.585 1985.3 669.012ZM1875.59 682.799C1875.59 689.448 1878.23 695.314 1883.51 700.399C1888.79 705.288 1894.86 707.732 1901.7 707.732C1908.74 707.732 1914.8 705.288 1919.89 700.399C1925.17 695.314 1927.81 689.448 1927.81 682.799C1927.81 675.954 1925.17 670.088 1919.89 665.199C1914.8 660.114 1908.74 657.572 1901.7 657.572C1894.86 657.572 1888.79 660.114 1883.51 665.199C1878.23 670.283 1875.59 676.15 1875.59 682.799Z" fill="url(#paint3_linear_845_1241)"/>
<defs>
<linearGradient id="paint0_linear_845_1241" x1="1034.01" y1="160.602" x2="1034.01" y2="453.602" gradientUnits="userSpaceOnUse">
<stop stop-color="#F7B5A7"/>
<stop offset="1" stop-color="#F7B5A7" stop-opacity="0"/>
</linearGradient>
<linearGradient id="paint1_linear_845_1241" x1="932.68" y1="316.602" x2="932.68" y2="609.602" gradientUnits="userSpaceOnUse">
<stop stop-color="#7CE47C"/>
<stop offset="1" stop-color="#7CE47C" stop-opacity="0"/>
</linearGradient>
<linearGradient id="paint2_linear_845_1241" x1="951.346" y1="684.602" x2="951.346" y2="977.602" gradientUnits="userSpaceOnUse">
<stop stop-color="white"/>
<stop offset="1" stop-color="white" stop-opacity="0"/>
</linearGradient>
<linearGradient id="paint3_linear_845_1241" x1="1052.68" y1="533.332" x2="1052.68" y2="826.332" gradientUnits="userSpaceOnUse">
<stop stop-color="#00A9E0"/>
<stop offset="1" stop-color="#00A9E0" stop-opacity="0"/>
</linearGradient>
</defs>
</svg>
