<svg width="100" height="90" viewBox="0 0 100 90" fill="none" xmlns="http://www.w3.org/2000/svg">
<path fill-rule="evenodd" clip-rule="evenodd" d="M22.5291 86.6115L23.2664 86.857L23.8901 86.6245L24.6582 85.941L24.7748 85.901L25.581 85.959L26.5739 85.8295L26.6588 85.8425L27.5891 86.258C28.2076 85.856 28.2108 85.8605 28.7942 85.4075C28.7942 85.4075 29.1071 85.342 29.3362 85.359C29.5219 85.3735 29.7956 85.3845 29.7956 85.3845L29.6386 84.441C29.6386 84.441 29.6428 84.3465 29.6831 84.27C29.8932 83.879 30.4989 83.882 30.588 83.457C30.6665 83.088 30.5434 82.677 30.7492 82.3615L30.8192 82.2935L31.687 81.847L32.2874 81.162L33.1912 80.486L34.0186 79.84L34.6657 79.021L34.7071 78.9835L35.6183 78.4225L36.3088 77.732L36.3418 77.7065L37.3028 77.155L37.7197 76.234L37.7399 76.201L38.4039 75.367L38.5397 74.128C38.5482 74.0905 38.5482 74.0905 38.5651 74.0575L39.1921 73.1025L39.6302 72.4255L39.2908 71.5905L38.9831 70.492L38.9778 70.443L39.0213 69.1635L39.0224 68.0065L39.1508 66.669L38.8962 65.553C38.5705 64.647 38.6097 64.618 38.0454 63.8395L37.463 62.8085L37.4471 62.765C37.3463 62.32 37.3962 61.8235 37.6741 61.4675C37.6741 61.4675 37.6794 61.456 37.7239 61.4135L38.6044 60.7335C38.8018 60.468 38.8887 60.042 38.6469 59.8975C38.4528 59.7795 38.213 59.758 37.9807 59.708C37.9202 59.6955 37.9701 59.741 37.7388 59.641L36.8414 59.094C36.8414 59.094 36.1116 58.497 36.3206 57.8795C36.4213 57.583 36.7088 57.325 36.7204 57.088C36.7279 56.9415 35.945 56.882 35.6405 56.4495C35.4146 56.1285 35.4316 55.7065 35.3319 55.358C35.2926 55.218 35.2428 55.082 35.1972 54.944C35.1844 54.9015 35.1844 54.9015 35.1717 54.859C35.1006 54.6175 35.0433 54.3475 35.1738 54.113C35.1844 54.0915 35.2003 54.0745 35.2152 54.0565L36.0172 53.336C36.0798 53.092 35.8591 52.806 35.6161 52.5775L34.8301 51.9675C34.7994 51.9355 34.7993 51.9355 34.7781 51.8955L34.3825 50.789C34.3825 50.789 34.2244 50.018 34.6201 49.5325C34.8396 49.2635 35.212 49.0265 35.2502 48.85L34.7389 48.1105C34.671 47.967 34.6922 47.95 34.6922 47.8865C34.6954 47.5615 34.9362 47.2775 34.9458 46.9725L34.5638 46.1385C34.4503 45.771 34.8556 45.347 35.0359 44.9272L35.3658 43.8445L35.4538 43.7446L36.2463 43.394C36.2887 43.3812 36.2887 43.3812 36.3333 43.3812L37.2859 43.5204L38.2331 43.854L38.8091 43.7807L38.86 43.7829L39.7341 43.9539C39.7341 43.9539 39.7894 43.9497 39.8509 44.0495L40.1606 44.7954C40.2083 45.0325 40.0853 45.3045 40.1977 45.5055C40.3144 45.7135 40.5976 45.787 40.8692 45.8325L40.8968 45.8355L40.6952 45.551C40.6093 45.2035 41.1026 45.0815 41.3264 44.9633C41.598 44.8135 41.8706 44.5702 41.9343 44.3386L41.0602 44.1771C41.0602 44.1771 40.9827 44.1516 40.918 44.091C40.6401 43.8296 40.7026 43.3993 40.6931 43.0625C40.6899 42.9721 40.6889 42.9679 40.6889 42.9679L40.4725 41.967L40.4693 41.9255L40.5128 41.0532C40.5404 40.9204 40.5775 40.9289 40.6146 40.9108C40.9042 40.7727 41.2193 41.2073 41.4516 41.509C41.5248 41.6047 41.6256 41.7449 41.6256 41.7449C42.156 42.6449 42.156 42.6449 42.6779 43.5491L43.2634 43.9688C43.3027 44.0092 43.3027 44.0092 43.325 44.0602L43.5859 45.108L43.8978 45.943L43.8946 46.2575C43.9307 46.5 44.2308 46.57 44.4642 46.688L45.4158 47.06L46.4617 46.7665C46.7895 46.691 46.6463 46.69 47.0229 46.7465C47.251 46.7805 47.4907 46.898 47.5735 47.133C47.7305 47.5815 47.3846 48.188 47.81 48.2975C48.1155 48.376 48.4444 48.321 48.7753 48.303L48.8453 48.2995L50.1945 48.391L51.4305 48.6555L52.472 48.9735L53.46 49.4215C53.6995 49.549 53.949 49.718 54.1875 49.677L55.0465 48.9935L55.177 48.9615C55.838 49.0935 56.5075 49.2965 57.006 48.8765L57.752 48.046L57.827 47.998L59.081 47.642L60.179 47.5105L60.233 47.5135L60.8365 47.6485L61.4295 47.454L62.383 47.2785L63.395 46.9395C63.515 46.8345 63.6135 46.706 63.721 46.586C63.745 46.558 63.745 46.558 63.7705 46.5315C63.933 46.364 64.232 46.2395 64.2585 46.2375C64.2735 46.236 64.2875 46.236 64.301 46.236L65.1595 46.333L65.7195 45.6135C66.0395 45.3425 66.5 45.4375 66.8715 45.467L67.876 45.3205L68.7235 44.6541L69.5085 43.9444L69.566 43.9114L70.752 43.5193L70.791 43.5119L72.0735 43.4258L73.1165 42.9955L74.071 42.6428L74.1125 42.6332L75.184 42.5461C75.184 42.5461 75.516 42.6438 75.715 42.7012C75.835 42.7331 76.021 42.7139 76.021 42.7139L76.5025 42.3176C76.5025 42.3176 76.5955 42.2645 76.7005 42.2645C77.11 42.2645 77.372 42.7086 77.749 42.7862C78.098 42.8574 78.4225 42.6502 78.743 42.5067C78.743 42.5067 78.7735 42.4887 78.848 42.4632L80.0655 42.1497L81.3055 42.0849L82.2975 41.8958L83.071 41.3156C83.106 41.2955 83.107 41.2955 83.146 41.2848L84.346 41.1297L85.4055 41.0968C86.4145 40.7026 86.4145 40.7004 87.3915 40.2329L87.487 40.2191L88.534 40.3965L89.7315 40.4561L90.9695 40.7026L92.1405 40.8322L93.038 40.8556L93.074 40.8598L94.0755 41.1244L95.2665 41.3156C96.3085 41.3305 96.3095 41.3316 97.347 41.2285L97.438 41.2476L98.45 41.8012L99.406 42.1508C99.6045 42.2305 99.8005 42.3452 100 42.3559L99.9545 42.0275L99.581 41.8745L98.603 41.3486L97.6675 40.7536L96.699 40.7121L96.147 40.6802L94.9155 40.7546C94.871 40.7514 94.871 40.7514 94.8295 40.7355L93.838 40.1915L93.001 39.4934L91.865 39.1672L90.6755 38.7709L90.629 38.7454L89.7305 38.0547L88.8925 37.3014L88.853 37.2472L88.3725 36.1507L87.8615 35.1253L87.0465 34.389L87.001 34.3178L86.706 33.3541L85.866 32.6825L85.466 32.1789L84.6495 31.552C83.858 31.1557 83.857 31.1589 83.055 30.7859L82.1035 30.1558L81.105 29.8657C80.8305 29.7181 80.698 29.2686 80.4685 29.1666L79.5375 29.5077C79.5375 29.5077 79.2785 29.479 79.135 29.3037C78.9635 29.0943 78.8775 28.8043 78.678 28.6651C78.572 28.5918 78.433 28.6268 78.3205 28.6566C78.1135 28.7129 78.069 28.7363 77.947 28.7745C77.77 28.8277 77.5875 28.8648 77.403 28.8457C77.0615 28.8107 76.761 28.6226 76.4545 28.4876C76.37 28.4515 76.3685 28.4526 76.3685 28.4526C75.1295 28.3251 75.1255 28.3272 73.8865 28.4643L73.337 28.4462L73.2775 28.4324L72.4575 28.0626L71.398 28.1041C71.021 28.0733 70.6945 27.6706 70.301 27.6876L69.5255 27.899C69.5255 27.899 69.4595 27.9117 69.3705 27.882C69.044 27.7747 68.8805 27.4209 68.6675 27.2041L67.6905 26.6048L67.649 26.5676L66.952 25.6932L66.166 24.8761L65.4975 23.9389L64.931 22.9391L64.316 22.1624L64.2905 22.1167L63.9445 21.153L63.5045 20.1935C63.494 20.1574 63.494 20.1574 63.4905 20.1202L63.5365 19.0151L63.622 17.976C63.5925 17.8113 63.5385 17.6519 63.493 17.4904C63.482 17.4511 63.482 17.4521 63.4715 17.4128C63.407 17.1599 63.447 16.7944 63.4565 16.7742C63.464 16.7594 63.4725 16.7445 63.481 16.7296L64.069 15.9614L64.1705 15.0572L64.1825 15.0126L64.597 14.035C64.7075 13.6472 64.6 13.2328 64.4855 12.8354L64.245 12.0215C63.947 11.146 64.0115 11.1003 63.423 10.3884L63.3985 10.348L63.0885 9.6011L63.078 9.56175L62.924 8.3983L62.798 7.51215C62.2705 6.7875 62.261 6.7811 61.5015 6.3072L60.653 5.6952L59.9465 4.92485L59.1085 4.2565L58.488 3.6243L57.741 3.4607C57.492 3.36505 57.513 3.02505 57.529 2.79235C57.545 2.57875 57.6215 2.3514 57.5405 2.16015C57.4995 2.06025 57.248 2.124 57.0285 2.1421C56.6295 2.1729 56.7735 2.158 56.676 2.13785L55.82 1.88175C55.6555 1.886 55.4945 1.93595 55.331 1.9689C55.054 2.022 54.947 2.0709 54.786 1.8637L54.757 1.8031L54.6245 1.2538L53.966 0.86385C53.7345 0.67575 53.9095 0.255 54.019 0L53.7195 0.187L53.659 0.2093L52.886 0.3315L52.3865 0.9892L51.912 2.03265L51.8815 2.07725L51.109 2.88585L51.072 2.91455L50.062 3.4851L49.153 4.01215L48.1633 4.4265L47.7495 5.50715L47.7135 5.5624L47.0589 6.22645L46.9772 6.27005L45.9335 6.4783L45.2694 7.3145L45.2365 7.3453L44.3136 7.99875L43.5615 8.5853L43.1372 9.6861L42.6831 10.8527C42.663 10.8857 42.6428 10.9186 42.6227 10.9515C42.5675 11.0365 42.5114 11.1215 42.4573 11.2076C42.3448 11.3893 42.2674 11.6698 42.2674 11.6698L42.889 12.2967L42.9218 12.3435L43.36 13.3178L43.3738 13.3837V14.5078L43.6719 15.5725L44.1991 16.6404L44.5841 17.7985L45.2376 18.5476C45.3988 18.6241 45.5781 18.6549 45.752 18.6996C45.9461 18.7495 45.9717 18.7612 46.0693 18.8026C46.4692 18.9737 46.6994 19.4603 46.9953 19.675C47.0197 19.693 47.0643 19.709 47.0643 19.709L47.6467 19.2935C47.6467 19.2935 47.7549 19.2414 47.8684 19.251C48.2948 19.2882 48.5101 19.7334 48.7403 20.0447L49.3577 21.018C49.3779 21.0648 49.3779 21.0658 49.3811 21.1168L49.2941 22.1719L49.2856 22.2134L48.9928 23.0113C49.0342 23.2483 49.1975 24.212 49.2431 24.3565C49.3121 24.5764 49.4935 24.8506 49.4935 24.8506C49.4871 24.9505 49.4532 24.9738 49.4256 25.0015L48.8751 25.384C48.7032 25.4573 48.6894 25.4318 48.6098 25.4382C48.2672 25.4626 47.8959 25.3245 47.653 25.4987L47.4981 25.8483L47.6223 26.2701C47.6223 26.2701 47.688 26.3424 47.5458 26.455L46.9783 26.7674C46.9359 26.7833 46.9359 26.7833 46.8914 26.7865L45.4943 26.6941L44.8461 26.7079L44.0431 27.271C43.6803 28.0499 43.6835 28.052 43.379 28.8553L43.5318 29.8541L43.5308 29.9125L43.3207 30.872L42.9706 31.841C42.838 32.2448 42.733 32.6878 42.3776 32.911C42.3501 32.928 42.3204 32.9429 42.2896 32.9545L41.7359 33.099L41.301 33.4603C41.2808 33.8449 41.8134 34.1945 41.651 34.6822C41.4612 35.2507 40.6698 35.1933 40.1638 35.3134C40.1372 35.3198 40.1022 35.3367 40.1022 35.3367L40.2561 36.0008C40.2561 36.0008 40.2752 36.1804 40.1076 36.2091C39.7925 36.2622 39.5581 35.7522 39.1836 35.7384L38.8643 35.9052L38.8049 35.9233L37.8682 36.0083C37.7271 36.0858 37.6179 36.208 37.497 36.3175C37.2689 36.5172 37.1628 36.6288 36.9549 36.4397L36.5146 35.9254C36.3428 35.987 36.1805 36.3068 36.1805 36.3068L35.9132 37.2674L35.8973 37.3046L35.4146 38.1418L35.3743 38.1886L34.4822 38.8782C34.4822 38.8782 33.7906 39.2086 33.3259 38.9504C32.9854 38.7624 32.7987 38.3459 32.8093 37.941C32.8093 37.941 32.8061 37.9357 32.8178 37.873L33.0363 37.1112L32.9939 36.6957C32.9663 36.7648 32.9387 36.8339 32.9122 36.9029C32.8761 36.9975 32.839 37.091 32.8019 37.1845C32.7775 37.2472 32.7881 37.2599 32.7085 37.3981L32.0275 38.2991C32.0275 38.2991 31.3549 38.9929 30.9052 38.7507C30.5339 38.5509 30.5668 38.0324 30.6326 37.703L30.8309 36.9029C30.7164 36.9444 30.6049 36.9943 30.4914 37.04C30.4416 37.0591 30.4426 37.0591 30.3928 37.0782C29.9324 37.2504 29.4212 37.3588 28.9597 37.1909C28.825 37.142 28.686 37.0527 28.6446 36.9051L28.6595 36.7829L29.1634 35.9116C29.3373 35.5206 29.2938 34.9096 29.7945 34.9022L29.8677 34.916L30.1626 35.0477C30.2782 35.1189 30.257 35.0169 30.2857 35.2496C30.3238 35.5716 30.0099 35.8 29.8253 36.0486C29.8253 36.0486 30.5679 36.0125 30.78 35.5705C30.8967 35.3282 30.8861 35.0414 30.9519 34.7747L30.9869 34.696L31.6891 33.8163C31.8472 33.6707 32.3617 33.5336 32.5282 33.2212C32.5282 33.2212 32.1028 32.9567 31.6127 32.8972L30.3653 33.1171C29.9462 33.2797 29.5123 33.4582 29.0519 33.4104L28.9788 33.3912L28.0304 32.9142L27.1267 32.3574C26.9495 32.3266 26.7681 32.3287 26.5888 32.3191C26.5007 32.3138 26.5559 32.3298 26.3618 32.2947C26.1899 32.2628 26.0128 32.0737 26.0128 32.0737C25.999 32.0301 25.999 32.0301 25.998 31.9834L26.1104 31.1493C26.0839 30.9113 25.859 30.7615 25.6733 30.6435L24.6645 30.3056L23.4446 30.4884L22.6119 30.5298C22.5694 30.5266 22.5695 30.5266 22.5302 30.5118L21.8184 30.1409L21.2414 29.7457C21.1013 29.6299 20.992 29.4726 20.87 29.3302C20.7035 29.1368 20.711 29.0508 20.5391 29.0508L20.0363 29.5523C20.0363 29.5523 19.9514 29.6107 19.8581 29.6065C19.56 29.5948 19.385 29.275 19.1612 28.9934L19.1526 28.9828C18.8832 28.7724 18.6456 28.5121 18.3443 28.3516C18.0282 28.1838 17.6717 28.1062 17.3259 28.0116C16.4974 27.7864 16.0848 27.7917 15.199 27.7088C15.199 27.7088 14.3282 27.4793 14.2444 26.8779L14.2061 26.3785L13.5442 25.8759L13.4976 25.8207L13.0436 24.9133C12.8293 24.6551 12.4591 24.6179 12.1535 24.5903L11.0386 24.3682C11.0386 24.3682 10.7056 24.1142 10.5157 23.9612C10.4478 23.9081 10.3289 23.8497 10.3289 23.8497L9.8325 24.2757C9.79535 24.3299 9.76035 24.3841 9.7243 24.4394C9.6914 24.4904 9.65855 24.5403 9.62565 24.5903C9.47715 24.8091 9.29575 25.0939 9.0157 25.0705L8.05885 24.875C7.70245 24.8176 7.3513 24.9441 7.03625 25.1024L6.05185 25.5434C5.5787 25.6953 5.46735 25.5051 5.16395 25.7389L4.95285 26.7058C4.91997 26.8248 4.89768 26.8556 4.85631 26.9246C4.52428 27.4793 3.78173 27.576 3.33513 27.9372C3.27361 27.9872 3.20996 28.0849 3.20996 28.0849L3.46561 29.122C3.50698 29.5757 3.27573 30.0368 2.90233 30.3025C2.90233 30.3025 2.8949 30.311 2.83868 30.3407L1.71318 30.7763C1.39282 30.9782 0.898495 31.3703 1.3801 31.5881C1.68985 31.7273 2.14493 31.7422 2.19903 32.0865C2.25419 32.4328 1.8914 32.6379 1.65378 32.8504L1.61453 32.8855L1.00882 33.6834L0.966385 34.9054V35.9488C0.970625 35.9806 0.97593 36.0125 0.980175 36.0455C1.05443 36.5045 1.15202 36.9401 0.81681 37.2302C0.582375 37.4342 0.248226 37.4905 0 37.6648L0.417953 38.3405C0.605715 38.6636 0.60041 39.0599 0.57283 39.4392L0.61526 40.5931C0.858185 41.2668 1.07458 41.9617 1.45753 42.5747C1.92958 43.3302 2.31359 43.5799 2.97341 44.1569L2.99886 44.1845L3.65656 45.109L3.6852 45.1845L3.81462 46.3555L4.20287 47.44L4.20499 47.54L3.89311 48.5675L3.49108 49.566L3.74566 50.481L4.00131 51.4035L4.00662 51.4415L4.03632 52.5815L4.34819 53.2365L5.03345 53.8205C5.1077 53.8995 5.1024 53.91 5.12365 53.944C5.30715 54.252 5.33155 54.628 5.3135 54.981C5.27955 55.511 5.1703 56.089 5.27005 56.514C5.2944 56.615 5.30395 56.6385 5.3443 56.836C5.44185 57.3485 5.12575 57.786 4.76085 58.211C4.70993 58.2705 4.65582 58.3715 4.65582 58.3715C4.90829 58.621 5.15015 58.8335 5.5257 59.076C5.70705 59.195 5.88425 59.3365 5.98075 59.533C6.1685 59.912 6.04335 60.364 5.8959 60.7335L5.5278 61.556C5.5278 62.631 5.5246 62.6345 5.70175 63.696L5.7007 63.753L5.48535 64.8315L5.5257 65.365L5.70495 65.9525L6.2799 66.6455L6.3149 66.775L6.2311 67.2575L6.32125 68.1255L6.4051 69.5315L6.40085 69.578L6.1038 70.8105L6.4443 71.8995C6.59815 72.2005 6.72225 72.52 6.90685 72.804C7.2834 73.385 7.88595 73.9845 8.35375 74.486L8.9722 75.3295L9.54185 76.341L9.5599 76.393L9.7816 77.697V78.886L10.4 79.7605L11.2264 80.4935L11.2508 80.522L11.8936 81.4415L12.6733 82.2225C13.4721 83.002 13.4774 83.001 14.4204 83.597L15.2161 84.27L15.2659 84.345L15.6117 85.496L15.8302 86.5915L15.8334 86.6275C15.8133 87.2705 15.6775 87.962 15.8674 88.524C15.8981 88.6145 15.9777 88.725 15.9777 88.725C16.8772 89.0025 16.8815 88.9925 17.8086 89.15L18.8641 88.7655L18.9044 88.757L19.8496 88.6695L20.8765 88.297C21.3443 87.5585 21.7282 86.5795 22.4835 86.603C22.4984 86.6065 22.5132 86.6095 22.5291 86.6115Z" fill="black"/>
</svg>
