<svg width="100" height="100" viewBox="0 0 100 100" fill="none" xmlns="http://www.w3.org/2000/svg">
<g clip-path="url(#clip0_179_1725)">
<path fill-rule="evenodd" clip-rule="evenodd" d="M22.5291 91.6115L23.2664 91.857L23.8902 91.6245L24.6581 90.941L24.7748 90.901L25.5811 90.959L26.5739 90.8295L26.6588 90.8425L27.5891 91.258C28.2076 90.856 28.2108 90.8605 28.7942 90.4075C28.7942 90.4075 29.1071 90.342 29.3363 90.359C29.5219 90.3735 29.7956 90.3845 29.7956 90.3845L29.6386 89.441C29.6386 89.441 29.6428 89.3465 29.6831 89.27C29.8932 88.879 30.4989 88.882 30.588 88.457C30.6665 88.088 30.5434 87.677 30.7492 87.3615L30.8192 87.2935L31.687 86.847L32.2874 86.162L33.1912 85.486L34.0186 84.84L34.6657 84.021L34.7071 83.9835L35.6183 83.4225L36.3088 82.732L36.3418 82.7065L37.3028 82.155L37.7197 81.234L37.7399 81.201L38.4039 80.367L38.5397 79.128C38.5482 79.0905 38.5482 79.0905 38.5651 79.0575L39.1921 78.1025L39.6302 77.4255L39.2907 76.5905L38.9832 75.492L38.9778 75.443L39.0213 74.1635L39.0224 73.0065L39.1507 71.669L38.8961 70.553C38.5704 69.647 38.6097 69.618 38.0454 68.8395L37.463 67.8085L37.4471 67.765C37.3463 67.32 37.3962 66.8235 37.6741 66.4675C37.6741 66.4675 37.6794 66.456 37.7239 66.4135L38.6044 65.7335C38.8018 65.468 38.8887 65.042 38.6469 64.8975C38.4528 64.7795 38.213 64.758 37.9807 64.708C37.9202 64.6955 37.9701 64.741 37.7388 64.641L36.8414 64.094C36.8414 64.094 36.1115 63.497 36.3205 62.8795C36.4213 62.583 36.7088 62.325 36.7205 62.088C36.7279 61.9415 35.945 61.882 35.6405 61.4495C35.4146 61.1285 35.4316 60.7065 35.3318 60.358C35.2926 60.218 35.2428 60.082 35.1972 59.944C35.1844 59.9015 35.1844 59.9015 35.1717 59.859C35.1006 59.6175 35.0434 59.3475 35.1738 59.113C35.1844 59.0915 35.2003 59.0745 35.2152 59.0565L36.0172 58.336C36.0798 58.092 35.8591 57.806 35.6161 57.5775L34.8301 56.9675C34.7994 56.9355 34.7994 56.9355 34.7781 56.8955L34.3825 55.789C34.3825 55.789 34.2244 55.018 34.6201 54.5325C34.8396 54.2635 35.212 54.0265 35.2502 53.85L34.7389 53.1105C34.671 52.967 34.6922 52.95 34.6922 52.8865C34.6954 52.5615 34.9362 52.2775 34.9458 51.9725L34.5639 51.1385C34.4503 50.771 34.8556 50.347 35.0359 49.9272L35.3658 48.8445L35.4538 48.7446L36.2463 48.394C36.2887 48.3812 36.2887 48.3812 36.3333 48.3812L37.2859 48.5204L38.2332 48.854L38.8092 48.7807L38.8601 48.7829L39.7341 48.9539C39.7341 48.9539 39.7893 48.9497 39.8508 49.0495L40.1606 49.7954C40.2083 50.0325 40.0853 50.3045 40.1978 50.5055C40.3144 50.7135 40.5976 50.787 40.8692 50.8325L40.8968 50.8355L40.6952 50.551C40.6093 50.2035 41.1026 50.0815 41.3264 49.9633C41.598 49.8135 41.8706 49.5702 41.9342 49.3386L41.0602 49.1771C41.0602 49.1771 40.9827 49.1516 40.918 49.091C40.6401 48.8296 40.7026 48.3993 40.6931 48.0625C40.6899 47.9721 40.6889 47.9679 40.6889 47.9679L40.4725 46.967L40.4693 46.9255L40.5128 46.0532C40.5404 45.9204 40.5775 45.9289 40.6146 45.9108C40.9042 45.7727 41.2193 46.2073 41.4516 46.509C41.5248 46.6047 41.6256 46.7449 41.6256 46.7449C42.156 47.6449 42.156 47.6449 42.6778 48.5491L43.2635 48.9688C43.3027 49.0092 43.3027 49.0092 43.325 49.0602L43.5859 50.108L43.8978 50.943L43.8946 51.2575C43.9307 51.5 44.2309 51.57 44.4642 51.688L45.4158 52.06L46.4617 51.7665C46.7895 51.691 46.6463 51.69 47.0229 51.7465C47.2509 51.7805 47.4907 51.898 47.5735 52.133C47.7305 52.5815 47.3846 53.188 47.81 53.2975C48.1155 53.376 48.4444 53.321 48.7753 53.303L48.8453 53.2995L50.1945 53.391L51.4305 53.6555L52.472 53.9735L53.46 54.4215C53.6995 54.549 53.949 54.718 54.1875 54.677L55.0465 53.9935L55.177 53.9615C55.838 54.0935 56.5075 54.2965 57.006 53.8765L57.752 53.046L57.827 52.998L59.081 52.642L60.179 52.5105L60.233 52.5135L60.8365 52.6485L61.4295 52.454L62.383 52.2785L63.395 51.9395C63.515 51.8345 63.6135 51.706 63.721 51.586C63.745 51.558 63.745 51.558 63.7705 51.5315C63.933 51.364 64.232 51.2395 64.2585 51.2375C64.2735 51.236 64.2875 51.236 64.301 51.236L65.1595 51.333L65.7195 50.6135C66.0395 50.3425 66.5 50.4375 66.8715 50.467L67.876 50.3205L68.7235 49.6541L69.5085 48.9444L69.566 48.9114L70.752 48.5193L70.791 48.5119L72.0735 48.4258L73.1165 47.9955L74.071 47.6428L74.1125 47.6332L75.184 47.5461C75.184 47.5461 75.516 47.6438 75.715 47.7012C75.835 47.7331 76.021 47.7139 76.021 47.7139L76.5025 47.3176C76.5025 47.3176 76.5955 47.2645 76.7005 47.2645C77.11 47.2645 77.372 47.7086 77.749 47.7862C78.098 47.8574 78.4225 47.6502 78.743 47.5067C78.743 47.5067 78.7735 47.4887 78.848 47.4632L80.0655 47.1497L81.3055 47.0849L82.2975 46.8958L83.071 46.3156C83.106 46.2955 83.107 46.2955 83.146 46.2848L84.346 46.1297L85.4055 46.0968C86.4145 45.7026 86.4145 45.7004 87.3915 45.2329L87.487 45.2191L88.534 45.3965L89.7315 45.4561L90.9695 45.7026L92.1405 45.8322L93.038 45.8556L93.074 45.8598L94.0755 46.1244L95.2665 46.3156C96.3085 46.3305 96.3095 46.3316 97.347 46.2285L97.438 46.2476L98.45 46.8012L99.406 47.1508C99.6045 47.2305 99.8005 47.3452 100 47.3559L99.9545 47.0275L99.581 46.8745L98.603 46.3486L97.6675 45.7536L96.699 45.7121L96.147 45.6802L94.9155 45.7546C94.871 45.7514 94.871 45.7514 94.8295 45.7355L93.838 45.1915L93.001 44.4934L91.865 44.1672L90.6755 43.7709L90.629 43.7454L89.7305 43.0547L88.8925 42.3014L88.853 42.2472L88.3725 41.1507L87.8615 40.1253L87.0465 39.389L87.001 39.3178L86.706 38.3541L85.866 37.6825L85.466 37.1789L84.6495 36.552C83.858 36.1557 83.857 36.1589 83.055 35.7859L82.1035 35.1558L81.105 34.8657C80.8305 34.7181 80.698 34.2686 80.4685 34.1666L79.5375 34.5077C79.5375 34.5077 79.2785 34.479 79.135 34.3037C78.9635 34.0943 78.8775 33.8043 78.678 33.6651C78.572 33.5918 78.433 33.6268 78.3205 33.6566C78.1135 33.7129 78.069 33.7363 77.947 33.7745C77.77 33.8277 77.5875 33.8648 77.403 33.8457C77.0615 33.8107 76.761 33.6226 76.4545 33.4876C76.37 33.4515 76.3685 33.4526 76.3685 33.4526C75.1295 33.3251 75.1255 33.3272 73.8865 33.4643L73.337 33.4462L73.2775 33.4324L72.4575 33.0626L71.398 33.1041C71.021 33.0733 70.6945 32.6706 70.301 32.6876L69.5255 32.899C69.5255 32.899 69.4595 32.9117 69.3705 32.882C69.044 32.7747 68.8805 32.4209 68.6675 32.2041L67.6905 31.6048L67.649 31.5676L66.952 30.6932L66.166 29.8761L65.4975 28.9389L64.931 27.9391L64.316 27.1624L64.2905 27.1167L63.9445 26.153L63.5045 25.1935C63.494 25.1574 63.494 25.1574 63.4905 25.1202L63.5365 24.0151L63.622 22.976C63.5925 22.8113 63.5385 22.6519 63.493 22.4904C63.482 22.4511 63.482 22.4521 63.4715 22.4128C63.407 22.1599 63.447 21.7944 63.4565 21.7742C63.464 21.7594 63.4725 21.7445 63.481 21.7296L64.069 20.9614L64.1705 20.0572L64.1825 20.0126L64.597 19.035C64.7075 18.6472 64.6 18.2328 64.4855 17.8354L64.245 17.0215C63.947 16.146 64.0115 16.1003 63.423 15.3884L63.3985 15.348L63.0885 14.6011L63.078 14.5617L62.924 13.3983L62.798 12.5121C62.2705 11.7875 62.261 11.7811 61.5015 11.3072L60.653 10.6952L59.9465 9.92485L59.1085 9.2565L58.488 8.6243L57.741 8.4607C57.492 8.36505 57.513 8.02505 57.529 7.79235C57.545 7.57875 57.6215 7.3514 57.5405 7.16015C57.4995 7.06025 57.248 7.124 57.0285 7.1421C56.6295 7.1729 56.7735 7.158 56.676 7.13785L55.82 6.88175C55.6555 6.886 55.4945 6.93595 55.331 6.9689C55.054 7.022 54.947 7.0709 54.786 6.8637L54.757 6.8031L54.6245 6.2538L53.966 5.86385C53.7345 5.67575 53.9095 5.255 54.019 5L53.7195 5.187L53.659 5.2093L52.886 5.3315L52.3865 5.9892L51.912 7.03265L51.8815 7.07725L51.109 7.88585L51.072 7.91455L50.062 8.4851L49.153 9.01215L48.1633 9.4265L47.7495 10.5071L47.7135 10.5624L47.0589 11.2264L46.9772 11.27L45.9335 11.4783L45.2694 12.3145L45.2365 12.3453L44.3136 12.9987L43.5615 13.5853L43.1372 14.6861L42.6831 15.8527C42.663 15.8857 42.6428 15.9186 42.6227 15.9515C42.5676 16.0365 42.5114 16.1215 42.4573 16.2076C42.3448 16.3893 42.2673 16.6698 42.2673 16.6698L42.889 17.2967L42.9218 17.3435L43.36 18.3178L43.3738 18.3837V19.5078L43.6719 20.5725L44.1991 21.6404L44.5841 22.7985L45.2375 23.5476C45.3988 23.6241 45.5781 23.6549 45.752 23.6996C45.9461 23.7495 45.9716 23.7612 46.0693 23.8026C46.4692 23.9737 46.6994 24.4603 46.9953 24.675C47.0197 24.693 47.0643 24.709 47.0643 24.709L47.6467 24.2935C47.6467 24.2935 47.7549 24.2414 47.8684 24.251C48.2948 24.2882 48.5101 24.7334 48.7403 25.0447L49.3577 26.018C49.3778 26.0648 49.3778 26.0658 49.3811 26.1168L49.2941 27.1719L49.2855 27.2134L48.9928 28.0113C49.0341 28.2483 49.1975 29.212 49.2431 29.3565C49.3121 29.5764 49.4935 29.8506 49.4935 29.8506C49.4871 29.9505 49.4532 29.9738 49.4256 30.0015L48.875 30.384C48.7032 30.4573 48.6894 30.4318 48.6098 30.4382C48.2672 30.4626 47.8959 30.3245 47.653 30.4987L47.4981 30.8483L47.6223 31.2701C47.6223 31.2701 47.688 31.3424 47.5458 31.455L46.9783 31.7674C46.9359 31.7833 46.9359 31.7833 46.8913 31.7865L45.4943 31.6941L44.8461 31.7079L44.0431 32.271C43.6803 33.0499 43.6835 33.052 43.3791 33.8553L43.5318 34.8541L43.5308 34.9125L43.3207 35.872L42.9706 36.841C42.838 37.2448 42.733 37.6878 42.3776 37.911C42.3501 37.928 42.3204 37.9429 42.2896 37.9545L41.7359 38.099L41.3009 38.4603C41.2808 38.8449 41.8134 39.1945 41.651 39.6822C41.4612 40.2507 40.6698 40.1933 40.1638 40.3134C40.1372 40.3198 40.1022 40.3368 40.1022 40.3368L40.2561 41.0008C40.2561 41.0008 40.2752 41.1804 40.1076 41.2091C39.7925 41.2622 39.5581 40.7522 39.1836 40.7384L38.8643 40.9052L38.8049 40.9233L37.8682 41.0083C37.7271 41.0858 37.6179 41.208 37.497 41.3175C37.2689 41.5172 37.1628 41.6288 36.9549 41.4397L36.5146 40.9254C36.3428 40.987 36.1805 41.3068 36.1805 41.3068L35.9132 42.2674L35.8973 42.3046L35.4146 43.1418L35.3743 43.1886L34.4822 43.8782C34.4822 43.8782 33.7906 44.2086 33.3259 43.9504C32.9854 43.7624 32.7987 43.3459 32.8093 42.941C32.8093 42.941 32.8061 42.9357 32.8178 42.873L33.0363 42.1112L32.9939 41.6957C32.9663 41.7648 32.9387 41.8339 32.9122 41.903C32.8761 41.9975 32.839 42.091 32.8019 42.1845C32.7775 42.2472 32.7881 42.2599 32.7085 42.3981L32.0275 43.2991C32.0275 43.2991 31.3549 43.9929 30.9052 43.7507C30.5339 43.5509 30.5668 43.0324 30.6326 42.703L30.8309 41.903C30.7164 41.9444 30.6049 41.9943 30.4914 42.04C30.4416 42.0591 30.4426 42.0591 30.3928 42.0782C29.9324 42.2504 29.4212 42.3588 28.9597 42.1909C28.825 42.142 28.686 42.0527 28.6446 41.9051L28.6595 41.7829L29.1634 40.9116C29.3373 40.5206 29.2938 39.9096 29.7945 39.9022L29.8677 39.916L30.1626 40.0477C30.2782 40.1189 30.257 40.0169 30.2857 40.2496C30.3238 40.5716 30.0099 40.8 29.8253 41.0486C29.8253 41.0486 30.5679 41.0125 30.78 40.5705C30.8967 40.3282 30.8861 40.0414 30.9519 39.7747L30.9869 39.696L31.6891 38.8163C31.8472 38.6707 32.3616 38.5336 32.5282 38.2212C32.5282 38.2212 32.1028 37.9567 31.6127 37.8972L30.3652 38.1171C29.9462 38.2797 29.5124 38.4582 29.052 38.4104L28.9788 38.3912L28.0304 37.9142L27.1267 37.3574C26.9495 37.3266 26.7681 37.3287 26.5888 37.3191C26.5007 37.3138 26.5559 37.3298 26.3618 37.2947C26.1899 37.2628 26.0128 37.0737 26.0128 37.0737C25.999 37.0301 25.999 37.0301 25.998 36.9834L26.1104 36.1493C26.0839 35.9113 25.859 35.7615 25.6733 35.6435L24.6646 35.3056L23.4446 35.4884L22.6119 35.5298C22.5694 35.5266 22.5695 35.5266 22.5302 35.5118L21.8184 35.1409L21.2414 34.7457C21.1013 34.6299 20.992 34.4726 20.87 34.3302C20.7035 34.1368 20.711 34.0508 20.5391 34.0508L20.0363 34.5523C20.0363 34.5523 19.9514 34.6107 19.8581 34.6065C19.56 34.5948 19.385 34.275 19.1611 33.9934L19.1526 33.9828C18.8832 33.7724 18.6456 33.5121 18.3443 33.3516C18.0282 33.1838 17.6717 33.1062 17.326 33.0116C16.4974 32.7864 16.0848 32.7917 15.199 32.7088C15.199 32.7088 14.3281 32.4793 14.2444 31.8779L14.2062 31.3785L13.5442 30.8759L13.4976 30.8207L13.0436 29.9133C12.8293 29.6551 12.4591 29.6179 12.1535 29.5903L11.0386 29.3682C11.0386 29.3682 10.7056 29.1142 10.5157 28.9612C10.4478 28.9081 10.3289 28.8497 10.3289 28.8497L9.8325 29.2757C9.79535 29.3299 9.76035 29.3841 9.7243 29.4394C9.6914 29.4904 9.65855 29.5403 9.62565 29.5903C9.47715 29.8091 9.29575 30.0939 9.0157 30.0705L8.05885 29.875C7.70245 29.8176 7.3513 29.9441 7.03625 30.1024L6.05185 30.5434C5.5787 30.6953 5.46735 30.5051 5.16395 30.7389L4.95285 31.7058C4.91997 31.8248 4.89769 31.8556 4.85632 31.9246C4.52428 32.4793 3.78173 32.576 3.33513 32.9372C3.27361 32.9872 3.20996 33.0849 3.20996 33.0849L3.46561 34.122C3.50698 34.5757 3.27573 35.0368 2.90233 35.3025C2.90233 35.3025 2.8949 35.311 2.83869 35.3407L1.71318 35.7763C1.39282 35.9782 0.898495 36.3703 1.3801 36.5881C1.68985 36.7273 2.14493 36.7422 2.19902 37.0865C2.25419 37.4328 1.8914 37.6379 1.65378 37.8504L1.61453 37.8855L1.00882 38.6834L0.966385 39.9054V40.9488C0.970625 40.9806 0.97593 41.0125 0.980175 41.0455C1.05443 41.5045 1.15202 41.9401 0.81681 42.2302C0.582375 42.4342 0.248226 42.4905 0 42.6648L0.417953 43.3405C0.605715 43.6636 0.60041 44.0599 0.57283 44.4392L0.61526 45.5931C0.858185 46.2668 1.07458 46.9617 1.45753 47.5747C1.92958 48.3302 2.31359 48.5799 2.97341 49.1569L2.99886 49.1845L3.65656 50.109L3.6852 50.1845L3.81462 51.3555L4.20287 52.44L4.20499 52.54L3.89312 53.5675L3.49108 54.566L3.74567 55.481L4.00132 56.4035L4.00662 56.4415L4.03632 57.5815L4.3482 58.2365L5.03345 58.8205C5.1077 58.8995 5.1024 58.91 5.12365 58.944C5.30715 59.252 5.33155 59.628 5.3135 59.981C5.27955 60.511 5.1703 61.089 5.27005 61.514C5.2944 61.615 5.30395 61.6385 5.3443 61.836C5.44185 62.3485 5.12575 62.786 4.76085 63.211C4.70993 63.2705 4.65582 63.3715 4.65582 63.3715C4.90829 63.621 5.15015 63.8335 5.5257 64.076C5.70705 64.195 5.88425 64.3365 5.98075 64.533C6.1685 64.912 6.04335 65.364 5.8959 65.7335L5.5278 66.556C5.5278 67.631 5.5246 67.6345 5.70175 68.696L5.7007 68.753L5.48535 69.8315L5.5257 70.365L5.70495 70.9525L6.2799 71.6455L6.3149 71.775L6.2311 72.2575L6.32125 73.1255L6.4051 74.5315L6.40085 74.578L6.1038 75.8105L6.4443 76.8995C6.59815 77.2005 6.72225 77.52 6.90685 77.804C7.2834 78.385 7.88595 78.9845 8.35375 79.486L8.9722 80.3295L9.54185 81.341L9.5599 81.393L9.7816 82.697V83.886L10.4 84.7605L11.2264 85.4935L11.2508 85.522L11.8936 86.4415L12.6733 87.2225C13.4721 88.002 13.4774 88.001 14.4205 88.597L15.2161 89.27L15.2659 89.345L15.6117 90.496L15.8302 91.5915L15.8334 91.6275C15.8133 92.2705 15.6775 92.962 15.8673 93.524C15.8981 93.6145 15.9777 93.725 15.9777 93.725C16.8773 94.0025 16.8815 93.9925 17.8086 94.15L18.8641 93.7655L18.9044 93.757L19.8496 93.6695L20.8764 93.297C21.3442 92.5585 21.7282 91.5795 22.4835 91.603C22.4984 91.6065 22.5132 91.6095 22.5291 91.6115Z" fill="#2040EC"/>
</g>
<defs>
<clipPath id="clip0_179_1725">
<rect width="100" height="100" fill="white"/>
</clipPath>
</defs>
</svg>
