<svg width="100" height="100" viewBox="0 0 100 100" fill="none" xmlns="http://www.w3.org/2000/svg">
<path d="M34.3548 0.000453226C34.0465 0.0151418 33.7737 0.204199 33.6518 0.487567L28.9844 11.302L22.3641 19.8945C22.3212 19.9501 22.2856 20.011 22.2584 20.0757L19.7695 26.0193C19.702 26.18 19.6883 26.3584 19.7305 26.5275L21.2074 32.4184L22.1971 46.4663C22.2062 46.5977 22.2473 46.7248 22.3168 46.8366L27.9669 55.9235L30.0535 62.4545L25.4947 71.5735C25.4419 71.679 25.4129 71.795 25.4098 71.913L25.1718 80.9205L20.368 91.479L18.2508 92.963L15.7355 93.1855C15.3695 93.218 15.0717 93.494 15.0111 93.8565C14.9505 94.219 15.1425 94.5765 15.478 94.7265L27.1233 99.9295C27.3923 100.05 27.7055 100.014 27.9404 99.8365L34.5746 94.8155L35.3151 95.556C35.4209 95.6615 35.5539 95.736 35.6994 95.77L40.904 97.0065C41.1511 97.065 41.4116 97.0045 41.6069 96.842L43.9107 94.9255L45.879 97.6855C46.0202 97.8835 46.2432 98.0075 46.4858 98.0225L54.42 98.521C54.8525 98.548 55.229 98.229 55.2735 97.7985L55.492 95.6935L59.1375 93.1745C59.257 93.092 59.3525 92.979 59.413 92.847L62.143 86.9035C62.1615 86.8635 62.177 86.823 62.189 86.781L65.6325 74.2295L67.037 71.6625L68.954 69.4965C69.003 69.441 69.044 69.3795 69.0765 69.313L75.243 56.501L78.1675 52.5965C78.2575 52.476 78.312 52.3325 78.325 52.183L78.532 49.8458L81.6685 47.8275C81.8875 47.6869 82.0255 47.4489 82.0385 47.1886L82.2945 41.9839C82.304 41.7955 82.2465 41.6099 82.133 41.4593L81.4735 40.5836L78.287 31.0388C78.175 30.7027 77.857 30.4791 77.503 30.4872C77.1485 30.4954 76.8415 30.7335 76.745 31.0742L75.588 35.1375C75.579 35.0794 75.5635 35.0224 75.542 34.9677L73.3095 29.2661C73.284 29.2013 73.2505 29.1399 73.209 29.0837L70.4935 25.3728C70.349 25.1756 70.1225 25.0546 69.8785 25.0438C69.634 25.0329 69.398 25.1335 69.2365 25.3172L68.915 25.6831V23.6161C68.9145 23.3624 68.795 23.1238 68.592 22.9716L65.648 20.7596L58.567 14.4207L55.8985 10.0568C55.8055 9.90415 55.6645 9.78665 55.4975 9.72275L48.3163 6.99295C48.2632 6.97275 48.2082 6.95825 48.152 6.9496L45.0869 6.47625L34.8169 0.121899C34.6786 0.0358185 34.5174 -0.00673538 34.3548 0.000453226Z" fill="#2040EC"/>
</svg>
