<svg width="68" height="100" viewBox="0 0 68 100" fill="none" xmlns="http://www.w3.org/2000/svg">
<path d="M19.3548 0.000453226C19.0465 0.0151418 18.7737 0.204199 18.6518 0.487567L13.9844 11.302L7.3641 19.8945C7.32115 19.95 7.28555 20.011 7.25835 20.0757L4.76945 26.0193C4.70195 26.18 4.68825 26.3584 4.7305 26.5276L6.20735 32.4184L7.1971 46.4663C7.2062 46.5977 7.2473 46.7248 7.3168 46.8366L12.9669 55.9235L15.0535 62.4545L10.4947 71.5735C10.4419 71.679 10.4129 71.795 10.4098 71.913L10.1718 80.9205L5.368 91.479L3.2508 92.963L0.735502 93.1855C0.369452 93.218 0.0716518 93.494 0.0111018 93.8565C-0.0494982 94.219 0.142453 94.5765 0.477953 94.7265L12.1233 99.9295C12.3923 100.05 12.7055 100.014 12.9404 99.8365L19.5746 94.8155L20.3151 95.556C20.4209 95.6615 20.5539 95.736 20.6994 95.77L25.904 97.0065C26.1511 97.065 26.4116 97.0045 26.6069 96.842L28.9107 94.9255L30.879 97.6855C31.0202 97.8835 31.2432 98.0075 31.4858 98.0225L39.42 98.521C39.8525 98.548 40.229 98.229 40.2735 97.7985L40.492 95.6935L44.1375 93.1745C44.257 93.092 44.3525 92.979 44.413 92.847L47.143 86.9035C47.1615 86.8635 47.177 86.823 47.189 86.781L50.6325 74.2295L52.037 71.6625L53.954 69.4965C54.003 69.441 54.044 69.3795 54.0765 69.313L60.243 56.501L63.1675 52.5965C63.2575 52.476 63.312 52.3325 63.325 52.183L63.532 49.8458L66.6685 47.8275C66.8875 47.6869 67.0255 47.4489 67.0385 47.1886L67.2945 41.9839C67.304 41.7955 67.2465 41.6099 67.133 41.4593L66.4735 40.5836L63.287 31.0388C63.175 30.7027 62.857 30.4791 62.503 30.4872C62.1485 30.4954 61.8415 30.7335 61.745 31.0742L60.588 35.1375C60.579 35.0794 60.5635 35.0224 60.542 34.9677L58.3095 29.2661C58.284 29.2012 58.2505 29.1399 58.209 29.0838L55.4935 25.3728C55.349 25.1756 55.1225 25.0545 54.8785 25.0438C54.634 25.0329 54.398 25.1335 54.2365 25.3171L53.915 25.6831V23.6161C53.9145 23.3624 53.795 23.1238 53.592 22.9716L50.648 20.7596L43.567 14.4207L40.8985 10.0568C40.8055 9.90415 40.6645 9.78665 40.4975 9.72275L33.3163 6.99295C33.2632 6.97275 33.2082 6.95825 33.152 6.9496L30.0869 6.47625L19.8169 0.121899C19.6786 0.0358185 19.5174 -0.00673538 19.3548 0.000453226Z" fill="black"/>
</svg>
