<svg width="839" height="257" viewBox="0 0 839 257" fill="none" xmlns="http://www.w3.org/2000/svg">
<g filter="url(#filter0_d_871_1314)">
<path d="M44.0884 98.7399C34.9559 98.7399 27.2249 96.8863 20.8954 93.179C14.5659 89.3813 10.4066 83.73 8.41729 76.2251C7.6035 73.1507 7.06097 69.3983 6.78971 64.9676C6.51844 60.537 6.38281 54.8857 6.38281 48.0136C6.38281 34.5409 7.82955 23.826 10.723 15.8689C13.7069 7.82143 19.5843 3.79769 28.3552 3.79769C33.7804 3.79769 38.0302 5.69653 41.1045 9.49422C44.2693 13.2919 45.8517 17.9938 45.8517 23.5999C45.8517 29.5677 45.3543 35.9424 44.3597 42.724C43.3651 49.5056 41.9635 57.7339 40.1551 67.409C45.7612 65.6006 51.9099 64.6964 58.601 64.6964C65.5635 64.6964 71.3504 65.9622 75.9619 68.494C80.6638 71.0258 83.0148 75.14 83.0148 80.8365C83.0148 86.3522 81.2063 90.4212 77.5895 93.0434C73.9726 95.6656 69.5872 97.2932 64.4332 97.9261C59.2792 98.4687 52.4976 98.7399 44.0884 98.7399Z" fill="white"/>
<path d="M110.136 98.7399C103.083 98.7399 97.296 97.1576 92.7749 93.9928C88.2539 90.7377 85.9934 86.081 85.9934 80.0227C85.9934 74.7783 88.2991 70.6189 92.9106 67.5446C97.5221 64.4703 103.264 62.9331 110.136 62.9331C112.668 62.9331 115.019 63.1592 117.189 63.6113C119.449 63.973 120.986 64.4251 121.8 64.9676C121.8 62.7071 120.851 60.8535 118.952 59.4067C117.053 57.8696 114.16 57.101 110.271 57.101C108.553 57.101 107.152 57.2366 106.067 57.5079C104.982 57.7791 103.806 58.186 102.54 58.7286C101.275 59.2711 100.099 59.678 99.014 59.9492C98.0194 60.2205 96.6631 60.3561 94.9451 60.3561C92.0516 60.3561 89.791 59.6328 88.1635 58.186C86.5359 56.6489 85.7221 54.3431 85.7221 51.2688C85.7221 47.7424 86.988 44.7585 89.5198 42.3171C92.142 39.8757 95.3972 38.0673 99.2853 36.8918C103.173 35.6259 107.061 34.993 110.95 34.993C118.635 34.993 125.055 36.4397 130.209 39.3332C135.454 42.1363 139.297 45.8887 141.738 50.5906C144.27 55.2926 145.536 60.4918 145.536 66.1883C145.536 69.2626 145.264 72.1109 144.722 74.7331C144.27 77.3553 143.637 79.3898 142.823 80.8365C144.089 81.9216 145.038 83.1875 145.671 84.6342C146.395 86.081 146.756 87.5729 146.756 89.1101C146.756 91.7323 145.852 93.9928 144.044 95.8917C142.326 97.7905 140.02 98.7399 137.127 98.7399C134.956 98.7399 133.193 98.4235 131.837 97.7905C130.481 97.1576 129.034 96.1629 127.497 94.8066C125.236 96.1629 122.75 97.1576 120.037 97.7905C117.415 98.4235 114.114 98.7399 110.136 98.7399ZM112.848 85.0411C114.747 85.0411 116.239 84.6342 117.324 83.8204C118.5 83.0066 119.088 82.012 119.088 80.8365C119.088 79.6611 118.5 78.6664 117.324 77.8526C116.239 77.0388 114.747 76.632 112.848 76.632C110.95 76.632 109.412 77.0388 108.237 77.8526C107.152 78.6664 106.609 79.6611 106.609 80.8365C106.609 82.012 107.152 83.0066 108.237 83.8204C109.412 84.6342 110.95 85.0411 112.848 85.0411Z" fill="white"/>
<path d="M208.714 98.7399C202.927 98.7399 199.039 95.3491 197.049 88.5675C195.15 81.786 194.201 72.4274 194.201 60.4918C194.201 55.0665 194.427 50.5454 194.879 46.9286C195.422 43.2213 196.642 40.1018 198.541 37.57C200.53 34.9478 203.56 33.6367 207.629 33.6367C210.16 33.6367 212.376 34.2244 214.275 35.3999C216.264 36.5754 217.53 38.2482 218.072 40.4183C220.061 38.6098 222.638 37.2535 225.803 36.3493C228.968 35.4451 232.359 34.993 235.976 34.993C238.869 34.993 241.808 35.7164 244.792 37.1631C247.866 38.6098 250.398 40.5991 252.387 43.1309C254.467 45.5723 255.507 48.2397 255.507 51.1332C255.507 54.0267 254.467 56.6037 252.387 58.8642C250.398 61.0343 247.73 62.1194 244.385 62.1194C243.3 62.1194 242.26 61.9837 241.265 61.7125C240.361 61.4412 239.547 61.1699 238.824 60.8987C237.015 60.1753 235.569 59.8136 234.484 59.8136C230.957 59.8136 227.838 61.2151 225.125 64.0182C222.503 66.7308 221.192 70.2573 221.192 74.5975C221.192 79.3898 221.011 83.3683 220.649 86.5331C220.288 89.6978 219.202 92.5461 217.394 95.0779C215.586 97.5192 212.692 98.7399 208.714 98.7399Z" fill="white"/>
<path d="M296.325 98.7399C289.634 98.7399 283.712 97.4288 278.558 94.8066C273.404 92.1844 269.38 88.5223 266.486 83.8204C263.683 79.0281 262.282 73.6481 262.282 67.6803C262.282 61.8029 263.683 56.3776 266.486 51.4044C269.38 46.4313 273.358 42.4527 278.422 39.4688C283.486 36.4849 289.227 34.993 295.647 34.993C301.434 34.993 306.543 36.1685 310.974 38.5194C315.404 40.8704 318.795 43.9899 321.146 47.878C323.497 51.6757 324.672 55.6542 324.672 59.8136C324.672 66.5952 322.095 71.5684 316.941 74.7331C311.878 77.8074 305.82 79.3446 298.767 79.3446C294.065 79.3446 290.086 78.7569 286.831 77.5814C289.544 82.012 294.02 84.2273 300.259 84.2273C302.79 84.2273 305.503 83.9109 308.397 83.2779C309.482 83.0066 310.522 82.871 311.516 82.871C313.505 82.871 315.088 83.3683 316.263 84.363C317.529 85.3576 318.162 86.7139 318.162 88.4319C318.162 91.235 316.444 93.6763 313.008 95.756C309.572 97.7453 304.011 98.7399 296.325 98.7399ZM287.238 61.0343C288.052 62.3002 289.137 63.2496 290.493 63.8826C291.94 64.4251 293.522 64.6964 295.24 64.6964C297.23 64.6964 298.948 64.2442 300.394 63.34C301.931 62.4358 302.7 61.2604 302.7 59.8136C302.7 58.186 302.022 56.7845 300.666 55.609C299.4 54.4335 297.546 53.8458 295.105 53.8458C292.663 53.8458 290.719 54.6144 289.273 56.1516C287.916 57.5983 287.238 59.2259 287.238 61.0343ZM289.408 31.6022C287.509 31.6022 285.927 30.9693 284.661 29.7034C283.395 28.347 282.762 26.8551 282.762 25.2275C282.762 23.5999 283.666 21.5202 285.475 18.9885C287.374 16.3662 289.544 14.1057 291.985 12.2069C294.517 10.2176 296.642 9.22296 298.36 9.22296C300.982 9.22296 303.062 10.1272 304.599 11.9356C306.136 13.6536 306.859 15.5072 306.769 17.4965C306.769 19.1241 305.684 21.0681 303.514 23.3287C301.344 25.4988 298.857 27.4428 296.054 29.1608C293.341 30.7884 291.126 31.6022 289.408 31.6022Z" fill="white"/>
<path d="M366.28 98.6043C364.109 98.6043 362.075 98.333 360.176 97.7905C358.368 97.248 356.243 96.0273 353.801 94.1284C350.998 91.8679 347.834 88.0702 344.307 82.7354C340.781 77.3101 337.752 71.4779 335.22 65.2389C332.688 58.9094 331.422 53.2129 331.422 48.1493C331.422 44.3516 332.507 41.2321 334.677 38.7907C336.938 36.2589 339.56 34.993 342.544 34.993C346.161 34.993 349.235 36.3945 351.767 39.1976C354.389 41.9102 356.559 45.301 358.277 49.37C360.086 53.3485 362.12 58.7286 364.381 65.5101C364.652 66.3239 364.923 67.2281 365.195 68.2228C365.556 69.127 365.918 70.0764 366.28 71.071L367.636 67.1377C370.168 59.904 372.338 54.2075 374.146 50.0481C375.955 45.7983 378.215 42.2267 380.928 39.3332C383.64 36.3493 386.805 34.9026 390.422 34.993C393.316 35.0834 395.757 36.1685 397.746 38.2482C399.826 40.3278 400.866 43.357 400.866 47.3355C400.866 52.7608 399.69 58.4573 397.339 64.4251C394.988 70.3929 392.23 75.8182 389.066 80.7009C385.901 85.4932 383.188 89.0197 380.928 91.2802C378.939 93.5407 376.588 95.3491 373.875 96.7055C371.253 97.9713 368.721 98.6043 366.28 98.6043Z" fill="white"/>
<path d="M437.252 98.8756C430.742 98.966 424.91 97.6097 419.756 94.8066C414.692 92.0035 410.713 88.1607 407.82 83.2779C405.017 78.3047 403.525 72.789 403.344 66.7308C403.254 60.6726 404.655 55.2473 407.549 50.455C410.442 45.6627 414.466 41.865 419.62 39.062C424.864 36.2589 430.742 34.8574 437.252 34.8574C443.582 34.8574 449.278 36.2137 454.342 38.9263C459.496 41.639 463.565 45.4366 466.549 50.3194C469.532 55.2021 471.115 60.6726 471.296 66.7308C471.386 72.6082 469.985 77.9883 467.091 82.871C464.198 87.6633 460.129 91.5062 454.884 94.3997C449.73 97.2932 443.853 98.7851 437.252 98.8756ZM437.659 79.0733C440.1 79.0733 442.225 78.1239 444.034 76.2251C445.842 74.3262 446.746 72.1109 446.746 69.5791C446.746 67.0473 445.842 64.8772 444.034 63.0688C442.225 61.1699 440.1 60.2205 437.659 60.2205C435.218 60.2205 433.093 61.1699 431.284 63.0688C429.476 64.8772 428.572 67.0473 428.572 69.5791C428.572 72.1109 429.476 74.3262 431.284 76.2251C433.093 78.1239 435.218 79.0733 437.659 79.0733Z" fill="white"/>
<path d="M493.916 98.4687C489.395 98.4687 486.005 96.7959 483.744 93.4503C481.484 90.1047 479.946 85.1768 479.133 78.6664C478.409 72.0657 478.048 62.8879 478.048 51.1332C478.048 39.8305 478.319 31.0145 478.861 24.685C479.494 18.3555 480.941 13.2919 483.202 9.49422C485.552 5.69653 489.169 3.79769 494.052 3.79769C498.935 3.79769 502.506 5.69653 504.767 9.49422C507.118 13.2919 508.565 18.3555 509.107 24.685C509.74 31.0145 510.057 39.8305 510.057 51.1332C510.057 62.255 509.559 71.2519 508.565 78.1239C507.66 84.9055 506.033 90.0143 503.682 93.4503C501.331 96.7959 498.076 98.4687 493.916 98.4687Z" fill="white"/>
<path d="M549.679 98.7399C543.078 98.7399 537.291 97.1123 532.318 93.8572C527.345 90.5116 523.502 85.9001 520.79 80.0227C518.167 74.0549 516.856 67.1829 516.856 59.4067C516.856 51.8113 518.077 45.8435 520.518 41.5033C522.96 37.1631 526.35 34.993 530.691 34.993C538.376 34.993 542.219 38.9263 542.219 46.793C542.219 48.4205 542.174 49.8673 542.084 51.1332C541.993 52.3087 541.903 53.3485 541.812 54.2527C541.451 57.8696 541.27 60.763 541.27 62.9331C541.27 66.9117 542.084 69.9408 543.711 72.0205C545.339 74.1002 547.328 75.14 549.679 75.14C552.121 75.14 554.11 74.1454 555.647 72.1561C557.275 70.0764 558.088 67.0021 558.088 62.9331C558.088 60.0397 557.953 57.3722 557.681 54.9309C557.591 54.1171 557.501 52.9416 557.41 51.4044C557.32 49.7769 557.275 48.2849 557.275 46.9286C557.275 38.9715 561.117 34.993 568.803 34.993C573.143 34.993 576.489 37.1631 578.84 41.5033C581.281 45.7531 582.502 51.7209 582.502 59.4067C582.502 71.4327 579.699 81.0174 574.093 88.1607C568.487 95.2135 560.349 98.7399 549.679 98.7399Z" fill="white"/>
<path d="M655.894 40.0114C655.894 44.7133 653.678 47.9232 649.248 49.6412C644.817 51.2688 638.759 52.1278 631.073 52.2182C630.983 54.4788 630.937 58.1408 630.937 63.2044C630.937 68.3584 631.299 72.0205 632.022 74.1906C632.475 75.7277 633.153 76.7224 634.057 77.1745C635.052 77.6266 636.498 77.9431 638.397 78.1239C639.03 78.2143 639.708 78.3499 640.432 78.5308C641.245 78.6212 642.15 78.7568 643.144 78.9377C645.224 79.3898 646.852 80.5201 648.027 82.3285C649.202 84.0465 649.79 86.2618 649.79 88.9744C649.79 92.0488 648.208 94.4449 645.043 96.1629C641.878 97.8809 637.538 98.7399 632.022 98.7399C626.959 98.7399 622.121 97.2932 617.51 94.3997C612.898 91.4158 609.734 87.4373 608.016 82.4641C606.207 77.1293 605.303 67.0473 605.303 52.2182C598.973 52.0374 593.865 51.2236 589.977 49.7769C586.179 48.2397 584.28 45.5271 584.28 41.639C584.28 36.7562 586.088 33.501 589.705 31.8735C593.322 30.1555 598.521 29.2513 605.303 29.1608C605.574 21.9271 606.705 15.9141 608.694 11.1218C610.683 6.23906 614.255 3.79769 619.409 3.79769C624.653 3.79769 628.044 6.05822 629.581 10.5793C631.209 15.1003 631.932 21.2942 631.751 29.1608C639.979 29.0704 646.038 29.7034 649.926 31.0597C653.904 32.416 655.894 35.3999 655.894 40.0114Z" fill="white"/>
<path d="M673.125 32.9585C668.695 32.9585 664.942 31.3762 661.868 28.2114C658.793 24.9562 657.256 21.0229 657.256 16.4114C657.256 11.8904 658.793 8.04749 661.868 4.88275C664.942 1.62758 668.695 0 673.125 0C677.465 0 681.173 1.62758 684.247 4.88275C687.412 8.04749 688.994 11.8904 688.994 16.4114C688.994 21.0229 687.412 24.9562 684.247 28.2114C681.173 31.3762 677.465 32.9585 673.125 32.9585ZM673.125 98.7399C669.418 98.7399 666.66 97.7001 664.852 95.6204C663.134 93.4503 661.958 90.2403 661.325 85.9905C660.783 81.6503 660.512 75.5017 660.512 67.5446C660.512 60.8535 660.828 55.5638 661.461 51.6757C662.184 47.7876 663.45 44.8941 665.259 42.9953C667.067 41.0964 669.689 40.147 673.125 40.147C676.833 40.147 679.545 41.2321 681.263 43.4022C683.072 45.4819 684.247 48.6918 684.79 53.032C685.423 57.2818 685.739 63.3852 685.739 71.3423C685.739 78.0335 685.377 83.3231 684.654 87.2112C684.021 91.0993 682.8 93.9928 680.992 95.8917C679.183 97.7905 676.561 98.7399 673.125 98.7399Z" fill="white"/>
<path d="M727.059 98.8756C720.549 98.966 714.717 97.6097 709.562 94.8066C704.499 92.0035 700.52 88.1607 697.627 83.2779C694.824 78.3047 693.332 72.789 693.151 66.7308C693.061 60.6726 694.462 55.2473 697.356 50.455C700.249 45.6627 704.273 41.865 709.427 39.062C714.671 36.2589 720.549 34.8574 727.059 34.8574C733.389 34.8574 739.085 36.2137 744.149 38.9263C749.303 41.639 753.372 45.4366 756.355 50.3194C759.339 55.2021 760.922 60.6726 761.103 66.7308C761.193 72.6082 759.791 77.9883 756.898 82.871C754.005 87.6633 749.936 91.5062 744.691 94.3997C739.537 97.2932 733.66 98.7851 727.059 98.8756ZM727.466 79.0733C729.907 79.0733 732.032 78.1239 733.841 76.2251C735.649 74.3262 736.553 72.1109 736.553 69.5791C736.553 67.0473 735.649 64.8772 733.841 63.0688C732.032 61.1699 729.907 60.2205 727.466 60.2205C725.025 60.2205 722.9 61.1699 721.091 63.0688C719.283 64.8772 718.379 67.0473 718.379 69.5791C718.379 72.1109 719.283 74.3262 721.091 76.2251C722.9 78.1239 725.025 79.0733 727.466 79.0733Z" fill="white"/>
<path d="M818.78 98.7399C815.525 98.7399 813.083 97.8357 811.456 96.0273C809.919 94.2189 808.969 92.0035 808.608 89.3813C808.246 86.7591 808.065 83.3683 808.065 79.209C808.065 73.8741 807.342 69.7599 805.895 66.8665C804.448 63.973 802.097 62.5262 798.842 62.5262C795.858 62.5262 793.598 63.973 792.061 66.8665C790.614 69.6695 789.89 73.5576 789.89 78.5308C789.89 83.3231 789.755 86.94 789.484 89.3813C789.212 91.8227 788.308 93.9928 786.771 95.8917C785.234 97.7001 782.702 98.6043 779.176 98.6043C774.022 98.6043 770.405 95.3039 768.325 88.7032C766.245 82.012 765.205 74.1906 765.205 65.2389C765.205 43.5378 769.772 32.6873 778.904 32.6873C781.436 32.6873 783.516 33.3202 785.143 34.5861C786.771 35.7616 787.901 37.4796 788.534 39.7401C789.71 38.4742 791.518 37.3439 793.959 36.3493C796.491 35.3547 799.159 34.8574 801.962 34.8574C811.908 34.8574 819.323 38.4742 824.205 45.7079C829.178 52.9416 831.665 62.7523 831.665 75.14C831.665 82.4641 830.716 88.2511 828.817 92.5009C826.918 96.6602 823.572 98.7399 818.78 98.7399Z" fill="white"/>
<path d="M88.6632 234.738C82.2433 234.738 76.5467 233.201 71.5736 230.127C66.6908 226.962 62.9383 222.893 60.3161 217.92C57.6939 212.856 56.3828 207.476 56.3828 201.779C56.3828 195.088 57.7391 189.437 60.4518 184.826C63.2548 180.124 66.8265 176.642 71.1667 174.382C75.5973 172.121 80.3444 170.991 85.408 170.991C90.4716 170.991 94.9927 172.076 98.9712 174.246C98.7903 172.347 98.4287 170.313 97.8861 168.143C97.434 165.973 97.1175 164.616 96.9367 164.074C96.2133 161.271 95.6708 158.92 95.3091 157.021C94.9474 155.122 94.7666 153.223 94.7666 151.324C94.7666 147.527 95.8969 144.633 98.1574 142.644C100.418 140.655 103.131 139.66 106.295 139.66C111.359 139.66 115.473 142.192 118.638 147.256C121.803 152.319 124.063 158.603 125.419 166.108C126.866 173.613 127.589 181.209 127.589 188.894C127.589 199.293 125.193 209.556 120.401 219.683C115.699 229.72 105.12 234.738 88.6632 234.738ZM89.477 213.308C91.9183 213.308 94.0432 212.404 95.8517 210.596C97.6601 208.697 98.5643 206.481 98.5643 203.95C98.5643 201.418 97.6601 199.202 95.8517 197.304C94.0432 195.405 91.9183 194.455 89.477 194.455C87.0356 194.455 84.8655 195.405 82.9666 197.304C81.1582 199.202 80.254 201.418 80.254 203.95C80.254 206.481 81.1582 208.697 82.9666 210.596C84.8655 212.404 87.0356 213.308 89.477 213.308Z" fill="white"/>
<path d="M165.792 234.738C159.101 234.738 153.178 233.427 148.024 230.805C142.87 228.182 138.847 224.52 135.953 219.819C133.15 215.026 131.749 209.646 131.749 203.678C131.749 197.801 133.15 192.376 135.953 187.403C138.847 182.429 142.825 178.451 147.889 175.467C152.952 172.483 158.694 170.991 165.114 170.991C170.901 170.991 176.01 172.167 180.44 174.518C184.871 176.868 188.262 179.988 190.613 183.876C192.964 187.674 194.139 191.652 194.139 195.812C194.139 202.593 191.562 207.566 186.408 210.731C181.345 213.806 175.286 215.343 168.233 215.343C163.532 215.343 159.553 214.755 156.298 213.579C159.01 218.01 163.486 220.225 169.725 220.225C172.257 220.225 174.97 219.909 177.863 219.276C178.948 219.005 179.988 218.869 180.983 218.869C182.972 218.869 184.554 219.366 185.73 220.361C186.996 221.356 187.629 222.712 187.629 224.43C187.629 227.233 185.911 229.674 182.475 231.754C179.039 233.743 173.478 234.738 165.792 234.738ZM156.705 197.032C157.519 198.298 158.604 199.248 159.96 199.881C161.407 200.423 162.989 200.694 164.707 200.694C166.696 200.694 168.414 200.242 169.861 199.338C171.398 198.434 172.167 197.258 172.167 195.812C172.167 194.184 171.489 192.783 170.132 191.607C168.866 190.432 167.013 189.844 164.571 189.844C162.13 189.844 160.186 190.612 158.739 192.15C157.383 193.596 156.705 195.224 156.705 197.032Z" fill="white"/>
<path d="M257.421 234.467C252.9 234.467 249.509 232.794 247.248 229.448C244.988 226.103 243.451 221.175 242.637 214.665C241.914 208.064 241.552 198.886 241.552 187.131C241.552 175.829 241.823 167.013 242.366 160.683C242.999 154.354 244.445 149.29 246.706 145.492C249.057 141.695 252.674 139.796 257.557 139.796C262.439 139.796 266.011 141.695 268.271 145.492C270.622 149.29 272.069 154.354 272.612 160.683C273.245 167.013 273.561 175.829 273.561 187.131C273.561 198.253 273.064 207.25 272.069 214.122C271.165 220.904 269.537 226.012 267.186 229.448C264.835 232.794 261.58 234.467 257.421 234.467Z" fill="white"/>
<path d="M302.125 234.738C295.072 234.738 289.286 233.156 284.764 229.991C280.243 226.736 277.983 222.079 277.983 216.021C277.983 210.776 280.289 206.617 284.9 203.543C289.512 200.468 295.253 198.931 302.125 198.931C304.657 198.931 307.008 199.157 309.178 199.609C311.439 199.971 312.976 200.423 313.79 200.966C313.79 198.705 312.84 196.852 310.941 195.405C309.043 193.868 306.149 193.099 302.261 193.099C300.543 193.099 299.141 193.235 298.056 193.506C296.971 193.777 295.796 194.184 294.53 194.727C293.264 195.269 292.089 195.676 291.004 195.947C290.009 196.219 288.653 196.354 286.935 196.354C284.041 196.354 281.781 195.631 280.153 194.184C278.525 192.647 277.712 190.341 277.712 187.267C277.712 183.74 278.977 180.757 281.509 178.315C284.131 175.874 287.387 174.065 291.275 172.89C295.163 171.624 299.051 170.991 302.939 170.991C310.625 170.991 317.045 172.438 322.199 175.331C327.443 178.134 331.286 181.887 333.728 186.589C336.259 191.291 337.525 196.49 337.525 202.186C337.525 205.261 337.254 208.109 336.711 210.731C336.259 213.353 335.626 215.388 334.813 216.835C336.078 217.92 337.028 219.186 337.661 220.632C338.384 222.079 338.746 223.571 338.746 225.108C338.746 227.73 337.842 229.991 336.033 231.89C334.315 233.789 332.01 234.738 329.116 234.738C326.946 234.738 325.183 234.422 323.826 233.789C322.47 233.156 321.023 232.161 319.486 230.805C317.226 232.161 314.739 233.156 312.026 233.789C309.404 234.422 306.104 234.738 302.125 234.738ZM304.838 221.039C306.737 221.039 308.229 220.632 309.314 219.819C310.489 219.005 311.077 218.01 311.077 216.835C311.077 215.659 310.489 214.665 309.314 213.851C308.229 213.037 306.737 212.63 304.838 212.63C302.939 212.63 301.402 213.037 300.226 213.851C299.141 214.665 298.599 215.659 298.599 216.835C298.599 218.01 299.141 219.005 300.226 219.819C301.402 220.632 302.939 221.039 304.838 221.039Z" fill="white"/>
<path d="M402.059 234.467C397.538 234.467 394.148 232.794 391.887 229.448C389.626 226.103 388.089 221.175 387.276 214.665C386.552 208.064 386.19 198.886 386.19 187.131C386.19 175.829 386.462 167.013 387.004 160.683C387.637 154.354 389.084 149.29 391.344 145.492C393.695 141.695 397.312 139.796 402.195 139.796C407.078 139.796 410.649 141.695 412.91 145.492C415.261 149.29 416.708 154.354 417.25 160.683C417.883 167.013 418.2 175.829 418.2 187.131C418.2 198.253 417.702 207.25 416.708 214.122C415.803 220.904 414.176 226.012 411.825 229.448C409.474 232.794 406.219 234.467 402.059 234.467Z" fill="white"/>
<path d="M456.394 234.738C449.703 234.738 443.78 233.427 438.626 230.805C433.472 228.182 429.448 224.52 426.555 219.819C423.752 215.026 422.35 209.646 422.35 203.678C422.35 197.801 423.752 192.376 426.555 187.403C429.448 182.429 433.427 178.451 438.49 175.467C443.554 172.483 449.296 170.991 455.716 170.991C461.503 170.991 466.611 172.167 471.042 174.518C475.473 176.868 478.863 179.988 481.214 183.876C483.565 187.674 484.741 191.652 484.741 195.812C484.741 202.593 482.164 207.566 477.01 210.731C471.946 213.806 465.888 215.343 458.835 215.343C454.133 215.343 450.155 214.755 446.9 213.579C449.612 218.01 454.088 220.225 460.327 220.225C462.859 220.225 465.571 219.909 468.465 219.276C469.55 219.005 470.59 218.869 471.585 218.869C473.574 218.869 475.156 219.366 476.332 220.361C477.598 221.356 478.23 222.712 478.23 224.43C478.23 227.233 476.512 229.674 473.076 231.754C469.64 233.743 464.08 234.738 456.394 234.738ZM447.306 197.032C448.12 198.298 449.205 199.248 450.562 199.881C452.008 200.423 453.591 200.694 455.309 200.694C457.298 200.694 459.016 200.242 460.463 199.338C462 198.434 462.768 197.258 462.768 195.812C462.768 194.184 462.09 192.783 460.734 191.607C459.468 190.432 457.614 189.844 455.173 189.844C452.732 189.844 450.788 190.612 449.341 192.15C447.985 193.596 447.306 195.224 447.306 197.032Z" fill="white"/>
<path d="M514.883 234.738C506.926 234.738 500.596 233.427 495.894 230.805C491.192 228.182 488.841 224.792 488.841 220.632C488.841 217.92 489.746 215.84 491.554 214.393C493.453 212.856 495.849 212.088 498.743 212.088C500.37 212.088 501.681 212.314 502.676 212.766C503.671 213.218 504.665 213.851 505.66 214.665C506.383 215.297 506.971 215.75 507.423 216.021C507.966 216.292 508.599 216.428 509.322 216.428C511.221 216.428 512.17 215.75 512.17 214.393C512.17 213.127 511.673 212.178 510.678 211.545C509.684 210.822 507.966 209.963 505.524 208.968C503.264 208.064 501.772 207.431 501.048 207.069C496.889 205.08 493.815 202.729 491.825 200.016C489.836 197.304 488.841 194.41 488.841 191.336C488.841 187.9 490.062 184.645 492.504 181.57C495.035 178.406 498.562 175.874 503.083 173.975C507.694 171.986 512.984 170.991 518.952 170.991C524.106 170.991 528.762 171.714 532.922 173.161C537.172 174.608 540.517 176.597 542.959 179.129C545.4 181.57 546.621 184.283 546.621 187.267C546.621 190.07 545.716 192.195 543.908 193.642C542.19 195.088 539.839 195.812 536.855 195.812C535.68 195.812 534.73 195.721 534.007 195.54C533.374 195.269 532.515 194.862 531.43 194.32C530.797 193.958 530.119 193.642 529.395 193.37C528.762 193.099 528.039 192.963 527.225 192.963C526.502 192.963 525.869 193.235 525.326 193.777C524.784 194.229 524.513 194.817 524.513 195.54C524.513 196.897 525.507 197.891 527.497 198.524C532.741 200.242 536.946 202.412 540.11 205.035C543.365 207.657 544.993 211.274 544.993 215.885C544.993 221.763 542.235 226.374 536.719 229.72C531.294 233.065 524.015 234.738 514.883 234.738Z" fill="white"/>
<path d="M576.738 234.738C568.781 234.738 562.452 233.427 557.75 230.805C553.048 228.182 550.697 224.792 550.697 220.632C550.697 217.92 551.601 215.84 553.41 214.393C555.309 212.856 557.705 212.088 560.598 212.088C562.226 212.088 563.537 212.314 564.531 212.766C565.526 213.218 566.521 213.851 567.515 214.665C568.239 215.297 568.826 215.75 569.279 216.021C569.821 216.292 570.454 216.428 571.177 216.428C573.076 216.428 574.026 215.75 574.026 214.393C574.026 213.127 573.528 212.178 572.534 211.545C571.539 210.822 569.821 209.963 567.38 208.968C565.119 208.064 563.627 207.431 562.904 207.069C558.744 205.08 555.67 202.729 553.681 200.016C551.692 197.304 550.697 194.41 550.697 191.336C550.697 187.9 551.918 184.645 554.359 181.57C556.891 178.406 560.417 175.874 564.938 173.975C569.55 171.986 574.839 170.991 580.807 170.991C585.961 170.991 590.618 171.714 594.777 173.161C599.027 174.608 602.373 176.597 604.814 179.129C607.255 181.57 608.476 184.283 608.476 187.267C608.476 190.07 607.572 192.195 605.763 193.642C604.045 195.088 601.695 195.812 598.711 195.812C597.535 195.812 596.586 195.721 595.862 195.54C595.229 195.269 594.37 194.862 593.285 194.32C592.652 193.958 591.974 193.642 591.251 193.37C590.618 193.099 589.895 192.963 589.081 192.963C588.357 192.963 587.724 193.235 587.182 193.777C586.639 194.229 586.368 194.817 586.368 195.54C586.368 196.897 587.363 197.891 589.352 198.524C594.596 200.242 598.801 202.412 601.966 205.035C605.221 207.657 606.849 211.274 606.849 215.885C606.849 221.763 604.091 226.374 598.575 229.72C593.15 233.065 585.871 234.738 576.738 234.738Z" fill="white"/>
<path d="M681.848 234.602C679.677 234.602 677.643 234.331 675.744 233.789C673.936 233.246 671.811 232.025 669.37 230.127C666.566 227.866 663.402 224.068 659.875 218.733C656.349 213.308 653.32 207.476 650.788 201.237C648.256 194.907 646.99 189.211 646.99 184.147C646.99 180.35 648.075 177.23 650.245 174.789C652.506 172.257 655.128 170.991 658.112 170.991C661.729 170.991 664.803 172.393 667.335 175.196C669.957 177.908 672.127 181.299 673.845 185.368C675.654 189.347 677.688 194.727 679.949 201.508C680.22 202.322 680.491 203.226 680.763 204.221C681.124 205.125 681.486 206.075 681.848 207.069L683.204 203.136C685.736 195.902 687.906 190.206 689.714 186.046C691.523 181.796 693.783 178.225 696.496 175.331C699.208 172.347 702.373 170.901 705.99 170.991C708.884 171.082 711.325 172.167 713.314 174.246C715.394 176.326 716.434 179.355 716.434 183.334C716.434 188.759 715.258 194.455 712.907 200.423C710.556 206.391 707.798 211.816 704.634 216.699C701.469 221.491 698.756 225.018 696.496 227.278C694.507 229.539 692.156 231.347 689.443 232.704C686.821 233.969 684.289 234.602 681.848 234.602Z" fill="white"/>
<path d="M752.956 234.738C746.265 234.738 740.342 233.427 735.188 230.805C730.034 228.182 726.01 224.52 723.117 219.819C720.314 215.026 718.912 209.646 718.912 203.678C718.912 197.801 720.314 192.376 723.117 187.403C726.01 182.429 729.989 178.451 735.052 175.467C740.116 172.483 745.858 170.991 752.278 170.991C758.065 170.991 763.173 172.167 767.604 174.518C772.035 176.868 775.425 179.988 777.776 183.876C780.127 187.674 781.303 191.652 781.303 195.812C781.303 202.593 778.726 207.566 773.572 210.731C768.508 213.806 762.45 215.343 755.397 215.343C750.695 215.343 746.717 214.755 743.462 213.579C746.174 218.01 750.65 220.225 756.889 220.225C759.421 220.225 762.133 219.909 765.027 219.276C766.112 219.005 767.152 218.869 768.146 218.869C770.136 218.869 771.718 219.366 772.894 220.361C774.16 221.356 774.792 222.712 774.792 224.43C774.792 227.233 773.074 229.674 769.638 231.754C766.202 233.743 760.642 234.738 752.956 234.738ZM743.868 197.032C744.682 198.298 745.767 199.248 747.124 199.881C748.57 200.423 750.153 200.694 751.871 200.694C753.86 200.694 755.578 200.242 757.025 199.338C758.562 198.434 759.33 197.258 759.33 195.812C759.33 194.184 758.652 192.783 757.296 191.607C756.03 190.432 754.176 189.844 751.735 189.844C749.294 189.844 747.35 190.612 745.903 192.15C744.547 193.596 743.868 195.224 743.868 197.032Z" fill="white"/>
<path d="M630.16 174.422C630.077 173.857 628.996 173.857 628.916 174.422C626.212 193.108 612.383 215.89 612.383 228.878C612.383 236.905 620.236 243.41 629.538 243.41C638.84 243.41 646.69 236.902 646.69 228.878C646.69 215.89 632.864 193.108 630.16 174.422ZM627.547 214.01C627.363 214.585 627.17 215.179 626.968 215.793C625.74 219.537 624.346 223.783 624.346 228.691C624.346 231.352 622.515 232.296 620.806 232.296C620.339 232.295 619.876 232.214 619.445 232.059C619.015 231.904 618.624 231.678 618.295 231.393C617.966 231.109 617.706 230.771 617.529 230.4C617.352 230.029 617.263 229.631 617.265 229.23C617.265 223.428 620.518 219.636 623.391 216.295C624.294 215.248 625.143 214.257 625.832 213.271C626.147 212.819 626.996 212.84 627.382 213.287C627.562 213.497 627.624 213.766 627.547 214.01Z" fill="white"/>
</g>
<defs>
<filter id="filter0_d_871_1314" x="0.000141144" y="0" width="838.048" height="256.175" filterUnits="userSpaceOnUse" color-interpolation-filters="sRGB">
<feFlood flood-opacity="0" result="BackgroundImageFix"/>
<feColorMatrix in="SourceAlpha" type="matrix" values="0 0 0 0 0 0 0 0 0 0 0 0 0 0 0 0 0 0 127 0" result="hardAlpha"/>
<feOffset dy="6.38267"/>
<feGaussianBlur stdDeviation="3.19134"/>
<feComposite in2="hardAlpha" operator="out"/>
<feColorMatrix type="matrix" values="0 0 0 0 0 0 0 0 0 0 0 0 0 0 0 0 0 0 0.15 0"/>
<feBlend mode="normal" in2="BackgroundImageFix" result="effect1_dropShadow_871_1314"/>
<feBlend mode="normal" in="SourceGraphic" in2="effect1_dropShadow_871_1314" result="shape"/>
</filter>
</defs>
</svg>
