<svg width="750" height="256" viewBox="0 0 750 256" fill="none" xmlns="http://www.w3.org/2000/svg">
<g filter="url(#filter0_d_871_1319)">
<path d="M102.274 20.3448C102.274 26.3126 99.7879 30.6528 94.8147 33.3654C89.932 35.9876 81.9297 37.57 70.8079 38.1125C71.1696 42.4527 71.3504 48.0589 71.3504 54.9309C71.3504 64.5155 70.8079 72.2013 69.7228 77.9883C68.7282 83.6848 66.965 87.9346 64.4332 90.7376C61.9014 93.4503 58.375 94.8066 53.8539 94.8066C49.4233 94.8066 46.0325 93.3599 43.6815 90.4664C41.3306 87.5729 39.703 83.2779 38.7988 77.5814C37.8946 71.8848 37.4425 64.3347 37.4425 54.9309C37.4425 48.6014 37.5781 42.9953 37.8494 38.1125C30.3444 37.7508 24.2862 36.9823 19.6747 35.8068C15.1537 34.5409 11.8081 32.6873 9.63797 30.2459C7.46787 27.8045 6.38281 24.5041 6.38281 20.3448C6.38281 15.2812 8.10081 11.3026 11.5368 8.40917C14.9728 5.51569 20.1268 3.48122 26.9988 2.30574C33.8709 1.13027 42.8678 0.542528 53.9896 0.542528C65.2018 0.542528 74.2891 1.13027 81.2515 2.30574C88.214 3.48122 93.4584 5.51569 96.9848 8.40917C100.511 11.3026 102.274 15.2812 102.274 20.3448Z" fill="white"/>
<path d="M121.204 95.0779C116.773 95.0779 113.382 93.3599 111.031 89.9239C108.68 86.4879 107.053 81.1982 106.148 74.0549C105.335 66.9117 104.928 57.0106 104.928 44.3516C104.928 33.7723 105.199 25.4988 105.742 19.531C106.375 13.5632 107.776 8.86128 109.946 5.42527C112.116 1.89884 115.507 0.13563 120.119 0.13563C124.097 0.13563 127.081 1.40153 129.07 3.93332C131.059 6.46511 132.325 9.62985 132.868 13.4275C133.41 17.2252 133.682 21.9723 133.682 27.6689V33.7723C135.49 32.8681 137.072 32.2352 138.429 31.8735C139.876 31.5118 142 31.3309 144.803 31.3309C150.952 31.3309 156.242 32.9133 160.672 36.078C165.103 39.1524 168.449 43.3117 170.709 48.5562C173.06 53.8006 174.236 59.6328 174.236 66.0527C174.236 74.3714 173.331 81.2434 171.523 86.6687C169.805 92.0036 166.369 94.671 161.215 94.671C157.598 94.671 154.885 93.8572 153.077 92.2296C151.359 90.602 150.229 88.3867 149.686 85.5836C149.234 82.7806 149.008 78.9377 149.008 74.0549C149.008 68.7201 148.42 64.6059 147.245 61.7125C146.16 58.819 144.216 57.3722 141.413 57.3722C138.61 57.3722 136.575 58.8642 135.309 61.8481C134.134 64.7416 133.501 68.8105 133.41 74.0549C133.32 78.9377 133.004 82.8258 132.461 85.7193C132.009 88.6128 130.879 90.9185 129.07 92.6365C127.352 94.2641 124.73 95.0779 121.204 95.0779Z" fill="white"/>
<path d="M212.35 95.0779C205.659 95.0779 199.736 93.7668 194.582 91.1445C189.428 88.5223 185.405 84.8603 182.511 80.1584C179.708 75.366 178.307 69.986 178.307 64.0182C178.307 58.1408 179.708 52.7155 182.511 47.7424C185.405 42.7692 189.383 38.7907 194.447 35.8068C199.51 32.8229 205.252 31.3309 211.672 31.3309C217.459 31.3309 222.568 32.5064 226.998 34.8574C231.429 37.2083 234.82 40.3278 237.171 44.216C239.522 48.0136 240.697 51.9922 240.697 56.1516C240.697 62.9331 238.12 67.9063 232.966 71.071C227.903 74.1454 221.844 75.6825 214.792 75.6825C210.09 75.6825 206.111 75.0948 202.856 73.9193C205.569 78.3499 210.045 80.5653 216.284 80.5653C218.815 80.5653 221.528 80.2488 224.421 79.6158C225.507 79.3446 226.546 79.209 227.541 79.209C229.53 79.209 231.113 79.7063 232.288 80.7009C233.554 81.6955 234.187 83.0518 234.187 84.7699C234.187 87.5729 232.469 90.0143 229.033 92.094C225.597 94.0832 220.036 95.0779 212.35 95.0779ZM203.263 57.3722C204.077 58.6381 205.162 59.5876 206.518 60.2205C207.965 60.763 209.547 61.0343 211.265 61.0343C213.254 61.0343 214.972 60.5822 216.419 59.678C217.956 58.7738 218.725 57.5983 218.725 56.1516C218.725 54.524 218.047 53.1224 216.69 51.947C215.425 50.7715 213.571 50.1838 211.13 50.1838C208.688 50.1838 206.744 50.9523 205.297 52.4895C203.941 53.9362 203.263 55.5638 203.263 57.3722Z" fill="white"/>
<path d="M303.979 94.8066C299.458 94.8066 296.067 93.1338 293.807 89.7882C291.546 86.4426 290.009 81.5147 289.195 75.0044C288.472 68.4036 288.11 59.2259 288.11 47.4711C288.11 36.1685 288.381 27.3524 288.924 21.0229C289.557 14.6934 291.004 9.62985 293.264 5.83216C295.615 2.03447 299.232 0.13563 304.115 0.13563C308.997 0.13563 312.569 2.03447 314.83 5.83216C317.181 9.62985 318.627 14.6934 319.17 21.0229C319.803 27.3524 320.119 36.1685 320.119 47.4711C320.119 58.5929 319.622 67.5898 318.627 74.4618C317.723 81.2434 316.095 86.3522 313.745 89.7882C311.394 93.1338 308.138 94.8066 303.979 94.8066Z" fill="white"/>
<path d="M348.683 95.0779C341.631 95.0779 335.844 93.4955 331.323 90.3308C326.802 87.0756 324.541 82.4189 324.541 76.3607C324.541 71.1163 326.847 66.9569 331.458 63.8826C336.07 60.8082 341.811 59.2711 348.683 59.2711C351.215 59.2711 353.566 59.4971 355.736 59.9492C357.997 60.3109 359.534 60.763 360.348 61.3056C360.348 59.045 359.398 57.1914 357.5 55.7447C355.601 54.2075 352.707 53.4389 348.819 53.4389C347.101 53.4389 345.7 53.5745 344.615 53.8458C343.529 54.1171 342.354 54.524 341.088 55.0665C339.822 55.609 338.647 56.0159 337.562 56.2872C336.567 56.5584 335.211 56.6941 333.493 56.6941C330.599 56.6941 328.339 55.9707 326.711 54.524C325.084 52.9868 324.27 50.6811 324.27 47.6068C324.27 44.0803 325.536 41.0964 328.067 38.6551C330.69 36.2137 333.945 34.4053 337.833 33.2298C341.721 31.9639 345.609 31.3309 349.497 31.3309C357.183 31.3309 363.603 32.7777 368.757 35.6712C374.001 38.4742 377.844 42.2267 380.286 46.9286C382.817 51.6305 384.083 56.8297 384.083 62.5262C384.083 65.6006 383.812 68.4488 383.27 71.071C382.817 73.6933 382.185 75.7277 381.371 77.1745C382.637 78.2595 383.586 79.5254 384.219 80.9722C384.942 82.4189 385.304 83.9109 385.304 85.448C385.304 88.0702 384.4 90.3308 382.591 92.2296C380.873 94.1284 378.568 95.0779 375.674 95.0779C373.504 95.0779 371.741 94.7614 370.385 94.1284C369.028 93.4955 367.582 92.5009 366.044 91.1445C363.784 92.5009 361.297 93.4955 358.585 94.1284C355.962 94.7614 352.662 95.0779 348.683 95.0779ZM351.396 81.3791C353.295 81.3791 354.787 80.9722 355.872 80.1584C357.047 79.3446 357.635 78.35 357.635 77.1745C357.635 75.999 357.047 75.0044 355.872 74.1906C354.787 73.3768 353.295 72.9699 351.396 72.9699C349.497 72.9699 347.96 73.3768 346.785 74.1906C345.7 75.0044 345.157 75.999 345.157 77.1745C345.157 78.35 345.7 79.3446 346.785 80.1584C347.96 80.9722 349.497 81.3791 351.396 81.3791Z" fill="white"/>
<path d="M422.259 95.0779C415.659 95.0779 409.872 93.4503 404.899 90.1951C399.925 86.8495 396.083 82.2381 393.37 76.3607C390.748 70.3929 389.437 63.5209 389.437 55.7447C389.437 48.1493 390.657 42.1815 393.099 37.8413C395.54 33.501 398.931 31.3309 403.271 31.3309C410.957 31.3309 414.8 35.2643 414.8 43.1309C414.8 44.7585 414.755 46.2052 414.664 47.4711C414.574 48.6466 414.483 49.6864 414.393 50.5906C414.031 54.2075 413.85 57.101 413.85 59.2711C413.85 63.2496 414.664 66.2787 416.292 68.3584C417.919 70.4381 419.909 71.4779 422.259 71.4779C424.701 71.4779 426.69 70.4833 428.227 68.494C429.855 66.4144 430.669 63.34 430.669 59.2711C430.669 56.3776 430.533 53.7102 430.262 51.2688C430.171 50.455 430.081 49.2795 429.99 47.7424C429.9 46.1148 429.855 44.6229 429.855 43.2665C429.855 35.3095 433.698 31.3309 441.384 31.3309C445.724 31.3309 449.069 33.501 451.42 37.8413C453.862 42.0911 455.082 48.0589 455.082 55.7447C455.082 67.7707 452.279 77.3553 446.673 84.4986C441.067 91.5514 432.929 95.0779 422.259 95.0779Z" fill="white"/>
<path d="M514.536 95.0779C511.281 95.0779 508.839 94.1737 507.212 92.3652C505.674 90.5568 504.725 88.3415 504.363 85.7193C504.002 83.0971 503.821 79.7063 503.821 75.5469C503.821 70.212 503.097 66.0979 501.651 63.2044C500.204 60.3109 497.853 58.8642 494.598 58.8642C491.614 58.8642 489.353 60.3109 487.816 63.2044C486.369 66.0075 485.646 69.8956 485.646 74.8687C485.646 79.6611 485.51 83.2779 485.239 85.7193C484.968 88.1606 484.064 90.3308 482.527 92.2296C480.989 94.038 478.458 94.9422 474.931 94.9422C469.777 94.9422 466.16 91.6419 464.081 85.0411C462.001 78.3499 460.961 70.5285 460.961 61.5768C460.961 39.8757 465.527 29.0252 474.66 29.0252C477.192 29.0252 479.271 29.6581 480.899 30.924C482.527 32.0995 483.657 33.8175 484.29 36.078C485.465 34.8122 487.274 33.6819 489.715 32.6873C492.247 31.6926 494.914 31.1953 497.717 31.1953C507.664 31.1953 515.078 34.8122 519.961 42.0458C524.934 49.2795 527.421 59.0902 527.421 71.4779C527.421 78.8021 526.471 84.589 524.572 88.8388C522.674 92.9982 519.328 95.0779 514.536 95.0779Z" fill="white"/>
<path d="M563.839 95.0779C557.419 95.0779 551.722 93.5407 546.749 90.4664C541.867 87.3016 538.114 83.2327 535.492 78.2595C532.87 73.1959 531.559 67.8159 531.559 62.1193C531.559 55.4282 532.915 49.7769 535.628 45.1654C538.431 40.4635 542.002 36.9823 546.342 34.7217C550.773 32.4612 555.52 31.3309 560.584 31.3309C565.647 31.3309 570.168 32.416 574.147 34.5861C573.966 32.6873 573.604 30.6528 573.062 28.4827C572.61 26.3126 572.293 24.9562 572.112 24.4137C571.389 21.6107 570.847 19.2597 570.485 17.3609C570.123 15.462 569.942 13.5632 569.942 11.6643C569.942 7.86665 571.073 4.97317 573.333 2.9839C575.594 0.994634 578.306 0 581.471 0C586.535 0 590.649 2.53179 593.814 7.59538C596.978 12.659 599.239 18.9432 600.595 26.4482C602.042 33.9532 602.765 41.5485 602.765 49.2343C602.765 59.6328 600.369 69.8956 595.577 80.0227C590.875 90.0595 580.296 95.0779 563.839 95.0779ZM564.653 73.648C567.094 73.648 569.219 72.7438 571.027 70.9354C572.836 69.0366 573.74 66.8213 573.74 64.2895C573.74 61.7577 572.836 59.5423 571.027 57.6435C569.219 55.7447 567.094 54.7952 564.653 54.7952C562.211 54.7952 560.041 55.7447 558.142 57.6435C556.334 59.5423 555.43 61.7577 555.43 64.2895C555.43 66.8213 556.334 69.0366 558.142 70.9354C560.041 72.7438 562.211 73.648 564.653 73.648Z" fill="white"/>
<path d="M624.086 95.0779C618.299 95.0779 614.411 91.6871 612.422 84.9055C610.523 78.1239 609.573 68.7653 609.573 56.8297C609.573 51.4044 609.799 46.8834 610.251 43.2665C610.794 39.5593 612.015 36.4397 613.914 33.9079C615.903 31.2857 618.932 29.9746 623.001 29.9746C625.533 29.9746 627.748 30.5624 629.647 31.7378C631.636 32.9133 632.902 34.5861 633.445 36.7562C635.434 34.9478 638.011 33.5915 641.175 32.6873C644.34 31.783 647.731 31.3309 651.348 31.3309C654.241 31.3309 657.18 32.0543 660.164 33.501C663.238 34.9478 665.77 36.937 667.759 39.4688C669.839 41.9102 670.879 44.5776 670.879 47.4711C670.879 50.3646 669.839 52.9416 667.759 55.2021C665.77 57.3722 663.103 58.4573 659.757 58.4573C658.672 58.4573 657.632 58.3217 656.638 58.0504C655.733 57.7791 654.92 57.5079 654.196 57.2366C652.388 56.5132 650.941 56.1516 649.856 56.1516C646.33 56.1516 643.21 57.5531 640.497 60.3561C637.875 63.0688 636.564 66.5952 636.564 70.9354C636.564 75.7277 636.383 79.7063 636.021 82.871C635.66 86.0358 634.575 88.884 632.766 91.4158C630.958 93.8572 628.064 95.0779 624.086 95.0779Z" fill="white"/>
<path d="M697.656 115.151C692.773 115.151 688.704 114.202 685.449 112.303C682.194 110.404 680.566 107.601 680.566 103.894C680.566 100.91 681.967 98.5591 684.771 96.8411C687.574 95.1231 690.874 94.3545 694.672 94.5353C698.65 94.7162 701.724 94.5353 703.895 93.9928C706.155 93.4503 707.873 92.4557 709.049 91.0089C700.73 91.0089 694.084 89.8334 689.111 87.4825C684.138 85.0411 680.521 81.2886 678.26 76.2251C676.09 71.071 675.005 64.2895 675.005 55.8803C675.005 48.6466 676.09 42.8144 678.26 38.3838C680.521 33.8627 684.047 31.6022 688.839 31.6022C693.089 31.6022 696.209 32.8229 698.198 35.2643C700.278 37.6152 701.318 40.6895 701.318 44.4872L701.182 50.455C701.092 51.6305 701.046 53.3485 701.046 55.609C701.046 59.9492 701.589 63.2496 702.674 65.5101C703.759 67.6803 705.929 68.7653 709.184 68.7653C712.439 68.7653 714.609 67.6803 715.695 65.5101C716.78 63.2496 717.322 59.9945 717.322 55.7447C717.322 53.4841 717.277 51.7661 717.186 50.5906L717.051 44.7585C717.051 40.6895 718.045 37.4796 720.035 35.1286C722.114 32.7777 725.279 31.6022 729.529 31.6022C734.321 31.6022 737.848 33.8627 740.108 38.3838C742.369 42.9049 743.499 48.737 743.499 55.8803C743.499 66.55 741.962 76.3607 738.888 85.3124C735.904 94.1737 730.976 101.362 724.104 106.878C717.322 112.394 708.506 115.151 697.656 115.151Z" fill="white"/>
<path d="M75.8954 231.079C70.1085 231.079 66.2203 227.688 64.2311 220.907C62.3322 214.125 61.3828 204.766 61.3828 192.831C61.3828 187.406 61.6089 182.884 62.061 179.268C62.6035 175.56 63.8242 172.441 65.723 169.909C67.7123 167.287 70.7414 165.976 74.8104 165.976C77.3421 165.976 79.5575 166.563 81.4563 167.739C83.4456 168.914 84.7115 170.587 85.254 172.757C87.2433 170.949 89.8203 169.593 92.985 168.688C96.1498 167.784 99.5405 167.332 103.157 167.332C106.051 167.332 108.99 168.055 111.973 169.502C115.048 170.949 117.58 172.938 119.569 175.47C121.649 177.911 122.688 180.579 122.688 183.472C122.688 186.366 121.649 188.943 119.569 191.203C117.58 193.373 114.912 194.458 111.567 194.458C110.482 194.458 109.442 194.323 108.447 194.051C107.543 193.78 106.729 193.509 106.006 193.238C104.197 192.514 102.751 192.153 101.665 192.153C98.139 192.153 95.0195 193.554 92.3069 196.357C89.6846 199.07 88.3735 202.596 88.3735 206.936C88.3735 211.729 88.1927 215.707 87.831 218.872C87.4693 222.037 86.3843 224.885 84.5758 227.417C82.7674 229.858 79.8739 231.079 75.8954 231.079Z" fill="white"/>
<path d="M156.752 231.079C150.061 231.079 144.138 229.768 138.984 227.146C133.83 224.523 129.807 220.861 126.913 216.159C124.11 211.367 122.708 205.987 122.708 200.019C122.708 194.142 124.11 188.717 126.913 183.743C129.807 178.77 133.785 174.792 138.849 171.808C143.912 168.824 149.654 167.332 156.074 167.332C161.861 167.332 166.97 168.507 171.4 170.858C175.831 173.209 179.222 176.329 181.573 180.217C183.924 184.015 185.099 187.993 185.099 192.153C185.099 198.934 182.522 203.907 177.368 207.072C172.305 210.146 166.246 211.684 159.193 211.684C154.492 211.684 150.513 211.096 147.258 209.92C149.97 214.351 154.446 216.566 160.685 216.566C163.217 216.566 165.93 216.25 168.823 215.617C169.908 215.346 170.948 215.21 171.943 215.21C173.932 215.21 175.514 215.707 176.69 216.702C177.956 217.697 178.589 219.053 178.589 220.771C178.589 223.574 176.871 226.015 173.435 228.095C169.999 230.084 164.438 231.079 156.752 231.079ZM147.665 193.373C148.479 194.639 149.564 195.589 150.92 196.222C152.367 196.764 153.949 197.035 155.667 197.035C157.656 197.035 159.374 196.583 160.821 195.679C162.358 194.775 163.127 193.599 163.127 192.153C163.127 190.525 162.449 189.124 161.092 187.948C159.826 186.773 157.973 186.185 155.531 186.185C153.09 186.185 151.146 186.953 149.699 188.491C148.343 189.937 147.665 191.565 147.665 193.373Z" fill="white"/>
<path d="M222.6 230.943C220.43 230.943 218.396 230.672 216.497 230.13C214.688 229.587 212.563 228.366 210.122 226.467C207.319 224.207 204.154 220.409 200.628 215.074C197.101 209.649 194.072 203.817 191.541 197.578C189.009 191.248 187.743 185.552 187.743 180.488C187.743 176.691 188.828 173.571 190.998 171.13C193.259 168.598 195.881 167.332 198.865 167.332C202.482 167.332 205.556 168.734 208.088 171.537C210.71 174.249 212.88 177.64 214.598 181.709C216.406 185.688 218.441 191.068 220.701 197.849C220.973 198.663 221.244 199.567 221.515 200.562C221.877 201.466 222.239 202.415 222.6 203.41L223.957 199.477C226.488 192.243 228.658 186.547 230.467 182.387C232.275 178.137 234.536 174.566 237.248 171.672C239.961 168.688 243.126 167.242 246.743 167.332C249.636 167.422 252.078 168.508 254.067 170.587C256.146 172.667 257.186 175.696 257.186 179.675C257.186 185.1 256.011 190.796 253.66 196.764C251.309 202.732 248.551 208.157 245.386 213.04C242.222 217.832 239.509 221.359 237.248 223.619C235.259 225.88 232.908 227.688 230.196 229.044C227.573 230.31 225.042 230.943 222.6 230.943Z" fill="white"/>
<path d="M293.573 231.215C287.062 231.305 281.23 229.949 276.076 227.146C271.013 224.343 267.034 220.5 264.141 215.617C261.338 210.644 259.846 205.128 259.665 199.07C259.574 193.012 260.976 187.586 263.869 182.794C266.763 178.002 270.787 174.204 275.941 171.401C281.185 168.598 287.062 167.196 293.573 167.196C299.902 167.196 305.599 168.553 310.662 171.265C315.816 173.978 319.885 177.776 322.869 182.658C325.853 187.541 327.435 193.012 327.616 199.07C327.707 204.947 326.305 210.327 323.412 215.21C320.518 220.002 316.449 223.845 311.205 226.739C306.051 229.632 300.174 231.124 293.573 231.215ZM293.98 211.412C296.421 211.412 298.546 210.463 300.354 208.564C302.163 206.665 303.067 204.45 303.067 201.918C303.067 199.386 302.163 197.216 300.354 195.408C298.546 193.509 296.421 192.56 293.98 192.56C291.538 192.56 289.413 193.509 287.605 195.408C285.796 197.216 284.892 199.386 284.892 201.918C284.892 204.45 285.796 206.665 287.605 208.564C289.413 210.463 291.538 211.412 293.98 211.412Z" fill="white"/>
<path d="M350.237 230.808C345.716 230.808 342.325 229.135 340.065 225.789C337.804 222.444 336.267 217.516 335.453 211.005C334.73 204.405 334.368 195.227 334.368 183.472C334.368 172.17 334.639 163.353 335.182 157.024C335.815 150.695 337.262 145.631 339.522 141.833C341.873 138.036 345.49 136.137 350.373 136.137C355.256 136.137 358.827 138.036 361.088 141.833C363.439 145.631 364.885 150.695 365.428 157.024C366.061 163.353 366.377 172.17 366.377 183.472C366.377 194.594 365.88 203.591 364.885 210.463C363.981 217.245 362.354 222.353 360.003 225.789C357.652 229.135 354.397 230.808 350.237 230.808Z" fill="white"/>
<path d="M406 231.079C399.399 231.079 393.612 229.451 388.639 226.196C383.666 222.851 379.823 218.239 377.11 212.362C374.488 206.394 373.177 199.522 373.177 191.746C373.177 184.15 374.398 178.183 376.839 173.842C379.28 169.502 382.671 167.332 387.011 167.332C394.697 167.332 398.54 171.265 398.54 179.132C398.54 180.76 398.495 182.206 398.404 183.472C398.314 184.648 398.224 185.688 398.133 186.592C397.771 190.209 397.591 193.102 397.591 195.272C397.591 199.251 398.404 202.28 400.032 204.359C401.66 206.439 403.649 207.479 406 207.479C408.441 207.479 410.43 206.484 411.968 204.495C413.595 202.415 414.409 199.341 414.409 195.272C414.409 192.379 414.273 189.711 414.002 187.27C413.912 186.456 413.821 185.281 413.731 183.743C413.64 182.116 413.595 180.624 413.595 179.268C413.595 171.311 417.438 167.332 425.124 167.332C429.464 167.332 432.81 169.502 435.161 173.842C437.602 178.092 438.823 184.06 438.823 191.746C438.823 203.772 436.02 213.356 430.414 220.5C424.807 227.553 416.669 231.079 406 231.079Z" fill="white"/>
<path d="M512.214 172.35C512.214 177.052 509.999 180.262 505.568 181.98C501.138 183.608 495.079 184.467 487.394 184.557C487.303 186.818 487.258 190.48 487.258 195.543C487.258 200.697 487.62 204.359 488.343 206.53C488.795 208.067 489.473 209.061 490.378 209.514C491.372 209.966 492.819 210.282 494.718 210.463C495.351 210.553 496.029 210.689 496.752 210.87C497.566 210.96 498.47 211.096 499.465 211.277C501.545 211.729 503.172 212.859 504.348 214.668C505.523 216.386 506.111 218.601 506.111 221.313C506.111 224.388 504.529 226.784 501.364 228.502C498.199 230.22 493.859 231.079 488.343 231.079C483.28 231.079 478.442 229.632 473.831 226.739C469.219 223.755 466.054 219.776 464.336 214.803C462.528 209.468 461.624 199.386 461.624 184.557C455.294 184.376 450.185 183.563 446.297 182.116C442.5 180.579 440.601 177.866 440.601 173.978C440.601 169.095 442.409 165.84 446.026 164.212C449.643 162.494 454.842 161.59 461.624 161.5C461.895 154.266 463.025 148.253 465.014 143.461C467.004 138.578 470.575 136.137 475.729 136.137C480.974 136.137 484.365 138.397 485.902 142.918C487.529 147.439 488.253 153.633 488.072 161.5C496.3 161.409 502.358 162.042 506.246 163.399C510.225 164.755 512.214 167.739 512.214 172.35Z" fill="white"/>
<path d="M583.38 231.215C576.869 231.305 571.037 229.949 565.883 227.146C560.82 224.343 556.841 220.5 553.948 215.617C551.145 210.644 549.653 205.128 549.472 199.07C549.381 193.012 550.783 187.586 553.676 182.794C556.57 178.002 560.594 174.204 565.748 171.401C570.992 168.598 576.869 167.196 583.38 167.196C589.709 167.196 595.406 168.553 600.469 171.265C605.623 173.978 609.692 177.776 612.676 182.658C615.66 187.541 617.242 193.012 617.423 199.07C617.514 204.947 616.112 210.327 613.219 215.21C610.325 220.002 606.256 223.845 601.012 226.739C595.858 229.632 589.98 231.124 583.38 231.215ZM583.787 211.412C586.228 211.412 588.353 210.463 590.161 208.564C591.97 206.665 592.874 204.45 592.874 201.918C592.874 199.386 591.97 197.216 590.161 195.408C588.353 193.509 586.228 192.56 583.787 192.56C581.345 192.56 579.22 193.509 577.412 195.408C575.603 197.216 574.699 199.386 574.699 201.918C574.699 204.45 575.603 206.665 577.412 208.564C579.22 210.463 581.345 211.412 583.787 211.412Z" fill="white"/>
<path d="M675.101 231.079C671.845 231.079 669.404 230.175 667.776 228.366C666.239 226.558 665.29 224.343 664.928 221.72C664.567 219.098 664.386 215.707 664.386 211.548C664.386 206.213 663.662 202.099 662.216 199.205C660.769 196.312 658.418 194.865 655.163 194.865C652.179 194.865 649.918 196.312 648.381 199.205C646.934 202.009 646.211 205.897 646.211 210.87C646.211 215.662 646.075 219.279 645.804 221.72C645.533 224.162 644.629 226.332 643.091 228.231C641.554 230.039 639.023 230.943 635.496 230.943C630.342 230.943 626.725 227.643 624.646 221.042C622.566 214.351 621.526 206.53 621.526 197.578C621.526 175.877 626.092 165.026 635.225 165.026C637.757 165.026 639.836 165.659 641.464 166.925C643.092 168.101 644.222 169.819 644.855 172.079C646.03 170.813 647.839 169.683 650.28 168.688C652.812 167.694 655.479 167.196 658.282 167.196C668.229 167.196 675.643 170.813 680.526 178.047C685.499 185.281 687.986 195.091 687.986 207.479C687.986 214.803 687.036 220.59 685.137 224.84C683.239 228.999 679.893 231.079 675.101 231.079Z" fill="white"/>
<path d="M532.16 173.894C532.077 173.329 530.996 173.329 530.916 173.894C528.212 192.579 514.383 215.362 514.383 228.35C514.383 236.377 522.236 242.881 531.538 242.881C540.84 242.881 548.69 236.374 548.69 228.35C548.69 215.362 534.864 192.579 532.16 173.894ZM529.547 213.482C529.363 214.057 529.17 214.651 528.968 215.264C527.74 219.008 526.346 223.254 526.346 228.163C526.346 230.824 524.515 231.768 522.806 231.768C522.339 231.766 521.876 231.686 521.445 231.531C521.015 231.376 520.624 231.15 520.295 230.865C519.966 230.58 519.706 230.243 519.529 229.872C519.352 229.501 519.263 229.103 519.265 228.702C519.265 222.9 522.518 219.108 525.391 215.767C526.294 214.72 527.143 213.729 527.832 212.743C528.147 212.291 528.996 212.312 529.382 212.759C529.562 212.969 529.624 213.237 529.547 213.482Z" fill="white"/>
</g>
<defs>
<filter id="filter0_d_871_1319" x="0.000141144" y="0" width="749.882" height="255.648" filterUnits="userSpaceOnUse" color-interpolation-filters="sRGB">
<feFlood flood-opacity="0" result="BackgroundImageFix"/>
<feColorMatrix in="SourceAlpha" type="matrix" values="0 0 0 0 0 0 0 0 0 0 0 0 0 0 0 0 0 0 127 0" result="hardAlpha"/>
<feOffset dy="6.38267"/>
<feGaussianBlur stdDeviation="3.19134"/>
<feComposite in2="hardAlpha" operator="out"/>
<feColorMatrix type="matrix" values="0 0 0 0 0 0 0 0 0 0 0 0 0 0 0 0 0 0 0.15 0"/>
<feBlend mode="normal" in2="BackgroundImageFix" result="effect1_dropShadow_871_1319"/>
<feBlend mode="normal" in="SourceGraphic" in2="effect1_dropShadow_871_1319" result="shape"/>
</filter>
</defs>
</svg>
