<svg width="750" height="288" viewBox="0 0 750 288" fill="none" xmlns="http://www.w3.org/2000/svg">
<g filter="url(#filter0_d_873_1338)">
<path d="M102.274 20.3448C102.274 26.3126 99.7879 30.6528 94.8147 33.3654C89.932 35.9876 81.9297 37.57 70.8079 38.1125C71.1696 42.4527 71.3504 48.0589 71.3504 54.9309C71.3504 64.5155 70.8079 72.2013 69.7228 77.9883C68.7282 83.6848 66.965 87.9346 64.4332 90.7376C61.9014 93.4503 58.375 94.8066 53.8539 94.8066C49.4233 94.8066 46.0325 93.3599 43.6815 90.4664C41.3306 87.5729 39.703 83.2779 38.7988 77.5814C37.8946 71.8848 37.4425 64.3347 37.4425 54.9309C37.4425 48.6014 37.5781 42.9953 37.8494 38.1125C30.3444 37.7508 24.2862 36.9823 19.6747 35.8068C15.1537 34.5409 11.8081 32.6873 9.63797 30.2459C7.46787 27.8045 6.38281 24.5041 6.38281 20.3448C6.38281 15.2812 8.10081 11.3026 11.5368 8.40917C14.9728 5.51569 20.1268 3.48122 26.9988 2.30574C33.8709 1.13027 42.8678 0.542528 53.9896 0.542528C65.2018 0.542528 74.2891 1.13027 81.2515 2.30574C88.214 3.48122 93.4584 5.51569 96.9848 8.40917C100.511 11.3026 102.274 15.2812 102.274 20.3448Z" fill="white"/>
<path d="M121.204 95.0779C116.773 95.0779 113.382 93.3599 111.031 89.9239C108.68 86.4879 107.053 81.1982 106.148 74.0549C105.335 66.9117 104.928 57.0106 104.928 44.3516C104.928 33.7723 105.199 25.4988 105.742 19.531C106.375 13.5632 107.776 8.86128 109.946 5.42527C112.116 1.89884 115.507 0.13563 120.119 0.13563C124.097 0.13563 127.081 1.40153 129.07 3.93332C131.059 6.46511 132.325 9.62985 132.868 13.4275C133.41 17.2252 133.682 21.9723 133.682 27.6689V33.7723C135.49 32.8681 137.072 32.2352 138.429 31.8735C139.876 31.5118 142 31.3309 144.803 31.3309C150.952 31.3309 156.242 32.9133 160.672 36.078C165.103 39.1524 168.449 43.3117 170.709 48.5562C173.06 53.8006 174.236 59.6328 174.236 66.0527C174.236 74.3714 173.331 81.2434 171.523 86.6687C169.805 92.0036 166.369 94.671 161.215 94.671C157.598 94.671 154.885 93.8572 153.077 92.2296C151.359 90.602 150.229 88.3867 149.686 85.5836C149.234 82.7806 149.008 78.9377 149.008 74.0549C149.008 68.7201 148.42 64.6059 147.245 61.7125C146.16 58.819 144.216 57.3722 141.413 57.3722C138.61 57.3722 136.575 58.8642 135.309 61.8481C134.134 64.7416 133.501 68.8105 133.41 74.0549C133.32 78.9377 133.004 82.8258 132.461 85.7193C132.009 88.6128 130.879 90.9185 129.07 92.6365C127.352 94.2641 124.73 95.0779 121.204 95.0779Z" fill="white"/>
<path d="M212.35 95.0779C205.659 95.0779 199.736 93.7668 194.582 91.1445C189.428 88.5223 185.405 84.8603 182.511 80.1584C179.708 75.366 178.307 69.986 178.307 64.0182C178.307 58.1408 179.708 52.7155 182.511 47.7424C185.405 42.7692 189.383 38.7907 194.447 35.8068C199.51 32.8229 205.252 31.3309 211.672 31.3309C217.459 31.3309 222.568 32.5064 226.998 34.8574C231.429 37.2083 234.82 40.3278 237.171 44.216C239.522 48.0136 240.697 51.9922 240.697 56.1516C240.697 62.9331 238.12 67.9063 232.966 71.071C227.903 74.1454 221.844 75.6825 214.792 75.6825C210.09 75.6825 206.111 75.0948 202.856 73.9193C205.569 78.3499 210.045 80.5653 216.284 80.5653C218.815 80.5653 221.528 80.2488 224.421 79.6158C225.507 79.3446 226.546 79.209 227.541 79.209C229.53 79.209 231.113 79.7063 232.288 80.7009C233.554 81.6955 234.187 83.0518 234.187 84.7699C234.187 87.5729 232.469 90.0143 229.033 92.094C225.597 94.0832 220.036 95.0779 212.35 95.0779ZM203.263 57.3722C204.077 58.6381 205.162 59.5876 206.518 60.2205C207.965 60.763 209.547 61.0343 211.265 61.0343C213.254 61.0343 214.972 60.5822 216.419 59.678C217.956 58.7738 218.725 57.5983 218.725 56.1516C218.725 54.524 218.047 53.1224 216.69 51.947C215.425 50.7715 213.571 50.1838 211.13 50.1838C208.688 50.1838 206.744 50.9523 205.297 52.4895C203.941 53.9362 203.263 55.5638 203.263 57.3722Z" fill="white"/>
<path d="M303.979 94.8066C299.458 94.8066 296.067 93.1338 293.807 89.7882C291.546 86.4426 290.009 81.5147 289.195 75.0044C288.472 68.4036 288.11 59.2259 288.11 47.4711C288.11 36.1685 288.381 27.3524 288.924 21.0229C289.557 14.6934 291.004 9.62985 293.264 5.83216C295.615 2.03447 299.232 0.13563 304.115 0.13563C308.997 0.13563 312.569 2.03447 314.83 5.83216C317.181 9.62985 318.627 14.6934 319.17 21.0229C319.803 27.3524 320.119 36.1685 320.119 47.4711C320.119 58.5929 319.622 67.5898 318.627 74.4618C317.723 81.2434 316.095 86.3522 313.745 89.7882C311.394 93.1338 308.138 94.8066 303.979 94.8066Z" fill="white"/>
<path d="M348.683 95.0779C341.631 95.0779 335.844 93.4955 331.323 90.3308C326.802 87.0756 324.541 82.4189 324.541 76.3607C324.541 71.1163 326.847 66.9569 331.458 63.8826C336.07 60.8082 341.811 59.2711 348.683 59.2711C351.215 59.2711 353.566 59.4971 355.736 59.9492C357.997 60.3109 359.534 60.763 360.348 61.3056C360.348 59.045 359.398 57.1914 357.5 55.7447C355.601 54.2075 352.707 53.4389 348.819 53.4389C347.101 53.4389 345.7 53.5745 344.615 53.8458C343.529 54.1171 342.354 54.524 341.088 55.0665C339.822 55.609 338.647 56.0159 337.562 56.2872C336.567 56.5584 335.211 56.6941 333.493 56.6941C330.599 56.6941 328.339 55.9707 326.711 54.524C325.084 52.9868 324.27 50.6811 324.27 47.6068C324.27 44.0803 325.536 41.0964 328.067 38.6551C330.69 36.2137 333.945 34.4053 337.833 33.2298C341.721 31.9639 345.609 31.3309 349.497 31.3309C357.183 31.3309 363.603 32.7777 368.757 35.6712C374.001 38.4742 377.844 42.2267 380.286 46.9286C382.817 51.6305 384.083 56.8297 384.083 62.5262C384.083 65.6006 383.812 68.4488 383.27 71.071C382.817 73.6933 382.185 75.7277 381.371 77.1745C382.637 78.2595 383.586 79.5254 384.219 80.9722C384.942 82.4189 385.304 83.9109 385.304 85.448C385.304 88.0702 384.4 90.3308 382.591 92.2296C380.873 94.1284 378.568 95.0779 375.674 95.0779C373.504 95.0779 371.741 94.7614 370.385 94.1284C369.028 93.4955 367.582 92.5009 366.044 91.1445C363.784 92.5009 361.297 93.4955 358.585 94.1284C355.962 94.7614 352.662 95.0779 348.683 95.0779ZM351.396 81.3791C353.295 81.3791 354.787 80.9722 355.872 80.1584C357.047 79.3446 357.635 78.35 357.635 77.1745C357.635 75.999 357.047 75.0044 355.872 74.1906C354.787 73.3768 353.295 72.9699 351.396 72.9699C349.497 72.9699 347.96 73.3768 346.785 74.1906C345.7 75.0044 345.157 75.999 345.157 77.1745C345.157 78.35 345.7 79.3446 346.785 80.1584C347.96 80.9722 349.497 81.3791 351.396 81.3791Z" fill="white"/>
<path d="M422.259 95.0779C415.659 95.0779 409.872 93.4503 404.899 90.1951C399.925 86.8495 396.083 82.2381 393.37 76.3607C390.748 70.3929 389.437 63.5209 389.437 55.7447C389.437 48.1493 390.657 42.1815 393.099 37.8413C395.54 33.501 398.931 31.3309 403.271 31.3309C410.957 31.3309 414.8 35.2643 414.8 43.1309C414.8 44.7585 414.755 46.2052 414.664 47.4711C414.574 48.6466 414.483 49.6864 414.393 50.5906C414.031 54.2075 413.85 57.101 413.85 59.2711C413.85 63.2496 414.664 66.2787 416.292 68.3584C417.919 70.4381 419.909 71.4779 422.259 71.4779C424.701 71.4779 426.69 70.4833 428.227 68.494C429.855 66.4144 430.669 63.34 430.669 59.2711C430.669 56.3776 430.533 53.7102 430.262 51.2688C430.171 50.455 430.081 49.2795 429.99 47.7424C429.9 46.1148 429.855 44.6229 429.855 43.2665C429.855 35.3095 433.698 31.3309 441.384 31.3309C445.724 31.3309 449.069 33.501 451.42 37.8413C453.862 42.0911 455.082 48.0589 455.082 55.7447C455.082 67.7707 452.279 77.3553 446.673 84.4986C441.067 91.5514 432.929 95.0779 422.259 95.0779Z" fill="white"/>
<path d="M514.536 95.0779C511.281 95.0779 508.839 94.1737 507.212 92.3652C505.674 90.5568 504.725 88.3415 504.363 85.7193C504.002 83.0971 503.821 79.7063 503.821 75.5469C503.821 70.212 503.097 66.0979 501.651 63.2044C500.204 60.3109 497.853 58.8642 494.598 58.8642C491.614 58.8642 489.353 60.3109 487.816 63.2044C486.369 66.0075 485.646 69.8956 485.646 74.8687C485.646 79.6611 485.51 83.2779 485.239 85.7193C484.968 88.1606 484.064 90.3308 482.527 92.2296C480.989 94.038 478.458 94.9422 474.931 94.9422C469.777 94.9422 466.16 91.6419 464.081 85.0411C462.001 78.3499 460.961 70.5285 460.961 61.5768C460.961 39.8757 465.527 29.0252 474.66 29.0252C477.192 29.0252 479.271 29.6581 480.899 30.924C482.527 32.0995 483.657 33.8175 484.29 36.078C485.465 34.8122 487.274 33.6819 489.715 32.6873C492.247 31.6926 494.914 31.1953 497.717 31.1953C507.664 31.1953 515.078 34.8122 519.961 42.0458C524.934 49.2795 527.421 59.0902 527.421 71.4779C527.421 78.8021 526.471 84.589 524.572 88.8388C522.674 92.9982 519.328 95.0779 514.536 95.0779Z" fill="white"/>
<path d="M563.839 95.0779C557.419 95.0779 551.722 93.5407 546.749 90.4664C541.867 87.3016 538.114 83.2327 535.492 78.2595C532.87 73.1959 531.559 67.8159 531.559 62.1193C531.559 55.4282 532.915 49.7769 535.628 45.1654C538.431 40.4635 542.002 36.9823 546.342 34.7217C550.773 32.4612 555.52 31.3309 560.584 31.3309C565.647 31.3309 570.168 32.416 574.147 34.5861C573.966 32.6873 573.604 30.6528 573.062 28.4827C572.61 26.3126 572.293 24.9562 572.112 24.4137C571.389 21.6107 570.847 19.2597 570.485 17.3609C570.123 15.462 569.942 13.5632 569.942 11.6643C569.942 7.86665 571.073 4.97317 573.333 2.9839C575.594 0.994634 578.306 0 581.471 0C586.535 0 590.649 2.53179 593.814 7.59538C596.978 12.659 599.239 18.9432 600.595 26.4482C602.042 33.9532 602.765 41.5485 602.765 49.2343C602.765 59.6328 600.369 69.8956 595.577 80.0227C590.875 90.0595 580.296 95.0779 563.839 95.0779ZM564.653 73.648C567.094 73.648 569.219 72.7438 571.027 70.9354C572.836 69.0366 573.74 66.8213 573.74 64.2895C573.74 61.7577 572.836 59.5423 571.027 57.6435C569.219 55.7447 567.094 54.7952 564.653 54.7952C562.211 54.7952 560.041 55.7447 558.142 57.6435C556.334 59.5423 555.43 61.7577 555.43 64.2895C555.43 66.8213 556.334 69.0366 558.142 70.9354C560.041 72.7438 562.211 73.648 564.653 73.648Z" fill="white"/>
<path d="M624.086 95.0779C618.299 95.0779 614.411 91.6871 612.422 84.9055C610.523 78.1239 609.573 68.7653 609.573 56.8297C609.573 51.4044 609.799 46.8834 610.251 43.2665C610.794 39.5593 612.015 36.4397 613.914 33.9079C615.903 31.2857 618.932 29.9746 623.001 29.9746C625.533 29.9746 627.748 30.5624 629.647 31.7378C631.636 32.9133 632.902 34.5861 633.445 36.7562C635.434 34.9478 638.011 33.5915 641.175 32.6873C644.34 31.783 647.731 31.3309 651.348 31.3309C654.241 31.3309 657.18 32.0543 660.164 33.501C663.238 34.9478 665.77 36.937 667.759 39.4688C669.839 41.9102 670.879 44.5776 670.879 47.4711C670.879 50.3646 669.839 52.9416 667.759 55.2021C665.77 57.3722 663.103 58.4573 659.757 58.4573C658.672 58.4573 657.632 58.3217 656.638 58.0504C655.733 57.7791 654.92 57.5079 654.196 57.2366C652.388 56.5132 650.941 56.1516 649.856 56.1516C646.33 56.1516 643.21 57.5531 640.497 60.3561C637.875 63.0688 636.564 66.5952 636.564 70.9354C636.564 75.7277 636.383 79.7063 636.021 82.871C635.66 86.0358 634.575 88.884 632.766 91.4158C630.958 93.8572 628.064 95.0779 624.086 95.0779Z" fill="white"/>
<path d="M697.656 115.151C692.773 115.151 688.704 114.202 685.449 112.303C682.194 110.404 680.566 107.601 680.566 103.894C680.566 100.91 681.967 98.5591 684.771 96.8411C687.574 95.1231 690.874 94.3545 694.672 94.5353C698.65 94.7162 701.724 94.5353 703.895 93.9928C706.155 93.4503 707.873 92.4557 709.049 91.0089C700.73 91.0089 694.084 89.8334 689.111 87.4825C684.138 85.0411 680.521 81.2886 678.26 76.2251C676.09 71.071 675.005 64.2895 675.005 55.8803C675.005 48.6466 676.09 42.8144 678.26 38.3838C680.521 33.8627 684.047 31.6022 688.839 31.6022C693.089 31.6022 696.209 32.8229 698.198 35.2643C700.278 37.6152 701.318 40.6895 701.318 44.4872L701.182 50.455C701.092 51.6305 701.046 53.3485 701.046 55.609C701.046 59.9492 701.589 63.2496 702.674 65.5101C703.759 67.6803 705.929 68.7653 709.184 68.7653C712.439 68.7653 714.609 67.6803 715.695 65.5101C716.78 63.2496 717.322 59.9945 717.322 55.7447C717.322 53.4841 717.277 51.7661 717.186 50.5906L717.051 44.7585C717.051 40.6895 718.045 37.4796 720.035 35.1286C722.114 32.7777 725.279 31.6022 729.529 31.6022C734.321 31.6022 737.848 33.8627 740.108 38.3838C742.369 42.9049 743.499 48.737 743.499 55.8803C743.499 66.55 741.962 76.3607 738.888 85.3124C735.904 94.1737 730.976 101.362 724.104 106.878C717.322 112.394 708.506 115.151 697.656 115.151Z" fill="white"/>
<path d="M20.8954 231.078C15.1085 231.078 11.2203 227.687 9.23108 220.905C7.33223 214.124 6.38281 204.765 6.38281 192.83C6.38281 187.404 6.60887 182.883 7.06097 179.267C7.6035 175.559 8.82418 172.44 10.723 169.908C12.7123 167.286 15.7414 165.975 19.8104 165.975C22.3422 165.975 24.5575 166.562 26.4563 167.738C28.4456 168.913 29.7115 170.586 30.254 172.756C32.2433 170.948 34.8203 169.591 37.985 168.687C41.1498 167.783 44.5405 167.331 48.1574 167.331C51.0509 167.331 53.9896 168.054 56.9735 169.501C60.0478 170.948 62.5796 172.937 64.5688 175.469C66.6485 177.91 67.6884 180.578 67.6884 183.471C67.6884 186.365 66.6485 188.942 64.5688 191.202C62.5796 193.372 59.9121 194.457 56.5666 194.457C55.4815 194.457 54.4417 194.322 53.447 194.05C52.5428 193.779 51.729 193.508 51.0057 193.237C49.1972 192.513 47.7505 192.152 46.6654 192.152C43.139 192.152 40.0195 193.553 37.3069 196.356C34.6846 199.069 33.3735 202.595 33.3735 206.935C33.3735 211.728 33.1927 215.706 32.831 218.871C32.4693 222.036 31.3843 224.884 29.5758 227.416C27.7674 229.857 24.8739 231.078 20.8954 231.078Z" fill="white"/>
<path d="M101.752 231.078C95.0609 231.078 89.1383 229.767 83.9843 227.145C78.8303 224.522 74.8066 220.86 71.9131 216.158C69.11 211.366 67.7085 205.986 67.7085 200.018C67.7085 194.141 69.11 188.716 71.9131 183.742C74.8066 178.769 78.7851 174.791 83.8487 171.807C88.9123 168.823 94.654 167.331 101.074 167.331C106.861 167.331 111.97 168.506 116.4 170.857C120.831 173.208 124.222 176.328 126.573 180.216C128.924 184.014 130.099 187.992 130.099 192.152C130.099 198.933 127.522 203.906 122.368 207.071C117.305 210.145 111.246 211.683 104.193 211.683C99.4915 211.683 95.513 211.095 92.2579 209.919C94.9705 214.35 99.4463 216.565 105.685 216.565C108.217 216.565 110.93 216.249 113.823 215.616C114.908 215.345 115.948 215.209 116.943 215.209C118.932 215.209 120.514 215.706 121.69 216.701C122.956 217.696 123.589 219.052 123.589 220.77C123.589 223.573 121.871 226.014 118.435 228.094C114.999 230.083 109.438 231.078 101.752 231.078ZM92.6647 193.372C93.4785 194.638 94.5636 195.588 95.9199 196.221C97.3666 196.763 98.949 197.034 100.667 197.034C102.656 197.034 104.374 196.582 105.821 195.678C107.358 194.774 108.127 193.598 108.127 192.152C108.127 190.524 107.449 189.122 106.092 187.947C104.826 186.771 102.973 186.184 100.531 186.184C98.09 186.184 96.146 186.952 94.6992 188.489C93.3429 189.936 92.6647 191.564 92.6647 193.372Z" fill="white"/>
<path d="M167.6 230.942C165.43 230.942 163.396 230.671 161.497 230.128C159.688 229.586 157.563 228.365 155.122 226.466C152.319 224.206 149.154 220.408 145.628 215.073C142.101 209.648 139.072 203.816 136.541 197.577C134.009 191.247 132.743 185.551 132.743 180.487C132.743 176.69 133.828 173.57 135.998 171.129C138.259 168.597 140.881 167.331 143.865 167.331C147.482 167.331 150.556 168.732 153.088 171.536C155.71 174.248 157.88 177.639 159.598 181.708C161.406 185.686 163.441 191.066 165.701 197.848C165.973 198.662 166.244 199.566 166.515 200.561C166.877 201.465 167.239 202.414 167.6 203.409L168.957 199.476C171.488 192.242 173.658 186.545 175.467 182.386C177.275 178.136 179.536 174.565 182.248 171.671C184.961 168.687 188.126 167.241 191.743 167.331C194.636 167.421 197.078 168.506 199.067 170.586C201.146 172.666 202.186 175.695 202.186 179.673C202.186 185.099 201.011 190.795 198.66 196.763C196.309 202.731 193.551 208.156 190.386 213.039C187.222 217.831 184.509 221.358 182.248 223.618C180.259 225.879 177.908 227.687 175.196 229.043C172.573 230.309 170.042 230.942 167.6 230.942Z" fill="white"/>
<path d="M238.573 231.214C232.062 231.304 226.23 229.948 221.076 227.145C216.013 224.341 212.034 220.499 209.141 215.616C206.338 210.643 204.846 205.127 204.665 199.069C204.574 193.011 205.976 187.585 208.869 182.793C211.763 178.001 215.787 174.203 220.941 171.4C226.185 168.597 232.062 167.195 238.573 167.195C244.902 167.195 250.599 168.552 255.662 171.264C260.816 173.977 264.885 177.775 267.869 182.657C270.853 187.54 272.435 193.011 272.616 199.069C272.707 204.946 271.305 210.326 268.412 215.209C265.518 220.001 261.449 223.844 256.205 226.738C251.051 229.631 245.173 231.123 238.573 231.214ZM238.98 211.411C241.421 211.411 243.546 210.462 245.354 208.563C247.163 206.664 248.067 204.449 248.067 201.917C248.067 199.385 247.163 197.215 245.354 195.407C243.546 193.508 241.421 192.558 238.98 192.558C236.538 192.558 234.413 193.508 232.605 195.407C230.797 197.215 229.892 199.385 229.892 201.917C229.892 204.449 230.797 206.664 232.605 208.563C234.413 210.462 236.538 211.411 238.98 211.411Z" fill="white"/>
<path d="M295.237 230.807C290.716 230.807 287.325 229.134 285.065 225.788C282.804 222.443 281.267 217.515 280.453 211.004C279.73 204.404 279.368 195.226 279.368 183.471C279.368 172.168 279.639 163.352 280.182 157.023C280.815 150.693 282.262 145.63 284.522 141.832C286.873 138.034 290.49 136.136 295.373 136.136C300.256 136.136 303.827 138.034 306.088 141.832C308.439 145.63 309.885 150.693 310.428 157.023C311.061 163.352 311.377 172.168 311.377 183.471C311.377 194.593 310.88 203.59 309.885 210.462C308.981 217.243 307.354 222.352 305.003 225.788C302.652 229.134 299.397 230.807 295.237 230.807Z" fill="white"/>
<path d="M351 231.078C344.399 231.078 338.612 229.45 333.639 226.195C328.666 222.85 324.823 218.238 322.11 212.361C319.488 206.393 318.177 199.521 318.177 191.745C318.177 184.149 319.398 178.181 321.839 173.841C324.28 169.501 327.671 167.331 332.011 167.331C339.697 167.331 343.54 171.264 343.54 179.131C343.54 180.758 343.495 182.205 343.404 183.471C343.314 184.647 343.224 185.686 343.133 186.591C342.771 190.207 342.591 193.101 342.591 195.271C342.591 199.25 343.404 202.279 345.032 204.358C346.66 206.438 348.649 207.478 351 207.478C353.441 207.478 355.43 206.483 356.968 204.494C358.595 202.414 359.409 199.34 359.409 195.271C359.409 192.378 359.273 189.71 359.002 187.269C358.912 186.455 358.821 185.28 358.731 183.742C358.64 182.115 358.595 180.623 358.595 179.267C358.595 171.309 362.438 167.331 370.124 167.331C374.464 167.331 377.81 169.501 380.161 173.841C382.602 178.091 383.823 184.059 383.823 191.745C383.823 203.771 381.02 213.355 375.414 220.499C369.807 227.551 361.669 231.078 351 231.078Z" fill="white"/>
<path d="M457.214 172.349C457.214 177.051 454.999 180.261 450.568 181.979C446.138 183.607 440.079 184.466 432.394 184.556C432.303 186.817 432.258 190.479 432.258 195.542C432.258 200.696 432.62 204.358 433.343 206.529C433.795 208.066 434.473 209.06 435.378 209.512C436.372 209.965 437.819 210.281 439.718 210.462C440.351 210.552 441.029 210.688 441.752 210.869C442.566 210.959 443.47 211.095 444.465 211.276C446.545 211.728 448.172 212.858 449.348 214.666C450.523 216.384 451.111 218.6 451.111 221.312C451.111 224.387 449.529 226.783 446.364 228.501C443.199 230.219 438.859 231.078 433.343 231.078C428.28 231.078 423.442 229.631 418.831 226.738C414.219 223.754 411.054 219.775 409.336 214.802C407.528 209.467 406.624 199.385 406.624 184.556C400.294 184.375 395.185 183.562 391.297 182.115C387.5 180.578 385.601 177.865 385.601 173.977C385.601 169.094 387.409 165.839 391.026 164.211C394.643 162.493 399.842 161.589 406.624 161.499C406.895 154.265 408.025 148.252 410.014 143.46C412.004 138.577 415.575 136.136 420.729 136.136C425.974 136.136 429.365 138.396 430.902 142.917C432.529 147.438 433.253 153.632 433.072 161.499C441.3 161.408 447.358 162.041 451.246 163.398C455.225 164.754 457.214 167.738 457.214 172.349Z" fill="white"/>
<path d="M528.38 231.214C521.869 231.304 516.037 229.948 510.883 227.145C505.82 224.341 501.841 220.499 498.948 215.616C496.145 210.643 494.653 205.127 494.472 199.069C494.381 193.011 495.783 187.585 498.676 182.793C501.57 178.001 505.594 174.203 510.748 171.4C515.992 168.597 521.869 167.195 528.38 167.195C534.709 167.195 540.406 168.552 545.469 171.264C550.623 173.977 554.692 177.775 557.676 182.657C560.66 187.54 562.242 193.011 562.423 199.069C562.514 204.946 561.112 210.326 558.219 215.209C555.325 220.001 551.256 223.844 546.012 226.738C540.858 229.631 534.98 231.123 528.38 231.214ZM528.787 211.411C531.228 211.411 533.353 210.462 535.161 208.563C536.97 206.664 537.874 204.449 537.874 201.917C537.874 199.385 536.97 197.215 535.161 195.407C533.353 193.508 531.228 192.558 528.787 192.558C526.345 192.558 524.22 193.508 522.412 195.407C520.603 197.215 519.699 199.385 519.699 201.917C519.699 204.449 520.603 206.664 522.412 208.563C524.22 210.462 526.345 211.411 528.787 211.411Z" fill="white"/>
<path d="M620.101 231.078C616.845 231.078 614.404 230.174 612.776 228.365C611.239 226.557 610.29 224.341 609.928 221.719C609.567 219.097 609.386 215.706 609.386 211.547C609.386 206.212 608.662 202.098 607.216 199.204C605.769 196.311 603.418 194.864 600.163 194.864C597.179 194.864 594.918 196.311 593.381 199.204C591.934 202.007 591.211 205.896 591.211 210.869C591.211 215.661 591.075 219.278 590.804 221.719C590.533 224.161 589.629 226.331 588.091 228.23C586.554 230.038 584.023 230.942 580.496 230.942C575.342 230.942 571.725 227.642 569.646 221.041C567.566 214.35 566.526 206.529 566.526 197.577C566.526 175.876 571.092 165.025 580.225 165.025C582.757 165.025 584.836 165.658 586.464 166.924C588.092 168.1 589.222 169.818 589.855 172.078C591.03 170.812 592.839 169.682 595.28 168.687C597.812 167.693 600.479 167.195 603.282 167.195C613.229 167.195 620.643 170.812 625.526 178.046C630.499 185.28 632.986 195.09 632.986 207.478C632.986 214.802 632.036 220.589 630.137 224.839C628.239 228.998 624.893 231.078 620.101 231.078Z" fill="white"/>
<path d="M477.16 173.893C477.077 173.327 475.996 173.327 475.916 173.893C473.212 192.578 459.383 215.361 459.383 228.349C459.383 236.376 467.236 242.88 476.538 242.88C485.84 242.88 493.69 236.373 493.69 228.349C493.69 215.361 479.864 192.578 477.16 173.893ZM474.547 213.481C474.363 214.056 474.17 214.65 473.968 215.263C472.74 219.007 471.346 223.253 471.346 228.162C471.346 230.823 469.515 231.767 467.806 231.767C467.339 231.765 466.876 231.685 466.445 231.53C466.015 231.375 465.624 231.149 465.295 230.864C464.966 230.579 464.706 230.242 464.529 229.871C464.352 229.499 464.263 229.102 464.265 228.701C464.265 222.898 467.518 219.107 470.391 215.765C471.294 214.719 472.143 213.728 472.832 212.742C473.147 212.29 473.996 212.311 474.382 212.758C474.562 212.968 474.624 213.236 474.547 213.481Z" fill="white"/>
</g>
<g filter="url(#filter1_f_873_1338)">
<path d="M489.383 182L490.393 234L489.383 286L488.373 234L489.383 182Z" fill="white"/>
<path d="M437.383 234L489.383 232.99L541.383 234L489.383 235.01L437.383 234Z" fill="white"/>
<path d="M452.613 270.771L488.669 233.288L526.152 197.232L490.097 234.716L452.613 270.771Z" fill="white"/>
<path d="M526.152 270.771L490.097 233.288L452.613 197.232L488.669 234.716L526.152 270.771Z" fill="white"/>
</g>
<g filter="url(#filter2_f_873_1338)">
<path d="M501.394 201L490.024 234.737L477.372 268L488.742 234.263L501.394 201Z" fill="url(#paint0_radial_873_1338)"/>
<path d="M456.383 222.307L489.616 233.85L522.383 246.693L489.15 235.151L456.383 222.307Z" fill="url(#paint1_radial_873_1338)"/>
<path d="M457.555 249.568L489.094 233.875L521.21 219.436L489.671 235.129L457.555 249.568Z" fill="url(#paint2_radial_873_1338)"/>
<path d="M504.224 266.811L490.001 234.209L474.541 202.192L488.765 234.794L504.224 266.811Z" fill="url(#paint3_radial_873_1338)"/>
</g>
<g filter="url(#filter3_f_873_1338)">
<path d="M498.383 243H480.383V225H498.383V243Z" fill="url(#paint4_radial_873_1338)"/>
</g>
<g filter="url(#filter4_f_873_1338)">
<circle cx="489.383" cy="234" r="8" fill="white"/>
</g>
<g opacity="0.4" filter="url(#filter5_f_873_1338)">
<circle cx="489.383" cy="234" r="13" fill="url(#paint5_radial_873_1338)"/>
</g>
<g opacity="0.3" filter="url(#filter6_f_873_1338)">
<circle cx="489.383" cy="234" r="20" fill="url(#paint6_radial_873_1338)"/>
</g>
<g opacity="0.25" filter="url(#filter7_f_873_1338)">
<circle cx="489.383" cy="234" r="25" fill="url(#paint7_radial_873_1338)"/>
</g>
<defs>
<filter id="filter0_d_873_1338" x="0.000141144" y="0" width="749.882" height="255.644" filterUnits="userSpaceOnUse" color-interpolation-filters="sRGB">
<feFlood flood-opacity="0" result="BackgroundImageFix"/>
<feColorMatrix in="SourceAlpha" type="matrix" values="0 0 0 0 0 0 0 0 0 0 0 0 0 0 0 0 0 0 127 0" result="hardAlpha"/>
<feOffset dy="6.38267"/>
<feGaussianBlur stdDeviation="3.19134"/>
<feComposite in2="hardAlpha" operator="out"/>
<feColorMatrix type="matrix" values="0 0 0 0 0 0 0 0 0 0 0 0 0 0 0 0 0 0 0.15 0"/>
<feBlend mode="normal" in2="BackgroundImageFix" result="effect1_dropShadow_873_1338"/>
<feBlend mode="normal" in="SourceGraphic" in2="effect1_dropShadow_873_1338" result="shape"/>
</filter>
<filter id="filter1_f_873_1338" x="435.883" y="180.5" width="107" height="107" filterUnits="userSpaceOnUse" color-interpolation-filters="sRGB">
<feFlood flood-opacity="0" result="BackgroundImageFix"/>
<feBlend mode="normal" in="SourceGraphic" in2="BackgroundImageFix" result="shape"/>
<feGaussianBlur stdDeviation="0.75" result="effect1_foregroundBlur_873_1338"/>
</filter>
<filter id="filter2_f_873_1338" x="455.383" y="200" width="68" height="69" filterUnits="userSpaceOnUse" color-interpolation-filters="sRGB">
<feFlood flood-opacity="0" result="BackgroundImageFix"/>
<feBlend mode="normal" in="SourceGraphic" in2="BackgroundImageFix" result="shape"/>
<feGaussianBlur stdDeviation="0.5" result="effect1_foregroundBlur_873_1338"/>
</filter>
<filter id="filter3_f_873_1338" x="474.383" y="219" width="30" height="30" filterUnits="userSpaceOnUse" color-interpolation-filters="sRGB">
<feFlood flood-opacity="0" result="BackgroundImageFix"/>
<feBlend mode="normal" in="SourceGraphic" in2="BackgroundImageFix" result="shape"/>
<feGaussianBlur stdDeviation="3" result="effect1_foregroundBlur_873_1338"/>
</filter>
<filter id="filter4_f_873_1338" x="474.383" y="219" width="30" height="30" filterUnits="userSpaceOnUse" color-interpolation-filters="sRGB">
<feFlood flood-opacity="0" result="BackgroundImageFix"/>
<feBlend mode="normal" in="SourceGraphic" in2="BackgroundImageFix" result="shape"/>
<feGaussianBlur stdDeviation="3.5" result="effect1_foregroundBlur_873_1338"/>
</filter>
<filter id="filter5_f_873_1338" x="473.383" y="218" width="32" height="32" filterUnits="userSpaceOnUse" color-interpolation-filters="sRGB">
<feFlood flood-opacity="0" result="BackgroundImageFix"/>
<feBlend mode="normal" in="SourceGraphic" in2="BackgroundImageFix" result="shape"/>
<feGaussianBlur stdDeviation="1.5" result="effect1_foregroundBlur_873_1338"/>
</filter>
<filter id="filter6_f_873_1338" x="466.383" y="211" width="46" height="46" filterUnits="userSpaceOnUse" color-interpolation-filters="sRGB">
<feFlood flood-opacity="0" result="BackgroundImageFix"/>
<feBlend mode="normal" in="SourceGraphic" in2="BackgroundImageFix" result="shape"/>
<feGaussianBlur stdDeviation="1.5" result="effect1_foregroundBlur_873_1338"/>
</filter>
<filter id="filter7_f_873_1338" x="461.383" y="206" width="56" height="56" filterUnits="userSpaceOnUse" color-interpolation-filters="sRGB">
<feFlood flood-opacity="0" result="BackgroundImageFix"/>
<feBlend mode="normal" in="SourceGraphic" in2="BackgroundImageFix" result="shape"/>
<feGaussianBlur stdDeviation="1.5" result="effect1_foregroundBlur_873_1338"/>
</filter>
<radialGradient id="paint0_radial_873_1338" cx="0" cy="0" r="1" gradientUnits="userSpaceOnUse" gradientTransform="translate(489.875 235) rotate(90) scale(55.5 54.6716)">
<stop stop-color="white"/>
<stop offset="1" stop-color="white" stop-opacity="0.5"/>
</radialGradient>
<radialGradient id="paint1_radial_873_1338" cx="0" cy="0" r="1" gradientUnits="userSpaceOnUse" gradientTransform="translate(489.875 235) rotate(90) scale(55.5 54.6716)">
<stop stop-color="white"/>
<stop offset="1" stop-color="white" stop-opacity="0.5"/>
</radialGradient>
<radialGradient id="paint2_radial_873_1338" cx="0" cy="0" r="1" gradientUnits="userSpaceOnUse" gradientTransform="translate(489.875 235) rotate(90) scale(55.5 54.6716)">
<stop stop-color="white"/>
<stop offset="1" stop-color="white" stop-opacity="0.5"/>
</radialGradient>
<radialGradient id="paint3_radial_873_1338" cx="0" cy="0" r="1" gradientUnits="userSpaceOnUse" gradientTransform="translate(489.875 235) rotate(90) scale(55.5 54.6716)">
<stop stop-color="white"/>
<stop offset="1" stop-color="white" stop-opacity="0.5"/>
</radialGradient>
<radialGradient id="paint4_radial_873_1338" cx="0" cy="0" r="1" gradientUnits="userSpaceOnUse" gradientTransform="translate(489.382 234.003) rotate(-90) scale(9)">
<stop stop-color="white" stop-opacity="0.5"/>
<stop offset="1" stop-color="white" stop-opacity="0.5"/>
</radialGradient>
<radialGradient id="paint5_radial_873_1338" cx="0" cy="0" r="1" gradientUnits="userSpaceOnUse" gradientTransform="translate(489.383 234) rotate(90) scale(13)">
<stop stop-color="white"/>
<stop offset="1" stop-color="white" stop-opacity="0.5"/>
</radialGradient>
<radialGradient id="paint6_radial_873_1338" cx="0" cy="0" r="1" gradientUnits="userSpaceOnUse" gradientTransform="translate(489.383 234) rotate(90) scale(20)">
<stop stop-color="white"/>
<stop offset="1" stop-color="white" stop-opacity="0.5"/>
</radialGradient>
<radialGradient id="paint7_radial_873_1338" cx="0" cy="0" r="1" gradientUnits="userSpaceOnUse" gradientTransform="translate(489.383 234) rotate(90) scale(25)">
<stop stop-color="white"/>
<stop offset="1" stop-color="white" stop-opacity="0.5"/>
</radialGradient>
</defs>
</svg>
