<svg width="839" height="288" viewBox="0 0 839 288" fill="none" xmlns="http://www.w3.org/2000/svg">
<g filter="url(#filter0_d_873_1328)">
<path d="M44.0884 98.7399C34.9559 98.7399 27.2249 96.8863 20.8954 93.179C14.5659 89.3813 10.4066 83.73 8.41729 76.2251C7.6035 73.1507 7.06097 69.3983 6.78971 64.9676C6.51844 60.537 6.38281 54.8857 6.38281 48.0136C6.38281 34.5409 7.82955 23.826 10.723 15.8689C13.7069 7.82143 19.5843 3.79769 28.3552 3.79769C33.7804 3.79769 38.0302 5.69653 41.1045 9.49422C44.2693 13.2919 45.8517 17.9938 45.8517 23.5999C45.8517 29.5677 45.3543 35.9424 44.3597 42.724C43.3651 49.5056 41.9635 57.7339 40.1551 67.409C45.7612 65.6006 51.9099 64.6964 58.601 64.6964C65.5635 64.6964 71.3504 65.9622 75.9619 68.494C80.6638 71.0258 83.0148 75.14 83.0148 80.8365C83.0148 86.3522 81.2063 90.4212 77.5895 93.0434C73.9726 95.6656 69.5872 97.2932 64.4332 97.9261C59.2792 98.4687 52.4976 98.7399 44.0884 98.7399Z" fill="white"/>
<path d="M110.136 98.7399C103.083 98.7399 97.296 97.1576 92.7749 93.9928C88.2539 90.7377 85.9934 86.081 85.9934 80.0227C85.9934 74.7783 88.2991 70.6189 92.9106 67.5446C97.5221 64.4703 103.264 62.9331 110.136 62.9331C112.668 62.9331 115.019 63.1592 117.189 63.6113C119.449 63.973 120.986 64.4251 121.8 64.9676C121.8 62.7071 120.851 60.8535 118.952 59.4067C117.053 57.8696 114.16 57.101 110.271 57.101C108.553 57.101 107.152 57.2366 106.067 57.5079C104.982 57.7791 103.806 58.186 102.54 58.7286C101.275 59.2711 100.099 59.678 99.014 59.9492C98.0194 60.2205 96.6631 60.3561 94.9451 60.3561C92.0516 60.3561 89.791 59.6328 88.1635 58.186C86.5359 56.6489 85.7221 54.3431 85.7221 51.2688C85.7221 47.7424 86.988 44.7585 89.5198 42.3171C92.142 39.8757 95.3972 38.0673 99.2853 36.8918C103.173 35.6259 107.061 34.993 110.95 34.993C118.635 34.993 125.055 36.4397 130.209 39.3332C135.454 42.1363 139.297 45.8887 141.738 50.5906C144.27 55.2926 145.536 60.4918 145.536 66.1883C145.536 69.2626 145.264 72.1109 144.722 74.7331C144.27 77.3553 143.637 79.3898 142.823 80.8365C144.089 81.9216 145.038 83.1875 145.671 84.6342C146.395 86.081 146.756 87.5729 146.756 89.1101C146.756 91.7323 145.852 93.9928 144.044 95.8917C142.326 97.7905 140.02 98.7399 137.127 98.7399C134.956 98.7399 133.193 98.4235 131.837 97.7905C130.481 97.1576 129.034 96.1629 127.497 94.8066C125.236 96.1629 122.75 97.1576 120.037 97.7905C117.415 98.4235 114.114 98.7399 110.136 98.7399ZM112.848 85.0411C114.747 85.0411 116.239 84.6342 117.324 83.8204C118.5 83.0066 119.088 82.012 119.088 80.8365C119.088 79.6611 118.5 78.6664 117.324 77.8526C116.239 77.0388 114.747 76.632 112.848 76.632C110.95 76.632 109.412 77.0388 108.237 77.8526C107.152 78.6664 106.609 79.6611 106.609 80.8365C106.609 82.012 107.152 83.0066 108.237 83.8204C109.412 84.6342 110.95 85.0411 112.848 85.0411Z" fill="white"/>
<path d="M208.714 98.7399C202.927 98.7399 199.039 95.3491 197.049 88.5675C195.15 81.786 194.201 72.4274 194.201 60.4918C194.201 55.0665 194.427 50.5454 194.879 46.9286C195.422 43.2213 196.642 40.1018 198.541 37.57C200.53 34.9478 203.56 33.6367 207.629 33.6367C210.16 33.6367 212.376 34.2244 214.275 35.3999C216.264 36.5754 217.53 38.2482 218.072 40.4183C220.061 38.6098 222.638 37.2535 225.803 36.3493C228.968 35.4451 232.359 34.993 235.976 34.993C238.869 34.993 241.808 35.7164 244.792 37.1631C247.866 38.6098 250.398 40.5991 252.387 43.1309C254.467 45.5723 255.507 48.2397 255.507 51.1332C255.507 54.0267 254.467 56.6037 252.387 58.8642C250.398 61.0343 247.73 62.1194 244.385 62.1194C243.3 62.1194 242.26 61.9837 241.265 61.7125C240.361 61.4412 239.547 61.1699 238.824 60.8987C237.015 60.1753 235.569 59.8136 234.484 59.8136C230.957 59.8136 227.838 61.2151 225.125 64.0182C222.503 66.7308 221.192 70.2573 221.192 74.5975C221.192 79.3898 221.011 83.3683 220.649 86.5331C220.288 89.6978 219.202 92.5461 217.394 95.0779C215.586 97.5192 212.692 98.7399 208.714 98.7399Z" fill="white"/>
<path d="M296.325 98.7399C289.634 98.7399 283.712 97.4288 278.558 94.8066C273.404 92.1844 269.38 88.5223 266.486 83.8204C263.683 79.0281 262.282 73.6481 262.282 67.6803C262.282 61.8029 263.683 56.3776 266.486 51.4044C269.38 46.4313 273.358 42.4527 278.422 39.4688C283.486 36.4849 289.227 34.993 295.647 34.993C301.434 34.993 306.543 36.1685 310.974 38.5194C315.404 40.8704 318.795 43.9899 321.146 47.878C323.497 51.6757 324.672 55.6542 324.672 59.8136C324.672 66.5952 322.095 71.5684 316.941 74.7331C311.878 77.8074 305.82 79.3446 298.767 79.3446C294.065 79.3446 290.086 78.7569 286.831 77.5814C289.544 82.012 294.02 84.2273 300.259 84.2273C302.79 84.2273 305.503 83.9109 308.397 83.2779C309.482 83.0066 310.522 82.871 311.516 82.871C313.505 82.871 315.088 83.3683 316.263 84.363C317.529 85.3576 318.162 86.7139 318.162 88.4319C318.162 91.235 316.444 93.6763 313.008 95.756C309.572 97.7453 304.011 98.7399 296.325 98.7399ZM287.238 61.0343C288.052 62.3002 289.137 63.2496 290.493 63.8826C291.94 64.4251 293.522 64.6964 295.24 64.6964C297.23 64.6964 298.948 64.2442 300.394 63.34C301.931 62.4358 302.7 61.2604 302.7 59.8136C302.7 58.186 302.022 56.7845 300.666 55.609C299.4 54.4335 297.546 53.8458 295.105 53.8458C292.663 53.8458 290.719 54.6144 289.273 56.1516C287.916 57.5983 287.238 59.2259 287.238 61.0343ZM289.408 31.6022C287.509 31.6022 285.927 30.9693 284.661 29.7034C283.395 28.347 282.762 26.8551 282.762 25.2275C282.762 23.5999 283.666 21.5202 285.475 18.9885C287.374 16.3662 289.544 14.1057 291.985 12.2069C294.517 10.2176 296.642 9.22296 298.36 9.22296C300.982 9.22296 303.062 10.1272 304.599 11.9356C306.136 13.6536 306.859 15.5072 306.769 17.4965C306.769 19.1241 305.684 21.0681 303.514 23.3287C301.344 25.4988 298.857 27.4428 296.054 29.1608C293.341 30.7884 291.126 31.6022 289.408 31.6022Z" fill="white"/>
<path d="M366.28 98.6043C364.109 98.6043 362.075 98.333 360.176 97.7905C358.368 97.248 356.243 96.0273 353.801 94.1284C350.998 91.8679 347.834 88.0702 344.307 82.7354C340.781 77.3101 337.752 71.4779 335.22 65.2389C332.688 58.9094 331.422 53.2129 331.422 48.1493C331.422 44.3516 332.507 41.2321 334.677 38.7907C336.938 36.2589 339.56 34.993 342.544 34.993C346.161 34.993 349.235 36.3945 351.767 39.1976C354.389 41.9102 356.559 45.301 358.277 49.37C360.086 53.3485 362.12 58.7286 364.381 65.5101C364.652 66.3239 364.923 67.2281 365.195 68.2228C365.556 69.127 365.918 70.0764 366.28 71.071L367.636 67.1377C370.168 59.904 372.338 54.2075 374.146 50.0481C375.955 45.7983 378.215 42.2267 380.928 39.3332C383.64 36.3493 386.805 34.9026 390.422 34.993C393.316 35.0834 395.757 36.1685 397.746 38.2482C399.826 40.3278 400.866 43.357 400.866 47.3355C400.866 52.7608 399.69 58.4573 397.339 64.4251C394.988 70.3929 392.23 75.8182 389.066 80.7009C385.901 85.4932 383.188 89.0197 380.928 91.2802C378.939 93.5407 376.588 95.3491 373.875 96.7055C371.253 97.9713 368.721 98.6043 366.28 98.6043Z" fill="white"/>
<path d="M437.252 98.8756C430.742 98.966 424.91 97.6097 419.756 94.8066C414.692 92.0035 410.713 88.1607 407.82 83.2779C405.017 78.3047 403.525 72.789 403.344 66.7308C403.254 60.6726 404.655 55.2473 407.549 50.455C410.442 45.6627 414.466 41.865 419.62 39.062C424.864 36.2589 430.742 34.8574 437.252 34.8574C443.582 34.8574 449.278 36.2137 454.342 38.9263C459.496 41.639 463.565 45.4366 466.549 50.3194C469.532 55.2021 471.115 60.6726 471.296 66.7308C471.386 72.6082 469.985 77.9883 467.091 82.871C464.198 87.6633 460.129 91.5062 454.884 94.3997C449.73 97.2932 443.853 98.7851 437.252 98.8756ZM437.659 79.0733C440.1 79.0733 442.225 78.1239 444.034 76.2251C445.842 74.3262 446.746 72.1109 446.746 69.5791C446.746 67.0473 445.842 64.8772 444.034 63.0688C442.225 61.1699 440.1 60.2205 437.659 60.2205C435.218 60.2205 433.093 61.1699 431.284 63.0688C429.476 64.8772 428.572 67.0473 428.572 69.5791C428.572 72.1109 429.476 74.3262 431.284 76.2251C433.093 78.1239 435.218 79.0733 437.659 79.0733Z" fill="white"/>
<path d="M493.916 98.4687C489.395 98.4687 486.005 96.7959 483.744 93.4503C481.484 90.1047 479.946 85.1768 479.133 78.6664C478.409 72.0657 478.048 62.8879 478.048 51.1332C478.048 39.8305 478.319 31.0145 478.861 24.685C479.494 18.3555 480.941 13.2919 483.202 9.49422C485.552 5.69653 489.169 3.79769 494.052 3.79769C498.935 3.79769 502.506 5.69653 504.767 9.49422C507.118 13.2919 508.565 18.3555 509.107 24.685C509.74 31.0145 510.057 39.8305 510.057 51.1332C510.057 62.255 509.559 71.2519 508.565 78.1239C507.66 84.9055 506.033 90.0143 503.682 93.4503C501.331 96.7959 498.076 98.4687 493.916 98.4687Z" fill="white"/>
<path d="M549.679 98.7399C543.078 98.7399 537.291 97.1123 532.318 93.8572C527.345 90.5116 523.502 85.9001 520.79 80.0227C518.167 74.0549 516.856 67.1829 516.856 59.4067C516.856 51.8113 518.077 45.8435 520.518 41.5033C522.96 37.1631 526.35 34.993 530.691 34.993C538.376 34.993 542.219 38.9263 542.219 46.793C542.219 48.4205 542.174 49.8673 542.084 51.1332C541.993 52.3087 541.903 53.3485 541.812 54.2527C541.451 57.8696 541.27 60.763 541.27 62.9331C541.27 66.9117 542.084 69.9408 543.711 72.0205C545.339 74.1002 547.328 75.14 549.679 75.14C552.121 75.14 554.11 74.1454 555.647 72.1561C557.275 70.0764 558.088 67.0021 558.088 62.9331C558.088 60.0397 557.953 57.3722 557.681 54.9309C557.591 54.1171 557.501 52.9416 557.41 51.4044C557.32 49.7769 557.275 48.2849 557.275 46.9286C557.275 38.9715 561.117 34.993 568.803 34.993C573.143 34.993 576.489 37.1631 578.84 41.5033C581.281 45.7531 582.502 51.7209 582.502 59.4067C582.502 71.4327 579.699 81.0174 574.093 88.1607C568.487 95.2135 560.349 98.7399 549.679 98.7399Z" fill="white"/>
<path d="M655.894 40.0114C655.894 44.7133 653.678 47.9232 649.248 49.6412C644.817 51.2688 638.759 52.1278 631.073 52.2182C630.983 54.4788 630.937 58.1408 630.937 63.2044C630.937 68.3584 631.299 72.0205 632.022 74.1906C632.475 75.7277 633.153 76.7224 634.057 77.1745C635.052 77.6266 636.498 77.9431 638.397 78.1239C639.03 78.2143 639.708 78.3499 640.432 78.5308C641.245 78.6212 642.15 78.7568 643.144 78.9377C645.224 79.3898 646.852 80.5201 648.027 82.3285C649.202 84.0465 649.79 86.2618 649.79 88.9744C649.79 92.0488 648.208 94.4449 645.043 96.1629C641.878 97.8809 637.538 98.7399 632.022 98.7399C626.959 98.7399 622.121 97.2932 617.51 94.3997C612.898 91.4158 609.734 87.4373 608.016 82.4641C606.207 77.1293 605.303 67.0473 605.303 52.2182C598.973 52.0374 593.865 51.2236 589.977 49.7769C586.179 48.2397 584.28 45.5271 584.28 41.639C584.28 36.7562 586.088 33.501 589.705 31.8735C593.322 30.1555 598.521 29.2513 605.303 29.1608C605.574 21.9271 606.705 15.9141 608.694 11.1218C610.683 6.23906 614.255 3.79769 619.409 3.79769C624.653 3.79769 628.044 6.05822 629.581 10.5793C631.209 15.1003 631.932 21.2942 631.751 29.1608C639.979 29.0704 646.038 29.7034 649.926 31.0597C653.904 32.416 655.894 35.3999 655.894 40.0114Z" fill="white"/>
<path d="M673.125 32.9585C668.695 32.9585 664.942 31.3762 661.868 28.2114C658.793 24.9562 657.256 21.0229 657.256 16.4114C657.256 11.8904 658.793 8.04749 661.868 4.88275C664.942 1.62758 668.695 0 673.125 0C677.465 0 681.173 1.62758 684.247 4.88275C687.412 8.04749 688.994 11.8904 688.994 16.4114C688.994 21.0229 687.412 24.9562 684.247 28.2114C681.173 31.3762 677.465 32.9585 673.125 32.9585ZM673.125 98.7399C669.418 98.7399 666.66 97.7001 664.852 95.6204C663.134 93.4503 661.958 90.2403 661.325 85.9905C660.783 81.6503 660.512 75.5017 660.512 67.5446C660.512 60.8535 660.828 55.5638 661.461 51.6757C662.184 47.7876 663.45 44.8941 665.259 42.9953C667.067 41.0964 669.689 40.147 673.125 40.147C676.833 40.147 679.545 41.2321 681.263 43.4022C683.072 45.4819 684.247 48.6918 684.79 53.032C685.423 57.2818 685.739 63.3852 685.739 71.3423C685.739 78.0335 685.377 83.3231 684.654 87.2112C684.021 91.0993 682.8 93.9928 680.992 95.8917C679.183 97.7905 676.561 98.7399 673.125 98.7399Z" fill="white"/>
<path d="M727.059 98.8756C720.549 98.966 714.717 97.6097 709.562 94.8066C704.499 92.0035 700.52 88.1607 697.627 83.2779C694.824 78.3047 693.332 72.789 693.151 66.7308C693.061 60.6726 694.462 55.2473 697.356 50.455C700.249 45.6627 704.273 41.865 709.427 39.062C714.671 36.2589 720.549 34.8574 727.059 34.8574C733.389 34.8574 739.085 36.2137 744.149 38.9263C749.303 41.639 753.372 45.4366 756.355 50.3194C759.339 55.2021 760.922 60.6726 761.103 66.7308C761.193 72.6082 759.791 77.9883 756.898 82.871C754.005 87.6633 749.936 91.5062 744.691 94.3997C739.537 97.2932 733.66 98.7851 727.059 98.8756ZM727.466 79.0733C729.907 79.0733 732.032 78.1239 733.841 76.2251C735.649 74.3262 736.553 72.1109 736.553 69.5791C736.553 67.0473 735.649 64.8772 733.841 63.0688C732.032 61.1699 729.907 60.2205 727.466 60.2205C725.025 60.2205 722.9 61.1699 721.091 63.0688C719.283 64.8772 718.379 67.0473 718.379 69.5791C718.379 72.1109 719.283 74.3262 721.091 76.2251C722.9 78.1239 725.025 79.0733 727.466 79.0733Z" fill="white"/>
<path d="M818.78 98.7399C815.525 98.7399 813.083 97.8357 811.456 96.0273C809.919 94.2189 808.969 92.0035 808.608 89.3813C808.246 86.7591 808.065 83.3683 808.065 79.209C808.065 73.8741 807.342 69.7599 805.895 66.8665C804.448 63.973 802.097 62.5262 798.842 62.5262C795.858 62.5262 793.598 63.973 792.061 66.8665C790.614 69.6695 789.89 73.5576 789.89 78.5308C789.89 83.3231 789.755 86.94 789.484 89.3813C789.212 91.8227 788.308 93.9928 786.771 95.8917C785.234 97.7001 782.702 98.6043 779.176 98.6043C774.022 98.6043 770.405 95.3039 768.325 88.7032C766.245 82.012 765.205 74.1906 765.205 65.2389C765.205 43.5378 769.772 32.6873 778.904 32.6873C781.436 32.6873 783.516 33.3202 785.143 34.5861C786.771 35.7616 787.901 37.4796 788.534 39.7401C789.71 38.4742 791.518 37.3439 793.959 36.3493C796.491 35.3547 799.159 34.8574 801.962 34.8574C811.908 34.8574 819.323 38.4742 824.205 45.7079C829.178 52.9416 831.665 62.7523 831.665 75.14C831.665 82.4641 830.716 88.2511 828.817 92.5009C826.918 96.6602 823.572 98.7399 818.78 98.7399Z" fill="white"/>
<path d="M38.6632 234.74C32.2433 234.74 26.5467 233.203 21.5736 230.128C16.6908 226.964 12.9383 222.895 10.3161 217.922C7.69392 212.858 6.38281 207.478 6.38281 201.781C6.38281 195.09 7.73913 189.439 10.4518 184.827C13.2548 180.126 16.8265 176.644 21.1667 174.384C25.5973 172.123 30.3444 170.993 35.408 170.993C40.4716 170.993 44.9927 172.078 48.9712 174.248C48.7903 172.349 48.4287 170.315 47.8861 168.145C47.434 165.975 47.1176 164.618 46.9367 164.076C46.2133 161.273 45.6708 158.922 45.3091 157.023C44.9474 155.124 44.7666 153.225 44.7666 151.326C44.7666 147.529 45.8969 144.635 48.1574 142.646C50.4179 140.657 53.1306 139.662 56.2953 139.662C61.3589 139.662 65.4731 142.194 68.6378 147.257C71.8025 152.321 74.0631 158.605 75.4194 166.11C76.8661 173.615 77.5895 181.211 77.5895 188.896C77.5895 199.295 75.1933 209.558 70.401 219.685C65.6991 229.722 55.1198 234.74 38.6632 234.74ZM39.477 213.31C41.9183 213.31 44.0432 212.406 45.8517 210.597C47.6601 208.699 48.5643 206.483 48.5643 203.952C48.5643 201.42 47.6601 199.204 45.8517 197.306C44.0432 195.407 41.9183 194.457 39.477 194.457C37.0356 194.457 34.8655 195.407 32.9666 197.306C31.1582 199.204 30.254 201.42 30.254 203.952C30.254 206.483 31.1582 208.699 32.9666 210.597C34.8655 212.406 37.0356 213.31 39.477 213.31Z" fill="white"/>
<path d="M115.792 234.74C109.101 234.74 103.178 233.429 98.0243 230.807C92.8703 228.184 88.8466 224.522 85.9531 219.82C83.15 215.028 81.7485 209.648 81.7485 203.68C81.7485 197.803 83.15 192.378 85.9531 187.404C88.8466 182.431 92.8251 178.453 97.8887 175.469C102.952 172.485 108.694 170.993 115.114 170.993C120.901 170.993 126.01 172.168 130.44 174.519C134.871 176.87 138.262 179.99 140.613 183.878C142.964 187.676 144.139 191.654 144.139 195.814C144.139 202.595 141.562 207.568 136.408 210.733C131.345 213.807 125.286 215.345 118.233 215.345C113.532 215.345 109.553 214.757 106.298 213.581C109.01 218.012 113.486 220.227 119.725 220.227C122.257 220.227 124.97 219.911 127.863 219.278C128.948 219.007 129.988 218.871 130.983 218.871C132.972 218.871 134.554 219.368 135.73 220.363C136.996 221.358 137.629 222.714 137.629 224.432C137.629 227.235 135.911 229.676 132.475 231.756C129.039 233.745 123.478 234.74 115.792 234.74ZM106.705 197.034C107.519 198.3 108.604 199.25 109.96 199.883C111.407 200.425 112.989 200.696 114.707 200.696C116.696 200.696 118.414 200.244 119.861 199.34C121.398 198.436 122.167 197.26 122.167 195.814C122.167 194.186 121.489 192.785 120.132 191.609C118.866 190.434 117.013 189.846 114.571 189.846C112.13 189.846 110.186 190.614 108.739 192.152C107.383 193.598 106.705 195.226 106.705 197.034Z" fill="white"/>
<path d="M207.421 234.469C202.9 234.469 199.509 232.796 197.248 229.45C194.988 226.105 193.451 221.177 192.637 214.666C191.914 208.066 191.552 198.888 191.552 187.133C191.552 175.831 191.823 167.014 192.366 160.685C192.999 154.355 194.445 149.292 196.706 145.494C199.057 141.697 202.674 139.798 207.557 139.798C212.439 139.798 216.011 141.697 218.271 145.494C220.622 149.292 222.069 154.355 222.612 160.685C223.245 167.014 223.561 175.831 223.561 187.133C223.561 198.255 223.064 207.252 222.069 214.124C221.165 220.905 219.537 226.014 217.186 229.45C214.835 232.796 211.58 234.469 207.421 234.469Z" fill="white"/>
<path d="M252.125 234.74C245.072 234.74 239.286 233.158 234.764 229.993C230.243 226.738 227.983 222.081 227.983 216.023C227.983 210.778 230.289 206.619 234.9 203.545C239.512 200.47 245.253 198.933 252.125 198.933C254.657 198.933 257.008 199.159 259.178 199.611C261.439 199.973 262.976 200.425 263.79 200.968C263.79 198.707 262.84 196.853 260.941 195.407C259.043 193.87 256.149 193.101 252.261 193.101C250.543 193.101 249.141 193.237 248.056 193.508C246.971 193.779 245.796 194.186 244.53 194.729C243.264 195.271 242.089 195.678 241.004 195.949C240.009 196.221 238.653 196.356 236.935 196.356C234.041 196.356 231.781 195.633 230.153 194.186C228.525 192.649 227.712 190.343 227.712 187.269C227.712 183.742 228.977 180.758 231.509 178.317C234.131 175.876 237.387 174.067 241.275 172.892C245.163 171.626 249.051 170.993 252.939 170.993C260.625 170.993 267.045 172.44 272.199 175.333C277.443 178.136 281.286 181.889 283.728 186.591C286.259 191.293 287.525 196.492 287.525 202.188C287.525 205.263 287.254 208.111 286.711 210.733C286.259 213.355 285.626 215.39 284.813 216.837C286.078 217.922 287.028 219.187 287.661 220.634C288.384 222.081 288.746 223.573 288.746 225.11C288.746 227.732 287.842 229.993 286.033 231.892C284.315 233.791 282.01 234.74 279.116 234.74C276.946 234.74 275.183 234.423 273.826 233.791C272.47 233.158 271.023 232.163 269.486 230.807C267.226 232.163 264.739 233.158 262.026 233.791C259.404 234.423 256.104 234.74 252.125 234.74ZM254.838 221.041C256.737 221.041 258.229 220.634 259.314 219.82C260.489 219.007 261.077 218.012 261.077 216.837C261.077 215.661 260.489 214.666 259.314 213.853C258.229 213.039 256.737 212.632 254.838 212.632C252.939 212.632 251.402 213.039 250.226 213.853C249.141 214.666 248.599 215.661 248.599 216.837C248.599 218.012 249.141 219.007 250.226 219.82C251.402 220.634 252.939 221.041 254.838 221.041Z" fill="white"/>
<path d="M352.059 234.469C347.538 234.469 344.148 232.796 341.887 229.45C339.626 226.105 338.089 221.177 337.276 214.666C336.552 208.066 336.19 198.888 336.19 187.133C336.19 175.831 336.462 167.014 337.004 160.685C337.637 154.355 339.084 149.292 341.344 145.494C343.695 141.697 347.312 139.798 352.195 139.798C357.078 139.798 360.649 141.697 362.91 145.494C365.261 149.292 366.708 154.355 367.25 160.685C367.883 167.014 368.2 175.831 368.2 187.133C368.2 198.255 367.702 207.252 366.708 214.124C365.803 220.905 364.176 226.014 361.825 229.45C359.474 232.796 356.219 234.469 352.059 234.469Z" fill="white"/>
<path d="M406.394 234.74C399.703 234.74 393.78 233.429 388.626 230.807C383.472 228.184 379.448 224.522 376.555 219.82C373.752 215.028 372.35 209.648 372.35 203.68C372.35 197.803 373.752 192.378 376.555 187.404C379.448 182.431 383.427 178.453 388.49 175.469C393.554 172.485 399.296 170.993 405.716 170.993C411.503 170.993 416.611 172.168 421.042 174.519C425.473 176.87 428.863 179.99 431.214 183.878C433.565 187.676 434.741 191.654 434.741 195.814C434.741 202.595 432.164 207.568 427.01 210.733C421.946 213.807 415.888 215.345 408.835 215.345C404.133 215.345 400.155 214.757 396.9 213.581C399.612 218.012 404.088 220.227 410.327 220.227C412.859 220.227 415.571 219.911 418.465 219.278C419.55 219.007 420.59 218.871 421.585 218.871C423.574 218.871 425.156 219.368 426.332 220.363C427.598 221.358 428.23 222.714 428.23 224.432C428.23 227.235 426.512 229.676 423.076 231.756C419.64 233.745 414.08 234.74 406.394 234.74ZM397.306 197.034C398.12 198.3 399.205 199.25 400.562 199.883C402.008 200.425 403.591 200.696 405.309 200.696C407.298 200.696 409.016 200.244 410.463 199.34C412 198.436 412.768 197.26 412.768 195.814C412.768 194.186 412.09 192.785 410.734 191.609C409.468 190.434 407.614 189.846 405.173 189.846C402.732 189.846 400.788 190.614 399.341 192.152C397.985 193.598 397.306 195.226 397.306 197.034Z" fill="white"/>
<path d="M464.883 234.74C456.926 234.74 450.596 233.429 445.894 230.807C441.192 228.184 438.841 224.794 438.841 220.634C438.841 217.922 439.746 215.842 441.554 214.395C443.453 212.858 445.849 212.089 448.743 212.089C450.37 212.089 451.681 212.315 452.676 212.768C453.671 213.22 454.665 213.853 455.66 214.666C456.383 215.299 456.971 215.751 457.423 216.023C457.966 216.294 458.599 216.43 459.322 216.43C461.221 216.43 462.17 215.751 462.17 214.395C462.17 213.129 461.673 212.18 460.678 211.547C459.684 210.824 457.966 209.965 455.524 208.97C453.264 208.066 451.772 207.433 451.048 207.071C446.889 205.082 443.815 202.731 441.825 200.018C439.836 197.306 438.841 194.412 438.841 191.338C438.841 187.902 440.062 184.647 442.504 181.572C445.035 178.408 448.562 175.876 453.083 173.977C457.694 171.988 462.984 170.993 468.952 170.993C474.106 170.993 478.762 171.716 482.922 173.163C487.172 174.61 490.517 176.599 492.959 179.131C495.4 181.572 496.621 184.285 496.621 187.269C496.621 190.072 495.716 192.197 493.908 193.644C492.19 195.09 489.839 195.814 486.855 195.814C485.68 195.814 484.73 195.723 484.007 195.542C483.374 195.271 482.515 194.864 481.43 194.322C480.797 193.96 480.119 193.644 479.395 193.372C478.762 193.101 478.039 192.965 477.225 192.965C476.502 192.965 475.869 193.237 475.326 193.779C474.784 194.231 474.513 194.819 474.513 195.542C474.513 196.899 475.507 197.893 477.497 198.526C482.741 200.244 486.946 202.414 490.11 205.037C493.365 207.659 494.993 211.276 494.993 215.887C494.993 221.764 492.235 226.376 486.72 229.722C481.294 233.067 474.015 234.74 464.883 234.74Z" fill="white"/>
<path d="M526.738 234.74C518.781 234.74 512.452 233.429 507.75 230.807C503.048 228.184 500.697 224.794 500.697 220.634C500.697 217.922 501.601 215.842 503.41 214.395C505.308 212.858 507.705 212.089 510.598 212.089C512.226 212.089 513.537 212.315 514.531 212.768C515.526 213.22 516.521 213.853 517.515 214.666C518.239 215.299 518.826 215.751 519.279 216.023C519.821 216.294 520.454 216.43 521.177 216.43C523.076 216.43 524.026 215.751 524.026 214.395C524.026 213.129 523.528 212.18 522.534 211.547C521.539 210.824 519.821 209.965 517.38 208.97C515.119 208.066 513.627 207.433 512.904 207.071C508.744 205.082 505.67 202.731 503.681 200.018C501.692 197.306 500.697 194.412 500.697 191.338C500.697 187.902 501.918 184.647 504.359 181.572C506.891 178.408 510.417 175.876 514.938 173.977C519.55 171.988 524.839 170.993 530.807 170.993C535.961 170.993 540.618 171.716 544.777 173.163C549.027 174.61 552.373 176.599 554.814 179.131C557.255 181.572 558.476 184.285 558.476 187.269C558.476 190.072 557.572 192.197 555.763 193.644C554.045 195.09 551.695 195.814 548.711 195.814C547.535 195.814 546.586 195.723 545.862 195.542C545.229 195.271 544.37 194.864 543.285 194.322C542.652 193.96 541.974 193.644 541.251 193.372C540.618 193.101 539.895 192.965 539.081 192.965C538.357 192.965 537.724 193.237 537.182 193.779C536.639 194.231 536.368 194.819 536.368 195.542C536.368 196.899 537.363 197.893 539.352 198.526C544.596 200.244 548.801 202.414 551.966 205.037C555.221 207.659 556.849 211.276 556.849 215.887C556.849 221.764 554.091 226.376 548.575 229.722C543.15 233.067 535.871 234.74 526.738 234.74Z" fill="white"/>
<path d="M631.848 234.604C629.677 234.604 627.643 234.333 625.744 233.791C623.936 233.248 621.811 232.027 619.37 230.128C616.566 227.868 613.402 224.07 609.875 218.735C606.349 213.31 603.32 207.478 600.788 201.239C598.256 194.909 596.99 189.213 596.99 184.149C596.99 180.352 598.075 177.232 600.245 174.791C602.506 172.259 605.128 170.993 608.112 170.993C611.729 170.993 614.803 172.395 617.335 175.198C619.957 177.91 622.127 181.301 623.845 185.37C625.654 189.348 627.688 194.729 629.949 201.51C630.22 202.324 630.491 203.228 630.763 204.223C631.124 205.127 631.486 206.076 631.848 207.071L633.204 203.138C635.736 195.904 637.906 190.208 639.714 186.048C641.523 181.798 643.783 178.227 646.496 175.333C649.208 172.349 652.373 170.903 655.99 170.993C658.884 171.083 661.325 172.168 663.314 174.248C665.394 176.328 666.434 179.357 666.434 183.335C666.434 188.761 665.258 194.457 662.907 200.425C660.556 206.393 657.798 211.818 654.634 216.701C651.469 221.493 648.756 225.02 646.496 227.28C644.507 229.541 642.156 231.349 639.443 232.705C636.821 233.971 634.289 234.604 631.848 234.604Z" fill="white"/>
<path d="M702.956 234.74C696.265 234.74 690.342 233.429 685.188 230.807C680.034 228.184 676.01 224.522 673.117 219.82C670.314 215.028 668.912 209.648 668.912 203.68C668.912 197.803 670.314 192.378 673.117 187.404C676.01 182.431 679.989 178.453 685.052 175.469C690.116 172.485 695.858 170.993 702.278 170.993C708.065 170.993 713.173 172.168 717.604 174.519C722.035 176.87 725.425 179.99 727.776 183.878C730.127 187.676 731.303 191.654 731.303 195.814C731.303 202.595 728.726 207.568 723.572 210.733C718.508 213.807 712.45 215.345 705.397 215.345C700.695 215.345 696.717 214.757 693.462 213.581C696.174 218.012 700.65 220.227 706.889 220.227C709.421 220.227 712.133 219.911 715.027 219.278C716.112 219.007 717.152 218.871 718.146 218.871C720.136 218.871 721.718 219.368 722.894 220.363C724.16 221.358 724.792 222.714 724.792 224.432C724.792 227.235 723.074 229.676 719.638 231.756C716.202 233.745 710.642 234.74 702.956 234.74ZM693.868 197.034C694.682 198.3 695.767 199.25 697.124 199.883C698.57 200.425 700.153 200.696 701.871 200.696C703.86 200.696 705.578 200.244 707.025 199.34C708.562 198.436 709.33 197.26 709.33 195.814C709.33 194.186 708.652 192.785 707.296 191.609C706.03 190.434 704.176 189.846 701.735 189.846C699.294 189.846 697.35 190.614 695.903 192.152C694.547 193.598 693.868 195.226 693.868 197.034Z" fill="white"/>
<path d="M580.16 174.424C580.077 173.859 578.996 173.859 578.916 174.424C576.212 193.11 562.383 215.892 562.383 228.88C562.383 236.907 570.236 243.412 579.538 243.412C588.84 243.412 596.69 236.904 596.69 228.88C596.69 215.892 582.864 193.11 580.16 174.424ZM577.547 214.012C577.363 214.587 577.17 215.181 576.968 215.795C575.74 219.538 574.346 223.785 574.346 228.693C574.346 231.354 572.515 232.298 570.806 232.298C570.339 232.297 569.876 232.216 569.445 232.061C569.015 231.906 568.624 231.68 568.295 231.395C567.966 231.111 567.706 230.773 567.529 230.402C567.352 230.031 567.263 229.633 567.265 229.232C567.265 223.43 570.518 219.638 573.391 216.297C574.294 215.25 575.143 214.259 575.832 213.273C576.147 212.821 576.996 212.842 577.382 213.289C577.562 213.499 577.624 213.767 577.547 214.012Z" fill="white"/>
</g>
<g filter="url(#filter1_f_873_1328)">
<path d="M592.383 182L593.393 234L592.383 286L591.373 234L592.383 182Z" fill="white"/>
<path d="M540.383 234L592.383 232.99L644.383 234L592.383 235.01L540.383 234Z" fill="white"/>
<path d="M555.613 270.771L591.669 233.288L629.152 197.232L593.097 234.716L555.613 270.771Z" fill="white"/>
<path d="M629.152 270.771L593.097 233.288L555.613 197.232L591.669 234.716L629.152 270.771Z" fill="white"/>
</g>
<g filter="url(#filter2_f_873_1328)">
<path d="M604.394 201L593.024 234.737L580.372 268L591.742 234.263L604.394 201Z" fill="url(#paint0_radial_873_1328)"/>
<path d="M559.383 222.307L592.616 233.85L625.383 246.693L592.15 235.151L559.383 222.307Z" fill="url(#paint1_radial_873_1328)"/>
<path d="M560.555 249.568L592.094 233.875L624.21 219.436L592.671 235.129L560.555 249.568Z" fill="url(#paint2_radial_873_1328)"/>
<path d="M607.224 266.811L593.001 234.209L577.541 202.192L591.765 234.794L607.224 266.811Z" fill="url(#paint3_radial_873_1328)"/>
</g>
<g filter="url(#filter3_f_873_1328)">
<path d="M600.165 241.78H584.609V226.224H600.165V241.78Z" fill="url(#paint4_radial_873_1328)"/>
</g>
<g filter="url(#filter4_f_873_1328)">
<circle cx="592.383" cy="234" r="8" fill="white"/>
</g>
<g opacity="0.4" filter="url(#filter5_f_873_1328)">
<circle cx="592.383" cy="234" r="13" fill="url(#paint5_radial_873_1328)"/>
</g>
<g opacity="0.25" filter="url(#filter6_f_873_1328)">
<circle cx="592.383" cy="234" r="25" fill="url(#paint6_radial_873_1328)"/>
</g>
<defs>
<filter id="filter0_d_873_1328" x="0.000141144" y="0" width="838.048" height="256.175" filterUnits="userSpaceOnUse" color-interpolation-filters="sRGB">
<feFlood flood-opacity="0" result="BackgroundImageFix"/>
<feColorMatrix in="SourceAlpha" type="matrix" values="0 0 0 0 0 0 0 0 0 0 0 0 0 0 0 0 0 0 127 0" result="hardAlpha"/>
<feOffset dy="6.38267"/>
<feGaussianBlur stdDeviation="3.19134"/>
<feComposite in2="hardAlpha" operator="out"/>
<feColorMatrix type="matrix" values="0 0 0 0 0 0 0 0 0 0 0 0 0 0 0 0 0 0 0.15 0"/>
<feBlend mode="normal" in2="BackgroundImageFix" result="effect1_dropShadow_873_1328"/>
<feBlend mode="normal" in="SourceGraphic" in2="effect1_dropShadow_873_1328" result="shape"/>
</filter>
<filter id="filter1_f_873_1328" x="538.883" y="180.5" width="107" height="107" filterUnits="userSpaceOnUse" color-interpolation-filters="sRGB">
<feFlood flood-opacity="0" result="BackgroundImageFix"/>
<feBlend mode="normal" in="SourceGraphic" in2="BackgroundImageFix" result="shape"/>
<feGaussianBlur stdDeviation="0.75" result="effect1_foregroundBlur_873_1328"/>
</filter>
<filter id="filter2_f_873_1328" x="558.383" y="200" width="68" height="69" filterUnits="userSpaceOnUse" color-interpolation-filters="sRGB">
<feFlood flood-opacity="0" result="BackgroundImageFix"/>
<feBlend mode="normal" in="SourceGraphic" in2="BackgroundImageFix" result="shape"/>
<feGaussianBlur stdDeviation="0.5" result="effect1_foregroundBlur_873_1328"/>
</filter>
<filter id="filter3_f_873_1328" x="581.608" y="223.223" width="21.5566" height="21.5586" filterUnits="userSpaceOnUse" color-interpolation-filters="sRGB">
<feFlood flood-opacity="0" result="BackgroundImageFix"/>
<feBlend mode="normal" in="SourceGraphic" in2="BackgroundImageFix" result="shape"/>
<feGaussianBlur stdDeviation="1.5" result="effect1_foregroundBlur_873_1328"/>
</filter>
<filter id="filter4_f_873_1328" x="577.383" y="219" width="30" height="30" filterUnits="userSpaceOnUse" color-interpolation-filters="sRGB">
<feFlood flood-opacity="0" result="BackgroundImageFix"/>
<feBlend mode="normal" in="SourceGraphic" in2="BackgroundImageFix" result="shape"/>
<feGaussianBlur stdDeviation="3.5" result="effect1_foregroundBlur_873_1328"/>
</filter>
<filter id="filter5_f_873_1328" x="576.383" y="218" width="32" height="32" filterUnits="userSpaceOnUse" color-interpolation-filters="sRGB">
<feFlood flood-opacity="0" result="BackgroundImageFix"/>
<feBlend mode="normal" in="SourceGraphic" in2="BackgroundImageFix" result="shape"/>
<feGaussianBlur stdDeviation="1.5" result="effect1_foregroundBlur_873_1328"/>
</filter>
<filter id="filter6_f_873_1328" x="564.383" y="206" width="56" height="56" filterUnits="userSpaceOnUse" color-interpolation-filters="sRGB">
<feFlood flood-opacity="0" result="BackgroundImageFix"/>
<feBlend mode="normal" in="SourceGraphic" in2="BackgroundImageFix" result="shape"/>
<feGaussianBlur stdDeviation="1.5" result="effect1_foregroundBlur_873_1328"/>
</filter>
<radialGradient id="paint0_radial_873_1328" cx="0" cy="0" r="1" gradientUnits="userSpaceOnUse" gradientTransform="translate(592.875 235) rotate(90) scale(55.5 54.6716)">
<stop stop-color="white"/>
<stop offset="1" stop-color="white" stop-opacity="0.5"/>
</radialGradient>
<radialGradient id="paint1_radial_873_1328" cx="0" cy="0" r="1" gradientUnits="userSpaceOnUse" gradientTransform="translate(592.875 235) rotate(90) scale(55.5 54.6716)">
<stop stop-color="white"/>
<stop offset="1" stop-color="white" stop-opacity="0.5"/>
</radialGradient>
<radialGradient id="paint2_radial_873_1328" cx="0" cy="0" r="1" gradientUnits="userSpaceOnUse" gradientTransform="translate(592.875 235) rotate(90) scale(55.5 54.6716)">
<stop stop-color="white"/>
<stop offset="1" stop-color="white" stop-opacity="0.5"/>
</radialGradient>
<radialGradient id="paint3_radial_873_1328" cx="0" cy="0" r="1" gradientUnits="userSpaceOnUse" gradientTransform="translate(592.875 235) rotate(90) scale(55.5 54.6716)">
<stop stop-color="white"/>
<stop offset="1" stop-color="white" stop-opacity="0.5"/>
</radialGradient>
<radialGradient id="paint4_radial_873_1328" cx="0" cy="0" r="1" gradientUnits="userSpaceOnUse" gradientTransform="translate(592.386 234.003) rotate(-90) scale(7.77818)">
<stop stop-color="white" stop-opacity="0.5"/>
<stop offset="1" stop-color="white" stop-opacity="0.5"/>
</radialGradient>
<radialGradient id="paint5_radial_873_1328" cx="0" cy="0" r="1" gradientUnits="userSpaceOnUse" gradientTransform="translate(592.383 234) rotate(90) scale(13)">
<stop stop-color="white"/>
<stop offset="1" stop-color="white" stop-opacity="0.5"/>
</radialGradient>
<radialGradient id="paint6_radial_873_1328" cx="0" cy="0" r="1" gradientUnits="userSpaceOnUse" gradientTransform="translate(592.383 234) rotate(90) scale(25)">
<stop stop-color="white"/>
<stop offset="1" stop-color="white" stop-opacity="0.5"/>
</radialGradient>
</defs>
</svg>
