<svg width="152" height="152" viewBox="0 0 152 152" fill="none" xmlns="http://www.w3.org/2000/svg">
<path fill-rule="evenodd" clip-rule="evenodd" d="M70.0549 0.0792092C69.6043 0.131873 68.1824 0.28659 66.895 0.423283C65.6077 0.559976 62.9597 0.982695 61.0109 1.36235C34.1664 6.59296 12.1234 26.2042 3.61032 52.4305C1.97843 57.4578 0.876688 62.6278 0.281699 68.0517C-0.0953776 71.488 -0.0935051 80.0093 0.284976 83.4999C2.40419 103.038 11.6052 120.595 26.402 133.335C37.5624 142.943 51.3827 149.066 66.4269 151.065C70.7505 151.64 80.9355 151.635 85.152 151.056C97.5051 149.36 107.748 145.546 117.687 138.943C136.726 126.293 148.962 105.973 151.284 83.1488C151.621 79.8363 151.621 71.7153 151.284 68.4028C150.007 55.8491 145.925 44.354 139.056 33.9672C135.949 29.2695 133.588 26.4256 129.07 21.9368C122.78 15.6875 117.446 11.8484 109.606 7.92806C102.014 4.13132 94.2074 1.70993 85.7088 0.515504C83.176 0.159493 72.0318 -0.151109 70.0549 0.0792092ZM71.2252 4.05361C70.7746 4.10534 69.2473 4.26122 67.8313 4.40002C62.1601 4.95545 55.1797 6.68612 49.3976 8.97058C26.7662 17.9118 9.94922 38.0277 5.36556 61.6405C3.58012 70.838 3.57778 80.9098 5.359 89.8196C10.5915 115.992 30.1084 137.294 55.6419 144.702C71.9601 149.436 89.3492 148.269 104.878 141.398C125.472 132.284 140.883 113.594 145.77 91.8045C147.798 82.765 148.09 72.7337 146.585 63.8386C142.895 42.0302 129.442 23.2133 109.945 12.5873C102.212 8.37278 94.0314 5.74144 84.8009 4.5002C82.2475 4.15683 72.9781 3.85185 71.2252 4.05361ZM104.88 11.0807C104.813 11.1965 104.3 14.1663 103.74 17.6803C103.18 21.1943 102.659 24.17 102.583 24.2933C102.505 24.419 101.269 23.9914 99.7685 23.3194C94.3844 20.9092 89.6373 19.4976 83.9816 18.625C80.15 18.034 72.0149 17.9156 68.6505 18.4019C57.3705 20.0327 47.7584 24.1098 39.5096 30.7631C36.57 33.1341 32.068 37.7595 29.8706 40.6665C23.4287 49.1888 19.363 59.599 18.3198 70.2435C17.675 76.8221 18.4289 84.9343 20.2803 91.341C21.5567 95.7585 23.8701 101.289 24.4415 101.289C24.5897 101.289 24.6292 101.117 24.5358 100.879C23.3938 97.9714 21.8038 90.6363 21.3565 86.2134C21.0064 82.7525 21.1943 74.6701 21.6973 71.5535C23.1078 62.8122 25.8049 55.5415 30.1721 48.7094C37.7754 36.8136 49.7225 28.0367 63.1308 24.496C68.1353 23.1745 70.6822 22.8339 76.4916 22.7101C82.1908 22.5886 85.2046 22.8384 89.9294 23.8228C92.4924 24.3572 97.482 25.8033 98.3578 26.266L98.9617 26.585L98.2595 26.8589C97.8733 27.0096 95.7309 27.8082 93.4987 28.6333C91.2664 29.4586 89.2979 30.2132 89.1245 30.3104C88.9375 30.415 95.3021 32.5019 104.769 35.4401C113.547 38.1644 120.75 40.3728 120.775 40.3473C120.801 40.322 117.447 34.0374 113.322 26.3814C109.198 18.7256 105.638 12.1035 105.412 11.6658C105.186 11.2284 104.946 10.965 104.88 11.0807ZM96.504 46.5097C93.8643 46.993 91.4087 48.4058 90.141 50.1714L89.3698 51.245L89.2118 50.4728C89.125 50.048 88.8668 49.5637 88.6381 49.3966C88.0553 48.9704 86.399 49.0181 85.2151 49.4956C84.6656 49.7173 82.9518 50.2245 81.4069 50.6226L78.5982 51.3468L78.5361 58.4118C78.5022 62.2977 78.5549 65.4801 78.6532 65.4836C78.7517 65.4873 80.3857 65.0922 82.2844 64.6058L85.7364 63.7215L85.7404 60.3276C85.7425 58.461 85.8216 56.8178 85.9162 56.6762C86.1575 56.3151 86.892 55.9715 87.7852 55.8022C88.5112 55.6646 88.5459 55.6913 88.5459 56.3858C88.5459 58.4661 90.0951 60.6509 91.9669 61.21C94.7619 62.0452 99.3369 60.7553 101.458 58.5342C103.048 56.8693 103.409 55.8544 103.405 53.0717C103.401 50.3869 103.12 49.2461 102.189 48.1402C101.006 46.7339 98.7747 46.094 96.504 46.5097ZM96.504 48.2418C92.7096 49.0643 90.4781 51.381 90.2363 54.7478C90.0825 56.8902 90.3077 57.8363 91.1952 58.7774C92.5044 60.1654 95.0723 60.1652 98.1666 58.7765C100.135 57.8931 101.276 56.57 101.748 54.6233C101.908 53.9627 101.897 53.9541 101.098 54.1039C99.0169 54.4943 97.9405 54.9484 97.8656 55.4671C97.7717 56.1168 96.4062 57.0507 95.55 57.0507C94.7121 57.0507 94.1187 56.4511 94.2093 55.6957C94.2765 55.1359 94.4944 55.046 98.0255 54.1219L101.77 53.1416L101.706 51.7717C101.567 48.8522 99.6594 47.5576 96.504 48.2418ZM126.992 50.5555C127.055 50.8452 127.429 52.1881 127.824 53.5398C129.681 59.8981 130.326 64.5567 130.302 71.4456C130.283 77.1942 130.027 79.603 128.907 84.5979C124.775 103.02 112.044 117.96 94.4593 125.02C84.3505 129.079 72.7707 130.022 61.5115 127.704C59.1274 127.213 54.6556 125.93 53.2372 125.33L52.4528 124.998L57.0992 123.289C59.6547 122.349 61.9748 121.465 62.2547 121.324C62.6854 121.107 60.3047 120.306 46.8065 116.129C38.0301 113.413 30.82 111.213 30.7842 111.24C30.7481 111.267 34.2766 117.88 38.6253 125.935C42.9737 133.991 46.5963 140.509 46.6754 140.421C46.7543 140.333 47.2753 137.389 47.8329 133.88C48.3904 130.371 48.9107 127.397 48.9889 127.27C49.0715 127.137 50.3338 127.584 51.9952 128.335C64.4394 133.961 78.1811 135.029 91.3654 131.395C103.169 128.142 114.348 120.58 121.586 110.953C133.297 95.3754 136.57 75.2553 130.316 57.2871C129.254 54.2354 127.393 50.0288 127.105 50.0288C126.98 50.0288 126.929 50.2657 126.992 50.5555ZM85.4319 51.2724C84.9422 51.569 84.3433 52.1136 84.101 52.483L83.6603 53.1547L83.503 52.5279C83.4166 52.1834 83.2998 51.9013 83.2436 51.9013C83.1875 51.9013 82.4616 52.0722 81.6307 52.281L80.1196 52.6604V58.0155C80.1196 60.9608 80.1985 63.3697 80.2951 63.369C80.3918 63.3683 80.8393 63.2698 81.2899 63.15C81.7405 63.0304 82.5569 62.8162 83.1039 62.6741L84.0987 62.4162V59.6088C84.0987 56.1227 84.3636 55.3538 85.7867 54.7078C86.3389 54.4573 86.9748 54.2499 87.2 54.2471C87.5532 54.2427 87.6096 54.0004 87.6096 52.4865V50.731L86.966 50.7322C86.612 50.7329 85.9216 50.9761 85.4319 51.2724ZM95.5725 51.1411C94.7455 51.5566 93.923 52.6751 94.2236 52.9757C94.4602 53.2123 97.738 52.3065 97.8466 51.9746C97.9548 51.6441 97.0974 50.7308 96.6796 50.7315C96.5188 50.7315 96.0205 50.9159 95.5725 51.1411ZM70.9911 53.328L64.0862 55.1115L64.0141 56.0819L63.9423 57.0526L63.304 55.8308C62.7909 54.8487 62.4214 54.4814 61.4182 53.9573C60.605 53.5325 59.8338 53.3118 59.2027 53.323C58.6702 53.3326 56.1281 53.8892 53.5534 54.5601L48.8721 55.7795L48.8108 64.4904C48.7771 69.2813 48.8197 73.2011 48.9053 73.2011C48.9912 73.2011 50.3355 72.876 51.8925 72.4786C53.4497 72.0809 55.1188 71.6556 55.6014 71.5332L56.4792 71.3106V69.0191V66.7276L57.6954 66.447C60.414 65.8195 62.562 64.0417 63.477 61.6613L63.9449 60.4447L63.957 62.1301C63.9818 65.5664 64.857 67.4565 66.7064 68.0667C67.8093 68.4307 69.7485 68.2174 70.9612 67.5988C71.4927 67.3278 71.9274 67.1529 71.9274 67.2103C71.9274 67.3254 77.7668 65.8012 77.9227 65.6453C77.9763 65.5919 77.9922 62.3972 77.958 58.5462L77.896 51.5444L70.9911 53.328ZM74.0925 54.1919L72.6296 54.5575V57.8168C72.6296 61.405 72.3744 62.3895 71.32 62.8698C69.7979 63.5633 69.5867 63.0683 69.5867 58.8057C69.5867 55.6534 69.5542 55.3905 69.1771 55.5029C68.952 55.5703 68.2409 55.7505 67.5972 55.9036C65.4871 56.4054 65.6069 56.1484 65.6133 60.1603C65.6196 64.2779 65.8155 65.3907 66.6616 66.1207C67.8629 67.1569 70.2299 66.5448 72.1029 64.7137C73.0694 63.7688 73.0977 63.7581 73.0977 64.336C73.0977 64.6632 73.1529 64.9862 73.2203 65.0536C73.288 65.1212 74.0253 65.0131 74.8588 64.8137L76.3746 64.4511V59.1124C76.3746 53.0356 76.6182 53.5606 74.0925 54.1919ZM58.2346 55.0542C58.1059 55.108 56.2891 55.5937 54.1971 56.1334L50.3935 57.1146V64.1047C50.3935 67.949 50.4724 71.0896 50.5691 71.0835C50.6657 71.0777 51.6399 70.8308 52.7342 70.5351L54.7237 69.9975L54.7904 67.7514L54.8574 65.5053L56.1948 65.1327C59.5145 64.2075 60.499 63.598 61.5382 61.8245C62.2484 60.6127 62.5222 58.4572 62.1208 57.2406C61.711 55.9989 60.6808 55.1403 59.4813 55.0406C58.9244 54.9942 58.3634 55.0003 58.2346 55.0542ZM110.945 58.5932C109.941 58.7746 106.412 59.6215 103.104 60.4751C90.5855 63.7049 88.2484 64.309 81.641 66.0236C77.9077 66.9923 72.7466 68.326 70.1719 68.9875C67.5972 69.6487 65.0918 70.2931 64.6045 70.4195C63.7567 70.6391 63.7237 70.684 63.8438 71.4569C63.9128 71.9014 64.0303 72.66 64.105 73.1426L64.2407 74.0203L63.4613 73.2716C62.3216 72.1766 61.0762 71.7291 59.1709 71.73C55.2852 71.7319 51.5451 73.8708 49.9088 77.0266L49.1338 78.5211L48.65 77.7923C48.3839 77.3913 47.6971 76.8263 47.1237 76.5365C45.4768 75.7047 43.873 75.8247 38.527 77.1802C35.9886 77.8239 33.8808 78.3505 33.8434 78.3505C33.8057 78.3505 33.775 84.3613 33.775 91.7078C33.775 104.321 33.7977 105.058 34.1846 104.938C34.8679 104.727 42.658 102.693 42.7851 102.693C42.8501 102.693 42.9035 100.595 42.9035 98.0301V93.3669L43.7812 93.0864C45.2383 92.6209 47.3399 91.4213 47.9328 90.7168C48.2397 90.3521 48.5393 90.0537 48.5983 90.0537C48.6575 90.0537 48.7474 91.2914 48.7984 92.8039C48.9046 95.9544 49.2436 96.8734 50.8282 98.3049C54.1774 101.331 61.6262 99.1033 64.1471 94.3223C65.0485 92.6129 65.1835 91.9636 65.3525 88.5323L65.4906 85.7235L66.0678 90.824C66.3855 93.6292 66.7171 96.041 66.8051 96.1833C66.9154 96.3617 68.4829 96.0448 71.8454 95.1647L76.7257 93.8874L77.0051 93.0822C77.2736 92.3084 77.2849 92.3021 77.2977 92.921C77.3066 93.358 77.4349 93.5646 77.6973 93.5646C78.241 93.5646 87.2262 91.2177 87.4074 91.0286C87.4893 90.9429 87.7803 88.7663 88.0541 86.1916C88.8069 79.1147 88.8841 79.0321 89.014 85.166L89.131 90.6943L102.239 87.3116C109.448 85.4511 115.907 83.7698 116.593 83.5755L117.84 83.2221L117.763 77.5648C117.692 72.2623 117.655 71.8583 117.187 71.1189L116.687 70.3303L117.18 69.2494C117.592 68.3462 117.674 67.7079 117.68 65.36C117.684 63.5621 117.571 62.2242 117.366 61.6428C116.862 60.2169 115.598 58.9813 114.224 58.5736C113.572 58.3797 112.978 58.2304 112.904 58.2421C112.831 58.2536 111.95 58.4116 110.945 58.5932ZM55.8355 58.9846L54.8407 59.2238V60.737C54.8407 61.9567 54.906 62.2252 55.1771 62.121C55.3622 62.0501 55.9397 61.8774 56.4605 61.7369C56.9812 61.5967 57.5147 61.2819 57.6455 61.0373C57.969 60.4327 57.9458 59.3132 57.6027 58.9701C57.2855 58.6529 57.2127 58.6534 55.8355 58.9846ZM110.899 60.2537C110.07 60.4409 104.842 61.7386 103.936 61.9822L103.058 62.2182V73.6393C103.058 79.9209 103.117 85.1189 103.188 85.1906C103.26 85.2624 104.576 84.9923 106.114 84.5907L108.909 83.8601V78.6522V73.4441L109.512 73.2929C110.582 73.0242 110.659 73.3504 110.741 78.4788C110.809 82.7811 110.856 83.2637 111.209 83.246C111.425 83.235 112.602 82.9428 113.825 82.5964L116.048 81.9666V77.1743C116.048 72.8767 116.003 72.3152 115.61 71.7354C115.369 71.3799 114.895 71.0288 114.557 70.9553C113.301 70.6819 113.261 70.6187 114.07 70.185C115.16 69.6005 115.651 68.8578 115.929 67.3762C116.457 64.559 116.047 62.0351 114.87 60.8582C114.172 60.1596 113.987 60.0959 112.736 60.1207C111.983 60.1357 111.156 60.1954 110.899 60.2537ZM95.4508 64.1567L90.7695 65.3761L90.7089 76.9857L90.648 88.595L94.4539 87.6002C96.5469 87.0532 98.7862 86.4564 99.4298 86.2743L100.6 85.9428L100.667 83.6682C100.704 82.4169 100.651 81.3952 100.55 81.3973C100.449 81.3997 99.5761 81.6084 98.6106 81.8615C97.6451 82.1145 96.7236 82.3233 96.5626 82.3256C96.347 82.3284 96.27 81.6876 96.27 79.8885V77.4475L97.4988 77.0945C98.1746 76.9005 99.0174 76.6711 99.3713 76.5845L100.015 76.4272V74.2291C100.015 73.02 99.9885 72.0327 99.9565 72.0348C99.9244 72.0371 99.1277 72.2389 98.1863 72.4835C96.8579 72.8283 96.449 72.8622 96.3617 72.6342C96.2997 72.4727 96.28 71.5072 96.318 70.4888L96.387 68.6369L97.3233 68.3548C97.8382 68.1999 98.7073 67.9588 99.2543 67.8193L100.249 67.5656V65.2338C100.249 63.9516 100.223 62.91 100.191 62.9196C100.158 62.9292 98.0255 63.4858 95.4508 64.1567ZM109.066 64.6969C108.98 64.7826 108.909 65.9412 108.909 67.2716C108.909 69.8973 109.039 70.1119 110.103 69.2501C110.557 68.8831 110.662 68.5395 110.739 67.1745C110.844 65.3071 110.559 64.5408 109.759 64.5408C109.464 64.5408 109.151 64.611 109.066 64.6969ZM85.6201 66.6944C84.204 67.0813 83.0208 67.4205 82.9909 67.4476C82.7659 67.6531 81.524 79.7647 81.524 81.7538C81.524 82.3708 81.4528 82.8047 81.366 82.7177C81.2791 82.6308 81.0273 80.1645 80.8063 77.2368C80.1891 69.0587 80.0999 68.2858 79.7725 68.2858C79.4263 68.2858 74.25 69.63 74.1285 69.7515C73.901 69.9792 72.648 81.402 72.6085 83.6099C72.5661 85.9644 72.2104 83.5165 71.8267 78.2335C71.6212 75.4013 71.3895 72.4905 71.3118 71.7651L71.1709 70.4462L68.4478 71.151C66.95 71.5386 65.6964 71.8796 65.662 71.9086C65.6093 71.9526 66.362 78.7505 67.4769 88.2982C67.6122 89.4568 67.817 91.2294 67.9321 92.2375C68.0473 93.2454 68.1987 94.1271 68.2685 94.1968C68.3382 94.2666 69.9683 93.9197 71.8909 93.4261L75.3866 92.5282L75.7492 89.8281C75.9483 88.3429 76.2966 85.6102 76.5232 83.755C76.7495 81.9001 76.9647 80.4781 77.0012 80.5952C77.0374 80.7124 77.2802 82.3354 77.5402 84.2021C77.8003 86.0688 78.1797 88.5061 78.3838 89.6183L78.7543 91.6406L82.2807 90.7343C84.2199 90.2358 85.8483 89.7864 85.8991 89.7358C86.0004 89.6345 86.4981 85.2982 87.5953 74.9566C87.9914 71.2233 88.3773 67.6686 88.4527 67.057C88.5281 66.4453 88.5009 65.9554 88.3923 65.9681C88.2837 65.9805 87.0362 66.3075 85.6201 66.6944ZM99.6054 69.406C98.3468 69.7204 98.1425 69.8461 98.1425 70.3039C98.1425 70.7795 98.2111 70.8137 98.7862 70.6257C99.1401 70.5099 99.8776 70.3006 100.425 70.1606C101.17 69.9699 101.419 69.7913 101.419 69.447C101.419 69.1947 101.34 68.9997 101.244 69.0142C101.147 69.0287 100.41 69.205 99.6054 69.406ZM57.8936 73.4909C55.0671 73.908 52.5834 75.5804 51.3143 77.9212L50.5106 79.4038L50.4371 86.6965C50.3886 91.5154 50.4516 94.3151 50.6224 94.9503C50.9555 96.1869 52.0608 97.4398 53.13 97.7925C54.4861 98.2401 56.9033 97.9519 58.6499 97.1346C60.6937 96.1782 61.9406 94.9924 62.8551 93.1354L63.6181 91.5861L63.6977 85.018C63.781 78.1431 63.6066 76.1192 62.842 75.0881C61.7692 73.6412 60.2338 73.1456 57.8936 73.4909ZM56.6849 77.858C56.1285 78.3084 56.1281 78.3138 56.0478 84.3568C56.0038 87.6831 56.0391 91.1683 56.1264 92.1017C56.276 93.7011 56.3179 93.7987 56.856 93.7987C57.2537 93.7987 57.4964 93.6164 57.6553 93.1983C57.7859 92.8545 57.8836 89.4643 57.8836 85.2687C57.8836 77.2652 57.8297 76.9316 56.6849 77.858ZM39.3925 78.6714L35.5305 79.6638L35.4699 91.2647L35.409 102.865L38.2786 102.121L41.148 101.377L41.2112 96.6945L41.2744 92.0123L42.4986 91.7036C45.0192 91.0679 46.8353 89.8161 47.5239 88.2399C48.0637 87.0043 48.0618 80.5102 47.5213 79.2437C46.7157 77.3555 44.9867 77.2336 39.3925 78.6714ZM99.4883 78.2819C98.1839 78.6241 98.1425 78.6595 98.1425 79.4291C98.1425 79.8658 98.1998 80.223 98.2698 80.223C98.34 80.223 99.0773 80.0522 99.9083 79.8434C101.394 79.4703 101.419 79.4506 101.419 78.673C101.419 77.781 101.407 77.7785 99.4883 78.2819ZM41.265 85.0213C41.265 88.1887 41.3636 88.3939 42.4588 87.5071C42.9138 87.1387 43.0172 86.7969 43.0961 85.4022C43.1479 84.4863 43.1209 83.3677 43.0362 82.9162C42.8955 82.166 42.8127 82.0955 42.0737 82.0955H41.265V85.0213Z"/>
</svg>
