<svg width="85" height="85" viewBox="0 0 85 85" fill="none" xmlns="http://www.w3.org/2000/svg">
<path d="M84.5312 20C84.5312 8.95431 75.5769 0 64.5312 0H20C8.95431 0 0 8.95431 0 20V64.5312C0 75.5769 8.95431 84.5312 20 84.5312H64.5312C75.5769 84.5312 84.5312 75.5769 84.5312 64.5312V20Z" fill="black"/>
<path d="M64.7192 0H19.812C8.87016 0 0 8.87016 0 19.812V64.7192C0 75.661 8.87016 84.5312 19.812 84.5312H64.7192C75.661 84.5312 84.5312 75.661 84.5312 64.7192V19.812C84.5312 8.87016 75.661 0 64.7192 0Z" fill="url(#paint0_radial_182_1753)"/>
<path d="M64.7192 0H19.812C8.87016 0 0 8.87016 0 19.812V64.7192C0 75.661 8.87016 84.5312 19.812 84.5312H64.7192C75.661 84.5312 84.5312 75.661 84.5312 64.7192V19.812C84.5312 8.87016 75.661 0 64.7192 0Z" fill="url(#paint1_radial_182_1753)"/>
<path d="M42.2687 9.24561C33.3011 9.24561 32.1755 9.28491 28.6536 9.44506C25.1383 9.60617 22.7387 10.1626 20.6393 10.9792C18.4672 11.8225 16.625 12.9508 14.7898 14.7867C12.9529 16.6223 11.8246 18.4645 10.9786 20.6355C10.1597 22.7356 9.60265 25.1362 9.44449 28.6498C9.28701 32.172 9.24572 33.298 9.24572 42.266C9.24572 51.234 9.28536 52.3557 9.44517 55.8777C9.60696 59.3929 10.1633 61.7928 10.9793 63.8921C11.8232 66.0641 12.9516 67.9065 14.7875 69.7417C16.6224 71.5785 18.4646 72.7096 20.635 73.5528C22.7361 74.3693 25.1359 74.9255 28.6506 75.087C32.1728 75.2472 33.2975 75.2865 42.2648 75.2865C51.2332 75.2865 52.3554 75.2472 55.8774 75.087C59.3926 74.9255 61.7946 74.3693 63.896 73.5528C66.0668 72.7096 67.9066 71.5785 69.7409 69.7417C71.5778 67.9065 72.7059 66.0641 73.552 63.8929C74.3639 61.7928 74.921 59.3925 75.0863 55.8785C75.2443 52.3565 75.2858 51.234 75.2858 42.266C75.2858 33.298 75.2443 32.1727 75.0863 28.6505C74.921 25.1352 74.3639 22.7359 73.552 20.6365C72.7059 18.4645 71.5778 16.6223 69.7409 14.7867C67.9045 12.9501 66.0676 11.8218 63.8939 10.9795C61.7887 10.1626 59.388 9.60584 55.8727 9.44506C52.3503 9.28491 51.229 9.24561 42.2585 9.24561H42.2687ZM39.3065 15.192C39.3065 15.1943 39.3083 15.1961 39.3106 15.1961C40.1889 15.1948 41.1685 15.1961 42.2687 15.1961C51.0853 15.1961 52.1301 15.2278 55.6119 15.386C58.8313 15.5333 60.5786 16.0712 61.7426 16.5232C63.2836 17.1216 64.3821 17.8371 65.5372 18.9931C66.6932 20.1488 67.4083 21.2494 68.008 22.7904C68.4603 23.9527 68.9987 25.7002 69.1454 28.9196C69.3035 32.4006 69.3377 33.446 69.3377 42.2584C69.3377 51.0708 69.3035 52.1165 69.1454 55.597C68.9979 58.8164 68.4603 60.5641 68.008 61.7268C67.41 63.2678 66.6932 64.3651 65.5372 65.5202C64.3816 66.6757 63.2844 67.3908 61.7426 67.9898C60.5799 68.4437 58.8313 68.98 55.6119 69.1275C52.131 69.2856 51.0853 69.3198 42.2687 69.3198C33.4517 69.3198 32.4066 69.2856 28.926 69.1275C25.7065 68.9788 23.9591 68.4407 22.7942 67.9889C21.2535 67.3904 20.1526 66.6749 18.9969 65.5193C17.8411 64.3638 17.1259 63.2657 16.526 61.7239C16.0739 60.5616 15.5354 58.8139 15.3888 55.5945C15.2306 52.1135 15.1989 51.0683 15.1989 42.2501C15.1989 33.4324 15.2306 32.3923 15.3888 28.9113C15.536 25.6919 16.0739 23.9444 16.526 22.7805C17.1246 21.2394 17.8412 20.1389 18.9972 18.9832C20.1529 17.8275 21.2535 17.112 22.7945 16.5123C23.9585 16.0583 25.7065 15.5217 28.926 15.3738C31.9714 15.2361 33.152 15.1948 39.3022 15.1879C39.3045 15.1879 39.3065 15.1897 39.3065 15.192ZM59.8947 20.6788C57.7071 20.6788 55.9323 22.452 55.9323 24.6399C55.9323 26.8274 57.7071 28.6023 59.8947 28.6023C62.0824 28.6023 63.8571 26.8274 63.8571 24.6399C63.8571 22.4523 62.0824 20.6788 59.8947 20.6788ZM42.2687 25.3085C32.9042 25.3085 25.3116 32.9012 25.3116 42.266C25.3116 51.6308 32.9042 59.2196 42.2687 59.2196C51.6335 59.2196 59.2236 51.6308 59.2236 42.266C59.2236 32.9015 51.6339 25.3085 42.2687 25.3085ZM42.2687 31.2591C48.3473 31.2591 53.2755 36.1866 53.2755 42.266C53.2755 48.3447 48.3473 53.2729 42.2687 53.2729C36.1897 53.2729 31.2621 48.3447 31.2621 42.266C31.2621 36.1866 36.1897 31.2591 42.2687 31.2591Z" fill="white"/>
<defs>
<radialGradient id="paint0_radial_182_1753" cx="0" cy="0" r="1" gradientUnits="userSpaceOnUse" gradientTransform="translate(22.4536 91.0418) rotate(-90) scale(83.7768 77.9188)">
<stop stop-color="#FFDD55"/>
<stop offset="0.1" stop-color="#FFDD55"/>
<stop offset="0.5" stop-color="#FF543E"/>
<stop offset="1" stop-color="#C837AB"/>
</radialGradient>
<radialGradient id="paint1_radial_182_1753" cx="0" cy="0" r="1" gradientUnits="userSpaceOnUse" gradientTransform="translate(-14.1593 6.08921) rotate(78.681) scale(37.4487 154.365)">
<stop stop-color="#3771C8"/>
<stop offset="0.128" stop-color="#3771C8"/>
<stop offset="1" stop-color="#6600FF" stop-opacity="0"/>
</radialGradient>
</defs>
</svg>
