<svg width="30" height="30" viewBox="0 0 30 30" fill="none" xmlns="http://www.w3.org/2000/svg">
<path d="M15.0005 11.0943C17.1578 11.0943 18.9072 12.8434 18.9072 15.001C18.9071 17.1582 17.1577 18.9072 15.0005 18.9072C12.8432 18.9071 11.0944 17.1581 11.0943 15.001C11.0943 12.8435 12.8432 11.0944 15.0005 11.0943Z" fill="#052681"/>
<path fill-rule="evenodd" clip-rule="evenodd" d="M13.9494 5.39389C14.2614 5.39342 14.6095 5.39389 15.0005 5.39389C18.1294 5.39389 18.5005 5.40478 19.736 5.46091C20.8786 5.51318 21.499 5.70405 21.9121 5.86449C22.459 6.07682 22.8489 6.33087 23.2589 6.74113C23.6691 7.15126 23.9227 7.542 24.1355 8.08886C24.296 8.50134 24.487 9.1215 24.5391 10.264C24.5952 11.4994 24.6076 11.8705 24.6076 14.998C24.6076 18.1256 24.5952 18.4968 24.5391 19.7321C24.4867 20.8744 24.296 21.4946 24.1355 21.9072C23.9233 22.454 23.669 22.8436 23.2589 23.2535C22.8488 23.6635 22.4592 23.9176 21.9121 24.1301C21.4995 24.2912 20.8786 24.4813 19.736 24.5337C18.5007 24.5898 18.1294 24.6022 15.0005 24.6022C11.8716 24.6022 11.5006 24.5898 10.2654 24.5337C9.12293 24.4809 8.50279 24.2899 8.08936 24.1296C7.54261 23.9172 7.15174 23.6635 6.74162 23.2535C6.33146 22.8433 6.07741 22.4534 5.86449 21.9062C5.70408 21.4937 5.51294 20.8735 5.46091 19.7311C5.40478 18.4957 5.39389 18.1246 5.39389 14.9951C5.39389 11.8657 5.40478 11.4964 5.46091 10.261C5.51318 9.11862 5.70408 8.49848 5.86449 8.08541C6.07695 7.5385 6.33134 7.14783 6.74162 6.73768C7.15177 6.32753 7.54248 6.07384 8.08936 5.86104C8.50246 5.69989 9.12286 5.50946 10.2654 5.45696C11.3464 5.4081 11.7654 5.39339 13.9494 5.39093V5.39389ZM15.0005 8.98275C11.6771 8.98285 8.98275 11.6775 8.98275 15.001C8.98287 18.3244 11.6772 21.0176 15.0005 21.0177C18.324 21.0177 21.0176 18.3244 21.0177 15.001C21.0177 11.6775 18.3242 8.98275 15.0005 8.98275ZM21.2562 7.33936C20.4799 7.33936 19.8499 7.96876 19.8499 8.74524C19.8499 9.52159 20.4798 10.1516 21.2562 10.1516C22.0326 10.1515 22.6626 9.52155 22.6626 8.74524C22.6626 7.96892 22.0326 7.33942 21.2562 7.33936Z" fill="#052681"/>
<path fill-rule="evenodd" clip-rule="evenodd" d="M22.9686 0C26.8518 0 30 3.14813 30 7.03137V22.9686C30 26.8518 26.8518 30 22.9686 30H7.03137C3.14813 30 0 26.8518 0 22.9686V7.03137C0 3.14813 3.14813 0 7.03137 0H22.9686ZM14.9985 3.28187C11.818 3.28187 11.4184 3.29601 10.1689 3.35283C8.9213 3.41 8.06964 3.60753 7.32457 3.89734C6.55372 4.19663 5.89985 4.59695 5.24852 5.24852C4.59663 5.89994 4.19609 6.5536 3.89586 7.32408C3.60524 8.06939 3.40748 8.92138 3.35135 10.1684C3.29546 11.4184 3.28088 11.8183 3.28088 15.001C3.28088 18.1835 3.29513 18.5817 3.35184 19.8316C3.40927 21.0791 3.60679 21.9309 3.89635 22.6759C4.19587 23.4467 4.59603 24.1007 5.24754 24.752C5.89874 25.4039 6.55283 25.8049 7.32309 26.1041C8.06874 26.3939 8.92058 26.5914 10.1679 26.6487C11.4177 26.7055 11.8172 26.7196 14.9995 26.7196C18.182 26.7196 18.5804 26.7055 19.8302 26.6487C21.0777 26.5914 21.9306 26.3939 22.6764 26.1041C23.4467 25.8049 24.0996 25.4037 24.7505 24.752C25.4024 24.1007 25.8029 23.4465 26.1032 22.6759C26.3913 21.9306 26.589 21.0786 26.6477 19.8316C26.7038 18.5819 26.7186 18.1833 26.7186 15.001C26.7186 11.8185 26.7038 11.4187 26.6477 10.1689C26.589 8.92133 26.3913 8.06963 26.1032 7.32457C25.8029 6.55373 25.4024 5.89994 24.7505 5.24852C24.0988 4.59672 23.4469 4.19629 22.6754 3.89734C21.9283 3.60742 21.0762 3.40989 19.8287 3.35283C18.5788 3.296 18.1808 3.28187 14.9985 3.28187Z" fill="#052681"/>
<path d="M15.0005 11.0943C17.1578 11.0943 18.9072 12.8434 18.9072 15.001C18.9071 17.1582 17.1577 18.9072 15.0005 18.9072C12.8432 18.9071 11.0944 17.1581 11.0943 15.001C11.0943 12.8435 12.8432 11.0944 15.0005 11.0943Z" fill="#052681"/>
<path fill-rule="evenodd" clip-rule="evenodd" d="M13.9494 5.39389C14.2614 5.39342 14.6095 5.39389 15.0005 5.39389C18.1294 5.39389 18.5005 5.40478 19.736 5.46091C20.8786 5.51318 21.499 5.70405 21.9121 5.86449C22.459 6.07682 22.8489 6.33087 23.2589 6.74113C23.6691 7.15126 23.9227 7.542 24.1355 8.08886C24.296 8.50134 24.487 9.1215 24.5391 10.264C24.5952 11.4994 24.6076 11.8705 24.6076 14.998C24.6076 18.1256 24.5952 18.4968 24.5391 19.7321C24.4867 20.8744 24.296 21.4946 24.1355 21.9072C23.9233 22.454 23.669 22.8436 23.2589 23.2535C22.8488 23.6635 22.4592 23.9176 21.9121 24.1301C21.4995 24.2912 20.8786 24.4813 19.736 24.5337C18.5007 24.5898 18.1294 24.6022 15.0005 24.6022C11.8716 24.6022 11.5006 24.5898 10.2654 24.5337C9.12293 24.4809 8.50279 24.2899 8.08936 24.1296C7.54261 23.9172 7.15174 23.6635 6.74162 23.2535C6.33146 22.8433 6.07741 22.4534 5.86449 21.9062C5.70408 21.4937 5.51294 20.8735 5.46091 19.7311C5.40478 18.4957 5.39389 18.1246 5.39389 14.9951C5.39389 11.8657 5.40478 11.4964 5.46091 10.261C5.51318 9.11862 5.70408 8.49848 5.86449 8.08541C6.07695 7.5385 6.33134 7.14783 6.74162 6.73768C7.15177 6.32753 7.54248 6.07384 8.08936 5.86104C8.50246 5.69989 9.12286 5.50946 10.2654 5.45696C11.3464 5.4081 11.7654 5.39339 13.9494 5.39093V5.39389ZM15.0005 8.98275C11.6771 8.98285 8.98275 11.6775 8.98275 15.001C8.98287 18.3244 11.6772 21.0176 15.0005 21.0177C18.324 21.0177 21.0176 18.3244 21.0177 15.001C21.0177 11.6775 18.3242 8.98275 15.0005 8.98275ZM21.2562 7.33936C20.4799 7.33936 19.8499 7.96876 19.8499 8.74524C19.8499 9.52159 20.4798 10.1516 21.2562 10.1516C22.0326 10.1515 22.6626 9.52155 22.6626 8.74524C22.6626 7.96892 22.0326 7.33942 21.2562 7.33936Z" fill="#052681"/>
<path fill-rule="evenodd" clip-rule="evenodd" d="M22.9686 0C26.8518 0 30 3.14813 30 7.03137V22.9686C30 26.8518 26.8518 30 22.9686 30H7.03137C3.14813 30 0 26.8518 0 22.9686V7.03137C0 3.14813 3.14813 0 7.03137 0H22.9686ZM14.9985 3.28187C11.818 3.28187 11.4184 3.29601 10.1689 3.35283C8.9213 3.41 8.06964 3.60753 7.32457 3.89734C6.55372 4.19663 5.89985 4.59695 5.24852 5.24852C4.59663 5.89994 4.19609 6.5536 3.89586 7.32408C3.60524 8.06939 3.40748 8.92138 3.35135 10.1684C3.29546 11.4184 3.28088 11.8183 3.28088 15.001C3.28088 18.1835 3.29513 18.5817 3.35184 19.8316C3.40927 21.0791 3.60679 21.9309 3.89635 22.6759C4.19587 23.4467 4.59603 24.1007 5.24754 24.752C5.89874 25.4039 6.55283 25.8049 7.32309 26.1041C8.06874 26.3939 8.92058 26.5914 10.1679 26.6487C11.4177 26.7055 11.8172 26.7196 14.9995 26.7196C18.182 26.7196 18.5804 26.7055 19.8302 26.6487C21.0777 26.5914 21.9306 26.3939 22.6764 26.1041C23.4467 25.8049 24.0996 25.4037 24.7505 24.752C25.4024 24.1007 25.8029 23.4465 26.1032 22.6759C26.3913 21.9306 26.589 21.0786 26.6477 19.8316C26.7038 18.5819 26.7186 18.1833 26.7186 15.001C26.7186 11.8185 26.7038 11.4187 26.6477 10.1689C26.589 8.92133 26.3913 8.06963 26.1032 7.32457C25.8029 6.55373 25.4024 5.89994 24.7505 5.24852C24.0988 4.59672 23.4469 4.19629 22.6754 3.89734C21.9283 3.60742 21.0762 3.40989 19.8287 3.35283C18.5788 3.296 18.1808 3.28187 14.9985 3.28187Z" fill="#052681"/>
</svg>
