<svg width="94" height="100" viewBox="0 0 94 100" fill="none" xmlns="http://www.w3.org/2000/svg">
<path d="M45.8329 99.9994L71.8254 74.0046H19.8389L45.8329 99.9994Z" fill="#031B3D"/>
<path d="M10.4941 51.9662V68.4988H15.0773V63.7735H17.3454C21.454 63.7735 24.4531 61.7187 24.4531 57.8223V57.7753C24.4531 54.1139 21.7614 51.9662 17.5805 51.9662L10.4941 51.9662ZM15.0773 55.8161H17.2267C18.8794 55.8161 19.871 56.5702 19.871 57.988V58.035C19.871 59.3337 18.8788 60.1855 17.2502 60.1855H15.0773V55.8161Z" fill="#031B3D"/>
<path d="M26.2949 51.9662V68.4988H30.8781V63.4903H32.8853L36.2148 68.4988H41.5055L37.5615 62.7346C39.6147 61.862 40.9636 60.1863 40.9636 57.6588V57.6085C40.9636 55.9792 40.4665 54.7046 39.4982 53.7597C38.3884 52.625 36.6402 51.9662 34.1134 51.9662H26.2949ZM30.8781 55.9337H33.8772C35.4124 55.9337 36.3569 56.5929 36.3569 57.8939V57.9399C36.3569 59.1445 35.4597 59.9012 33.8997 59.9012H30.8781V55.9337Z" fill="#031B3D"/>
<path d="M72.8642 64.6008V61.8245H80.8006V58.5213H72.8642V55.8624H81.6273V51.9668H68.3286V68.4994H81.7455V64.6008H72.8642Z" fill="#031B3D"/>
<path d="M59.1328 68.9974C62.02 68.9974 64.7212 67.5731 66.3593 65.1886L66.4534 65.0514L62.7322 62.4998L62.6366 62.6363C61.8427 63.7942 60.5308 64.4845 59.1328 64.4845C56.7884 64.4845 54.8804 62.5779 54.8804 60.2342C54.8804 57.8906 56.7884 55.984 59.1328 55.984C60.5315 55.984 61.8435 56.6742 62.6366 57.8315L62.7322 57.9686L66.4534 55.4148L66.3593 55.2784C64.7212 52.8939 62.02 51.4711 59.1328 51.4711C54.3003 51.4711 50.3696 55.4025 50.3696 60.2342C50.3696 65.066 54.3003 68.9974 59.1328 68.9974Z" fill="#031B3D"/>
<path d="M48.1637 51.9668H43.5581V68.4994H48.1637V51.9668Z" fill="#031B3D"/>
<path d="M45.8312 0L19.8365 25.9955H71.8237L45.8312 0Z" fill="#031B3D"/>
<path d="M33.8337 31.558L26.8457 48.0917H31.6298L32.8023 45.1599H39.1341L40.3301 48.0917H45.2072L38.2202 31.558H33.8337ZM35.9917 36.791L37.8215 41.6189H34.1394L35.9917 36.791Z" fill="#031B3D"/>
<path d="M45.9619 31.558V48.0917H52.2456C58.1959 48.0917 61.6673 44.5496 61.6673 39.7783V39.7313C61.6673 34.9601 58.2437 31.558 52.3386 31.558L45.9619 31.558ZM50.544 35.6227H52.4102C55.1478 35.6227 56.9687 37.1561 56.9687 39.8019V39.85C56.9687 42.5169 55.1478 44.0291 52.4102 44.0291H50.544V35.6227Z" fill="#031B3D"/>
<path d="M78.6572 31.558V48.0917H83.2393V43.0853H85.2455L88.576 48.0917H93.8667L89.9216 42.3286C91.9764 41.4566 93.3227 39.7788 93.3227 37.2506V37.2035C93.3227 35.5749 92.8277 34.2981 91.8594 33.3547C90.7489 32.2208 89.0015 31.558 86.4747 31.558L78.6572 31.558ZM83.2393 35.5265H86.2384C87.7729 35.5265 88.7181 36.188 88.7181 37.4868V37.5349C88.7181 38.7388 87.8187 39.4951 86.2609 39.4951H83.2393V35.5265Z" fill="#031B3D"/>
<path d="M17.7982 41.4192H25.2685V38.1153H17.7982V35.4564H26.0959V31.5579H13.2642V48.0912H26.2126V44.1948H17.7982V41.4192Z" fill="#031B3D"/>
<path d="M68.0941 41.4192H75.5614V38.1153H68.0941V35.4564H76.3881V31.5579H63.5571V48.0912H76.5085V44.1948H68.0941V41.4192Z" fill="#031B3D"/>
<path d="M4.58151 31.5579H0V48.0912H11.7613V44.0758H4.58151V31.5579Z" fill="#031B3D"/>
</svg>
