<svg width="305" height="70" viewBox="0 0 305 70" fill="none" xmlns="http://www.w3.org/2000/svg">
<path fill-rule="evenodd" clip-rule="evenodd" d="M272.269 13.0049C270.12 13.1165 267.725 13.6932 265.643 14.6002C264.3 15.1851 262.185 16.4179 262.185 16.6155C262.185 16.6893 264.265 16.7498 266.807 16.7498H271.429V26.2764L270.753 26.4787C270.382 26.59 269.816 26.9115 269.495 27.1933C268.44 28.1194 268.403 28.454 268.403 37.1165V44.817H270.315C272.407 44.817 273.281 44.6066 274.246 43.87C274.919 43.3569 275.399 42.6263 275.639 41.7498L275.811 41.1195H283.529V44.5649C283.529 46.4659 283.597 48.0103 283.679 48.0103C283.989 48.0103 285.981 46.4137 287.095 45.2727C292.634 39.5995 293.975 30.7688 290.39 23.5753C286.947 16.6691 279.979 12.6046 272.269 13.0049ZM34.1177 45.092C32.1169 45.4577 30.6475 46.8673 30.1451 48.9027C29.9053 49.8747 29.9058 50.0631 30.1503 51.0175C30.4925 52.3532 31.1954 53.3718 32.2348 54.0389C36.3342 56.6693 41.2764 52.3928 39.328 47.9012C38.9421 47.0117 37.813 45.8799 36.9159 45.4834C36.1738 45.1555 34.8122 44.9651 34.1177 45.092Z" fill="#031B3D"/>
<path fill-rule="evenodd" clip-rule="evenodd" d="M266.891 0.106031C264.609 0.330737 262.249 0.775779 260.168 1.37343C248.421 4.74805 239.09 14.3502 236.066 26.1781C234.592 31.9417 234.589 37.8554 236.057 43.6907C238.514 53.4578 245.521 61.9467 254.79 66.387C272.163 74.7094 292.845 67.4665 301.267 50.1107C303.684 45.1287 304.726 40.5482 304.726 34.9007C304.726 29.6628 303.811 25.3351 301.711 20.6373C297.383 10.9531 288.663 3.64233 278.343 1.04401C274.967 0.193762 270.071 -0.207246 266.891 0.106031ZM267.227 7.61763C254.04 8.91914 243.431 19.7865 242.547 32.898C242.392 35.1961 242.562 38.3215 242.947 40.2275C245.246 51.6222 254.452 60.369 265.922 62.0578C268.451 62.4301 272.973 62.3074 275.324 61.8025C282.501 60.2615 288.629 56.1339 292.681 50.1107C293.693 48.6059 295.323 45.2842 295.889 43.5711C297.026 40.1351 297.491 36.2296 297.174 32.7845C296.924 30.0635 296.625 28.6259 295.779 26.0771C292.113 15.0267 281.323 7.36351 269.668 7.53259C268.649 7.54738 267.55 7.58569 267.227 7.61763ZM0 54.0625L25.1261 53.9763L25.217 47.0015H9.2437V39.6065H22.8571V33.388H9.2437V26.6654H25.2101V19.6065H0V54.0625ZM44.0336 54.0627L66.9748 53.9763V47.0855L53.2773 46.9978V19.6065H44.0336V54.0627ZM133.782 54.066L142.269 53.9763V19.6906L133.782 19.6008V54.066ZM253.95 24.2591L254.625 24.4615C255.459 24.7114 256.446 25.5563 256.748 26.2791C256.929 26.7133 256.975 28.6864 256.975 36.0884C256.975 46.3566 257.012 45.9867 255.866 46.9934C255.554 47.2674 254.995 47.5733 254.624 47.6731L253.95 47.8548V54.7326H280.672V43.9763H278.935C277.254 43.9763 277.191 43.9899 277.009 44.3874C276.711 45.0432 275.637 46.1428 274.84 46.6101C273.316 47.5032 272.273 47.7082 268.782 47.8001L265.546 47.8854V37.2687C265.546 27.0338 265.558 26.6285 265.878 26.0023C266.295 25.1849 266.927 24.6823 267.851 24.4354L268.571 24.2427V19.6065H253.95V24.2591ZM79.1597 26.5207C75.8249 26.8633 73.2047 27.8944 71.8222 29.4082C69.8333 31.5862 69.203 34.2423 69.203 40.4469C69.203 44.3168 69.3857 46.2206 69.9366 48.0939C71.0924 52.0233 73.4378 53.7417 78.556 54.4082C80.6052 54.6751 88.3973 54.5149 90 54.1731C94.2341 53.2699 96.0908 51.1981 96.4539 46.9712C96.5168 46.2403 96.5336 45.6079 96.4914 45.5657C96.4491 45.5235 94.7316 45.4889 92.6746 45.4889H88.9346L88.659 46.3186C88.0484 48.1568 86.4582 48.9017 83.1092 48.9181C79.9356 48.9339 78.5118 48.3833 77.5699 46.7764C77.0955 45.9667 76.6387 43.9265 76.6387 42.617V41.7914H96.5546L96.5087 39.6486C96.382 33.7237 95.6309 30.8617 93.7311 29.065C92.604 27.999 91.4805 27.4233 89.7047 27.0022C87.1109 26.3869 82.5079 26.1766 79.1597 26.5207ZM111.061 26.5013C108.298 26.9328 106.366 27.7482 104.909 29.0973C103.368 30.524 102.535 32.3403 102.094 35.2368C101.808 37.1124 101.763 43.0474 102.018 45.0859C102.947 52.4902 106.682 54.7109 117.563 54.3275C122.598 54.1501 124.502 53.6743 126.13 52.1865C127.673 50.7763 128.4 48.8472 128.669 45.4469L128.786 43.9763H121.015L120.922 44.4385C120.474 46.6566 119.796 47.6138 118.384 48.0237C117.177 48.3741 113.611 48.3333 112.506 47.9564C110.26 47.1902 109.547 45.4106 109.532 40.5309C109.523 37.404 109.726 35.9346 110.333 34.7432C110.824 33.7773 111.297 33.3363 112.355 32.8556C113.08 32.5265 113.477 32.4743 115.294 32.4694C119.216 32.4588 120.028 33.02 120.941 36.3712C120.984 36.5316 121.919 36.5813 124.89 36.5813H128.783L128.664 35.2232C128.239 30.3514 126.066 27.7112 121.681 26.7407C120.223 26.4178 112.684 26.248 111.061 26.5013ZM157.731 26.5193C151.342 27.1301 148.606 29.7222 147.907 35.825C147.685 37.7645 147.684 43.1109 147.905 45.0687C148.584 51.0916 150.983 53.5869 156.861 54.3859C158.543 54.6144 165.037 54.6176 166.895 54.3906C172.4 53.7181 174.663 51.6232 175.063 46.8302L175.174 45.4889H167.474L167.161 46.3712C166.575 48.0222 165.333 48.7213 162.605 48.9364C161.866 48.9949 160.625 48.9622 159.848 48.8638C156.687 48.4638 155.6 47.078 155.191 42.9259L155.08 41.7914H175.126L175.121 40.4889C175.093 33.0953 173.718 29.2855 170.534 27.779C167.927 26.5459 162.766 26.038 157.731 26.5193ZM193.68 26.6433C192.271 27.0516 191.21 27.7062 189.874 28.9907L188.74 30.0818V26.4973H180.168V54.066L188.655 53.9763L188.741 46.1612C188.833 37.7995 188.804 38.0961 189.723 36.2939C190.212 35.3356 191.607 34.1412 192.652 33.7857C193.551 33.4801 195.62 33.3886 196.516 33.6148L196.981 33.7323L196.891 26.4133L195.798 26.3798C195.154 26.36 194.285 26.468 193.68 26.6433ZM207.87 26.5807C203.206 27.3657 200.711 29.497 199.676 33.5812C199.045 36.0711 198.833 40.298 199.16 43.8922C199.814 51.0869 202.268 53.6114 209.201 54.2196C212.835 54.5385 218.143 54.3316 220.247 53.789C221.626 53.4336 223.076 52.6344 223.803 51.8291C225.001 50.5033 225.762 48.1339 225.934 45.1948L226.006 43.9763H218.151V44.3659C218.151 45.1168 217.628 46.5072 217.133 47.0706C216.859 47.3832 216.349 47.7533 215.999 47.8931C215.077 48.262 212.586 48.4119 211.024 48.1926C208.726 47.8699 207.688 46.9746 207.108 44.8166C206.877 43.9563 206.814 43.0277 206.811 40.4469C206.805 36.0618 207.143 34.7339 208.573 33.5101C209.525 32.6953 210.473 32.4637 212.857 32.4637C215.253 32.4637 216.142 32.7317 217.039 33.724C217.56 34.3005 218.151 35.704 218.151 36.3628C218.151 36.5452 218.887 36.579 222.059 36.5423L225.966 36.4973L225.907 35.3217C225.774 32.7022 224.816 30.3201 223.328 28.9133C221.917 27.5785 220.521 26.9862 217.815 26.5743C215.808 26.2687 209.701 26.2726 207.87 26.5807ZM80.394 32.3761C79.5044 32.5655 78.5077 33.0754 78.0334 33.5838C77.5316 34.1218 76.9951 35.3771 76.8667 36.3139L76.761 37.0855H88.914L88.8121 36.6233C88.2913 34.261 87.5279 33.1435 86.0825 32.6269C85.1691 32.3005 81.5072 32.139 80.394 32.3761ZM158.724 32.448C156.745 32.9284 155.831 34.0228 155.374 36.4603L155.257 37.0855H161.326C166.169 37.0855 167.395 37.0417 167.395 36.8687C167.395 36.3038 166.833 34.5832 166.467 34.0275C165.941 33.2294 164.884 32.6212 163.625 32.3926C162.324 32.1566 159.807 32.185 158.724 32.448Z" fill="#031B3D"/>
</svg>
