<svg xmlns="http://www.w3.org/2000/svg" width="1920" height="476" viewBox="0 0 1920 476" version="1.1"><path d="M 1673 106.718 C 1660.214 107.382, 1645.962 110.813, 1633.573 116.210 C 1625.586 119.690, 1613 127.025, 1613 128.201 C 1613 128.640, 1625.375 129, 1640.500 129 L 1668 129 1668 157.342 L 1668 185.683 1663.983 186.887 C 1661.774 187.549, 1658.404 189.462, 1656.494 191.139 C 1650.219 196.649, 1650 198.640, 1650 250.182 L 1650 296 1661.374 296 C 1673.823 296, 1679.019 294.748, 1684.766 290.365 C 1688.769 287.312, 1691.624 282.965, 1693.051 277.750 L 1694.077 274 1717.039 274 L 1740 274 1740 294.500 C 1740 305.811, 1740.399 315, 1740.890 315 C 1742.732 315, 1754.584 305.500, 1761.214 298.711 C 1794.175 264.956, 1802.154 212.413, 1780.819 169.612 C 1760.336 128.520, 1718.877 104.336, 1673 106.718 M 256 297.636 C 244.095 299.812, 235.352 308.199, 232.363 320.310 C 230.936 326.093, 230.939 327.214, 232.394 332.893 C 234.430 340.840, 238.612 346.901, 244.797 350.870 C 269.188 366.521, 298.594 341.076, 287.001 314.351 C 284.705 309.058, 277.987 302.324, 272.649 299.965 C 268.234 298.014, 260.132 296.881, 256 297.636" stroke="none" fill="#ec8c14" fill-rule="evenodd"/><path d="M 1641 29.972 C 1627.425 31.309, 1613.379 33.957, 1601 37.513 C 1531.103 57.592, 1475.588 114.725, 1457.592 185.101 C 1448.823 219.394, 1448.805 254.581, 1457.540 289.301 C 1472.160 347.415, 1513.848 397.924, 1569 424.344 C 1672.370 473.862, 1795.428 430.767, 1845.537 327.500 C 1859.921 297.857, 1866.119 270.603, 1866.119 237 C 1866.119 205.835, 1860.677 180.085, 1848.183 152.133 C 1822.426 94.512, 1770.547 51.013, 1709.143 35.553 C 1689.051 30.494, 1659.922 28.108, 1641 29.972 M 1643 74.666 C 1564.538 82.410, 1501.413 147.071, 1496.152 225.084 C 1495.230 238.758, 1496.246 257.354, 1498.535 268.695 C 1512.215 336.493, 1566.988 388.537, 1635.235 398.585 C 1650.282 400.800, 1677.188 400.070, 1691.177 397.066 C 1733.883 387.897, 1770.342 363.338, 1794.450 327.500 C 1800.474 318.546, 1810.171 298.782, 1813.541 288.589 C 1820.302 268.145, 1823.070 244.907, 1821.185 224.409 C 1819.697 208.219, 1817.918 199.665, 1812.886 184.500 C 1791.071 118.750, 1726.871 73.154, 1657.526 74.160 C 1651.462 74.248, 1644.925 74.476, 1643 74.666 M 53 248.506 L 53 351.013 127.750 350.756 L 202.500 350.500 202.770 329.750 L 203.041 309 155.520 309 L 108 309 108 287 L 108 265 148.500 265 L 189 265 189 246.500 L 189 228 148.500 228 L 108 228 108 208 L 108 188 155.500 188 L 203 188 203 167 L 203 146 128 146 L 53 146 53 248.506 M 315 248.507 L 315 351.014 383.250 350.757 L 451.500 350.500 451.500 330 L 451.500 309.500 410.750 309.239 L 370 308.978 370 227.489 L 370 146 342.500 146 L 315 146 315 248.507 M 849 248.500 L 849 351.034 874.250 350.767 L 899.500 350.500 899.500 248.500 L 899.500 146.500 874.250 146.233 L 849 145.966 849 248.500 M 1564 159.842 L 1564 173.683 1568.017 174.887 C 1572.980 176.374, 1578.852 181.401, 1580.649 185.702 C 1581.728 188.285, 1582 200.025, 1582 244.067 C 1582 305.163, 1582.224 302.962, 1575.402 308.952 C 1573.545 310.582, 1570.220 312.402, 1568.013 312.996 L 1564 314.077 1564 334.539 L 1564 355 1643.500 355 L 1723 355 1723 323 L 1723 291 1712.661 291 C 1702.663 291, 1702.284 291.081, 1701.206 293.446 C 1699.429 297.348, 1693.043 303.891, 1688.298 306.671 C 1679.231 311.985, 1673.022 313.205, 1652.250 313.752 L 1633 314.259 1633 251.090 C 1633 190.192, 1633.071 187.781, 1634.972 184.055 C 1637.453 179.191, 1641.218 176.201, 1646.712 174.732 L 1651 173.585 1651 159.793 L 1651 146 1607.500 146 L 1564 146 1564 159.842 M 524 187.139 C 504.158 189.178, 488.568 195.313, 480.342 204.320 C 468.508 217.279, 464.758 233.083, 464.758 270 C 464.758 293.026, 465.845 304.354, 469.123 315.500 C 476 338.880, 489.955 349.104, 520.408 353.070 C 532.601 354.658, 578.964 353.705, 588.500 351.671 C 613.693 346.297, 624.740 333.970, 626.901 308.820 C 627.275 304.471, 627.375 300.708, 627.124 300.457 C 626.872 300.206, 616.653 300, 604.414 300 L 582.161 300 580.521 304.937 C 576.888 315.874, 567.426 320.306, 547.500 320.404 C 528.617 320.498, 520.145 317.222, 514.541 307.661 C 511.718 302.843, 509 290.704, 509 282.912 L 509 278 568.250 278 L 627.500 278 627.227 265.250 C 626.473 229.997, 622.004 212.968, 610.700 202.278 C 603.994 195.935, 597.309 192.510, 586.743 190.004 C 571.310 186.343, 543.922 185.092, 524 187.139 M 713.814 187.024 C 697.375 189.591, 685.876 194.443, 677.206 202.470 C 668.037 210.959, 663.082 221.766, 660.458 239 C 658.759 250.160, 658.489 285.473, 660.009 297.602 C 665.533 341.658, 687.758 354.871, 752.500 352.590 C 782.458 351.534, 793.787 348.703, 803.473 339.851 C 812.653 331.460, 816.978 319.982, 818.582 299.750 L 819.275 291 796.157 291 L 773.038 291 772.483 293.750 C 769.819 306.948, 765.788 312.643, 757.384 315.082 C 750.202 317.167, 728.988 316.924, 722.413 314.682 C 709.044 310.123, 704.803 299.534, 704.716 270.500 C 704.661 251.895, 705.870 243.152, 709.479 236.063 C 712.405 230.316, 715.216 227.692, 721.512 224.832 C 725.825 222.874, 728.191 222.563, 739 222.534 C 762.333 222.471, 767.165 225.810, 772.597 245.750 C 772.857 246.704, 778.418 247, 796.098 247 L 819.258 247 818.553 238.919 C 816.025 209.932, 803.092 194.223, 777 188.448 C 768.324 186.527, 723.468 185.517, 713.814 187.024 M 991.500 187.131 C 953.484 190.765, 937.203 206.188, 933.047 242.500 C 931.726 254.040, 931.717 285.851, 933.032 297.500 C 937.077 333.336, 951.349 348.183, 986.322 352.937 C 996.332 354.297, 1034.969 354.316, 1046.026 352.965 C 1078.778 348.964, 1092.244 336.499, 1094.622 307.981 L 1095.288 300 1072.378 300 L 1049.469 300 1047.606 305.250 C 1044.121 315.073, 1036.733 319.233, 1020.500 320.513 C 1016.100 320.861, 1008.717 320.666, 1004.094 320.081 C 985.287 317.701, 978.821 309.455, 976.388 284.750 L 975.724 278 1035.362 278 L 1095 278 1094.971 270.250 C 1094.805 226.258, 1086.623 203.590, 1067.675 194.626 C 1052.165 187.289, 1021.455 184.267, 991.500 187.131 M 1205.398 187.869 C 1197.012 190.298, 1190.697 194.193, 1182.750 201.836 L 1176 208.328 1176 197.664 L 1176 187 1150.500 187 L 1125 187 1125 269.017 L 1125 351.034 1150.250 350.767 L 1175.500 350.500 1176.011 304 C 1176.557 254.248, 1176.381 256.013, 1181.852 245.290 C 1184.761 239.588, 1193.061 232.481, 1199.280 230.366 C 1204.627 228.548, 1216.938 228.003, 1222.270 229.349 L 1225.039 230.048 1224.770 208.274 L 1224.500 186.500 1218 186.301 C 1214.166 186.183, 1208.997 186.826, 1205.398 187.869 M 1289.828 187.496 C 1262.077 192.167, 1247.233 204.848, 1241.073 229.149 C 1237.317 243.964, 1236.058 269.114, 1238.001 290.500 C 1241.892 333.308, 1256.496 348.329, 1297.748 351.948 C 1319.367 353.845, 1350.951 352.614, 1363.472 349.386 C 1371.673 347.271, 1380.301 342.516, 1384.630 337.724 C 1391.757 329.836, 1396.285 315.738, 1397.309 298.250 L 1397.733 291 1374.366 291 L 1351 291 1351 293.318 C 1351 297.786, 1347.887 306.059, 1344.944 309.411 C 1343.311 311.271, 1340.274 313.473, 1338.195 314.305 C 1332.711 316.500, 1317.884 317.392, 1308.593 316.087 C 1294.922 314.167, 1288.743 308.840, 1285.292 296 C 1283.917 290.881, 1283.541 285.356, 1283.523 270 C 1283.492 243.909, 1285.499 236.008, 1294.007 228.726 C 1299.671 223.878, 1305.313 222.500, 1319.500 222.500 C 1333.754 222.500, 1339.046 224.095, 1344.380 229.999 C 1347.479 233.429, 1351 241.780, 1351 245.700 C 1351 246.785, 1355.377 246.986, 1374.250 246.768 L 1397.500 246.500 1397.146 239.505 C 1396.358 223.919, 1390.655 209.746, 1381.803 201.375 C 1373.405 193.433, 1365.100 189.909, 1349 187.458 C 1337.058 185.640, 1300.718 185.663, 1289.828 187.496 M 531.344 221.979 C 526.051 223.106, 520.121 226.140, 517.299 229.165 C 514.313 232.366, 511.121 239.835, 510.357 245.409 L 509.728 250 545.883 250 L 582.038 250 581.432 247.250 C 578.333 233.194, 573.791 226.545, 565.191 223.471 C 559.756 221.529, 537.968 220.568, 531.344 221.979 M 997.407 222.407 C 985.633 225.265, 980.196 231.777, 977.475 246.280 L 976.777 250 1012.889 250 C 1041.707 250, 1049 249.739, 1049 248.710 C 1049 245.349, 1045.656 235.111, 1043.478 231.805 C 1040.350 227.056, 1034.058 223.437, 1026.566 222.077 C 1018.830 220.673, 1003.851 220.842, 997.407 222.407" stroke="none" fill="#0474b4" fill-rule="evenodd"/></svg>