<svg width="396" height="104" viewBox="0 0 396 104" fill="none" xmlns="http://www.w3.org/2000/svg">
<path fill-rule="evenodd" clip-rule="evenodd" d="M242.143 34.3652C242.222 33.8001 243.303 33.8002 243.386 34.3652C246.09 53.0508 259.916 75.8331 259.916 88.8213C259.916 96.8455 252.066 103.352 242.765 103.353C233.463 103.353 225.609 96.8482 225.609 88.8213C225.609 75.8331 239.438 53.0508 242.143 34.3652ZM240.608 73.2305C240.222 72.7835 239.374 72.7626 239.059 73.2148C238.369 74.2008 237.521 75.1919 236.617 76.2383C233.744 79.58 230.491 83.3713 230.491 89.1738C230.489 89.5747 230.579 89.9726 230.756 90.3438C230.933 90.7147 231.193 91.0523 231.521 91.3369C231.85 91.6216 232.241 91.8481 232.672 92.0029C233.103 92.1578 233.565 92.2379 234.032 92.2393C235.741 92.2392 237.573 91.2955 237.573 88.6348C237.573 83.7263 238.966 79.4802 240.194 75.7363C240.396 75.1229 240.59 74.528 240.773 73.9531C240.85 73.7088 240.789 73.4407 240.608 73.2305Z" fill="white"/>
<path fill-rule="evenodd" clip-rule="evenodd" d="M69.5254 31.1953C75.3122 31.1954 80.421 32.3708 84.8516 34.7217C89.282 37.0726 92.6725 40.1922 95.0234 44.0801C97.3743 47.8777 98.5497 51.8564 98.5498 56.0156C98.5498 62.7972 95.9733 67.7708 90.8193 70.9355C85.7557 74.0099 79.6974 75.5469 72.6445 75.5469C67.9427 75.5469 63.9641 74.9587 60.709 73.7832C63.4216 78.2138 67.8977 80.4297 74.1367 80.4297C76.6684 80.4297 79.381 80.1134 82.2744 79.4805C83.3593 79.2092 84.399 79.0733 85.3936 79.0732C87.3827 79.0732 88.9652 79.5709 90.1406 80.5654C91.4064 81.56 92.0399 82.916 92.04 84.6338C92.04 87.4368 90.3217 89.8783 86.8857 91.958C83.4497 93.9473 77.8889 94.9424 70.2031 94.9424C63.512 94.9424 57.5895 93.631 52.4355 91.0088C47.2815 88.3866 43.2577 84.7244 40.3643 80.0225C37.5613 75.2303 36.1592 69.8504 36.1592 63.8828C36.1592 58.0054 37.5612 52.5796 40.3643 47.6064C43.2577 42.6334 47.2363 38.6547 52.2998 35.6709C57.3634 32.687 63.1055 31.1953 69.5254 31.1953ZM68.9824 50.0479C66.5412 50.0479 64.5971 50.8165 63.1504 52.3535C61.7941 53.8002 61.1163 55.428 61.1162 57.2363C61.93 58.5022 63.0148 59.452 64.3711 60.085C65.8178 60.6275 67.4002 60.8984 69.1182 60.8984C71.1074 60.8984 72.8257 60.4462 74.2725 59.542C75.8094 58.6378 76.5781 57.4622 76.5781 56.0156C76.578 54.3882 75.8992 52.9869 74.543 51.8115C73.2771 50.6361 71.4237 50.0479 68.9824 50.0479Z" fill="white"/>
<path d="M132.762 31.1953C137.916 31.1954 142.572 31.9185 146.731 33.3652C150.981 34.812 154.327 36.8012 156.769 39.333C159.21 41.7742 160.43 44.487 160.43 47.4707C160.43 50.2736 159.526 52.399 157.718 53.8457C156 55.2924 153.649 56.0156 150.665 56.0156C149.49 56.0156 148.54 55.9259 147.816 55.7451C147.183 55.4739 146.324 55.0669 145.239 54.5244C144.606 54.1627 143.928 53.8455 143.205 53.5742C142.572 53.303 141.849 53.168 141.035 53.168C140.312 53.168 139.678 53.4389 139.136 53.9814C138.593 54.4335 138.322 55.0218 138.322 55.7451C138.322 57.1011 139.317 58.0956 141.306 58.7285C146.55 60.4465 150.755 62.617 153.92 65.2393C157.175 67.8615 158.803 71.4785 158.803 76.0898C158.803 81.9669 156.045 86.5783 150.529 89.9238C145.104 93.2694 137.825 94.9424 128.692 94.9424C120.735 94.9424 114.406 93.6309 109.704 91.0088C105.002 88.3867 102.652 84.9961 102.651 80.8369C102.651 78.1244 103.555 76.0444 105.363 74.5977C107.262 73.0606 109.658 72.2921 112.552 72.292C114.179 72.292 115.491 72.5177 116.485 72.9697C117.48 73.4218 118.475 74.0553 119.47 74.8691C120.193 75.5018 120.78 75.9534 121.232 76.2246C121.775 76.4959 122.408 76.6318 123.132 76.6318C125.03 76.6317 125.979 75.9537 125.979 74.5977C125.979 73.3318 125.482 72.382 124.487 71.749C123.493 71.0257 121.775 70.1664 119.334 69.1719C117.073 68.2677 115.581 67.6351 114.857 67.2734C110.698 65.2842 107.624 62.9332 105.635 60.2207C103.645 57.5081 102.651 54.6144 102.651 51.54C102.651 48.104 103.872 44.8487 106.313 41.7744C108.845 38.6098 112.372 36.0785 116.893 34.1797C121.504 32.1904 126.794 31.1953 132.762 31.1953Z" fill="white"/>
<path d="M194.617 31.1953C199.771 31.1954 204.428 31.9185 208.587 33.3652C212.837 34.812 216.183 36.8012 218.624 39.333C221.065 41.7742 222.285 44.487 222.285 47.4707C222.285 50.2737 221.382 52.399 219.573 53.8457C217.855 55.2924 215.504 56.0156 212.521 56.0156C211.345 56.0156 210.395 55.9259 209.672 55.7451C209.039 55.4739 208.18 55.0669 207.095 54.5244C206.462 54.1627 205.784 53.8455 205.061 53.5742C204.428 53.303 203.704 53.168 202.891 53.168C202.167 53.168 201.534 53.4389 200.991 53.9814C200.449 54.4335 200.178 55.0218 200.178 55.7451C200.178 57.1011 201.172 58.0956 203.161 58.7285C208.406 60.4465 212.611 62.617 215.775 65.2393C219.03 67.8615 220.658 71.4785 220.658 76.0898C220.658 81.9669 217.9 86.5783 212.385 89.9238C206.96 93.2694 199.68 94.9424 190.548 94.9424C182.591 94.9424 176.261 93.631 171.56 91.0088C166.858 88.3867 164.507 84.9961 164.507 80.8369C164.507 78.1244 165.411 76.0444 167.219 74.5977C169.118 73.0606 171.514 72.2921 174.407 72.292C176.035 72.292 177.346 72.5177 178.341 72.9697C179.335 73.4218 180.331 74.0553 181.325 74.8691C182.048 75.5018 182.636 75.9534 183.088 76.2246C183.63 76.4959 184.264 76.6318 184.987 76.6318C186.886 76.6317 187.835 75.9538 187.835 74.5977C187.835 73.3318 187.337 72.382 186.343 71.749C185.348 71.0257 183.63 70.1664 181.189 69.1719C178.929 68.2677 177.436 67.6351 176.713 67.2734C172.554 65.2842 169.479 62.9332 167.49 60.2207C165.501 57.5081 164.507 54.6144 164.507 51.54C164.507 48.104 165.728 44.8487 168.169 41.7744C170.701 38.6098 174.227 36.0785 178.748 34.1797C183.36 32.1904 188.649 31.1953 194.617 31.1953Z" fill="white"/>
<path fill-rule="evenodd" clip-rule="evenodd" d="M366.087 31.1953C371.874 31.1953 376.983 32.3708 381.413 34.7217C385.844 37.0726 389.235 40.192 391.586 44.0801C393.937 47.8777 395.112 51.8564 395.112 56.0156C395.112 62.7972 392.535 67.7708 387.381 70.9355C382.317 74.0097 376.26 75.5468 369.207 75.5469C364.505 75.5469 360.527 74.9586 357.271 73.7832C359.984 78.2138 364.459 80.4296 370.698 80.4297C373.23 80.4297 375.943 80.1134 378.837 79.4805C379.922 79.2093 380.962 79.0732 381.956 79.0732C383.945 79.0733 385.528 79.5708 386.703 80.5654C387.969 81.56 388.601 82.916 388.602 84.6338C388.602 87.4367 386.884 89.8784 383.448 91.958C380.012 93.9472 374.451 94.9423 366.766 94.9424C360.074 94.9424 354.151 93.631 348.997 91.0088C343.843 88.3866 339.819 84.7243 336.926 80.0225C334.123 75.2303 332.722 69.8503 332.722 63.8828C332.722 58.0054 334.123 52.5796 336.926 47.6064C339.819 42.6333 343.799 38.6548 348.862 35.6709C353.926 32.6872 359.667 31.1953 366.087 31.1953ZM365.545 50.0479C363.104 50.0479 361.159 50.8164 359.712 52.3535C358.356 53.8002 357.678 55.428 357.678 57.2363C358.491 58.5021 359.576 59.452 360.933 60.085C362.379 60.6275 363.963 60.8984 365.681 60.8984C367.67 60.8984 369.387 60.4461 370.834 59.542C372.371 58.6378 373.14 57.4624 373.14 56.0156C373.14 54.3882 372.462 52.9869 371.105 51.8115C369.84 50.6361 367.986 50.0479 365.545 50.0479Z" fill="white"/>
<path d="M319.8 31.1953C322.693 31.2858 325.135 32.3706 327.124 34.4502C329.204 36.5299 330.243 39.5596 330.243 43.5381C330.243 48.9632 329.068 54.6594 326.717 60.627C324.366 66.5948 321.608 72.0206 318.443 76.9033C315.279 81.6955 312.566 85.2219 310.306 87.4824C308.316 89.7429 305.965 91.5519 303.253 92.9082C300.631 94.1741 298.099 94.8066 295.657 94.8066C293.487 94.8066 291.453 94.5357 289.554 93.9932C287.745 93.4506 285.62 92.2299 283.179 90.3311C280.376 88.0705 277.211 84.2723 273.685 78.9375C270.158 73.5124 267.129 67.6803 264.598 61.4414C262.066 55.1119 260.8 49.4152 260.8 44.3516C260.8 40.554 261.885 37.4345 264.055 34.9932C266.315 32.4614 268.938 31.1953 271.922 31.1953C275.538 31.1954 278.613 32.5966 281.145 35.3994C283.767 38.112 285.937 41.5033 287.655 45.5723C289.464 49.5508 291.497 54.9314 293.758 61.7129C294.029 62.5266 294.301 63.4304 294.572 64.4248C294.934 65.329 295.296 66.2788 295.657 67.2734L297.014 63.3398C299.545 56.1063 301.715 50.4093 303.523 46.25C305.332 42.0003 307.593 38.4286 310.306 35.5352C313.018 32.5515 316.183 31.1049 319.8 31.1953Z" fill="white"/>
<path d="M16.0049 0C20.8874 8.65352e-05 24.4592 1.89873 26.7197 5.69629C29.0707 9.49398 30.517 14.5582 31.0596 20.8877C31.6925 27.2171 32.0088 36.0335 32.0088 47.3359C32.0088 58.4575 31.5122 67.4543 30.5176 74.3262C29.6134 81.1075 27.9856 86.2163 25.6348 89.6523C23.2839 92.9979 20.0284 94.6708 15.8691 94.6709C11.3481 94.6709 7.95682 92.9979 5.69629 89.6523C3.43591 86.3068 1.89874 81.3791 1.08496 74.8691C0.361601 68.2685 9.15584e-06 59.0905 0 47.3359C0 36.0335 0.270974 27.2171 0.813477 20.8877C1.44642 14.5582 2.89377 9.49398 5.1543 5.69629C7.50525 1.8988 11.1223 0 16.0049 0Z" fill="white"/>
</svg>
