<svg width="100" height="100" viewBox="0 0 100 100" fill="none" xmlns="http://www.w3.org/2000/svg">
<g clip-path="url(#clip0_179_1729)">
<mask id="mask0_179_1729" style="mask-type:luminance" maskUnits="userSpaceOnUse" x="-1" y="0" width="101" height="100">
<path d="M99.9985 0H-0.00146484V100H99.9985V0Z" fill="white"/>
</mask>
<g mask="url(#mask0_179_1729)">
<path fill-rule="evenodd" clip-rule="evenodd" d="M26.7434 1.05978C26.8909 1.17321 27.0242 1.30402 27.1608 1.42905C27.3007 1.55655 27.4472 1.68655 27.6261 1.75692C28.1038 1.94736 28.6685 1.7031 29.1827 1.81901C29.609 1.91588 29.9717 2.1825 30.3385 2.3961C30.3774 2.41846 31.7841 3.12553 31.7841 3.12553C31.8163 3.14871 32.8555 4.19194 32.8555 4.19194C33.1594 4.59763 33.4458 5.05635 33.8937 5.20535C34.4137 5.37755 35.0189 5.207 35.519 5.4844C36.0257 5.7659 36.2369 6.3736 36.6558 6.73375C37.1575 7.1643 37.8638 7.25205 38.5153 7.3663C38.7795 7.41435 39.0337 7.47725 39.2671 7.6329C39.2829 7.64285 40.1771 8.6447 40.1771 8.6447C40.8618 9.2996 41.9423 9.4511 42.7925 9.0835C43.1114 8.94605 43.4524 8.7581 43.7489 8.88975C44.2308 9.1042 44.278 9.9694 44.9122 10.0075C45.4495 10.0389 46.1524 9.5695 46.39 9.97105C46.3984 10.289 46.3917 10.3122 46.3843 10.3345C46.2957 10.573 46.2775 10.616 46.26 10.6591C46.1533 10.9108 46.1367 10.953 46.1201 10.996C46.0348 11.2188 45.9247 11.4747 46.2775 11.5119C46.7957 11.5666 47.3646 11.4266 47.7761 11.7793C48.2828 12.214 48.272 12.9716 48.3722 13.5635C48.4641 14.0985 48.7837 14.5993 49.2986 14.8021C49.4791 14.8725 49.6879 14.9048 49.8733 14.832C50.4065 14.6216 50.5755 13.725 51.102 13.8161L51.6675 14.3501C51.8825 14.6407 51.935 15.1417 51.7925 15.6095C51.669 16.0135 51.434 16.463 51.693 16.7388C51.9895 17.055 52.463 17.2008 52.699 17.5875C53.012 18.1017 52.834 18.8451 53.2835 19.1829C53.613 19.4312 54.0385 19.5531 54.306 19.8685C54.585 20.198 54.6325 20.7196 54.9925 20.92C55.408 21.151 55.967 20.7072 56.3545 20.7187C56.5025 20.896 55.9265 21.7132 55.9265 21.7132C55.896 22.0641 56.175 22.2388 56.3655 22.3854C56.452 22.4509 56.54 22.5146 56.6275 22.5793C56.7025 22.6355 57.5575 23.4503 57.5575 23.4503C57.9365 23.7731 58.401 23.9867 58.691 24.3767C58.946 24.7195 59.0245 25.1533 59.1325 25.5582L59.688 26.9972L60.0875 27.9741C60.1695 28.2374 60.145 28.2001 60.26 28.5115C60.4255 28.9603 60.8845 29.2766 61.3775 29.1208C61.7485 29.0042 61.7885 28.5082 61.8125 28.0379C61.824 27.8393 61.8505 27.6372 61.934 27.4534C62.128 27.0303 62.5325 26.7562 62.7845 26.3605C62.893 26.1908 62.9815 26.0086 63.0765 25.8323C63.2695 25.4795 63.5575 25.1467 63.9545 25.0473C64.325 24.9545 64.72 24.9727 65.0805 24.8535L66.122 24.1903C66.2105 24.1382 66.3015 24.091 66.396 24.0496C66.854 23.8824 67.2055 23.8361 67.507 23.9825C67.903 24.1738 68.124 24.7029 68.4385 24.8163C68.807 24.9487 69.206 24.6068 69.5785 24.2682L70.129 23.596C70.182 23.5057 70.2325 23.4129 70.2855 23.3226C70.4325 23.0841 70.5615 22.8888 70.779 22.8573C71.1955 22.796 71.463 23.2903 71.762 23.3186C71.994 23.3401 72.138 23.1017 72.2655 22.9551C72.421 22.7779 72.444 22.7523 72.4675 22.7274C72.7785 22.3971 73.2305 22.2678 73.6705 22.1395C74.0965 22.0103 74.304 21.589 74.562 21.1228C74.6615 20.9481 74.7825 20.7734 74.9655 20.7063C75.5355 20.4985 76.0665 21.2354 76.815 21.1443C76.9805 21.1244 77.141 21.0772 77.3035 21.0384C77.5775 20.9796 77.7995 20.9481 77.966 21.0557C78.3035 21.2727 78.2595 21.7462 78.257 22.0798L78.274 23.0818C78.3625 23.5322 78.6455 23.9991 78.4545 24.4065C78.31 24.7127 77.9515 24.8404 77.7125 25.0424L77.0715 25.6178C76.6475 25.5052 76.6615 25.1963 76.6355 24.9711C76.6055 24.7235 76.5905 24.4727 76.569 24.2227C76.5095 23.6853 76.4765 23.3243 76.246 23.1645C75.737 22.8093 74.7805 23.4536 74.4125 23.7136C73.9395 24.048 73.764 24.8602 74.395 25.2891C74.4775 25.3462 74.566 25.396 74.6555 25.4422C74.852 25.5416 74.9105 25.5714 74.97 25.6013C75.158 25.699 75.379 25.8107 75.396 26.0252C75.419 26.3323 75.1045 26.5186 74.8965 26.6776C74.587 26.9035 74.436 27.0112 74.436 27.0112L73.87 27.5793C73.6875 27.8706 73.4585 28.1853 73.985 28.2457C74.119 28.2614 74.254 28.2689 74.389 28.2854C74.5895 28.3128 74.807 28.3591 74.958 28.5065C75.3745 28.9139 75.1525 29.7146 74.7135 29.9065C74.485 30.0068 74.225 29.9679 73.9865 29.9744L72.9375 30.0854C72.9095 30.0854 71.637 29.6251 71.637 29.6251C71.438 29.5961 71.2345 29.6126 71.0325 29.616C70.765 29.6126 70.567 29.5937 70.4255 29.4768C70.058 29.1714 70.207 28.5661 70.044 28.0362C69.8815 27.5072 69.0825 27.5005 68.5405 27.3308L67.0565 26.7595C66.525 26.5841 65.8835 26.4333 65.5235 26.7852C65.198 27.1039 65.131 27.6396 64.788 27.9889C64.5485 28.2324 64.1995 28.3624 63.993 28.596C63.7565 28.8651 64.2335 29.2923 64.6335 29.6409L65.4225 30.3868C65.625 30.66 65.265 30.627 65.105 30.6029C64.6755 30.5317 64.2075 30.3984 63.901 30.6153C63.5065 30.8952 63.4925 31.5236 63.758 31.8796C64.019 32.2282 64.561 32.2406 64.947 32.547C65.311 32.8367 65.5375 33.3534 65.799 33.5719C65.799 33.5719 65.954 33.1596 66.0715 32.9047C66.1955 32.6372 66.387 32.3788 66.67 32.2671C67.176 32.0676 68.002 32.1752 67.901 32.6777C67.7595 33.3824 66.396 33.6158 66.299 34.3584C66.24 34.8122 66.6195 35.3223 67.0675 35.4158C67.634 35.5341 68.1745 35.0705 68.485 34.5042C68.536 34.409 68.586 34.3138 68.637 34.2186C68.841 33.8824 68.9735 33.7184 69.164 33.6763C69.657 33.5662 70.048 34.0753 70.1765 34.4396C70.394 35.0574 70.083 35.79 70.386 36.3422C70.6485 36.8216 71.281 37.0138 71.8645 36.6884C72.153 36.5244 72.4535 36.2885 72.7125 36.4052C73.0765 36.57 73.137 37.2009 72.883 37.5023C72.6255 37.8069 72.127 37.7903 71.8255 38.0595C71.502 38.3476 71.498 38.923 71.1005 39.0977L70.2245 39.0315C69.7475 38.9967 69.3055 39.3022 68.8175 39.3411C68.3535 39.3783 67.8505 39.2708 67.494 39.5424C67.132 39.8181 66.919 40.3141 67.315 40.7198C67.617 41.0294 68.1495 41.2603 68.0255 41.5351C67.839 41.95 66.892 41.7116 66.391 41.3862C66.1045 41.2007 65.886 40.8886 65.6185 40.7346C65.6185 40.7346 65.516 41.1245 65.447 41.3927C65.3445 41.7811 65.1335 42.1496 64.802 42.3856C64.5845 42.5403 64.2845 42.6612 64.2285 42.8441C64.13 43.1663 64.5445 43.5322 64.9545 43.89L65.983 44.8057C66.29 45.2759 66.419 45.6982 66.7445 45.9424C67.1485 46.2454 67.7795 46.233 68.1885 45.9482C68.75 45.5582 68.971 44.8032 69.4535 44.3387C69.658 44.1416 69.937 43.9777 70.236 44.0439C70.5525 44.1143 70.8215 44.4141 71.1145 44.4289C71.397 44.443 71.57 44.1441 71.741 43.9943C71.877 43.8774 72.0295 43.7698 72.2075 43.7343C72.5045 43.6746 72.8135 43.7972 73.0395 43.9843L73.7475 44.804C74.149 44.9687 74.486 44.9058 74.677 44.6665C74.937 44.342 75.057 43.8882 75.413 43.7624C75.9755 43.5629 76.7075 44.2344 76.67 44.8494C76.6475 45.2138 76.3945 45.516 76.1625 45.7686L75.449 46.628L75.0945 47.2854C75.0945 47.2854 74.875 47.4775 74.6555 47.5263C74.188 47.6299 73.72 47.4071 73.267 47.21C72.8855 47.0494 72.391 47.2116 72.169 47.5338C72.035 47.7274 72.5245 47.831 72.824 47.9643C73.2935 48.1754 73.6015 48.7219 73.989 48.8708C74.384 49.024 74.8205 48.8238 75.251 48.7434C75.389 48.9057 75.2625 49.0051 75.135 49.0589C74.818 49.1963 74.4485 49.3222 74.277 49.5962C74.1315 49.8305 74.779 50.0535 74.7635 50.481C74.751 50.82 74.4305 51.037 74.202 51.228L73.489 51.9575C73.244 52.3525 73.0355 52.9015 73.272 53.211C73.4685 53.4675 73.845 53.442 74.11 53.4115C74.6645 53.3495 75.231 52.8765 75.6325 53.27L75.992 53.852C76.198 53.9495 76.5005 53.668 76.719 53.558C77.126 53.3585 77.6 53.4555 78.022 53.5665L78.917 53.821C78.961 54.13 78.817 54.174 78.707 54.2185C78.1215 54.453 77.369 54.6325 77.6585 55.241C77.9175 55.786 78.6645 55.9425 79.1885 56.287C79.298 56.3595 79.3965 56.468 79.402 56.6065L78.8905 57.541C78.696 58.0595 79.0745 58.6085 79.4695 58.8935C80.129 59.371 80.9695 59.852 81.541 59.553C81.9535 59.338 82.199 58.7975 82.6025 58.6425C83.151 58.693 83.124 59.298 83.4015 59.7585C83.629 60.136 84.1045 60.4695 83.847 60.8495L83.143 61.306C83.5065 61.4615 83.933 61.552 84.1 61.899L84.134 62.229C83.763 62.7285 83.2665 62.528 82.792 62.6265C82.3845 62.712 82.465 63.5525 82.839 63.837C83.046 63.995 83.339 63.678 83.5685 63.515C83.702 63.423 83.8615 63.3335 84.028 63.3675C84.323 63.4265 84.4685 63.78 84.4295 64.0415C84.4065 64.1995 84.3205 64.3395 84.222 64.462C84.222 64.462 85.02 64.0515 85.1705 64.3645C85.3115 64.6585 84.751 65.0565 84.65 65.494C84.616 65.642 84.841 65.5735 85.028 65.54C86.0095 65.364 86.623 64.1995 87.426 63.889C87.528 63.85 87.675 63.8355 87.734 63.963L87.364 64.919L86.8325 66.215L86.069 67.101C85.866 67.359 85.6515 67.692 85.717 67.914C85.837 68.317 86.598 68.288 87.109 68.7155C87.624 69.146 87.969 69.843 88.0195 70.4995C88.033 70.6815 87.9525 70.898 87.742 70.939C87.411 71.004 86.9995 70.84 86.8175 70.994L86.7485 71.3715C86.854 71.4635 87.248 71.288 87.5615 71.2035C87.7885 71.1445 88.0445 71.109 88.2285 71.2565C88.581 71.5395 88.5255 72.061 88.504 72.446C88.4735 72.794 88.465 72.8585 88.4545 72.924C88.302 73.5165 88.1005 73.848 87.7415 73.8745C87.391 73.9 87.045 73.707 86.684 73.6725C86.546 73.659 86.4075 73.876 86.3945 74.1905C86.371 74.7625 86.2815 75.3665 86.358 75.867C86.358 75.867 86.5735 75.6645 86.7485 75.499C86.9415 75.3165 87.1585 75.142 87.42 75.0735C87.93 74.94 88.527 75.208 88.7185 75.6875C88.8825 76.099 88.754 76.556 88.6785 76.971L88.673 78.4685C88.7085 78.6465 88.7235 78.713 88.741 78.7785C88.8045 78.9855 88.8185 79.0245 88.8345 79.0625C88.979 79.371 89.1305 79.5665 89.355 79.627L90.053 79.7255C90.52 80.0915 90.3825 80.6355 90.56 80.9825C90.7735 81.402 91.2205 81.691 91.3125 82.1475C91.4745 82.957 90.7735 83.8625 89.889 83.962C89.726 83.981 89.561 83.978 89.3975 83.964C89.5515 84.3365 89.982 84.6735 90.173 85.249C90.255 85.503 90.341 85.7655 90.534 85.945L91.5685 86.5685C91.618 86.7555 90.4305 86.6455 90.4305 86.6455C89.8685 86.672 89.422 87.217 89.087 87.5985C88.9095 87.7995 88.748 88.024 88.686 88.283C88.513 88.9995 88.8155 89.7685 88.7035 90.482C88.6305 90.9475 88.36 91.403 87.904 91.6025C87.744 91.673 87.5775 91.725 87.413 91.7815C87.051 91.9165 86.8185 92.0645 86.7365 92.307C86.5915 92.7345 86.633 93.202 86.41 93.6535C86.1805 94.1195 85.5845 94.446 85.054 94.175C84.653 93.9695 84.462 93.4845 84.101 93.275C83.869 93.141 83.522 93.784 83.6785 94.0055C83.8675 94.27 84.496 94.02 84.732 94.378C84.924 94.6685 84.6805 95.089 84.8005 95.4565C84.933 95.8625 85.459 96.0215 85.776 96.301C85.074 96.3135 84.461 96.072 84.0215 96.3755C83.7145 96.5885 83.532 96.9445 83.2455 97.208C82.9335 97.4945 82.5045 97.7185 82.411 98.0755C82.367 98.242 82.397 98.4185 82.408 98.593C82.339 99.478 81.628 99.9895 81.0905 99.724L80.4975 99.1425C80.107 99.054 79.7425 100.02 78.7945 99.9995C78.5115 99.993 78.2125 99.891 78.038 99.6545L77.788 99.0025C77.613 98.5575 77.1915 98.2735 76.7925 98.0555L75.89 97.4645C75.862 97.4395 75.4555 96.4545 75.4555 96.4545L75.0525 95.604C74.703 95.2 74.029 94.915 74.125 94.446C74.2095 94.03 74.6905 93.876 74.9745 93.6705C75.111 93.5715 75.2435 93.462 75.347 93.328C75.6385 92.948 75.6965 92.4495 75.9495 92.0405C76.0795 91.83 76.2405 91.6415 76.39 91.446C76.573 91.205 76.7485 90.927 76.679 90.6405C76.599 90.3035 76.411 89.997 76.3075 89.657C76.149 89.1375 76.0225 88.5375 76.159 88.0945C76.189 87.9975 76.265 87.9075 76.377 87.9265C76.7445 87.9895 76.7825 88.453 77.0995 88.755C77.4 89.0435 78.038 88.957 78.1775 88.51L78.066 87.7135C78.0685 87.283 78.3665 86.8285 78.8285 86.826C79.096 86.8245 79.3525 86.9545 79.5975 87.081C79.496 86.879 79.4005 86.659 79.441 86.4395C79.505 86.0985 79.905 85.926 80.074 85.715C79.766 85.4675 79.0835 85.653 78.8195 85.3285L78.56 84.8065C78.2085 84.8015 77.783 85.425 77.531 85.191L77.733 84.4145C77.473 84.6295 77.2355 84.8705 76.994 85.1065L75.9085 86.08C74.87 87.0415 74.8595 87.049 74.1645 88.2805C74.1645 88.2805 73.676 88.795 73.3265 88.93C73.05 89.036 72.699 88.957 72.5255 88.683C72.277 88.2915 72.1975 87.8105 71.852 87.4545C71.5855 87.1795 71.2395 86.994 70.9085 86.792C70.528 86.5485 70.22 86.2805 70.1615 85.8905C70.1125 85.5635 70.226 85.2155 70.1795 84.91C70.14 84.647 69.581 84.8355 69.1645 84.95L67.71 85.3615C67.2075 85.6 66.751 85.998 66.197 85.999C65.7385 85.999 65.3285 85.744 64.9065 85.5975C63.5335 85.3455 63.533 85.349 62.166 85.138L61 84.9325L59.7945 84.271C58.8245 83.9275 57.7035 85.262 57.253 84.7165C57.0385 84.4565 57.2385 84.0225 57.064 83.7865L56.433 83.5285C56.146 83.336 56.2385 82.991 56.2645 82.736C56.288 82.494 56.2905 82.465 56.2925 82.4355C55.8595 82.634 55.629 82.948 55.3975 83.2545C55.2295 83.463 55.058 83.625 54.8285 83.5795C54.813 83.5765 54.3995 83.3575 54.3995 83.3575C54.514 83.949 54.9865 84.6865 54.5455 84.965C54.2935 85.124 53.984 84.9795 53.725 84.8995C53.6345 84.872 53.545 84.844 53.455 84.8165C52.9375 84.665 52.3255 84.65 52.0435 84.155C51.805 83.738 51.871 83.158 51.668 82.7515C51.668 82.7515 51.3985 83.062 51.2095 83.2835C51.135 83.37 51.057 83.4545 50.972 83.5305C50.9 83.5955 50.302 83.819 50.302 83.819C49.552 83.722 49.1868 83 48.6006 82.6615C48.4591 82.5795 48.3085 82.5125 48.1519 82.466C47.488 82.269 46.7701 82.5645 46.1433 82.84L44.7027 83.4595C44.2423 83.6485 43.7563 83.8155 43.4325 84.1965C43.0484 84.6485 42.9756 85.2985 42.8489 85.894C42.5823 87.047 41.6367 87.9405 40.4652 87.833C39.5694 87.75 38.6594 87.2475 38.3514 86.3965C38.2024 85.985 38.2405 85.514 38.0633 85.1205C37.8952 84.748 37.2063 84.9965 36.6558 84.9675C36.5448 84.9615 36.4339 84.946 36.3255 84.9195C36.1731 84.883 36.0248 84.825 35.8882 84.747C35.7781 84.6835 35.6747 84.6065 35.5852 84.516C35.1414 83.858 35.201 83.299 35.3212 82.8305L35.7201 81.522C35.8179 80.966 35.8047 80.258 35.3203 80.1735C34.898 80.099 34.4336 80.244 34.0693 79.9955C33.6213 79.689 33.4931 78.918 33.8789 78.5425C34.1595 78.2685 34.6886 78.3385 34.8848 78.1125C35.0686 77.9005 34.8839 77.615 34.7631 77.4095C34.5818 77.1025 34.2961 76.8325 33.9318 76.8325C33.6105 76.8325 33.2967 76.936 32.9714 76.9535C32.3041 76.989 31.3742 76.8055 31.5498 76.122C31.6648 75.676 32.0507 75.339 32.2279 74.89C32.3934 74.4695 32.3703 73.9855 32.6419 73.616L33.5104 72.751L33.9128 72.0065L34.8236 70.8595C34.8442 70.839 35.9528 69.977 35.9528 69.977C36.3246 69.7735 36.7403 69.635 37.1567 69.6615C37.6204 69.6915 38.1047 69.934 38.4931 69.8065C38.9757 69.6475 39.1139 68.93 39.3052 68.441C39.5081 67.938 39.8823 67.51 40.4661 67.3565C40.7401 67.2845 41.0357 67.2605 41.2782 67.161C41.2782 67.161 40.726 66.812 40.6193 66.418C40.461 65.8365 41.0862 65.1485 41.7031 65.208C42.2229 65.258 42.6162 65.852 42.4382 66.3695C42.319 66.7175 41.9605 67.0095 41.9117 67.301C41.8761 67.5175 42.7868 67.403 43.2057 67.076C43.5676 66.7945 43.7828 66.235 44.1993 66.2495C44.5661 66.264 44.73 66.6845 44.8244 66.9725C44.9147 67.249 44.9453 67.567 44.7763 67.7915C44.5032 68.154 43.8747 68.1465 43.6504 68.487C43.3912 68.8815 43.6329 69.618 44.1015 69.632C44.5289 69.6435 44.9552 69.4 45.3981 69.5175C45.8287 69.633 46.1276 70.0175 46.4108 70.3885C46.549 70.5665 46.5523 70.564 46.617 70.612C46.9175 70.835 47.3852 69.6515 47.9971 69.8785C48.3324 70.0035 48.5651 70.342 48.9104 70.4615C49.1323 70.5385 49.3956 70.522 49.586 70.3755C49.9693 70.0815 50.0935 69.473 50.5415 69.3205C50.9415 69.185 51.3495 69.4555 51.803 69.439C52.2745 69.4205 52.825 69.16 52.839 68.7685C52.85 68.456 52.449 68.201 52.5485 67.8765C52.6335 67.6 53.069 67.59 53.2735 67.36L53.24 66.8915C53.171 66.48 53.175 66.196 53.042 66.0395C52.843 65.806 52.3855 65.9375 52.035 65.992C51.902 66.013 51.7685 66.0345 51.6345 66.052C51.386 66.079 51.3305 66.0835 51.275 66.086C50.8735 66.086 50.5745 66.033 50.4055 65.8025C50.1565 65.463 50.2075 64.9755 49.9851 64.5995C49.7698 64.238 49.3152 64.006 49.311 63.5595C49.3061 63.138 49.653 62.8205 49.9039 62.5165C49.9039 62.5165 49.0751 62.9505 48.9361 62.634C48.8384 62.411 49.1115 62.1785 49.2125 61.787C49.2871 61.498 48.8863 61.3655 48.6586 61.2885C48.5428 61.249 48.426 61.2115 48.3109 61.1695C47.7694 60.97 47.1303 60.5995 47.3008 60.073C47.488 59.4975 48.2496 59.158 48.4732 58.4555C48.537 58.193 48.4343 57.985 48.1776 57.918C47.8853 57.84 47.6113 57.8535 47.2752 57.7995C47.1543 57.7805 47.0168 57.7535 47.0127 57.6035L47.6933 56.945C47.9674 56.599 48.0294 56.033 47.7876 55.6435C47.7355 55.559 47.6543 55.4755 47.55 55.468C47.1658 55.438 46.8015 55.8355 46.4985 56.041C45.9712 56.391 45.3534 56.547 44.7342 56.6935C44.4849 56.7545 44.1794 56.8575 44.2158 57.0725C44.282 57.4685 44.629 57.7905 44.7772 58.1845C44.8219 58.304 44.8418 58.457 44.7417 58.5555L43.8739 58.6985C43.4152 58.8095 43.1437 59.337 42.6891 59.439C42.3017 59.525 41.8455 59.323 41.6765 58.9655L41.4281 58.302C41.0266 58.5305 40.755 59.122 40.1912 58.9885C39.5172 58.8305 39.4476 57.905 39.1546 57.5155L38.6189 58.052C38.4201 58.2055 37.8861 58.114 37.5533 57.9195L36.7875 57.49C35.9976 57.2605 35.0653 57.97 34.1074 57.802C34.0627 57.794 33.0327 57.224 33.0327 57.224L32.1385 56.108L31.4463 54.7305C30.5148 53.6855 30.505 53.6895 29.3938 52.8385C29.0022 52.553 28.6131 52.257 28.156 52.1015L26.9265 51.8085C26.4595 51.6305 26.0695 51.28 25.5951 51.1535C25.1422 51.0335 24.6314 51.1555 24.2365 50.8855C23.7579 50.5585 23.7015 49.8901 23.5277 49.4422C23.3886 49.0845 23.1999 48.7359 22.896 48.5008L21.5274 47.8136C20.6737 46.9534 20.6755 46.9518 19.8964 46.0765L19.5204 44.6492C19.3639 44.2277 19.046 43.8949 18.7521 43.5629C18.6866 43.49 17.8777 42.4468 17.8777 42.4468L17.0813 41.1908L16.2252 39.9894L15.4245 38.7268L14.8963 37.1711L14.2141 35.8984C14.0311 35.3379 14.0369 34.8156 14.1404 34.3187L14.6628 32.744L15.0685 31.1866L15.6207 29.9166C15.961 28.8899 15.8277 27.84 15.2763 27.0029L14.344 25.8901C13.3778 24.8138 13.3729 24.8114 12.2203 23.9371C12.2029 23.9212 11.2177 22.816 11.2177 22.816L10.4394 21.5343C10.2887 21.2736 10.2564 21.2196 10.2233 21.1658C9.97906 20.7991 9.78861 20.5739 9.53361 20.448C9.05006 20.208 8.44981 20.2907 7.96626 20.01C7.27906 19.611 7.14081 18.7134 6.91561 18.0834C6.71191 17.5253 6.32856 17.0799 5.90716 16.6154C5.76971 16.4614 5.64056 16.2958 5.55776 16.1054C5.35906 15.6484 5.43521 15.1259 5.38886 14.6523L5.05271 13.1611C4.95832 12.5974 4.99723 12.0186 5.10901 11.454L5.57016 9.93215L6.20026 8.61985L7.12426 7.46155L7.74521 6.3769L8.37281 5.4016L9.17181 4.14309L10.0006 3.5362L11.5853 3.13381L12.7014 2.44247L13.9193 1.795L14.8334 1.25849L15.8327 1.03659L17.198 0.5125L18.7984 0.252524L20.495 0.336147L21.9985 0.0231799C22.477 -0.034777 22.9705 0.0157282 23.4251 0.17718C23.6817 0.269082 23.9227 0.397416 24.1685 0.515815C24.7175 0.766685 25.2424 0.75675 25.7872 0.76337C26.1291 0.769995 26.4736 0.855275 26.7434 1.05978Z" fill="#2040EC"/>
</g>
</g>
<defs>
<clipPath id="clip0_179_1729">
<rect width="100" height="100" fill="white"/>
</clipPath>
</defs>
</svg>
