<svg width="87" height="100" viewBox="0 0 87 100" fill="none" xmlns="http://www.w3.org/2000/svg">
<path fill-rule="evenodd" clip-rule="evenodd" d="M21.7439 1.05978C21.8914 1.17321 22.0247 1.30402 22.1613 1.42905C22.3012 1.55655 22.4477 1.68654 22.6266 1.75692C23.1043 1.94735 23.669 1.7031 24.1831 1.81901C24.6095 1.91588 24.9722 2.1825 25.339 2.3961C25.3779 2.41846 26.7846 3.12553 26.7846 3.12553C26.8168 3.14871 27.8559 4.19194 27.8559 4.19194C28.1598 4.59763 28.4463 5.05635 28.8942 5.20535C29.4142 5.37755 30.0193 5.207 30.5195 5.4844C31.0262 5.7659 31.2374 6.3736 31.6563 6.73375C32.158 7.1643 32.8643 7.25205 33.5158 7.3663C33.78 7.41435 34.0341 7.47725 34.2676 7.6329C34.2834 7.64285 35.1776 8.6447 35.1776 8.6447C35.8622 9.2996 36.9428 9.4511 37.793 9.0835C38.1119 8.94605 38.4529 8.7581 38.7494 8.88975C39.2313 9.1042 39.2784 9.9694 39.9126 10.0075C40.45 10.0389 41.1529 9.5695 41.3905 9.97105C41.3989 10.289 41.3922 10.3122 41.3848 10.3346C41.2962 10.573 41.2779 10.616 41.2605 10.6591C41.1538 10.9108 41.1372 10.953 41.1206 10.996C41.0353 11.2188 40.9252 11.4747 41.278 11.5119C41.7962 11.5666 42.3651 11.4266 42.7766 11.7793C43.2833 12.214 43.2725 12.9716 43.3727 13.5635C43.4646 14.0985 43.7842 14.5993 44.2991 14.8021C44.4796 14.8725 44.6883 14.9048 44.8737 14.832C45.407 14.6216 45.576 13.7251 46.1025 13.8161L46.668 14.3501C46.883 14.6407 46.9355 15.1417 46.793 15.6095C46.6695 16.0136 46.4345 16.463 46.6935 16.7387C46.99 17.055 47.4635 17.2007 47.6995 17.5874C48.0125 18.1016 47.8345 18.8451 48.284 19.1829C48.6135 19.4313 49.039 19.5531 49.3065 19.8685C49.5855 20.198 49.633 20.7196 49.993 20.92C50.4085 21.151 50.9675 20.7072 51.355 20.7187C51.503 20.896 50.927 21.7131 50.927 21.7131C50.8965 22.0641 51.1755 22.2388 51.366 22.3854C51.4525 22.4509 51.5405 22.5146 51.628 22.5793C51.703 22.6355 52.558 23.4503 52.558 23.4503C52.937 23.7731 53.4015 23.9867 53.6915 24.3767C53.9465 24.7195 54.025 25.1533 54.133 25.5582L54.6885 26.9972L55.088 27.9742C55.17 28.2375 55.1455 28.2001 55.2605 28.5115C55.426 28.9603 55.885 29.2766 56.378 29.1209C56.749 29.0042 56.789 28.5082 56.813 28.0379C56.8245 27.8393 56.851 27.6372 56.9345 27.4534C57.1285 27.0303 57.533 26.7562 57.785 26.3605C57.8935 26.1907 57.982 26.0086 58.077 25.8323C58.27 25.4795 58.558 25.1467 58.955 25.0473C59.3255 24.9545 59.7205 24.9727 60.081 24.8535L61.1225 24.1903C61.211 24.1382 61.302 24.091 61.3965 24.0496C61.8545 23.8824 62.206 23.8361 62.5075 23.9825C62.9035 24.1738 63.1245 24.7029 63.439 24.8163C63.8075 24.9487 64.2065 24.6068 64.579 24.2682L65.1295 23.596C65.1825 23.5057 65.233 23.4129 65.286 23.3226C65.433 23.0841 65.562 22.8888 65.7795 22.8573C66.196 22.796 66.4635 23.2904 66.7625 23.3186C66.9945 23.3401 67.1385 23.1017 67.266 22.9551C67.4215 22.7779 67.4445 22.7523 67.468 22.7274C67.779 22.3971 68.231 22.2678 68.671 22.1395C69.097 22.0103 69.3045 21.589 69.5625 21.1228C69.662 20.9481 69.783 20.7734 69.966 20.7063C70.536 20.4985 71.067 21.2354 71.8155 21.1443C71.981 21.1244 72.1415 21.0772 72.304 21.0384C72.578 20.9796 72.8 20.9481 72.9665 21.0557C73.304 21.2727 73.26 21.7462 73.2575 22.0798L73.2745 23.0818C73.363 23.5322 73.646 23.9991 73.455 24.4064C73.3105 24.7127 72.952 24.8404 72.713 25.0424L72.072 25.6178C71.648 25.5052 71.662 25.1963 71.636 24.9711C71.606 24.7235 71.591 24.4728 71.5695 24.2227C71.51 23.6853 71.477 23.3243 71.2465 23.1645C70.7375 22.8093 69.781 23.4536 69.413 23.7136C68.94 24.048 68.7645 24.8602 69.3955 25.2891C69.478 25.3462 69.5665 25.3959 69.656 25.4422C69.8525 25.5416 69.911 25.5714 69.9705 25.6013C70.1585 25.699 70.3795 25.8107 70.3965 26.0252C70.4195 26.3322 70.105 26.5186 69.897 26.6776C69.5875 26.9035 69.4365 27.0112 69.4365 27.0112L68.8705 27.5793C68.688 27.8706 68.459 28.1853 68.9855 28.2457C69.1195 28.2614 69.2545 28.2689 69.3895 28.2855C69.59 28.3128 69.8075 28.3591 69.9585 28.5066C70.375 28.9139 70.153 29.7145 69.714 29.9065C69.4855 30.0068 69.2255 29.9679 68.987 29.9744L67.938 30.0854C67.91 30.0854 66.6375 29.6251 66.6375 29.6251C66.4385 29.5961 66.235 29.6127 66.033 29.616C65.7655 29.6127 65.5675 29.5936 65.426 29.4768C65.0585 29.1714 65.2075 28.5661 65.0445 28.0362C64.882 27.5072 64.083 27.5005 63.541 27.3308L62.057 26.7595C61.5255 26.5841 60.884 26.4333 60.524 26.7852C60.1985 27.1039 60.1315 27.6396 59.7885 27.9889C59.549 28.2324 59.2 28.3624 58.9935 28.596C58.757 28.8651 59.234 29.2923 59.634 29.6409L60.423 30.3868C60.6255 30.66 60.2655 30.627 60.1055 30.6029C59.676 30.5317 59.208 30.3984 58.9015 30.6153C58.507 30.8952 58.493 31.5235 58.7585 31.8796C59.0195 32.2282 59.5615 32.2406 59.9475 32.5469C60.3115 32.8367 60.538 33.3534 60.7995 33.5719C60.7995 33.5719 60.9545 33.1596 61.072 32.9047C61.196 32.6372 61.3875 32.3789 61.6705 32.2671C62.1765 32.0676 63.0025 32.1752 62.9015 32.6777C62.76 33.3824 61.3965 33.6158 61.2995 34.3584C61.2405 34.8122 61.62 35.3222 62.068 35.4158C62.6345 35.5341 63.175 35.0705 63.4855 34.5041C63.5365 34.4089 63.5865 34.3138 63.6375 34.2186C63.8415 33.8824 63.974 33.7185 64.1645 33.6763C64.6575 33.5662 65.0485 34.0753 65.177 34.4396C65.3945 35.0573 65.0835 35.79 65.3865 36.3422C65.649 36.8216 66.2815 37.0138 66.865 36.6883C67.1535 36.5244 67.454 36.2885 67.713 36.4052C68.077 36.57 68.1375 37.2009 67.8835 37.5023C67.626 37.807 67.1275 37.7903 66.826 38.0595C66.5025 38.3476 66.4985 38.923 66.101 39.0977L65.225 39.0315C64.748 38.9967 64.306 39.3022 63.818 39.3411C63.354 39.3783 62.851 39.2708 62.4945 39.5424C62.1325 39.8181 61.9195 40.3141 62.3155 40.7198C62.6175 41.0294 63.15 41.2603 63.026 41.5351C62.8395 41.95 61.8925 41.7116 61.3915 41.3862C61.105 41.2007 60.8865 40.8886 60.619 40.7345C60.619 40.7345 60.5165 41.1246 60.4475 41.3928C60.345 41.7811 60.134 42.1496 59.8025 42.3855C59.585 42.5403 59.285 42.6612 59.229 42.8441C59.1305 43.1663 59.545 43.5322 59.955 43.89L60.9835 44.8057C61.2905 45.2759 61.4195 45.6982 61.745 45.9424C62.149 46.2454 62.78 46.233 63.189 45.9482C63.7505 45.5582 63.9715 44.8031 64.454 44.3387C64.6585 44.1416 64.9375 43.9777 65.2365 44.0439C65.553 44.1143 65.822 44.414 66.115 44.4289C66.3975 44.443 66.5705 44.1441 66.7415 43.9943C66.8775 43.8774 67.03 43.7698 67.208 43.7343C67.505 43.6746 67.814 43.7972 68.04 43.9843L68.748 44.804C69.1495 44.9687 69.4865 44.9058 69.6775 44.6665C69.9375 44.342 70.0575 43.8882 70.4135 43.7624C70.976 43.5629 71.708 44.2344 71.6705 44.8494C71.648 45.2138 71.395 45.516 71.163 45.7686L70.4495 46.628L70.095 47.2854C70.095 47.2854 69.8755 47.4775 69.656 47.5263C69.1885 47.6299 68.7205 47.4071 68.2675 47.21C67.886 47.0494 67.3915 47.2116 67.1695 47.5338C67.0355 47.7274 67.525 47.831 67.8245 47.9643C68.294 48.1754 68.602 48.7219 68.9895 48.8708C69.3845 49.024 69.821 48.8238 70.2515 48.7434C70.3895 48.9057 70.263 49.0051 70.1355 49.0589C69.8185 49.1963 69.449 49.3221 69.2775 49.5962C69.132 49.8305 69.7795 50.0535 69.764 50.481C69.7515 50.82 69.431 51.037 69.2025 51.228L68.4895 51.9575C68.2445 52.3525 68.036 52.9015 68.2725 53.211C68.469 53.4675 68.8455 53.442 69.1105 53.4115C69.665 53.3495 70.2315 52.8765 70.633 53.27L70.9925 53.852C71.1985 53.9495 71.501 53.668 71.7195 53.558C72.1265 53.3585 72.6005 53.4555 73.0225 53.5665L73.9175 53.821C73.9615 54.13 73.8175 54.174 73.7075 54.2185C73.122 54.453 72.3695 54.6325 72.659 55.241C72.918 55.786 73.665 55.9425 74.189 56.287C74.2985 56.3595 74.397 56.468 74.4025 56.6065L73.891 57.541C73.6965 58.0595 74.075 58.6085 74.47 58.8935C75.1295 59.371 75.97 59.852 76.5415 59.553C76.954 59.338 77.1995 58.7975 77.603 58.6425C78.1515 58.693 78.1245 59.298 78.402 59.7585C78.6295 60.136 79.105 60.4695 78.8475 60.8495L78.1435 61.306C78.507 61.4615 78.9335 61.552 79.1005 61.899L79.1345 62.229C78.7635 62.7285 78.267 62.528 77.7925 62.6265C77.385 62.712 77.4655 63.5525 77.8395 63.837C78.0465 63.995 78.3395 63.678 78.569 63.515C78.7025 63.423 78.862 63.3335 79.0285 63.3675C79.3235 63.4265 79.469 63.78 79.43 64.0415C79.407 64.1995 79.321 64.3395 79.2225 64.462C79.2225 64.462 80.0205 64.0515 80.171 64.3645C80.312 64.6585 79.7515 65.0565 79.6505 65.494C79.6165 65.642 79.8415 65.5735 80.0285 65.54C81.01 65.364 81.6235 64.1995 82.4265 63.889C82.5285 63.85 82.6755 63.8355 82.7345 63.963L82.3645 64.919L81.833 66.215L81.0695 67.101C80.8665 67.359 80.652 67.692 80.7175 67.914C80.8375 68.317 81.5985 68.288 82.1095 68.7155C82.6245 69.146 82.9695 69.843 83.02 70.4995C83.0335 70.6815 82.953 70.898 82.7425 70.939C82.4115 71.004 82 70.84 81.818 70.994L81.749 71.3715C81.8545 71.4635 82.2485 71.288 82.562 71.2035C82.789 71.1445 83.045 71.109 83.229 71.2565C83.5815 71.5395 83.526 72.061 83.5045 72.446C83.474 72.794 83.4655 72.8585 83.455 72.924C83.3025 73.5165 83.101 73.848 82.742 73.8745C82.3915 73.9 82.0455 73.707 81.6845 73.6725C81.5465 73.659 81.408 73.876 81.395 74.1905C81.3715 74.7625 81.282 75.3665 81.3585 75.867C81.3585 75.867 81.574 75.6645 81.749 75.499C81.942 75.3165 82.159 75.142 82.4205 75.0735C82.9305 74.94 83.5275 75.208 83.719 75.6875C83.883 76.099 83.7545 76.556 83.679 76.971L83.6735 78.4685C83.709 78.6465 83.724 78.713 83.7415 78.7785C83.805 78.9855 83.819 79.0245 83.835 79.0625C83.9795 79.371 84.131 79.5665 84.3555 79.627L85.0535 79.7255C85.5205 80.0915 85.383 80.6355 85.5605 80.9825C85.774 81.402 86.221 81.691 86.313 82.1475C86.475 82.957 85.774 83.8625 84.8895 83.962C84.7265 83.981 84.5615 83.978 84.398 83.964C84.552 84.3365 84.9825 84.6735 85.1735 85.249C85.2555 85.503 85.3415 85.7655 85.5345 85.945L86.569 86.5685C86.6185 86.7555 85.431 86.6455 85.431 86.6455C84.869 86.672 84.4225 87.217 84.0875 87.5985C83.91 87.7995 83.7485 88.024 83.6865 88.283C83.5135 88.9995 83.816 89.7685 83.704 90.482C83.631 90.9475 83.3605 91.403 82.9045 91.6025C82.7445 91.673 82.578 91.725 82.4135 91.7815C82.0515 91.9165 81.819 92.0645 81.737 92.307C81.592 92.7345 81.6335 93.202 81.4105 93.6535C81.181 94.1195 80.585 94.446 80.0545 94.175C79.6535 93.9695 79.4625 93.4845 79.1015 93.275C78.8695 93.141 78.5225 93.784 78.679 94.0055C78.868 94.27 79.4965 94.02 79.7325 94.378C79.9245 94.6685 79.681 95.089 79.801 95.4565C79.9335 95.8625 80.4595 96.0215 80.7765 96.301C80.0745 96.3135 79.4615 96.072 79.022 96.3755C78.715 96.5885 78.5325 96.9445 78.246 97.208C77.934 97.4945 77.505 97.7185 77.4115 98.0755C77.3675 98.242 77.3975 98.4185 77.4085 98.593C77.3395 99.478 76.6285 99.9895 76.091 99.724L75.498 99.1425C75.1075 99.054 74.743 100.02 73.795 99.9995C73.512 99.993 73.213 99.891 73.0385 99.6545L72.7885 99.0025C72.6135 98.5575 72.192 98.2735 71.793 98.0555L70.8905 97.4645C70.8625 97.4395 70.456 96.4545 70.456 96.4545L70.053 95.604C69.7035 95.2 69.0295 94.915 69.1255 94.446C69.21 94.03 69.691 93.876 69.975 93.6705C70.1115 93.5715 70.244 93.462 70.3475 93.328C70.639 92.948 70.697 92.4495 70.95 92.0405C71.08 91.83 71.241 91.6415 71.3905 91.446C71.5735 91.205 71.749 90.927 71.6795 90.6405C71.5995 90.3035 71.4115 89.997 71.308 89.657C71.1495 89.1375 71.023 88.5375 71.1595 88.0945C71.1895 87.9975 71.2655 87.9075 71.3775 87.9265C71.745 87.9895 71.783 88.453 72.1 88.755C72.4005 89.0435 73.0385 88.957 73.178 88.51L73.0665 87.7135C73.069 87.283 73.367 86.8285 73.829 86.826C74.0965 86.8245 74.353 86.9545 74.598 87.081C74.4965 86.879 74.401 86.659 74.4415 86.4395C74.5055 86.0985 74.9055 85.926 75.0745 85.715C74.7665 85.4675 74.084 85.653 73.82 85.3285L73.5605 84.8065C73.209 84.8015 72.7835 85.425 72.5315 85.191L72.7335 84.4145C72.4735 84.6295 72.236 84.8705 71.9945 85.1065L70.909 86.08C69.8705 87.0415 69.86 87.049 69.165 88.2805C69.165 88.2805 68.6765 88.795 68.327 88.93C68.0505 89.036 67.6995 88.957 67.526 88.683C67.2775 88.2915 67.198 87.8105 66.8525 87.4545C66.586 87.1795 66.24 86.994 65.909 86.792C65.5285 86.5485 65.2205 86.2805 65.162 85.8905C65.113 85.5635 65.2265 85.2155 65.18 84.91C65.1405 84.647 64.5815 84.8355 64.165 84.95L62.7105 85.3615C62.208 85.6 61.7515 85.998 61.1975 85.999C60.739 85.999 60.329 85.744 59.907 85.5975C58.534 85.3455 58.5335 85.349 57.1665 85.138L56.0005 84.9325L54.795 84.271C53.825 83.9275 52.704 85.262 52.2535 84.7165C52.039 84.4565 52.239 84.0225 52.0645 83.7865L51.4335 83.5285C51.1465 83.336 51.239 82.991 51.265 82.736C51.2885 82.494 51.291 82.465 51.293 82.4355C50.86 82.634 50.6295 82.948 50.398 83.2545C50.23 83.463 50.0585 83.625 49.829 83.5795C49.8135 83.5765 49.4 83.3575 49.4 83.3575C49.5145 83.949 49.987 84.6865 49.546 84.965C49.294 85.124 48.9845 84.9795 48.7255 84.8995C48.635 84.872 48.5455 84.844 48.4555 84.8165C47.938 84.665 47.326 84.65 47.044 84.155C46.8055 83.738 46.8715 83.158 46.6685 82.7515C46.6685 82.7515 46.399 83.062 46.21 83.2835C46.1355 83.37 46.0575 83.4545 45.9725 83.5305C45.9005 83.5955 45.3025 83.819 45.3025 83.819C44.5525 83.722 44.1873 83 43.6011 82.6615C43.4596 82.5795 43.3089 82.5125 43.1524 82.466C42.4884 82.269 41.7706 82.5645 41.1438 82.84L39.7031 83.4595C39.2427 83.6485 38.7568 83.8155 38.433 84.1965C38.0488 84.6485 37.976 85.2985 37.8493 85.894C37.5827 87.047 36.6372 87.9405 35.4657 87.833C34.5698 87.75 33.6599 87.2475 33.3519 86.3965C33.2029 85.985 33.241 85.514 33.0638 85.1205C32.8957 84.748 32.2068 84.9965 31.6563 84.9675C31.5453 84.9615 31.4344 84.946 31.326 84.9195C31.1736 84.883 31.0253 84.825 30.8887 84.747C30.7786 84.6835 30.6752 84.6065 30.5857 84.516C30.1419 83.858 30.2015 83.299 30.3217 82.8305L30.7206 81.522C30.8184 80.966 30.8052 80.258 30.3207 80.1735C29.8984 80.099 29.4341 80.244 29.0698 79.9955C28.6218 79.689 28.4935 78.918 28.8793 78.5425C29.16 78.2685 29.6891 78.3385 29.8853 78.1125C30.0691 77.9005 29.8844 77.615 29.7636 77.4095C29.5823 77.1025 29.2965 76.8325 28.9322 76.8325C28.611 76.8325 28.2972 76.936 27.9719 76.9535C27.3045 76.989 26.3747 76.8055 26.5503 76.122C26.6653 75.676 27.0512 75.339 27.2284 74.89C27.3939 74.4695 27.3708 73.9855 27.6424 73.616L28.5108 72.751L28.9133 72.0065L29.824 70.8595C29.8446 70.839 30.9533 69.977 30.9533 69.977C31.325 69.7735 31.7407 69.635 32.1572 69.6615C32.6208 69.6915 33.1051 69.934 33.4935 69.8065C33.9762 69.6475 34.1144 68.93 34.3057 68.441C34.5086 67.938 34.8828 67.51 35.4666 67.3565C35.7406 67.2845 36.0362 67.2605 36.2787 67.161C36.2787 67.161 35.7265 66.812 35.6198 66.418C35.4615 65.8365 36.0867 65.1485 36.7035 65.208C37.2234 65.258 37.6167 65.852 37.4387 66.3695C37.3195 66.7175 36.961 67.0095 36.9122 67.301C36.8766 67.5175 37.7873 67.403 38.2062 67.076C38.5681 66.7945 38.7832 66.235 39.1997 66.2495C39.5665 66.264 39.7305 66.6845 39.8249 66.9725C39.9152 67.249 39.9458 67.567 39.7768 67.7915C39.5037 68.154 38.8752 68.1465 38.6509 68.487C38.3917 68.8815 38.6334 69.618 39.102 69.632C39.5294 69.6435 39.9557 69.4 40.3986 69.5175C40.8292 69.633 41.1281 70.0175 41.4113 70.3885C41.5495 70.5665 41.5528 70.564 41.6175 70.612C41.918 70.835 42.3857 69.6515 42.9976 69.8785C43.3329 70.0035 43.5656 70.342 43.9109 70.4615C44.1328 70.5385 44.396 70.522 44.5864 70.3755C44.9697 70.0815 45.094 69.473 45.542 69.3205C45.942 69.185 46.35 69.4555 46.8035 69.439C47.275 69.4205 47.8255 69.16 47.8395 68.7685C47.8505 68.456 47.4495 68.201 47.549 67.8765C47.634 67.6 48.0695 67.59 48.274 67.36L48.2405 66.8915C48.1715 66.48 48.1755 66.196 48.0425 66.0395C47.8435 65.806 47.386 65.9375 47.0355 65.992C46.9025 66.013 46.769 66.0345 46.635 66.052C46.3865 66.079 46.331 66.0835 46.2755 66.086C45.874 66.086 45.575 66.033 45.406 65.8025C45.157 65.463 45.208 64.9755 44.9856 64.5995C44.7703 64.238 44.3157 64.006 44.3115 63.5595C44.3065 63.138 44.6535 62.8205 44.9044 62.5165C44.9044 62.5165 44.0755 62.9505 43.9365 62.634C43.8388 62.411 44.112 62.1785 44.213 61.787C44.2875 61.498 43.8868 61.3655 43.6591 61.2885C43.5433 61.249 43.4264 61.2115 43.3113 61.1695C42.7698 60.97 42.1307 60.5995 42.3012 60.073C42.4884 59.4975 43.2501 59.158 43.4736 58.4555C43.5374 58.193 43.4348 57.985 43.1781 57.918C42.8858 57.84 42.6118 57.8535 42.2757 57.7995C42.1548 57.7805 42.0173 57.7535 42.0131 57.6035L42.6938 56.945C42.9679 56.599 43.0299 56.033 42.7881 55.6435C42.736 55.559 42.6548 55.4755 42.5505 55.468C42.1663 55.438 41.802 55.8355 41.499 56.041C40.9717 56.391 40.3539 56.547 39.7346 56.6935C39.4854 56.7545 39.1798 56.8575 39.2163 57.0725C39.2825 57.4685 39.6295 57.7905 39.7777 58.1845C39.8224 58.304 39.8423 58.457 39.7422 58.5555L38.8744 58.6985C38.4157 58.8095 38.1442 59.337 37.6896 59.439C37.3021 59.525 36.846 59.323 36.677 58.9655L36.4286 58.302C36.027 58.5305 35.7555 59.122 35.1917 58.9885C34.5177 58.8305 34.4481 57.905 34.155 57.5155L33.6193 58.052C33.4206 58.2055 32.8865 58.114 32.5538 57.9195L31.788 57.49C30.9981 57.2605 30.0658 57.97 29.1078 57.802C29.0631 57.794 28.0331 57.224 28.0331 57.224L27.139 56.108L26.4468 54.7305C25.5153 53.6855 25.5054 53.6895 24.3943 52.8385C24.0026 52.553 23.6135 52.257 23.1564 52.1015L21.9269 51.8085C21.46 51.6305 21.07 51.28 20.5956 51.1535C20.1427 51.0335 19.6319 51.1555 19.2369 50.8855C18.7583 50.5585 18.702 49.8901 18.5282 49.4422C18.3891 49.0845 18.2003 48.7359 17.8964 48.5008L16.5278 47.8136C15.6741 46.9534 15.6759 46.9518 14.8968 46.0766L14.5209 44.6492C14.3644 44.2277 14.0464 43.8949 13.7525 43.5629C13.6871 43.49 12.8782 42.4468 12.8782 42.4468L12.0817 41.1907L11.2256 39.9894L10.425 38.7268L9.89675 37.1711L9.21455 35.8984C9.03155 35.3379 9.03735 34.8155 9.14085 34.3187L9.66325 32.7441L10.0689 31.1865L10.6212 29.9166C10.9615 28.8899 10.8282 27.84 10.2768 27.0029L9.3445 25.8901C8.3783 24.8138 8.37335 24.8114 7.2208 23.9371C7.2034 23.9212 6.21815 22.8159 6.21815 22.8159L5.43985 21.5343C5.2892 21.2735 5.2569 21.2196 5.2238 21.1658C4.97955 20.7991 4.7891 20.5739 4.5341 20.448C4.05055 20.208 3.4503 20.2907 2.96675 20.01C2.27955 19.611 2.1413 18.7134 1.9161 18.0834C1.7124 17.5253 1.32905 17.0799 0.907649 16.6155C0.770199 16.4614 0.641049 16.2958 0.558249 16.1055C0.359549 15.6484 0.435699 15.1259 0.389349 14.6522L0.0531993 13.1612C-0.0411957 12.5974 -0.0022805 12.0186 0.109499 11.454L0.570649 9.93215L1.20075 8.61985L2.12475 7.46155L2.7457 6.3769L3.3733 5.4016L4.1723 4.14308L5.00105 3.5362L6.58575 3.13381L7.70185 2.44246L8.91975 1.795L9.83385 1.25849L10.8331 1.0366L12.1985 0.5125L13.7988 0.252524L15.4954 0.336147L16.999 0.0231799C17.4774 -0.034777 17.971 0.0157282 18.4255 0.17718C18.6821 0.269082 18.9231 0.397416 19.169 0.515815C19.7179 0.766685 20.2429 0.75675 20.7877 0.76337C21.1296 0.769995 21.4741 0.855275 21.7439 1.05978Z" fill="black"/>
</svg>
