<svg width="141" height="100" viewBox="0 0 141 100" fill="none" xmlns="http://www.w3.org/2000/svg">
<path fill-rule="evenodd" clip-rule="evenodd" d="M0 0.199831C0 0.309393 0.153556 0.526471 0.341236 0.682176C0.560309 0.863795 0.682472 1.36728 0.682472 2.08853C0.682472 3.15756 1.45389 5.45564 1.81265 5.45564C2.15115 5.45564 2.75992 4.59187 2.52401 4.44616C2.39457 4.36615 2.0804 3.60217 1.82607 2.7484C1.57151 1.89463 1.15156 0.926988 0.892674 0.598074C0.426318 0.00570997 0 -0.184546 0 0.199831ZM4.38511 7.97397C4.12236 8.66954 4.37396 9.77448 4.79528 9.77448C4.88991 9.77448 5.11626 9.83154 5.29803 9.90109C5.8704 10.1207 5.92363 9.3501 5.40904 8.29221C5.13697 7.73212 4.85465 7.2741 4.78185 7.2741C4.70906 7.2741 4.5307 7.58892 4.38511 7.97397ZM11.602 10.4169C11.602 11.029 11.7535 11.4243 12.1139 11.7523C12.7472 12.3285 13.6485 12.8061 13.8062 12.6488C13.9538 12.501 12.0254 9.54717 11.7813 9.54717C11.6828 9.54717 11.602 9.9386 11.602 10.4169ZM6.22847 10.1873C5.81671 10.4619 5.69386 11.1265 6.00189 11.414C6.16636 11.5675 6.25576 11.8657 6.20048 12.0767C6.12063 12.3824 6.24803 12.4528 6.82927 12.4244C7.79701 12.3767 8.22288 12.9741 7.66257 13.5928C7.31087 13.981 7.30586 14.0592 7.61525 14.3159C7.80611 14.4741 7.96217 14.7973 7.96217 15.0339C7.96217 15.3647 7.81567 15.4533 7.32998 15.4163C5.98846 15.3142 5.74914 16.1325 6.82085 17.1581C7.47398 17.7834 7.51584 17.7928 7.94284 17.4068C8.18693 17.1861 8.33116 16.8617 8.26382 16.686C8.18761 16.488 8.2893 16.3664 8.53113 16.3664C8.82937 16.3664 8.8892 16.4948 8.78478 16.911C8.63259 17.5168 8.94607 17.7302 9.98843 17.7302C10.9807 17.7302 11.6455 18.6086 11.5595 19.806C11.4994 20.6441 11.4173 20.7912 11.0333 20.7491C10.7831 20.7218 10.4459 20.7459 10.2842 20.8028C9.8806 20.9441 10.3172 21.7445 10.8986 21.9288C11.1969 22.0234 11.4207 22.4389 11.6116 23.2513C11.7645 23.9028 11.9778 24.6072 12.0859 24.8163C12.337 25.3037 14.9254 27.2772 15.3133 27.2772C15.4748 27.2772 15.7919 27.7909 16.0178 28.4189C16.244 29.047 16.6141 29.6598 16.8409 29.781C17.0675 29.9021 17.3719 30.362 17.5175 30.8027C17.6901 31.3253 18.0327 31.7322 18.5025 31.9727C18.8988 32.1754 19.2903 32.4457 19.3724 32.5732C19.6336 32.9778 19.3074 33.4145 18.7436 33.4145C18.4443 33.4145 18.1992 33.5111 18.1992 33.6293C18.1992 33.9464 21.7891 37.0514 22.1555 37.0514C22.3282 37.0514 22.6369 37.3071 22.8419 37.6197C23.068 37.9645 23.4293 38.1879 23.7605 38.1879C24.0608 38.1879 24.6115 38.4443 24.9842 38.7576C25.3568 39.071 25.8125 39.2695 25.9967 39.199C26.1887 39.1253 26.6589 39.3722 27.0996 39.7784C27.8062 40.4294 27.836 40.5097 27.4734 40.7799C27.1098 41.0509 27.1242 41.0941 27.6588 41.3375C28.068 41.5237 28.2002 41.7214 28.1085 42.0101C27.9559 42.4902 28.9304 43.5006 29.8004 43.7645C30.1127 43.8592 30.4903 44.1009 30.6396 44.3016C30.8523 44.5873 31.0011 44.6114 31.3268 44.4132C31.8394 44.1013 32.4524 44.643 32.3396 45.3081C32.2912 45.5945 32.3576 45.6827 32.538 45.5711C32.9418 45.3217 33.2059 45.9009 33.2136 47.0529C33.2198 47.9644 33.3779 48.272 34.6673 49.8788C35.4631 50.8703 36.3316 51.7621 36.5976 51.8602C36.8635 51.9587 37.081 52.1839 37.081 52.3608C37.081 52.7465 37.9343 53.0191 38.0505 52.6706C38.1736 52.3015 38.9282 52.6772 39.0576 53.172C39.1202 53.4109 39.4175 53.668 39.7185 53.7435C40.3095 53.8917 40.4733 54.6266 39.9826 54.9294C39.8018 55.041 39.9867 55.1649 40.4945 55.2724C41.0762 55.3953 41.3573 55.3519 41.5421 55.111C41.9261 54.61 42.5407 54.7036 42.5407 55.263C42.5407 56.0634 44.0986 58.3926 44.8921 58.7788C45.2879 58.9713 45.9347 59.2903 46.3292 59.4871C46.7935 59.719 47.169 60.1572 47.3945 60.7305C47.7071 61.5258 47.9455 61.7095 49.7372 62.5367C51.7043 63.4448 51.9288 63.4766 53.4034 63.057C53.7833 62.949 53.9153 63.0063 53.9153 63.2788C53.9153 63.4811 54.0295 63.6464 54.1694 63.6464C54.3091 63.6464 54.3716 63.8439 54.3084 64.0853C54.1466 64.7036 54.8164 65.2423 57.2662 66.4636C59.3619 67.5086 60.0575 67.7129 60.0575 67.2833C60.0575 67.1583 60.2111 67.056 60.3988 67.056C60.6258 67.056 60.74 67.2828 60.74 67.7331C60.74 68.3714 60.7723 68.3953 61.3044 68.1532C61.6147 68.0118 61.9289 67.7072 62.0021 67.4761C62.1459 67.0235 62.5599 66.896 62.5599 67.3042C62.5599 67.4408 62.7647 67.8127 63.0149 68.1305C63.2651 68.4485 63.4699 68.9906 63.4699 69.3354C63.4699 69.683 63.6218 70.0205 63.8111 70.0933C64.0432 70.1822 64.1524 70.081 64.1524 69.7766C64.1524 69.5305 64.2547 69.3291 64.3798 69.3291C64.505 69.3291 64.6073 69.5525 64.6073 69.826C64.6073 70.0992 64.8376 70.5758 65.1192 70.8854C65.4008 71.1948 65.5032 71.3744 65.3467 71.2844C65.1904 71.1944 65.0623 71.2255 65.0623 71.3535C65.0623 71.7558 65.9347 72.0929 66.3718 71.859C66.8695 71.5931 68.6132 72.555 68.8214 73.2106C68.8978 73.4511 69.0555 73.6479 69.1719 73.6479C69.2882 73.6479 69.8041 74.0277 70.3185 74.4919C71.1727 75.2632 71.278 75.3025 71.5385 74.9465C71.6953 74.7324 71.9912 74.5571 72.1964 74.5571C72.4569 74.5571 72.5695 74.3571 72.5695 73.8941C72.5695 73.5295 72.6958 73.1892 72.85 73.1378C73.1526 73.0369 73.7761 74.0341 73.5944 74.328C73.5336 74.426 73.9413 74.5747 74.5002 74.6585C75.7077 74.8395 75.837 75.004 75.788 76.2976C75.7598 77.0425 75.8349 77.2848 76.0938 77.2848C76.2824 77.2848 76.4368 77.3871 76.4368 77.5121C76.4368 77.6372 76.1582 77.7395 75.8174 77.7395H75.1982L75.7036 78.0934C76.405 78.5841 76.3763 79.1881 75.6581 79.051C75.2425 78.9717 75.0765 79.061 74.9841 79.4142C74.8303 80.0023 75.3101 80.3262 75.7237 79.9132C76.1836 79.4538 77.8666 80.3519 78.3359 81.3075C78.6021 81.8494 78.894 82.0719 79.4839 82.1824C79.9188 82.264 80.4093 82.2445 80.5738 82.1392C80.7382 82.0338 81.0999 81.9424 81.3775 81.9358C81.7801 81.9262 81.8575 82.021 81.761 82.4056C81.6891 82.6914 81.7847 83.0078 81.9958 83.1828C82.1915 83.3451 82.3516 83.7211 82.3516 84.0181C82.3516 84.3155 82.3982 84.5587 82.4551 84.5587C82.6382 84.5587 83.7165 83.4078 83.7165 83.2123C83.7165 82.8225 84.3913 82.4799 84.8638 82.6297C85.2039 82.7375 85.316 82.9157 85.2362 83.2207C85.1734 83.461 85.2617 83.797 85.4321 83.9674C85.8111 84.3461 85.6332 84.5587 84.937 84.5587C84.5649 84.5587 84.4511 84.6573 84.5442 84.8996C84.6163 85.0872 84.8538 85.2406 85.0717 85.2406C85.2899 85.2406 85.7037 85.5475 85.9915 85.9225C86.2792 86.2976 86.6098 86.6044 86.7263 86.6044C86.8427 86.6044 87.1021 86.1873 87.3023 85.6777C87.6546 84.7817 87.6935 84.756 88.4766 84.9028C89.5337 85.1008 89.6099 85.1599 89.4748 85.6759C89.3196 86.2689 90.1579 86.6892 91.1694 86.5251C91.7925 86.4242 92.0434 86.496 92.338 86.8597C92.5446 87.1143 93.0691 87.3955 93.5041 87.4843C93.9716 87.5798 94.2949 87.7814 94.2949 87.9776C94.2949 88.4115 94.6284 88.6425 95.2617 88.6468C95.5433 88.6486 95.7736 88.7525 95.7736 88.8775C95.7736 89.0025 95.6712 89.1048 95.5461 89.1048C95.175 89.1048 95.2874 89.9536 95.6785 90.1034C96.2508 90.3227 97.0978 90.2636 97.2654 89.9927C97.3501 89.8559 97.6633 89.7906 97.9613 89.8475C98.5071 89.9518 98.6986 89.707 98.2759 89.4458C97.8196 89.1639 98.0632 87.0591 98.5521 87.0591C98.6772 87.0591 98.7202 87.2134 98.6479 87.4021C98.5756 87.5905 98.6233 88.0253 98.7544 88.3681C98.9875 88.9784 98.9994 88.9819 99.3308 88.5366C99.665 88.0874 99.673 88.0872 99.9962 88.5231C100.176 88.7659 100.323 89.0876 100.323 89.238C100.323 89.4994 101.846 89.772 102.357 89.602C102.49 89.5579 102.598 89.3231 102.598 89.0803C102.598 88.773 102.803 88.5979 103.272 88.5043C103.814 88.3961 104.023 88.1692 104.336 87.3498C104.648 86.5331 104.671 86.243 104.453 85.8937C104.231 85.5393 104.245 85.4327 104.527 85.3247C105.041 85.1274 104.954 84.8369 104.134 84.0131C102.495 82.3677 102.396 82.1967 102.524 81.2395C102.628 80.4619 102.553 80.2453 101.978 79.6638C100.59 78.2616 99.7742 77.7522 98.5205 77.5044C96.6448 77.1335 96.4772 77.0671 96.2242 76.5947C96.0645 76.2967 95.6323 76.1151 94.8295 76.0087C93.6761 75.8558 93.6704 75.8512 94.1786 75.4682L94.6912 75.082L93.9732 74.571C93.578 74.2901 93.096 74.1209 92.9017 74.1955C92.4322 74.3755 90.5174 72.7741 87.982 70.0812C87.3876 69.45 86.9014 68.8088 86.9014 68.6565C86.9014 68.1162 84.8649 66.3954 83.8881 66.1104C82.9745 65.8438 82.5905 65.5703 82.5825 65.1807C82.5807 65.0868 82.7327 65.0102 82.9203 65.0102C83.6492 65.0102 83.2092 64.6004 82.181 64.3219C80.7821 63.9428 79.1287 63.1177 78.3248 62.3978C75.6427 59.9958 75.2437 59.7317 74.4829 59.8551C73.803 59.9654 73.7227 59.9163 73.5896 59.3109C73.509 58.945 73.3423 58.6456 73.2185 58.6456C73.095 58.6456 73.0588 58.441 73.1382 58.191C73.2508 57.8366 73.1792 57.7364 72.8129 57.7364C72.5547 57.7364 71.9466 57.3784 71.4621 56.9408C70.9773 56.5032 70.4652 56.1452 70.3239 56.1452C69.9085 56.1452 70.0396 57.3472 70.5221 57.9637C71.0585 58.649 71.0922 59.0075 70.6358 59.1825C70.4482 59.2543 70.2946 59.2243 70.2946 59.1155C70.2946 59.0066 69.962 58.7047 69.5553 58.4444C69.0491 58.1205 68.9415 57.9701 69.214 57.9676C69.4329 57.9655 69.6121 57.8641 69.6121 57.7423C69.6121 57.2318 67.9367 54.3268 67.6421 54.3268C67.3993 54.3268 67.3766 54.43 67.5488 54.7516C67.8452 55.3051 67.6266 55.5058 67.0908 55.1714C66.7419 54.9537 66.6061 54.9864 66.3299 55.3553C66.0071 55.7868 65.988 55.7754 65.8408 55.0655C65.7562 54.6568 65.5457 54.3268 65.3694 54.3268C65.1943 54.3268 64.9629 54.0967 64.8553 53.8153C64.5659 53.0593 63.8646 52.5158 63.1116 52.464C62.7455 52.4387 62.2414 52.2987 61.9912 52.153C61.741 52.0071 61.0244 51.7557 60.3988 51.5945C59.0513 51.2472 58.6926 51.0056 58.6926 50.4462C58.6926 50.218 58.3316 49.7558 57.8902 49.4194C56.9525 48.7048 56.9707 48.5736 57.9683 48.8593C58.8903 49.1237 58.8841 48.8703 57.9462 47.9215C56.8294 46.792 56.233 46.371 55.75 46.371C55.5109 46.371 55.0257 46.1305 54.6721 45.8364C54.3184 45.5425 53.5993 45.0331 53.0742 44.7046C51.9912 44.0272 51.5062 42.8891 51.8808 41.9044C51.9989 41.5944 52.0954 40.9984 52.0954 40.5799C52.0954 39.8598 52.0435 39.8109 51.1285 39.6688C49.7051 39.4477 49.3657 39.324 49.3627 39.0251C49.3611 38.8771 48.999 38.5225 48.5579 38.237C47.6809 37.6694 47.318 36.9652 47.318 35.831C47.318 34.8336 46.1119 33.6418 45.1025 33.6418C44.7094 33.6418 44.33 33.5486 44.2594 33.4349C44.1891 33.321 43.4125 33.1067 42.5335 32.9587C41.3451 32.7585 40.6014 32.4664 39.633 31.8204C38.9091 31.3373 37.9771 30.9177 37.535 30.8759C36.9079 30.8163 36.7243 30.6906 36.666 30.2815C36.6155 29.926 36.2017 29.5421 35.352 29.0631C34.6698 28.6783 33.7305 27.907 33.2646 27.349C31.8951 25.7087 29.5865 23.4129 29.3067 23.4129C29.1643 23.4129 28.7312 23.1729 28.344 22.8797C27.9568 22.5864 27.2784 22.1762 26.8366 21.9682C25.9089 21.5313 25.4573 21.1033 23.8808 19.1675C23.0145 18.1037 22.477 17.6677 21.6626 17.3686C21.0715 17.1515 19.7234 16.6326 18.667 16.2155C17.6103 15.7984 16.6123 15.4572 16.4489 15.4572C16.0542 15.4572 16.0729 16.1921 16.4931 17.197C16.8982 18.1658 16.9003 18.1849 16.602 18.1849C16.4742 18.1849 16.249 17.9205 16.1016 17.5973C15.8782 17.1072 15.7253 17.0313 15.182 17.1399C14.1645 17.3431 12.9679 16.5783 11.1411 14.5568C10.233 13.5519 9.35214 12.7295 9.18402 12.7295C9.01591 12.7295 8.73496 12.3867 8.55979 11.9678C8.2868 11.3152 7.6769 10.7249 6.70005 10.1677C6.56902 10.0929 6.35677 10.1018 6.22847 10.1873ZM90.2 20.7257C89.9498 20.8653 89.7139 21.0044 89.6757 21.0344C89.6374 21.0646 89.8677 21.3713 90.1875 21.7161C90.9585 22.5473 90.9291 23.4707 90.0863 24.8904C89.5308 25.826 89.4109 26.2818 89.4077 27.4681C89.4045 28.6737 89.3014 29.052 88.7782 29.7814C88.4342 30.261 87.8694 30.8213 87.5229 31.0264C86.6871 31.5212 86.9674 31.9049 88.0578 31.7588C89.3078 31.5912 90.1352 30.9029 90.9719 29.3343L91.7053 27.9591H91.014C90.0781 27.9591 89.879 27.1626 90.4237 25.596C91.0834 23.6982 91.3373 23.4129 92.3664 23.4129C92.8639 23.4129 93.2712 23.3066 93.2712 23.1765C93.2712 23.0465 92.8874 22.5505 92.4181 22.0745C91.949 21.5983 91.433 21.0398 91.2717 20.8335C90.9296 20.3957 90.8124 20.3838 90.2 20.7257ZM110.036 30.6186C109.809 30.6772 109.529 30.9773 109.411 31.2857C109.207 31.8215 109.138 31.8395 107.836 31.6922C106.096 31.4955 105.328 31.907 105.328 33.0365V33.7845L106.654 33.6886C107.691 33.6136 108.187 33.6981 108.929 34.0766C110.153 34.7001 110.158 35.2086 108.957 36.8302C107.599 38.6628 107.286 38.8699 105.872 38.8699C105.197 38.8699 104.646 38.9692 104.646 39.0903C104.646 39.2117 104.95 39.5359 105.323 39.8111C105.85 40.2005 105.97 40.4303 105.865 40.8492C105.771 41.2227 105.879 41.5409 106.218 41.8901C106.487 42.1667 107.026 42.7818 107.416 43.2571C108.343 44.3859 108.983 44.6887 110.858 44.8844C112.193 45.024 112.434 45.1188 112.607 45.5738C112.735 45.9093 113.072 46.1594 113.532 46.2603C113.942 46.3503 114.301 46.594 114.361 46.8222C114.435 47.1043 114.853 47.3027 115.755 47.4839C117.322 47.7985 117.613 47.5471 117.613 45.8782C117.613 44.9687 117.706 44.7294 118.181 44.418C118.494 44.2132 118.75 43.9197 118.75 43.7661C118.75 43.364 118.053 42.7941 117.345 42.6177C116.63 42.4393 116.386 41.9624 116.705 41.3668C117.066 40.6922 116.561 39.8525 115.71 39.7145C114.77 39.5622 113.063 38.4343 113.063 37.9656C113.063 37.7629 113.172 37.4878 113.306 37.3544C113.477 37.1828 113.464 36.7068 113.261 35.7228C113.008 34.5003 113.02 34.2366 113.359 33.5254C113.572 33.0808 113.745 32.5741 113.745 32.3993C113.745 32.1506 110.739 30.376 110.503 30.4858C110.472 30.5004 110.262 30.5602 110.036 30.6186ZM133.83 54.9075C133.134 55.4551 133.065 55.4663 132.419 55.1323C131.686 54.7539 130.859 54.6834 130.419 54.9625C130.218 55.0905 130.323 55.4899 130.817 56.4685C131.187 57.2011 131.49 58.0894 131.49 58.4424C131.49 58.834 131.761 59.3928 132.185 59.8751C132.861 60.645 132.87 60.6846 132.52 61.3606C132.322 61.7427 132.061 62.0552 131.939 62.0552C131.817 62.0552 131.717 62.2098 131.717 62.3989C131.717 62.6694 131.901 62.7131 132.582 62.6044C133.767 62.4148 135.141 62.9829 134.981 63.5959C134.89 63.9442 135.062 64.1158 135.798 64.4099C136.854 64.832 137.442 64.8802 137.757 64.5704C137.876 64.4536 138.536 64.1721 139.224 63.9453L140.475 63.5327L140.509 62.1689C140.527 61.4188 140.672 60.1858 140.829 59.4291C140.987 58.6724 141.046 57.7759 140.961 57.437C140.808 56.8274 140.799 56.8247 140.104 57.184C139.717 57.3838 138.853 57.6036 138.183 57.6727C137.016 57.7932 136.932 57.7641 136.137 56.9699C135.437 56.2707 135.322 56.0186 135.399 55.3542C135.461 54.8275 135.388 54.5273 135.178 54.447C134.696 54.2622 134.613 54.2909 133.83 54.9075ZM96.8061 91.3581C96.3457 92.3785 96.4703 92.7418 97.2809 92.7418C97.745 92.7418 97.8251 92.6581 97.7097 92.2946C97.5994 91.948 97.6981 91.815 98.1492 91.7018C98.7762 91.5445 98.8943 91.1774 98.4579 90.7414C97.896 90.18 97.2247 90.4307 96.8061 91.3581ZM117.743 95.9809C117.684 96.2621 117.596 97.0926 117.547 97.8266L117.457 99.1607L118.388 99.5833C119.463 100.071 120.555 100.144 120.602 99.7315C120.62 99.5753 120.663 99.1064 120.697 98.6897C120.78 97.6791 120.951 97.5593 121.28 98.2815C121.605 98.9923 121.935 99.062 121.935 98.4197C121.935 98.1669 121.392 97.3997 120.728 96.7149C119.696 95.6506 119.399 95.4694 118.685 95.4694C118.001 95.4694 117.829 95.5626 117.743 95.9809Z" fill="#252024"/>
</svg>
