<svg width="413" height="59" viewBox="0 0 413 59" fill="none" xmlns="http://www.w3.org/2000/svg">
<path fill-rule="evenodd" clip-rule="evenodd" d="M0.276669 15.526C0.272252 24.0653 0.208083 36.9337 0.13415 44.1226L0 57.1928L0.549385 57.3274C0.851628 57.4016 3.60971 57.4328 6.67864 57.3967L12.2585 57.3312L12.3185 48.3777C12.3515 43.4533 12.4038 39.2453 12.4347 39.0267C12.4861 38.664 13.1352 38.6209 19.9308 38.5314C27.878 38.4265 29.1413 38.2786 32.3258 37.0795C38.8068 34.6395 43.1954 28.5323 43.6811 21.2772C43.9096 17.8672 43.2096 13.1023 42.0978 10.4988C40.916 7.73116 38.5025 4.77326 36.1655 3.22884C34.2767 1.98023 33.3504 1.5386 30.8006 0.67093L28.8833 0.0183721L0.285039 0L0.276669 15.526ZM12.6654 9.92698C12.4399 10.0181 12.3748 12.0753 12.3748 19.1114V28.1784L18.7102 28.0951C24.7146 28.0163 25.115 27.9835 26.3735 27.4684C27.8426 26.867 29.5973 25.2937 30.264 23.9802C31.5551 21.4372 31.4693 16.7309 30.0804 13.9016C28.9523 11.6035 26.6757 10.3737 22.8621 10.0026C20.5404 9.77651 13.1734 9.72186 12.6654 9.92698ZM88.633 14.6688C79.7242 15.4798 73.1542 20.997 70.8369 29.6133C70.1238 32.2644 69.8658 36.7914 70.2408 40.0644C71.0873 47.4537 75.537 53.8065 81.8141 56.5886C84.9305 57.9698 86.4789 58.2363 91.4229 58.2423C95.4511 58.2474 96.1639 58.1891 97.8165 57.7186C105.232 55.6074 110.456 50.104 112.2 42.5637C113.348 37.6056 112.936 31.6823 111.114 26.9326C109.947 23.8928 107.005 20.17 104.234 18.2284C101.662 16.4267 97.4606 15.0321 93.5154 14.6707C92.0448 14.536 90.7894 14.44 90.7254 14.4574C90.6615 14.4749 89.7199 14.57 88.633 14.6688ZM65.5063 15.1635C63.1504 15.5042 60.615 16.72 58.8 18.3793L57.4987 19.5688L57.3624 15.9358L54.4563 15.8195C52.8579 15.7556 50.3732 15.7358 48.9345 15.7756L46.319 15.8477L46.3262 29.8454C46.3301 37.544 46.2848 46.8953 46.2255 50.6263C46.1313 56.5377 46.163 57.427 46.4698 57.5449C46.6635 57.6191 49.1675 57.68 52.0341 57.68H57.2462L57.2585 50.0637C57.2783 37.8958 57.2839 37.6635 57.6019 35.5328C57.9985 32.8753 58.2836 32.063 59.3798 30.4651C61.1044 27.9512 64.5619 26.2847 68.0523 26.2847C68.999 26.2847 69.8267 26.1984 69.8918 26.093C69.9571 25.9874 70.026 23.4498 70.045 20.4535L70.0797 15.0056L68.3708 15.0009C67.4311 14.9984 66.1421 15.0716 65.5063 15.1635ZM89.5629 25.1423C86.8825 25.5205 84.3669 27.327 83.197 29.7137C82.9617 30.194 82.6839 30.7563 82.5795 30.9633C82.4056 31.3086 81.9211 32.8921 81.7342 33.7265C81.6911 33.9184 81.6512 35.1742 81.6453 36.5172C81.6256 41.0467 83.2721 44.5298 86.467 46.7177C87.7527 47.5981 89.0738 47.9281 91.2994 47.9247C93.8832 47.9207 95.2935 47.5081 96.9191 46.2805C102.679 41.9302 102.387 30.2098 96.4215 26.3537C94.7504 25.2733 92.0346 24.7937 89.5629 25.1423Z" fill="#031B3D"/>
<path fill-rule="evenodd" clip-rule="evenodd" d="M370.068 1.8193C369.812 1.87465 369.55 2.00233 369.486 2.10326C369.422 2.20419 369.332 14.9537 369.286 30.4353L369.202 58.5837L372.192 58.6551C373.837 58.6944 376.072 58.6742 377.159 58.6102L379.135 58.494L379.165 48.3777C379.203 35.5642 379.204 35.5519 379.861 33.6319C380.676 31.2509 381.346 30.2079 383.204 28.4319C385.737 26.0086 388.782 25.1095 392.776 25.6046C396.12 26.0193 399.431 28.4421 401.172 31.7498C402.419 34.1174 402.473 34.7474 402.496 47.0949C402.507 53.3605 402.599 58.5691 402.7 58.6698C402.8 58.7702 405.02 58.8242 407.632 58.7895L412.382 58.7265L412.442 47.0295C412.499 36.0419 412.473 35.1914 412.029 33.0084C410.812 27.036 407.019 21.9451 401.28 18.5795C398.301 16.8328 396.238 16.2851 392.038 16.1265C387.279 15.9467 384.5 16.5298 380.613 18.5235C379.826 18.9272 379.507 18.9981 379.433 18.7853C379.378 18.6251 379.345 14.7977 379.36 10.2802C379.376 5.53605 379.297 2.01093 379.174 1.93488C378.921 1.77837 370.737 1.67442 370.068 1.8193ZM124.786 15.46C122.724 15.8616 121.247 16.363 119.254 17.3388C117.693 18.1023 114.767 20.1935 113.764 21.2619L113.247 21.8121L114.4 24.2228C115.614 26.7614 116.701 30.1821 116.814 31.8174C116.922 33.3867 117.516 33.3058 118.165 31.6335C119.113 29.1923 121.567 26.7328 124.345 25.4384C125.486 24.9067 126.116 24.783 128.103 24.7016C130.786 24.5916 132.098 24.8291 133.969 25.7628C135.595 26.5742 138.32 29.2726 139.174 30.9177C140.542 33.5542 140.559 33.7326 140.578 46.207C140.588 52.4956 140.665 57.7105 140.75 57.7956C141.003 58.0491 150.293 57.9777 150.451 57.7212C150.529 57.5949 150.626 52.286 150.665 45.9235C150.744 33.3191 150.705 33.7174 152.157 30.8335C153.641 27.8856 156.838 25.4602 159.989 24.8916C165.703 23.8602 171.069 26.7881 173.128 32.0612C174.121 34.6023 174.227 36.1879 174.148 47.3867C174.088 55.9851 174.131 57.9293 174.384 58.0263C174.555 58.0916 176.777 58.1451 179.323 58.1451H183.951L184.012 47.273C184.089 33.2937 183.977 31.9833 182.387 28.2474C181.386 25.8944 180.182 24.134 178.067 21.9312C175.972 19.7484 174.776 18.8133 172.563 17.6307C169.373 15.9251 166.607 15.3033 162.288 15.3205C156.59 15.343 151.154 17.547 147.147 21.4591C146.393 22.1944 145.685 22.7963 145.571 22.7963C145.458 22.7963 145.234 22.583 145.073 22.3226C144.511 21.4126 140.709 18.593 138.544 17.4802C135.568 15.9509 132.981 15.317 129.32 15.22C127.5 15.1719 125.805 15.2616 124.786 15.46ZM205.149 15.724C200.152 16.8181 196.336 19.1119 192.802 23.1451C189.105 27.3642 187.448 32.907 188.039 39.0753C188.329 42.0972 188.938 44.2105 190.252 46.7498C191.636 49.4235 195.113 53.2377 197.354 54.5395C197.977 54.9016 198.539 55.2674 198.603 55.3523C198.851 55.6821 202.76 57.2158 204.302 57.5888C206.566 58.136 212.027 58.1407 214.469 57.5974C216.907 57.0547 219.833 55.7909 221.415 54.5965C226.899 50.4584 229.431 46.6791 230.725 40.7033C231.285 38.1174 230.885 31.946 230.024 29.8893C228.426 26.0714 227.209 24.1879 224.768 21.7549C221.462 18.4593 218.294 16.7407 213.438 15.6088C211.944 15.2607 206.949 15.33 205.149 15.724ZM253.007 15.5991C248.076 16.2184 244.126 18.2016 240.384 21.9374C239.228 23.0912 236.964 26.1912 236.964 26.6207C236.964 26.6967 236.72 27.1493 236.422 27.6265C235.032 29.8493 233.982 34.8835 234.258 38.0026C234.685 42.8358 235.659 45.5914 238.256 49.3079C240.529 52.5619 243.629 55.1163 247.099 56.596C250.626 58.0998 251.585 58.2098 262.156 58.3214C267.381 58.3767 271.743 58.3335 271.851 58.2253C271.959 58.1172 272.071 56.0405 272.099 53.6102L272.151 49.1916L270.542 49.0409C269.657 48.9579 265.785 48.8767 261.939 48.8607C258.092 48.8444 254.332 48.7314 253.583 48.6095C249.647 47.9686 246.19 45.0002 244.59 40.887C243.961 39.2712 243.887 34.8707 244.461 33.244C245.444 30.457 247.241 28.1842 249.74 26.5663C252.093 25.0426 252.144 25.0358 262.655 24.8981L272.187 24.773L272.313 15.6181L269.925 15.5333C265.31 15.3693 254.501 15.4112 253.007 15.5991ZM308.5 15.97C308.412 16.0577 308.34 16.897 308.34 17.8351C308.34 18.773 308.286 19.5405 308.219 19.5405C308.152 19.5405 307.708 19.284 307.231 18.9705C305.96 18.1347 303.322 17.0663 301.349 16.5886C299.185 16.0649 293.53 16.006 291.601 16.4874C284.816 18.1802 278.626 23.5937 276.366 29.8095C274.921 33.7858 274.643 39.2981 275.693 43.1451C277.791 50.8335 284.646 57.1074 292.449 58.4826C294.95 58.9233 299.098 58.7881 301.623 58.1835C302.724 57.92 304.598 57.227 305.787 56.6437C306.976 56.0605 307.98 55.6142 308.018 55.6521C308.056 55.6898 308.109 56.1353 308.136 56.6423C308.234 58.4621 308.031 58.3949 313.214 58.3244C315.755 58.2898 317.887 58.2088 317.951 58.1444C318.015 58.08 318.096 48.5567 318.129 36.9816L318.191 15.9358L313.425 15.873C310.804 15.8386 308.588 15.8821 308.5 15.97ZM334.406 16.0893C329.415 16.8035 324.744 21.5681 323.819 26.8893C323.471 28.8916 323.686 31.6972 324.279 32.8902C324.464 33.2616 324.615 33.674 324.615 33.8067C324.615 34.3795 326.636 37.3795 327.727 38.426C329.058 39.7037 332.017 41.2747 333.798 41.6502C334.438 41.7849 338.361 41.9426 342.517 42.0005C350.591 42.1133 352.175 42.28 352.921 43.0965C353.612 43.8533 354.142 45.0093 354.138 45.7498C354.132 46.7019 353.216 48.1644 352.282 48.7135C351.494 49.1763 351.056 49.1953 338.565 49.3079L325.661 49.4242L325.598 53.8258C325.563 56.2467 325.625 58.3184 325.736 58.4293C325.847 58.5402 331.943 58.6523 339.284 58.6788C352.577 58.7263 352.637 58.7244 354.258 58.2002C356.596 57.4442 358.184 56.4544 359.932 54.6635C362.462 52.0728 363.57 49.2398 363.529 45.4707C363.503 43.0072 363.198 41.7498 362.118 39.6567C361.516 38.4898 359.873 36.3247 359.335 35.9888C359.177 35.89 358.906 35.6677 358.733 35.4949C358.116 34.8777 355.348 33.4993 354.001 33.1384C352.564 32.7535 349.355 32.597 340.766 32.493C336.341 32.4393 335.8 32.3891 335.071 31.9628C333.241 30.894 332.69 28.7179 333.818 27.0202C334.9 25.3919 334.157 25.483 347.399 25.3544L359.373 25.2381L359.492 16.1253L355.617 15.9723C350.172 15.7577 336.186 15.8347 334.406 16.0893ZM207.708 24.9253C203.51 25.3002 199.697 28.7526 198.138 33.5902C197.772 34.7235 197.763 38.3746 198.122 39.773C199.183 43.9091 202.992 47.6602 206.841 48.3595C211.235 49.1579 215.161 47.9391 217.93 44.9167C222.03 40.4405 222.238 34.0326 218.443 29.0556C217.964 28.427 217.515 27.9121 217.445 27.9114C217.376 27.9109 216.978 27.5912 216.562 27.2012C214.639 25.3981 211.487 24.5879 207.708 24.9253ZM294.885 25.6219C291.311 25.9449 287.949 28.4242 286.26 31.9823C285.774 33.0056 285.268 34.3137 285.137 34.8893C284.617 37.1614 284.977 40.24 286.028 42.503C286.28 43.0453 286.486 43.5819 286.486 43.6956C286.486 44.1712 289.61 47.2277 290.759 47.8763C292.805 49.0314 294.352 49.3723 297.036 49.2595C299.055 49.1749 299.611 49.0584 300.95 48.4391C302.992 47.4944 303.917 46.7663 305.326 44.9947C307.323 42.4844 307.961 40.5442 307.923 37.0898C307.89 33.9807 306.71 31.2242 304.386 28.8242C301.853 26.2086 299.006 25.2493 294.885 25.6219ZM116.539 44.454C116.536 44.9179 116.376 45.4272 116.185 45.5856C115.994 45.744 115.73 46.3063 115.598 46.8349C114.971 49.3419 112.129 53.8886 109.703 56.266C108.995 56.9593 108.454 57.5872 108.5 57.6614C108.617 57.8514 116.193 57.9777 116.756 57.7991C117.207 57.6558 117.216 57.4905 117.102 51.0077C117.038 47.353 116.887 44.1937 116.766 43.9865C116.599 43.7 116.545 43.8116 116.539 44.454Z" fill="#031B3D"/>
</svg>
