<svg xmlns="http://www.w3.org/2000/svg" width="1828" height="258" viewBox="0 0 1828 258" version="1.1"><path d="M 33.964 66.738 C 33.945 103.457, 33.669 158.791, 33.351 189.703 L 32.774 245.905 35.137 246.484 C 36.437 246.803, 48.300 246.937, 61.500 246.782 L 85.500 246.500 85.758 208 C 85.900 186.825, 86.125 168.731, 86.258 167.791 C 86.479 166.231, 89.271 166.046, 118.500 165.661 C 152.682 165.210, 158.116 164.574, 171.813 159.418 C 199.689 148.926, 218.565 122.665, 220.654 91.468 C 221.637 76.805, 218.626 56.316, 213.844 45.121 C 208.761 33.220, 198.380 20.501, 188.328 13.860 C 180.204 8.491, 176.220 6.592, 165.253 2.861 L 157.006 0.055 95.503 0.015 L 34 -0.024 33.964 66.738 M 87.250 42.662 C 86.280 43.054, 86 51.900, 86 82.155 L 86 121.143 113.250 120.785 C 139.076 120.446, 140.798 120.305, 146.211 118.090 C 152.530 115.504, 160.077 108.739, 162.945 103.091 C 168.498 92.156, 168.129 71.919, 162.155 59.753 C 157.303 49.871, 147.511 44.583, 131.108 42.987 C 121.122 42.015, 89.435 41.780, 87.250 42.662 M 414 63.052 C 375.682 66.539, 347.423 90.263, 337.456 127.313 C 334.389 138.713, 333.279 158.179, 334.892 172.253 C 338.533 204.027, 357.672 231.344, 384.671 243.307 C 398.075 249.246, 404.735 250.392, 426 250.418 C 443.326 250.440, 446.392 250.189, 453.500 248.166 C 485.396 239.088, 507.863 215.423, 515.368 183 C 520.303 161.680, 518.532 136.210, 510.694 115.786 C 505.677 102.715, 493.020 86.707, 481.101 78.358 C 470.040 70.611, 451.969 64.614, 435 63.060 C 428.675 62.481, 423.275 62.068, 423 62.143 C 422.725 62.218, 418.675 62.627, 414 63.052 M 314.528 65.179 C 304.395 66.644, 293.490 71.872, 285.683 79.007 L 280.086 84.122 279.793 76.311 L 279.500 68.500 267 68 C 260.125 67.725, 249.438 67.640, 243.250 67.811 L 232 68.121 232.031 128.311 C 232.048 161.415, 231.853 201.626, 231.598 217.669 C 231.193 243.088, 231.329 246.912, 232.649 247.419 C 233.482 247.738, 244.252 248, 256.582 248 L 279 248 279.053 215.250 C 279.138 162.928, 279.162 161.929, 280.530 152.767 C 282.236 141.340, 283.462 137.847, 288.177 130.976 C 295.595 120.166, 310.466 113, 325.479 113 C 329.551 113, 333.111 112.629, 333.391 112.176 C 333.672 111.722, 333.968 100.810, 334.050 87.926 L 334.199 64.500 326.849 64.480 C 322.807 64.469, 317.263 64.784, 314.528 65.179 M 418 108.088 C 406.471 109.714, 395.651 117.482, 390.619 127.745 C 389.607 129.810, 388.412 132.228, 387.963 133.118 C 387.215 134.603, 385.131 141.412, 384.327 145 C 384.142 145.825, 383.970 151.225, 383.945 157 C 383.860 176.477, 390.942 191.454, 404.684 200.862 C 410.214 204.648, 415.896 206.067, 425.469 206.052 C 436.582 206.035, 442.648 204.261, 449.640 198.982 C 474.416 180.276, 473.158 129.878, 447.500 113.297 C 440.312 108.651, 428.631 106.589, 418 108.088" stroke="none" fill="#bc1b20" fill-rule="evenodd"/><path d="M 1624.500 7.799 C 1623.400 8.037, 1622.275 8.586, 1622 9.020 C 1621.725 9.454, 1621.337 64.277, 1621.139 130.848 L 1620.777 251.886 1633.639 252.193 C 1640.712 252.362, 1650.325 252.275, 1655 252 L 1663.500 251.500 1663.630 208 C 1663.795 152.902, 1663.797 152.849, 1666.624 144.593 C 1670.128 134.355, 1673.011 129.870, 1681 122.233 C 1691.898 111.813, 1704.993 107.947, 1722.173 110.076 C 1736.558 111.859, 1750.797 122.277, 1758.287 136.500 C 1763.648 146.681, 1763.881 149.390, 1763.979 202.484 C 1764.028 229.426, 1764.423 251.823, 1764.856 252.256 C 1765.288 252.688, 1774.835 252.920, 1786.071 252.771 L 1806.500 252.500 1806.759 202.203 C 1807.003 154.956, 1806.895 151.299, 1804.982 141.912 C 1799.749 116.231, 1783.436 94.340, 1758.749 79.868 C 1745.936 72.357, 1737.063 70.002, 1719 69.320 C 1698.531 68.547, 1686.576 71.054, 1669.858 79.627 C 1666.472 81.363, 1665.100 81.668, 1664.784 80.753 C 1664.546 80.064, 1664.404 63.606, 1664.468 44.181 C 1664.535 23.781, 1664.198 8.623, 1663.670 8.296 C 1662.581 7.623, 1627.381 7.176, 1624.500 7.799 M 569.500 66.454 C 560.631 68.181, 554.279 70.337, 545.705 74.533 C 538.994 77.816, 526.408 86.808, 522.092 91.402 L 519.870 93.768 524.828 104.134 C 530.049 115.050, 534.726 129.759, 535.211 136.791 C 535.677 143.539, 538.231 143.191, 541.024 136 C 545.101 125.503, 555.654 114.927, 567.603 109.361 C 572.511 107.075, 575.222 106.543, 583.768 106.193 C 595.306 105.720, 600.949 106.741, 609 110.756 C 615.994 114.245, 627.711 125.848, 631.384 132.922 C 637.270 144.259, 637.341 145.026, 637.424 198.666 C 637.466 225.707, 637.799 248.131, 638.165 248.497 C 639.253 249.587, 679.209 249.280, 679.891 248.177 C 680.226 247.634, 680.641 224.806, 680.812 197.447 C 681.152 143.248, 680.983 144.961, 687.229 132.560 C 693.613 119.884, 707.363 109.455, 720.917 107.010 C 745.490 102.575, 768.570 115.165, 777.430 137.839 C 781.701 148.766, 782.155 155.584, 781.817 203.739 C 781.558 240.712, 781.743 249.072, 782.832 249.489 C 783.564 249.770, 793.122 250, 804.072 250 L 823.980 250 824.240 203.250 C 824.574 143.139, 824.093 137.504, 817.254 121.440 C 812.946 111.322, 807.767 103.752, 798.673 94.280 C 789.662 84.894, 784.515 80.873, 775 75.788 C 761.278 68.454, 749.381 65.780, 730.803 65.854 C 706.296 65.951, 682.913 75.428, 665.678 92.250 C 662.438 95.412, 659.389 98, 658.902 98 C 658.415 98, 657.451 97.083, 656.758 95.963 C 654.341 92.050, 637.990 79.926, 628.677 75.141 C 615.876 68.565, 604.748 65.839, 589 65.422 C 581.175 65.215, 573.882 65.601, 569.500 66.454 M 915.158 67.589 C 893.664 72.294, 877.248 82.157, 862.049 99.500 C 846.149 117.642, 839.021 141.476, 841.563 168 C 842.809 180.994, 845.430 190.081, 851.082 201 C 857.033 212.497, 871.989 228.898, 881.627 234.496 C 884.307 236.053, 886.725 237.626, 887 237.991 C 888.067 239.409, 904.879 246.004, 911.514 247.608 C 921.252 249.961, 944.741 249.981, 955.243 247.645 C 965.731 245.311, 978.314 239.877, 985.121 234.741 C 1008.707 216.947, 1019.599 200.696, 1025.163 175 C 1027.571 163.881, 1025.849 137.344, 1022.146 128.500 C 1015.273 112.083, 1010.039 103.984, 999.541 93.522 C 985.321 79.351, 971.694 71.961, 950.807 67.094 C 944.383 65.597, 922.897 65.895, 915.158 67.589 M 1121 67.052 C 1099.793 69.715, 1082.805 78.243, 1066.706 94.307 C 1061.734 99.268, 1052 112.598, 1052 114.445 C 1052 114.772, 1050.950 116.718, 1049.667 118.770 C 1043.690 128.328, 1039.173 149.975, 1040.358 163.387 C 1042.194 184.170, 1046.385 196.019, 1057.554 212 C 1067.333 225.992, 1080.664 236.976, 1095.591 243.339 C 1110.761 249.805, 1114.884 250.278, 1160.355 250.758 C 1182.825 250.996, 1201.590 250.810, 1202.054 250.345 C 1202.518 249.880, 1202.998 240.950, 1203.121 230.500 L 1203.343 211.500 1196.422 210.852 C 1192.615 210.495, 1175.963 210.146, 1159.418 210.077 C 1142.874 210.007, 1126.702 209.521, 1123.481 208.997 C 1106.550 206.241, 1091.681 193.477, 1084.798 175.790 C 1082.094 168.842, 1081.774 149.920, 1084.243 142.925 C 1088.472 130.941, 1096.201 121.168, 1106.948 114.211 C 1117.072 107.659, 1117.290 107.630, 1162.500 107.038 L 1203.500 106.500 1203.771 86.817 L 1204.042 67.134 1193.771 66.769 C 1173.919 66.064, 1127.429 66.244, 1121 67.052 M 1359.686 68.647 C 1359.309 69.024, 1359 72.633, 1359 76.667 C 1359 80.700, 1358.765 84, 1358.479 84 C 1358.192 84, 1356.279 82.897, 1354.229 81.549 C 1348.762 77.955, 1337.414 73.361, 1328.928 71.307 C 1319.622 69.055, 1295.297 68.802, 1287 70.872 C 1257.819 78.151, 1231.193 101.429, 1221.475 128.157 C 1215.259 145.255, 1214.061 168.958, 1218.578 185.500 C 1227.604 218.560, 1257.085 245.538, 1290.649 251.451 C 1301.407 253.346, 1319.247 252.765, 1330.109 250.165 C 1334.844 249.032, 1342.903 246.052, 1348.018 243.544 C 1353.133 241.036, 1357.451 239.117, 1357.613 239.280 C 1357.776 239.442, 1358.005 241.358, 1358.122 243.538 C 1358.543 251.363, 1357.671 251.074, 1379.964 250.771 C 1390.894 250.622, 1400.062 250.274, 1400.338 249.997 C 1400.614 249.720, 1400.959 208.770, 1401.105 158.997 L 1401.370 68.500 1380.871 68.230 C 1369.597 68.082, 1360.064 68.269, 1359.686 68.647 M 1471.113 69.160 C 1449.644 72.231, 1429.554 92.719, 1425.575 115.600 C 1424.078 124.210, 1425.004 136.274, 1427.556 141.404 C 1428.350 143.001, 1429 144.774, 1429 145.345 C 1429 147.808, 1437.693 160.708, 1442.384 165.208 C 1448.112 170.702, 1460.836 177.457, 1468.500 179.072 C 1471.250 179.651, 1488.125 180.329, 1506 180.578 C 1540.726 181.063, 1547.539 181.780, 1550.748 185.291 C 1553.721 188.545, 1556.002 193.516, 1555.984 196.700 C 1555.959 200.794, 1552.019 207.083, 1547.999 209.444 C 1544.612 211.434, 1542.727 211.516, 1489 212 L 1433.500 212.500 1433.227 231.427 C 1433.077 241.837, 1433.345 250.745, 1433.822 251.222 C 1434.299 251.699, 1460.521 252.181, 1492.095 252.295 C 1549.271 252.499, 1549.528 252.491, 1556.500 250.237 C 1566.556 246.986, 1573.386 242.730, 1580.906 235.029 C 1591.785 223.889, 1596.553 211.707, 1596.378 195.500 C 1596.264 184.907, 1594.951 179.500, 1590.307 170.500 C 1587.718 165.482, 1580.652 156.172, 1578.337 154.728 C 1577.656 154.303, 1576.490 153.347, 1575.747 152.604 C 1573.092 149.950, 1561.188 144.023, 1555.394 142.471 C 1549.214 140.816, 1535.413 140.143, 1498.470 139.696 C 1479.434 139.465, 1477.111 139.249, 1473.973 137.416 C 1466.104 132.820, 1463.731 123.463, 1468.584 116.163 C 1473.239 109.161, 1470.044 109.553, 1527 109 L 1578.500 108.500 1578.756 88.907 L 1579.012 69.315 1562.346 68.657 C 1538.927 67.734, 1478.769 68.065, 1471.113 69.160 M 926.164 107.155 C 908.106 108.767, 891.705 123.612, 884.999 144.414 C 883.427 149.287, 883.387 164.987, 884.930 171 C 889.495 188.785, 905.879 204.915, 922.434 207.922 C 941.334 211.355, 958.220 206.114, 970.129 193.118 C 987.766 173.870, 988.658 146.316, 972.337 124.915 C 970.276 122.212, 968.344 119.998, 968.045 119.995 C 967.745 119.993, 966.036 118.618, 964.246 116.941 C 955.974 109.188, 942.415 105.704, 926.164 107.155 M 1301.128 110.150 C 1285.755 111.539, 1271.293 122.200, 1264.027 137.500 C 1261.938 141.900, 1259.764 147.525, 1259.198 150 C 1256.962 159.770, 1258.512 173.008, 1263.031 182.739 C 1264.114 185.071, 1265 187.378, 1265 187.867 C 1265 189.912, 1278.436 203.055, 1283.378 205.844 C 1292.178 210.811, 1298.834 212.277, 1310.380 211.792 C 1319.063 211.428, 1321.453 210.927, 1327.212 208.264 C 1335.996 204.202, 1339.976 201.071, 1346.037 193.453 C 1354.626 182.659, 1357.368 174.316, 1357.207 159.462 C 1357.063 146.093, 1351.988 134.240, 1341.990 123.920 C 1331.095 112.673, 1318.853 108.548, 1301.128 110.150 M 534.030 191.128 C 534.014 193.123, 533.328 195.313, 532.507 195.994 C 531.686 196.675, 530.549 199.093, 529.981 201.366 C 527.285 212.146, 515.061 231.697, 504.625 241.920 C 501.582 244.901, 499.254 247.601, 499.451 247.920 C 499.956 248.737, 532.542 249.280, 534.961 248.512 C 536.904 247.896, 536.941 247.185, 536.452 219.309 C 536.177 203.594, 535.527 190.009, 535.006 189.118 C 534.286 187.886, 534.054 188.366, 534.030 191.128" stroke="none" fill="#77b02d" fill-rule="evenodd"/></svg>