<svg width="1920" height="1103" viewBox="0 0 1920 1103" fill="none" xmlns="http://www.w3.org/2000/svg">
<path fill-rule="evenodd" clip-rule="evenodd" d="M215.331 0.47667C212.03 0.827808 197.512 2.21022 183.069 3.54992C157.109 5.95569 153.163 6.48398 123.797 11.4711C91.0018 17.0403 34.1799 30.9735 7.12768 40.0809L0 42.4804V505.001C0 759.388 0.442667 967.522 0.98287 967.522C1.52457 967.522 11.1462 964.013 22.3659 959.721C52.0891 948.357 72.3843 941.049 88.5333 935.901C96.3738 933.402 108.528 929.501 115.544 927.232C134.607 921.068 174.036 909.898 193.573 905.126C203.064 902.807 216.231 899.583 222.834 897.962C234.21 895.167 250.365 891.805 279.105 886.247C295.172 883.14 346.836 876.59 374.248 874.185C400.84 871.85 476.718 871.804 501.189 874.107C612.594 884.591 697.115 909.642 845.568 976.176C996.278 1043.72 1065.69 1067.13 1171.19 1086.01C1246.03 1099.4 1328.94 1105.39 1394.15 1102.13C1429.61 1100.35 1436.77 1099.71 1476.16 1094.77C1521.69 1089.07 1581.56 1074.25 1628.86 1056.96C1664.73 1043.86 1689.1 1033.13 1722.63 1015.68C1747.88 1002.55 1759.31 995.976 1788.67 977.718C1815.68 960.928 1861.83 926.718 1897.79 896.841C1909.63 886.999 1920 878.947 1920 878.947C1919.97 878.947 1919.97 342.439 1919.97 342.439L1907.59 345.634C1865.09 356.232 1825.97 360.626 1782.04 359.735C1749.26 359.071 1746.48 358.774 1730.08 354.179C1700.44 345.873 1689.58 340.666 1596.6 290.18C1546.91 263.201 1516.49 250.716 1477.93 241.49C1437.89 231.908 1399.4 229.008 1350.51 231.886C1296.14 235.086 1267.45 239.496 1208.71 253.682C1140.61 270.126 1115.74 274.445 1064.67 278.692C1005.85 283.584 950.829 281.289 907.842 272.152C843.474 258.47 772.629 226.078 689.901 172.509C682.688 167.838 676.465 164.017 676.074 164.017C675.68 164.017 669.764 160.227 662.927 155.594C602.18 114.442 528.121 70.9938 483.03 50.0568C431.474 26.1177 378.369 10.3402 325.623 3.28894C309.194 1.09353 228.803 -0.956354 215.331 0.47667ZM0.739779 504.874C0.739779 759.766 0.913844 863.804 1.12542 736.07C1.337 608.336 1.337 399.789 1.12542 272.631C0.913844 145.473 0.739779 249.983 0.739779 504.874Z" fill="#FFD600"/>
</svg>
