<svg width="736" height="540" viewBox="0 0 736 540" fill="none" xmlns="http://www.w3.org/2000/svg">
<path fill-rule="evenodd" clip-rule="evenodd" d="M657.285 128.781C647.11 131.433 629.56 135.994 618.285 138.918C607.01 141.841 597.413 144.552 596.957 144.943C596.502 145.334 596.459 194.555 596.86 254.322L597.591 362.991L600.688 362.313C602.391 361.94 614.36 358.649 627.285 355L650.785 348.365L649.982 247.21L653.258 246.554C661.908 244.824 665.724 246.219 667.236 251.661C667.88 253.981 668.276 271.995 668.279 299.149C668.283 329.749 668.609 342.899 669.363 342.899C670.58 342.899 718.585 329.933 719.035 329.482C719.195 329.322 718.932 309.663 718.451 285.795C717.69 248.041 717.35 241.879 715.838 238.399C712.284 230.223 705.331 225.332 695.518 224.107L689.832 223.396L696.414 220.156C704.82 216.018 711.281 209.198 714.209 201.372C717.213 193.344 718.547 176.23 717.306 161.649C715.82 144.19 713.418 137.827 705.771 131.096C695.591 122.135 684.764 121.618 657.285 128.781ZM566.285 153.154C560.51 154.692 541.61 159.737 524.285 164.364C506.96 168.992 490.913 173.262 488.625 173.853L484.465 174.928L484.884 254.163C485.393 350.524 485.891 392.838 486.522 393.469C486.784 393.731 497.75 390.979 510.891 387.354C532.696 381.34 575.299 369.495 579.535 368.27C581.139 367.806 581.285 365.762 581.285 343.764C581.285 321.363 581.168 319.801 579.535 320.318C575.135 321.71 540.185 330.899 539.29 330.899C538.645 330.899 538.285 322.491 538.285 307.427V283.955L543.535 282.494C550.571 280.536 575.318 273.899 575.578 273.9C575.905 273.902 575.166 232.447 574.834 232.114C574.67 231.95 566.563 233.893 556.818 236.432C547.074 238.971 538.963 240.902 538.794 240.724C538.625 240.545 538.328 232.11 538.136 221.979L537.785 203.559L557.201 198.23C567.88 195.298 576.777 192.741 576.972 192.546C577.166 192.351 577.204 182.779 577.055 171.275L576.785 150.357L566.285 153.154ZM652.285 162.793L649.785 163.488L649.251 214.946L652.018 214.28C665.809 210.965 667.442 208.585 668.082 190.878C668.683 174.236 667.817 167.34 664.742 164.265C662.302 161.826 657.716 161.284 652.285 162.793ZM443.785 185.956L418.785 192.626L418.135 202.512C416.999 219.785 414.185 274.416 412.964 302.899L411.785 330.399L407.017 294.399C398.302 228.609 394.482 200.763 394.122 200.402C393.925 200.206 383.419 202.852 370.775 206.281L347.785 212.517L346.616 230.958C344.607 262.656 342.264 307.612 341.603 327.157C341.254 337.474 340.721 345.669 340.42 345.367C340.119 345.066 339.543 341.575 339.14 337.609C338.737 333.644 337.493 323.649 336.375 315.399C335.257 307.149 332.077 282.434 329.308 260.477C326.539 238.52 324.164 220.447 324.03 220.315C323.895 220.184 314.11 222.721 302.285 225.955C290.46 229.188 279.997 231.848 279.035 231.866C278.073 231.884 277.285 232.604 277.285 233.466C277.285 239.472 310.552 439.5 311.751 440.698C312.114 441.061 362.17 427.347 362.808 426.709C362.996 426.521 365.21 401.624 367.727 371.383C372.768 310.821 372.678 311.716 373.493 313.899C373.801 314.724 378.6 338.531 384.157 366.804C389.715 395.077 394.435 418.383 394.647 418.594C395.212 419.159 445.46 405.146 446.255 404.202C446.627 403.76 448.846 383.824 451.188 359.899C453.529 335.974 456.754 303.574 458.356 287.899C463.227 240.209 469.17 179.445 468.972 179.363C468.869 179.32 457.535 182.287 443.785 185.956ZM218.785 245.974C210.177 247.421 196.126 251.877 187.664 255.843C165.42 266.267 153.88 281.48 151.411 303.637C150.624 310.693 152.058 384.144 153.788 425.399C154.985 453.948 159.721 464.948 173.827 471.941C178.366 474.191 179.884 474.391 191.785 474.304C202.352 474.228 206.579 473.731 214.37 471.654C247.017 462.948 262.951 449.656 269.817 425.399C272.177 417.059 272.856 371.837 271.354 322.96C270.102 282.216 269.445 275.075 266.137 266.232C262.848 257.442 254.718 249.731 245.854 246.993C238.67 244.774 228.25 244.382 218.785 245.974ZM206.016 279.896C201.788 283.222 201.229 287.338 201.811 310.899C202.102 322.724 202.79 354.112 203.339 380.649C204.41 432.47 204.703 435.166 209.537 437.863C212.072 439.278 212.586 439.241 216.037 437.399C218.28 436.202 220.506 433.924 221.581 431.725C223.28 428.25 223.317 425.597 222.267 382.725C219.727 279.048 219.965 284.288 217.662 281.191C214.936 277.524 209.762 276.949 206.016 279.896ZM103.785 279.894C97.1302 280.938 89.9712 282.727 63.7852 289.889C51.6855 293.199 36.0544 297.367 29.0504 299.153L16.3145 302.399L16.3225 332.399C16.3305 367.194 18.1265 520.073 18.5305 520.478C18.6815 520.628 31.3445 517.297 46.6715 513.075L74.5392 505.399L73.7852 411.646L88.9002 407.351C120.311 398.427 132.998 388.07 137.228 367.899C138.95 359.691 139.693 324.233 138.42 311.031C137.311 299.531 134.574 291.09 130.488 286.568C125.682 281.249 113.908 278.306 103.785 279.894ZM77.5352 316.065L73.2852 317.017V371.058L76.5352 370.399C82.5372 369.183 88.6762 365.53 90.7212 361.959C92.3692 359.081 92.7602 356.107 93.1102 343.766C93.6182 325.872 92.9312 320.455 89.7502 317.273C87.2022 314.725 84.6462 314.472 77.5352 316.065Z" fill="white"/>
<path fill-rule="evenodd" clip-rule="evenodd" d="M546.285 14.5285C530.152 17.6095 511.872 28.1505 502.777 39.6175C492.431 52.6615 487.841 66.9265 488.527 83.8975C489.08 97.5465 491.588 104.331 498.72 111.462C506.737 119.48 512.65 121.415 528.785 121.296C543.767 121.187 553.325 119.102 564.785 113.443C579.971 105.945 590.088 94.5775 594.771 79.7535C596.154 75.3755 597.285 71.6625 597.285 71.5005C597.285 71.3395 591.548 72.7375 584.535 74.6075C577.522 76.4775 569.639 78.4725 567.016 79.0395C563.435 79.8145 561.901 80.7355 560.861 82.7345C557.622 88.9575 550.606 92.9415 541.612 93.6635C533.507 94.3145 529.879 92.8005 526.865 87.5105C523.499 81.6025 522.876 78.2365 525.045 77.6745C526.002 77.4265 542.647 73.2715 562.035 68.4415L597.285 59.6595L597.27 55.0285C597.251 49.0115 594.848 38.9215 592.196 33.7235C588.976 27.4115 581.649 20.2165 575.411 17.2435C570.584 14.9415 568.293 14.5245 559.285 14.3055C553.51 14.1655 547.66 14.2655 546.285 14.5285ZM467.785 39.3015C455.702 43.1395 444.766 52.0835 439.929 62.0815L437.358 67.3975L437.322 58.1475C437.301 53.0595 437.042 48.8975 436.745 48.8975C435.535 48.8975 406.849 57.0005 406.373 57.4765C405.877 57.9725 406.213 152.135 406.713 152.65C406.848 152.79 415.019 150.7 424.872 148.007L442.785 143.109V116.753C442.785 92.7885 442.959 90.0475 444.702 86.5365C447.384 81.1335 454.363 76.3475 464.035 73.2795L472.285 70.6615V54.2795C472.285 45.2695 472.173 37.9275 472.035 37.9645C471.897 38.0015 469.985 38.6025 467.785 39.3015ZM538.523 40.9515C533.36 43.5765 527.27 50.2715 525.443 55.3305C524.705 57.3745 524.316 59.2625 524.579 59.5255C524.948 59.8935 558.718 52.0605 560.094 51.2875C560.94 50.8115 557.218 44.0985 554.947 42.0035C551.217 38.5655 544.112 38.1105 538.523 40.9515ZM366.285 66.8845L348.785 71.6225L349.115 99.0105C349.518 132.43 349.182 135.807 344.972 140.602C339.501 146.833 330.329 148.941 326.285 144.897C324.45 143.062 324.276 141.477 324.17 125.647C324.106 116.159 323.95 107.947 323.822 107.397C323.694 106.847 323.521 99.9585 323.437 92.0885C323.326 81.6605 322.976 77.9705 322.144 78.4845C321.517 78.8725 313.305 81.2695 303.894 83.8125L286.785 88.4365L287.039 123.917C287.311 161.804 287.757 165.801 292.517 172.961C299.524 183.504 319.683 183.55 335.913 173.06C343.039 168.454 347.335 163.523 351.304 155.397L354.234 149.397L354.259 158.264C354.285 166.96 354.328 167.12 356.535 166.546C357.773 166.224 364.983 164.258 372.558 162.178L386.331 158.397L386.096 123.397C385.797 78.7785 385.351 61.8655 384.479 62.0225C384.097 62.0915 375.91 64.2795 366.285 66.8845ZM234.285 72.0165C228.15 73.4205 170.584 88.7085 166.535 90.0085L163.285 91.0525V154.475C163.285 202.021 163.576 217.897 164.448 217.897C165.088 217.897 173.413 215.796 182.948 213.227L200.285 208.556L200.298 167.397L216.965 162.944C242.044 156.243 253.701 149.514 262.151 136.859C268.589 127.219 270.756 119.426 270.762 105.897C270.764 99.5375 270.206 92.5395 269.512 90.2405C267.48 83.5045 262.323 76.7555 257.214 74.1465C251.875 71.4195 241.219 70.4295 234.285 72.0165ZM210.785 105.715L200.785 108.486L200.508 123.268C200.237 137.689 200.28 138.033 202.245 137.41C203.353 137.058 208.097 135.715 212.786 134.424C223.99 131.342 228.103 129.111 232.035 123.981C236.452 118.22 236.636 111.441 232.503 106.814C228.597 102.443 223.518 102.186 210.785 105.715Z" fill="#FDD835"/>
<path fill-rule="evenodd" clip-rule="evenodd" d="M544.285 1.07656C523.427 5.54446 508.568 13.4905 495.785 27.0095C492.485 30.4995 489.464 33.2585 489.071 33.1385C488.678 33.0195 488.576 33.4925 488.843 34.1895C489.11 34.8855 488.757 36.2395 488.057 37.1965C487.001 38.6425 486.844 37.4055 487.134 29.9185C487.327 24.9575 487.247 20.8985 486.958 20.8985C486.148 20.8985 463.996 26.8515 429.285 36.3965C361.575 55.0175 339.755 61.0105 312.823 68.3855C297.444 72.5965 284.508 76.2605 284.077 76.5275C283.327 76.9905 269.88 63.9335 270.041 62.8985C270.083 62.6235 269.143 62.3265 267.952 62.2385C266.76 62.1495 263.31 61.3315 260.285 60.4195C256.003 59.1285 252.128 58.8645 242.785 59.2275C236.185 59.4835 229.435 60.1505 227.785 60.7095C226.135 61.2685 218.485 63.3865 210.785 65.4155C203.085 67.4455 187.335 71.7165 175.785 74.9075C164.235 78.0985 152.873 81.2195 150.535 81.8425L146.285 82.9755V161.437C146.285 234.895 146.394 239.898 148.001 239.898C149.659 239.898 202.896 225.347 212.535 222.259L217.285 220.737V180.377L228.535 176.931C246.194 171.523 254.381 167.008 263.903 157.422L272.022 149.251L272.54 160.324C273.385 178.376 278.592 188.677 289.757 194.388C295.243 197.193 296.363 197.393 306.214 197.33C316.499 197.264 317.503 197.043 343.285 189.179C366.522 182.09 394.243 174.153 437.066 162.327C443.821 160.462 451.814 158.219 454.828 157.343L460.308 155.75L459.785 96.4455L472.041 93.1215L474.235 101.428C479.835 122.624 494.839 134.87 519.007 137.97C538.586 140.481 567.886 132.563 583.583 120.52C586.221 118.495 588.82 117.11 589.357 117.443C589.895 117.775 590.211 117.61 590.06 117.075C589.909 116.541 591.873 113.671 594.424 110.696C604.545 98.8985 610.334 85.4035 612.334 68.9455C615.109 46.1035 609.038 25.3665 596.06 13.3505C586.024 4.05856 573.991 -0.17544 558.141 0.00555976C552.995 0.0645598 546.76 0.546559 544.285 1.07656ZM546.285 14.5285C530.152 17.6095 511.872 28.1505 502.777 39.6175C492.431 52.6615 487.841 66.9265 488.527 83.8975C489.08 97.5465 491.588 104.331 498.72 111.462C506.737 119.48 512.65 121.415 528.785 121.296C543.767 121.187 553.325 119.102 564.785 113.443C579.971 105.945 590.088 94.5775 594.771 79.7535C596.154 75.3755 597.285 71.6625 597.285 71.5005C597.285 71.3395 591.548 72.7375 584.535 74.6075C577.522 76.4775 569.639 78.4725 567.016 79.0395C563.435 79.8145 561.901 80.7355 560.861 82.7345C557.622 88.9575 550.606 92.9415 541.612 93.6635C533.507 94.3145 529.879 92.8005 526.865 87.5105C523.499 81.6025 522.876 78.2365 525.045 77.6745C526.002 77.4265 542.647 73.2715 562.035 68.4415L597.285 59.6595L597.27 55.0285C597.251 49.0115 594.848 38.9215 592.196 33.7235C588.976 27.4115 581.649 20.2165 575.411 17.2435C570.584 14.9415 568.293 14.5245 559.285 14.3055C553.51 14.1655 547.66 14.2655 546.285 14.5285ZM467.785 39.3015C455.702 43.1395 444.766 52.0835 439.929 62.0815L437.358 67.3975L437.322 58.1475C437.301 53.0595 437.042 48.8975 436.745 48.8975C435.535 48.8975 406.849 57.0005 406.373 57.4765C405.877 57.9725 406.213 152.135 406.713 152.65C406.848 152.79 415.019 150.7 424.872 148.007L442.785 143.109V116.753C442.785 92.7885 442.959 90.0475 444.702 86.5365C447.384 81.1335 454.363 76.3475 464.035 73.2795L472.285 70.6615V54.2795C472.285 45.2695 472.173 37.9275 472.035 37.9645C471.897 38.0015 469.985 38.6025 467.785 39.3015ZM538.523 40.9515C533.36 43.5765 527.27 50.2715 525.443 55.3305C524.705 57.3745 524.316 59.2625 524.579 59.5255C524.948 59.8935 558.718 52.0605 560.094 51.2875C560.94 50.8115 557.218 44.0985 554.947 42.0035C551.217 38.5655 544.112 38.1105 538.523 40.9515ZM366.285 66.8845L348.785 71.6225L349.115 99.0105C349.518 132.43 349.182 135.807 344.972 140.602C339.501 146.833 330.329 148.941 326.285 144.897C324.45 143.062 324.276 141.477 324.17 125.647C324.106 116.159 323.95 107.947 323.822 107.397C323.694 106.847 323.521 99.9585 323.437 92.0885C323.326 81.6605 322.976 77.9705 322.144 78.4845C321.517 78.8725 313.305 81.2695 303.894 83.8125L286.785 88.4365L287.039 123.917C287.311 161.804 287.757 165.801 292.517 172.961C299.524 183.504 319.683 183.55 335.913 173.06C343.039 168.454 347.335 163.523 351.304 155.397L354.234 149.397L354.259 158.264C354.285 166.96 354.328 167.12 356.535 166.546C357.773 166.224 364.983 164.258 372.558 162.178L386.331 158.397L386.096 123.397C385.797 78.7785 385.351 61.8655 384.479 62.0225C384.097 62.0915 375.91 64.2795 366.285 66.8845ZM234.285 72.0165C228.15 73.4205 170.584 88.7085 166.535 90.0085L163.285 91.0525V154.475C163.285 202.021 163.576 217.897 164.448 217.897C165.088 217.897 173.413 215.796 182.948 213.227L200.285 208.556L200.298 167.397L216.965 162.944C242.044 156.243 253.701 149.514 262.151 136.859C268.589 127.219 270.756 119.426 270.762 105.897C270.764 99.5375 270.206 92.5395 269.512 90.2405C267.48 83.5045 262.323 76.7555 257.214 74.1465C251.875 71.4195 241.219 70.4295 234.285 72.0165ZM210.785 105.715L200.785 108.486L200.508 123.268C200.237 137.689 200.28 138.033 202.245 137.41C203.353 137.058 208.097 135.715 212.786 134.424C223.99 131.342 228.103 129.111 232.035 123.981C236.452 118.22 236.636 111.441 232.503 106.814C228.597 102.443 223.518 102.186 210.785 105.715ZM670.285 109.86C656.229 112.872 448.305 169.731 353.785 196.41C332.885 202.309 304.085 210.412 289.785 214.415L263.785 221.694L264.077 228.046C264.238 231.54 264.764 235.86 265.246 237.648C266.275 241.458 266.025 241.561 262.253 238.875C260.691 237.763 256.363 235.426 252.636 233.681C246.597 230.856 244.647 230.464 234.719 230.084C213.725 229.28 186.869 237.297 168.254 249.924C161.013 254.835 151.523 265.09 147.882 271.938C146.285 274.941 144.842 277.566 144.675 277.771C144.508 277.976 142.281 276.304 139.726 274.055C133.107 268.228 125.821 265.681 114.21 265.132C102.006 264.555 98.4852 265.295 51.462 278.32C30.739 284.06 10.683 289.534 6.893 290.484L0 292.213L0.636997 333.805C0.986997 356.681 1.567 412.42 1.925 457.669C2.518 532.511 2.721 539.898 4.181 539.472C5.063 539.214 8.71 538.275 12.285 537.384C20.322 535.382 83.6222 518.162 87.8972 516.815L91.0082 515.834L90.0422 423.398L100.795 420.015C114.792 415.611 123.984 410.94 130.664 404.834C133.635 402.119 136.34 399.898 136.675 399.898C137.011 399.898 137.285 406.997 137.285 415.674C137.285 447.059 141.22 462.936 151.96 474.881C162.251 486.328 171.823 490.224 189.785 490.277C202.993 490.317 212.554 488.677 228.285 483.676C262.158 472.907 279.042 455.072 285.977 422.735C287.377 416.206 287.767 409.745 287.775 392.948C287.781 380.713 288.094 373.41 288.505 375.948C288.901 378.396 290.153 387.079 291.287 395.245C293.44 410.758 302.033 457.98 302.851 458.798C303.266 459.212 375.219 440.081 376.145 439.311C376.344 439.146 376.823 434.598 377.21 429.204C377.975 418.552 378.169 418.602 380.872 430.152C382.417 436.748 382.954 437.82 384.477 437.337C385.462 437.025 396.959 433.879 410.026 430.348C423.093 426.816 436.26 423.243 439.285 422.409C442.31 421.574 448.61 419.865 453.285 418.61L461.785 416.329L462.949 400.364C464.445 379.841 466.861 349.973 468.77 328.398C469.598 319.048 470.362 310.273 470.468 308.898C470.575 307.523 470.915 330.099 471.225 359.066C471.535 388.034 472.093 412.039 472.464 412.411C473.125 413.071 578.506 384.27 711.592 347.055L735.398 340.398L735.315 300.898C735.19 241.849 734.058 233.337 725.119 224.229L720.903 219.933L722.984 217.666C725.794 214.603 729.712 206.599 731.947 199.355C734.57 190.854 734.606 154.577 732.001 144.898C724.176 115.827 701.78 103.112 670.285 109.86ZM657.285 128.781C647.11 131.433 629.56 135.994 618.285 138.918C607.01 141.841 597.413 144.552 596.957 144.943C596.502 145.334 596.459 194.555 596.86 254.322L597.591 362.991L600.688 362.313C602.391 361.94 614.36 358.649 627.285 355L650.785 348.365L649.982 247.21L653.258 246.554C661.908 244.824 665.724 246.219 667.236 251.661C667.88 253.981 668.276 271.995 668.279 299.149C668.283 329.749 668.609 342.899 669.363 342.899C670.58 342.899 718.585 329.933 719.035 329.482C719.195 329.322 718.932 309.663 718.451 285.795C717.69 248.041 717.35 241.879 715.838 238.399C712.284 230.223 705.331 225.332 695.518 224.107L689.832 223.396L696.414 220.156C704.82 216.018 711.281 209.198 714.209 201.372C717.213 193.344 718.547 176.23 717.306 161.649C715.82 144.19 713.418 137.827 705.771 131.096C695.591 122.135 684.764 121.618 657.285 128.781ZM566.285 153.154C560.51 154.692 541.61 159.737 524.285 164.364C506.96 168.992 490.913 173.262 488.625 173.853L484.465 174.928L484.884 254.163C485.393 350.524 485.891 392.838 486.522 393.469C486.784 393.731 497.75 390.979 510.891 387.354C532.696 381.34 575.299 369.495 579.535 368.27C581.139 367.806 581.285 365.762 581.285 343.764C581.285 321.363 581.168 319.801 579.535 320.318C575.135 321.71 540.185 330.899 539.29 330.899C538.645 330.899 538.285 322.491 538.285 307.427V283.955L543.535 282.494C550.571 280.536 575.318 273.899 575.578 273.9C575.905 273.902 575.166 232.447 574.834 232.114C574.67 231.95 566.563 233.893 556.818 236.432C547.074 238.971 538.963 240.902 538.794 240.724C538.625 240.545 538.328 232.11 538.136 221.979L537.785 203.559L557.201 198.23C567.88 195.298 576.777 192.741 576.972 192.546C577.166 192.351 577.204 182.779 577.055 171.275L576.785 150.357L566.285 153.154ZM652.285 162.793L649.785 163.488L649.251 214.946L652.018 214.28C665.809 210.965 667.442 208.585 668.082 190.878C668.683 174.236 667.817 167.34 664.742 164.265C662.302 161.826 657.716 161.284 652.285 162.793ZM443.785 185.956L418.785 192.626L418.135 202.512C416.999 219.785 414.185 274.416 412.964 302.899L411.785 330.399L407.017 294.399C398.302 228.609 394.482 200.763 394.122 200.402C393.925 200.206 383.419 202.852 370.775 206.281L347.785 212.517L346.616 230.958C344.607 262.656 342.264 307.612 341.603 327.157C341.254 337.474 340.721 345.669 340.42 345.367C340.119 345.066 339.543 341.575 339.14 337.609C338.737 333.644 337.493 323.649 336.375 315.399C335.257 307.149 332.077 282.434 329.308 260.477C326.539 238.52 324.164 220.447 324.03 220.315C323.895 220.184 314.11 222.721 302.285 225.955C290.46 229.188 279.997 231.848 279.035 231.866C278.073 231.884 277.285 232.604 277.285 233.466C277.285 239.472 310.552 439.5 311.751 440.698C312.114 441.061 362.17 427.347 362.808 426.709C362.996 426.521 365.21 401.624 367.727 371.383C372.768 310.821 372.678 311.716 373.493 313.899C373.801 314.724 378.6 338.531 384.157 366.804C389.715 395.077 394.435 418.383 394.647 418.594C395.212 419.159 445.46 405.146 446.255 404.202C446.627 403.76 448.846 383.824 451.188 359.899C453.529 335.974 456.754 303.574 458.356 287.899C463.227 240.209 469.17 179.445 468.972 179.363C468.869 179.32 457.535 182.287 443.785 185.956ZM218.785 245.974C210.177 247.421 196.126 251.877 187.664 255.843C165.42 266.267 153.88 281.48 151.411 303.637C150.624 310.693 152.058 384.144 153.788 425.399C154.985 453.948 159.721 464.948 173.827 471.941C178.366 474.191 179.884 474.391 191.785 474.304C202.352 474.228 206.579 473.731 214.37 471.654C247.017 462.948 262.951 449.656 269.817 425.399C272.177 417.059 272.856 371.837 271.354 322.96C270.102 282.216 269.445 275.075 266.137 266.232C262.848 257.442 254.718 249.731 245.854 246.993C238.67 244.774 228.25 244.382 218.785 245.974ZM206.016 279.896C201.788 283.222 201.229 287.338 201.811 310.899C202.102 322.724 202.79 354.112 203.339 380.649C204.41 432.47 204.703 435.166 209.537 437.863C212.072 439.278 212.586 439.241 216.037 437.399C218.28 436.202 220.506 433.924 221.581 431.725C223.28 428.25 223.317 425.597 222.267 382.725C219.727 279.048 219.965 284.288 217.662 281.191C214.936 277.524 209.762 276.949 206.016 279.896ZM103.785 279.894C97.1302 280.938 89.9712 282.727 63.7852 289.889C51.6855 293.199 36.0544 297.367 29.0504 299.153L16.3145 302.399L16.3225 332.399C16.3305 367.194 18.1265 520.073 18.5305 520.478C18.6815 520.628 31.3445 517.297 46.6715 513.075L74.5392 505.399L73.7852 411.646L88.9002 407.351C120.311 398.427 132.998 388.07 137.228 367.899C138.95 359.691 139.693 324.233 138.42 311.031C137.311 299.531 134.574 291.09 130.488 286.568C125.682 281.249 113.908 278.306 103.785 279.894ZM567.285 292.379L554.785 295.682L554.494 304.412C554.246 311.871 554.424 313.059 555.717 312.563C557.396 311.918 580.066 305.898 580.813 305.898C581.073 305.898 581.285 302.073 581.285 297.398C581.285 292.723 580.948 288.938 580.535 288.987C580.122 289.036 574.16 290.563 567.285 292.379ZM77.5352 316.065L73.2852 317.017V371.058L76.5352 370.399C82.5372 369.183 88.6762 365.53 90.7212 361.959C92.3692 359.081 92.7602 356.107 93.1102 343.766C93.6182 325.872 92.9312 320.455 89.7502 317.273C87.2022 314.725 84.6462 314.472 77.5352 316.065Z" fill="#063393"/>
</svg>
