<svg width="821" height="691" viewBox="0 0 821 691" fill="none" xmlns="http://www.w3.org/2000/svg">
<path fill-rule="evenodd" clip-rule="evenodd" d="M701 223.883C690.825 226.535 673.275 231.096 662 234.02C650.725 236.943 641.128 239.654 640.672 240.045C640.217 240.436 640.174 289.657 640.575 349.424L641.306 458.093L644.403 457.415C646.106 457.042 658.075 453.751 671 450.102L694.5 443.467L693.697 342.312L696.973 341.656C705.623 339.926 709.439 341.321 710.951 346.763C711.595 349.083 711.991 367.097 711.994 394.251C711.998 424.851 712.324 438.001 713.078 438.001C714.295 438.001 762.3 425.035 762.75 424.584C762.91 424.424 762.647 404.765 762.166 380.897C761.405 343.143 761.065 336.981 759.553 333.501C755.999 325.325 749.046 320.434 739.233 319.209L733.547 318.498L740.129 315.258C748.535 311.12 754.996 304.3 757.924 296.474C760.928 288.446 762.262 271.332 761.021 256.751C759.535 239.292 757.133 232.929 749.486 226.198C739.306 217.237 728.479 216.72 701 223.883ZM610 248.256C604.225 249.794 585.325 254.839 568 259.466C550.675 264.094 534.628 268.364 532.34 268.955L528.18 270.03L528.599 349.265C529.108 445.626 529.606 487.94 530.237 488.571C530.499 488.833 541.465 486.081 554.606 482.456C576.411 476.442 619.014 464.597 623.25 463.372C624.854 462.908 625 460.864 625 438.866C625 416.465 624.883 414.903 623.25 415.42C618.85 416.812 583.9 426.001 583.005 426.001C582.36 426.001 582 417.593 582 402.529V379.057L587.25 377.596C594.286 375.638 619.033 369.001 619.293 369.002C619.62 369.004 618.881 327.549 618.549 327.216C618.385 327.052 610.278 328.995 600.533 331.534C590.789 334.073 582.678 336.004 582.509 335.826C582.34 335.647 582.043 327.212 581.851 317.081L581.5 298.661L600.916 293.332C611.595 290.4 620.492 287.843 620.687 287.648C620.881 287.453 620.919 277.881 620.77 266.377L620.5 245.459L610 248.256ZM696 257.895L693.5 258.59L692.966 310.048L695.733 309.382C709.524 306.067 711.157 303.687 711.797 285.98C712.398 269.338 711.532 262.442 708.457 259.367C706.017 256.928 701.431 256.386 696 257.895ZM487.5 281.058L462.5 287.728L461.85 297.614C460.714 314.887 457.9 369.518 456.679 398.001L455.5 425.501L450.732 389.501C442.017 323.711 438.197 295.865 437.837 295.504C437.64 295.308 427.134 297.954 414.49 301.383L391.5 307.619L390.331 326.06C388.322 357.758 385.979 402.714 385.318 422.259C384.969 432.576 384.436 440.771 384.135 440.469C383.834 440.168 383.258 436.677 382.855 432.711C382.452 428.746 381.208 418.751 380.09 410.501C378.972 402.251 375.792 377.536 373.023 355.579C370.254 333.622 367.879 315.549 367.745 315.417C367.61 315.286 357.825 317.823 346 321.057C334.175 324.29 323.712 326.95 322.75 326.968C321.788 326.986 321 327.706 321 328.568C321 334.574 354.267 534.602 355.466 535.8C355.829 536.163 405.885 522.449 406.523 521.811C406.711 521.623 408.925 496.726 411.442 466.485C416.483 405.923 416.393 406.818 417.208 409.001C417.516 409.826 422.315 433.633 427.872 461.906C433.43 490.179 438.15 513.485 438.362 513.696C438.927 514.261 489.175 500.248 489.97 499.304C490.342 498.862 492.561 478.926 494.903 455.001C497.244 431.076 500.469 398.676 502.071 383.001C506.942 335.311 512.885 274.547 512.687 274.465C512.584 274.422 501.25 277.389 487.5 281.058ZM262.5 341.076C253.892 342.523 239.841 346.979 231.379 350.945C209.135 361.369 197.595 376.582 195.126 398.739C194.339 405.795 195.773 479.246 197.503 520.501C198.7 549.05 203.436 560.05 217.542 567.043C222.081 569.293 223.599 569.493 235.5 569.406C246.067 569.33 250.294 568.833 258.085 566.756C290.732 558.05 306.666 544.758 313.532 520.501C315.892 512.161 316.571 466.939 315.069 418.062C313.817 377.318 313.16 370.177 309.852 361.334C306.563 352.544 298.433 344.833 289.569 342.095C282.385 339.876 271.965 339.484 262.5 341.076ZM249.731 374.998C245.503 378.324 244.944 382.44 245.526 406.001C245.817 417.826 246.505 449.214 247.054 475.751C248.125 527.572 248.418 530.268 253.252 532.965C255.787 534.38 256.301 534.343 259.752 532.501C261.995 531.304 264.221 529.026 265.296 526.827C266.995 523.352 267.032 520.699 265.982 477.827C263.442 374.15 263.68 379.39 261.377 376.293C258.651 372.626 253.477 372.051 249.731 374.998ZM147.5 374.996C140.845 376.04 133.686 377.829 107.5 384.991C95.4003 388.301 79.7693 392.469 72.7653 394.255L60.0293 397.501L60.0373 427.501C60.0453 462.296 61.8413 615.175 62.2453 615.58C62.3963 615.73 75.0593 612.399 90.3863 608.177L118.254 600.501L117.5 506.748L132.615 502.453C164.026 493.529 176.713 483.172 180.943 463.001C182.665 454.793 183.408 419.335 182.135 406.133C181.026 394.633 178.289 386.192 174.203 381.67C169.397 376.351 157.623 373.408 147.5 374.996ZM121.25 411.167L117 412.119V466.16L120.25 465.501C126.252 464.285 132.391 460.632 134.436 457.061C136.084 454.183 136.475 451.209 136.825 438.868C137.333 420.974 136.646 415.557 133.465 412.375C130.917 409.827 128.361 409.574 121.25 411.167Z" fill="white"/>
<path fill-rule="evenodd" clip-rule="evenodd" d="M590 109.63C573.867 112.711 555.587 123.252 546.492 134.719C536.146 147.763 531.556 162.028 532.242 178.999C532.795 192.648 535.303 199.433 542.435 206.564C550.452 214.582 556.365 216.516 572.5 216.397C587.482 216.288 597.04 214.203 608.5 208.544C623.686 201.046 633.803 189.679 638.486 174.855C639.869 170.477 641 166.764 641 166.602C641 166.441 635.263 167.839 628.25 169.709C621.237 171.579 613.354 173.574 610.731 174.141C607.15 174.916 605.616 175.837 604.576 177.836C601.337 184.059 594.321 188.043 585.327 188.765C577.222 189.416 573.594 187.902 570.58 182.612C567.214 176.704 566.591 173.338 568.76 172.776C569.717 172.528 586.362 168.373 605.75 163.543L641 154.761L640.985 150.13C640.966 144.113 638.563 134.023 635.911 128.825C632.691 122.513 625.364 115.318 619.126 112.345C614.299 110.043 612.008 109.626 603 109.407C597.225 109.267 591.375 109.367 590 109.63ZM511.5 134.403C499.417 138.241 488.481 147.185 483.644 157.183L481.073 162.499L481.037 153.249C481.016 148.161 480.757 143.999 480.46 143.999C479.25 143.999 450.564 152.102 450.088 152.578C449.592 153.074 449.928 247.237 450.428 247.752C450.563 247.892 458.734 245.802 468.587 243.109L486.5 238.211V211.855C486.5 187.89 486.674 185.149 488.417 181.638C491.099 176.235 498.078 171.449 507.75 168.381L516 165.763V149.381C516 140.371 515.888 133.029 515.75 133.066C515.612 133.103 513.7 133.704 511.5 134.403ZM582.238 136.053C577.075 138.678 570.985 145.373 569.158 150.432C568.42 152.476 568.031 154.364 568.294 154.627C568.663 154.995 602.433 147.162 603.809 146.389C604.655 145.913 600.933 139.2 598.662 137.105C594.932 133.667 587.827 133.212 582.238 136.053ZM410 161.986L392.5 166.724L392.83 194.112C393.233 227.532 392.897 230.908 388.687 235.703C383.216 241.934 374.044 244.043 370 239.999C368.165 238.164 367.991 236.579 367.885 220.749C367.821 211.261 367.665 203.049 367.537 202.499C367.409 201.949 367.236 195.06 367.152 187.19C367.041 176.762 366.691 173.072 365.859 173.586C365.232 173.974 357.02 176.371 347.609 178.914L330.5 183.538L330.754 219.018C331.026 256.905 331.472 260.902 336.232 268.062C343.239 278.605 363.398 278.651 379.628 268.161C386.754 263.555 391.05 258.625 395.019 250.499L397.949 244.499L397.974 253.366C398 262.062 398.043 262.221 400.25 261.647C401.488 261.325 408.698 259.36 416.273 257.28L430.046 253.499L429.811 218.499C429.512 173.88 429.066 156.967 428.194 157.124C427.812 157.193 419.625 159.381 410 161.986ZM278 167.118C271.865 168.522 214.299 183.81 210.25 185.11L207 186.154V249.577C207 297.123 207.291 312.999 208.163 312.999C208.803 312.999 217.128 310.897 226.663 308.328L244 303.657L244.013 262.499L260.68 258.046C285.759 251.345 297.416 244.616 305.866 231.961C312.304 222.321 314.471 214.528 314.477 200.999C314.479 194.639 313.921 187.641 313.227 185.342C311.195 178.606 306.038 171.857 300.929 169.248C295.59 166.521 284.934 165.531 278 167.118ZM254.5 200.817L244.5 203.588L244.223 218.37C243.952 232.791 243.995 233.135 245.96 232.512C247.068 232.16 251.812 230.817 256.501 229.526C267.705 226.444 271.818 224.213 275.75 219.083C280.167 213.322 280.351 206.543 276.218 201.916C272.312 197.545 267.233 197.288 254.5 200.817Z" fill="#FDD835"/>
<path fill-rule="evenodd" clip-rule="evenodd" d="M588 96.1781C567.142 100.646 552.283 108.592 539.5 122.111C536.2 125.601 533.179 128.36 532.786 128.24C532.393 128.121 532.291 128.594 532.558 129.291C532.825 129.987 532.472 131.341 531.772 132.298C530.716 133.744 530.559 132.507 530.849 125.02C531.042 120.059 530.962 116 530.673 116C529.863 116 507.711 121.953 473 131.498C405.29 150.119 383.47 156.112 356.538 163.487C341.159 167.698 328.223 171.362 327.792 171.629C327.042 172.092 313.595 159.035 313.756 158C313.798 157.725 312.858 157.428 311.667 157.34C310.475 157.251 307.025 156.433 304 155.521C299.718 154.23 295.843 153.966 286.5 154.329C279.9 154.585 273.15 155.252 271.5 155.811C269.85 156.37 262.2 158.488 254.5 160.517C246.8 162.547 231.05 166.818 219.5 170.009C207.95 173.2 196.588 176.321 194.25 176.944L190 178.077V256.539C190 329.997 190.109 335 191.716 335C193.374 335 246.611 320.449 256.25 317.361L261 315.839V275.479L272.25 272.033C289.909 266.625 298.096 262.11 307.618 252.524L315.737 244.353L316.255 255.426C317.1 273.478 322.307 283.779 333.472 289.49C338.958 292.295 340.078 292.495 349.929 292.432C360.214 292.366 361.218 292.145 387 284.281C410.237 277.192 437.958 269.255 480.781 257.429C487.536 255.564 495.529 253.321 498.543 252.445L504.023 250.852L503.5 191.547L515.756 188.223L517.95 196.53C523.55 217.726 538.554 229.972 562.722 233.072C582.301 235.583 611.601 227.665 627.298 215.622C629.936 213.597 632.535 212.212 633.072 212.545C633.61 212.877 633.926 212.712 633.775 212.177C633.624 211.643 635.588 208.773 638.139 205.798C648.26 194 654.049 180.505 656.049 164.047C658.824 141.205 652.753 120.468 639.775 108.452C629.739 99.1601 617.706 94.9261 601.856 95.1071C596.71 95.1661 590.475 95.6481 588 96.1781ZM590 109.631C573.867 112.712 555.587 123.253 546.492 134.72C536.146 147.764 531.556 162.029 532.242 179C532.795 192.649 535.303 199.434 542.435 206.565C550.452 214.583 556.365 216.517 572.5 216.398C587.482 216.289 597.04 214.204 608.5 208.545C623.686 201.047 633.803 189.68 638.486 174.856C639.869 170.478 641 166.765 641 166.603C641 166.442 635.263 167.84 628.25 169.71C621.237 171.58 613.354 173.575 610.731 174.142C607.15 174.917 605.616 175.838 604.576 177.837C601.337 184.06 594.321 188.044 585.327 188.766C577.222 189.417 573.594 187.903 570.58 182.613C567.214 176.705 566.591 173.339 568.76 172.777C569.717 172.529 586.362 168.374 605.75 163.544L641 154.762L640.985 150.131C640.966 144.114 638.563 134.024 635.911 128.826C632.691 122.514 625.364 115.319 619.126 112.346C614.299 110.044 612.008 109.627 603 109.408C597.225 109.268 591.375 109.368 590 109.631ZM511.5 134.404C499.417 138.242 488.481 147.186 483.644 157.184L481.073 162.5L481.037 153.25C481.016 148.162 480.757 144 480.46 144C479.25 144 450.564 152.103 450.088 152.579C449.592 153.075 449.928 247.238 450.428 247.753C450.563 247.893 458.734 245.803 468.587 243.11L486.5 238.212V211.856C486.5 187.891 486.674 185.15 488.417 181.639C491.099 176.236 498.078 171.45 507.75 168.382L516 165.764V149.382C516 140.372 515.888 133.03 515.75 133.067C515.612 133.104 513.7 133.705 511.5 134.404ZM582.238 136.054C577.075 138.679 570.985 145.374 569.158 150.433C568.42 152.477 568.031 154.365 568.294 154.628C568.663 154.996 602.433 147.163 603.809 146.39C604.655 145.914 600.933 139.201 598.662 137.106C594.932 133.668 587.827 133.213 582.238 136.054ZM410 161.987L392.5 166.725L392.83 194.113C393.233 227.533 392.897 230.909 388.687 235.704C383.216 241.935 374.044 244.044 370 240C368.165 238.165 367.991 236.58 367.885 220.75C367.821 211.262 367.665 203.05 367.537 202.5C367.409 201.95 367.236 195.061 367.152 187.191C367.041 176.763 366.691 173.073 365.859 173.587C365.232 173.975 357.02 176.372 347.609 178.915L330.5 183.539L330.754 219.019C331.026 256.906 331.472 260.903 336.232 268.063C343.239 278.606 363.398 278.652 379.628 268.162C386.754 263.556 391.05 258.626 395.019 250.5L397.949 244.5L397.974 253.367C398 262.063 398.043 262.222 400.25 261.648C401.488 261.326 408.698 259.361 416.273 257.281L430.046 253.5L429.811 218.5C429.512 173.881 429.066 156.968 428.194 157.125C427.812 157.194 419.625 159.382 410 161.987ZM278 167.119C271.865 168.523 214.299 183.811 210.25 185.111L207 186.155V249.578C207 297.124 207.291 313 208.163 313C208.803 313 217.128 310.898 226.663 308.329L244 303.658L244.013 262.5L260.68 258.047C285.759 251.346 297.416 244.617 305.866 231.962C312.304 222.322 314.471 214.529 314.477 201C314.479 194.64 313.921 187.642 313.227 185.343C311.195 178.607 306.038 171.858 300.929 169.249C295.59 166.522 284.934 165.532 278 167.119ZM254.5 200.818L244.5 203.589L244.223 218.371C243.952 232.792 243.995 233.136 245.96 232.513C247.068 232.161 251.812 230.818 256.501 229.527C267.705 226.445 271.818 224.214 275.75 219.084C280.167 213.323 280.351 206.544 276.218 201.917C272.312 197.546 267.233 197.289 254.5 200.818ZM714 204.962C699.944 207.974 492.02 264.833 397.5 291.512C376.6 297.411 347.8 305.514 333.5 309.517L307.5 316.796L307.792 323.148C307.953 326.642 308.479 330.962 308.961 332.75C309.99 336.56 309.74 336.663 305.968 333.977C304.406 332.865 300.078 330.528 296.351 328.783C290.312 325.958 288.362 325.566 278.434 325.186C257.44 324.382 230.584 332.399 211.969 345.026C204.728 349.937 195.238 360.192 191.597 367.04C190 370.043 188.557 372.668 188.39 372.873C188.223 373.078 185.996 371.406 183.441 369.157C176.822 363.33 169.536 360.783 157.925 360.234C145.721 359.657 142.2 360.397 95.1768 373.422C74.4538 379.162 54.3978 384.636 50.6078 385.586L43.7148 387.315L44.3518 428.907C44.7018 451.783 45.2818 507.522 45.6398 552.771C46.2328 627.613 46.4358 635 47.8958 634.574C48.7778 634.316 52.4248 633.377 55.9998 632.486C64.0368 630.484 127.337 613.264 131.612 611.917L134.723 610.936L133.757 518.5L144.51 515.117C158.507 510.713 167.699 506.042 174.379 499.936C177.35 497.221 180.055 495 180.39 495C180.726 495 181 502.099 181 510.776C181 542.161 184.935 558.038 195.675 569.983C205.966 581.43 215.538 585.326 233.5 585.379C246.708 585.419 256.269 583.779 272 578.778C305.873 568.009 322.757 550.174 329.692 517.837C331.092 511.308 331.482 504.847 331.49 488.05C331.496 475.815 331.809 468.512 332.22 471.05C332.616 473.498 333.868 482.181 335.002 490.347C337.155 505.86 345.748 553.082 346.566 553.9C346.981 554.314 418.934 535.183 419.86 534.413C420.059 534.248 420.538 529.7 420.925 524.306C421.69 513.654 421.884 513.704 424.587 525.254C426.132 531.85 426.669 532.922 428.192 532.439C429.177 532.127 440.674 528.981 453.741 525.45C466.808 521.918 479.975 518.345 483 517.511C486.025 516.676 492.325 514.967 497 513.712L505.5 511.431L506.664 495.466C508.16 474.943 510.576 445.075 512.485 423.5C513.313 414.15 514.077 405.375 514.183 404C514.29 402.625 514.63 425.201 514.94 454.168C515.25 483.136 515.808 507.141 516.179 507.513C516.84 508.173 622.221 479.372 755.307 442.157L779.113 435.5L779.03 396C778.905 336.951 777.773 328.439 768.834 319.331L764.618 315.035L766.699 312.768C769.509 309.705 773.427 301.701 775.662 294.457C778.285 285.956 778.321 249.679 775.716 240C767.891 210.929 745.495 198.214 714 204.962ZM701 223.883C690.825 226.535 673.275 231.096 662 234.02C650.725 236.943 641.128 239.654 640.672 240.045C640.217 240.436 640.174 289.657 640.575 349.424L641.306 458.093L644.403 457.415C646.106 457.042 658.075 453.751 671 450.102L694.5 443.467L693.697 342.312L696.973 341.656C705.623 339.926 709.439 341.321 710.951 346.763C711.595 349.083 711.991 367.097 711.994 394.251C711.998 424.851 712.324 438.001 713.078 438.001C714.295 438.001 762.3 425.035 762.75 424.584C762.91 424.424 762.647 404.765 762.166 380.897C761.405 343.143 761.065 336.981 759.553 333.501C755.999 325.325 749.046 320.434 739.233 319.209L733.547 318.498L740.129 315.258C748.535 311.12 754.996 304.3 757.924 296.474C760.928 288.446 762.262 271.332 761.021 256.751C759.535 239.292 757.133 232.929 749.486 226.198C739.306 217.237 728.479 216.72 701 223.883ZM610 248.256C604.225 249.794 585.325 254.839 568 259.466C550.675 264.094 534.628 268.364 532.34 268.955L528.18 270.03L528.599 349.265C529.108 445.626 529.606 487.94 530.237 488.571C530.499 488.833 541.465 486.081 554.606 482.456C576.411 476.442 619.014 464.597 623.25 463.372C624.854 462.908 625 460.864 625 438.866C625 416.465 624.883 414.903 623.25 415.42C618.85 416.812 583.9 426.001 583.005 426.001C582.36 426.001 582 417.593 582 402.529V379.057L587.25 377.596C594.286 375.638 619.033 369.001 619.293 369.002C619.62 369.004 618.881 327.549 618.549 327.216C618.385 327.052 610.278 328.995 600.533 331.534C590.789 334.073 582.678 336.004 582.509 335.826C582.34 335.647 582.043 327.212 581.851 317.081L581.5 298.661L600.916 293.332C611.595 290.4 620.492 287.843 620.687 287.648C620.881 287.453 620.919 277.881 620.77 266.377L620.5 245.459L610 248.256ZM696 257.895L693.5 258.59L692.966 310.048L695.733 309.382C709.524 306.067 711.157 303.687 711.797 285.98C712.398 269.338 711.532 262.442 708.457 259.367C706.017 256.928 701.431 256.386 696 257.895ZM487.5 281.058L462.5 287.728L461.85 297.614C460.714 314.887 457.9 369.518 456.679 398.001L455.5 425.501L450.732 389.501C442.017 323.711 438.197 295.865 437.837 295.504C437.64 295.308 427.134 297.954 414.49 301.383L391.5 307.619L390.331 326.06C388.322 357.758 385.979 402.714 385.318 422.259C384.969 432.576 384.436 440.771 384.135 440.469C383.834 440.168 383.258 436.677 382.855 432.711C382.452 428.746 381.208 418.751 380.09 410.501C378.972 402.251 375.792 377.536 373.023 355.579C370.254 333.622 367.879 315.549 367.745 315.417C367.61 315.286 357.825 317.823 346 321.057C334.175 324.29 323.712 326.95 322.75 326.968C321.788 326.986 321 327.706 321 328.568C321 334.574 354.267 534.602 355.466 535.8C355.829 536.163 405.885 522.449 406.523 521.811C406.711 521.623 408.925 496.726 411.442 466.485C416.483 405.923 416.393 406.818 417.208 409.001C417.516 409.826 422.315 433.633 427.872 461.906C433.43 490.179 438.15 513.485 438.362 513.696C438.927 514.261 489.175 500.248 489.97 499.304C490.342 498.862 492.561 478.926 494.903 455.001C497.244 431.076 500.469 398.676 502.071 383.001C506.942 335.311 512.885 274.547 512.687 274.465C512.584 274.422 501.25 277.389 487.5 281.058ZM262.5 341.076C253.892 342.523 239.841 346.979 231.379 350.945C209.135 361.369 197.595 376.582 195.126 398.739C194.339 405.795 195.773 479.246 197.503 520.501C198.7 549.05 203.436 560.05 217.542 567.043C222.081 569.293 223.599 569.493 235.5 569.406C246.067 569.33 250.294 568.833 258.085 566.756C290.732 558.05 306.666 544.758 313.532 520.501C315.892 512.161 316.571 466.939 315.069 418.062C313.817 377.318 313.16 370.177 309.852 361.334C306.563 352.544 298.433 344.833 289.569 342.095C282.385 339.876 271.965 339.484 262.5 341.076ZM249.731 374.998C245.503 378.324 244.944 382.44 245.526 406.001C245.817 417.826 246.505 449.214 247.054 475.751C248.125 527.572 248.418 530.268 253.252 532.965C255.787 534.38 256.301 534.343 259.752 532.501C261.995 531.304 264.221 529.026 265.296 526.827C266.995 523.352 267.032 520.699 265.982 477.827C263.442 374.15 263.68 379.39 261.377 376.293C258.651 372.626 253.477 372.051 249.731 374.998ZM147.5 374.996C140.845 376.04 133.686 377.829 107.5 384.991C95.4003 388.301 79.7693 392.469 72.7653 394.255L60.0293 397.501L60.0373 427.501C60.0453 462.296 61.8413 615.175 62.2453 615.58C62.3963 615.73 75.0593 612.399 90.3863 608.177L118.254 600.501L117.5 506.748L132.615 502.453C164.026 493.529 176.713 483.172 180.943 463.001C182.665 454.793 183.408 419.335 182.135 406.133C181.026 394.633 178.289 386.192 174.203 381.67C169.397 376.351 157.623 373.408 147.5 374.996ZM611 387.481L598.5 390.784L598.209 399.514C597.961 406.973 598.139 408.161 599.432 407.665C601.111 407.02 623.781 401 624.528 401C624.788 401 625 397.175 625 392.5C625 387.825 624.663 384.04 624.25 384.089C623.837 384.138 617.875 385.665 611 387.481ZM121.25 411.167L117 412.119V466.16L120.25 465.501C126.252 464.285 132.391 460.632 134.436 457.061C136.084 454.183 136.475 451.209 136.825 438.868C137.333 420.974 136.646 415.557 133.465 412.375C130.917 409.827 128.361 409.574 121.25 411.167Z" fill="#063393"/>
</svg>
