<svg width="125" height="80" viewBox="0 0 125 80" fill="none" xmlns="http://www.w3.org/2000/svg">
<path fill-rule="evenodd" clip-rule="evenodd" d="M92.7025 0.112817C90.0129 0.463913 86.7837 1.90717 85.1253 3.49941L84.6708 3.93576L84.3607 3.45888C84.1902 3.19661 83.8659 2.858 83.6401 2.70635C82.5602 1.98096 79.8688 2.31702 77.9122 3.42128C77.4155 3.70165 77.0713 3.8022 76.608 3.8022C76.2619 3.8022 75.702 3.85981 75.3637 3.93015C75.0255 4.0005 73.5446 4.29145 72.0728 4.57666C69.1127 5.15039 68.5395 5.3757 68.1145 6.13346C67.8738 6.56255 67.825 6.59339 67.674 6.41141C67.1558 5.78695 66.0295 5.6864 64.0059 6.08376C63.3267 6.21719 61.9394 6.48405 60.9232 6.67674C58.3841 7.15821 58.2161 7.20306 57.738 7.52956C57.3805 7.77361 56.9858 8.32173 56.8009 8.83086C56.7746 8.90375 56.6297 8.81034 56.4793 8.62313C56.0744 8.1191 55.2051 7.8279 54.3919 7.92387C54.0244 7.9672 52.1756 8.29471 50.2833 8.6518C47.2892 9.21674 46.776 9.34801 46.3273 9.66316L45.8116 10.0253L45.5112 9.45863C44.8158 8.14778 42.9131 6.82623 41.1324 6.4174C39.0672 5.94319 37.8021 6.01915 33.6545 6.86586C32.2879 7.14483 29.6697 7.67702 27.8363 8.0485C24.1744 8.79033 23.8414 8.92312 23.308 9.85343C23.0184 10.3586 23.0136 10.4357 22.9339 15.7178C22.8896 18.6617 22.8475 23.6796 22.8404 26.8688C22.8276 32.6473 22.8287 32.6691 23.1128 33.1771C23.6175 34.0796 24.7213 34.4412 26.0482 34.1385C26.342 34.0715 27.0552 33.9264 27.6331 33.8161C28.2108 33.7058 28.7842 33.5835 28.9073 33.5443C29.0303 33.505 28.7009 33.695 28.1752 33.9667C27.6496 34.2383 26.8469 34.7108 26.3913 35.0167C25.2742 35.7669 23.492 37.5981 22.8139 38.6927L22.2602 39.5864L21.6141 38.9305C20.2542 37.5501 18.453 36.9366 15.7596 36.9366C13.2264 36.9366 12.774 37.0031 5.62119 38.4266C2.86526 38.9751 1.34101 39.3364 1.06463 39.5067C0.836284 39.6474 0.503326 40.0118 0.324677 40.3165L0 40.8707L0.0101942 59.4008C0.0163105 70.4992 0.0682993 78.0978 0.139784 78.347C0.311807 78.9469 0.873365 79.6281 1.36522 79.8336C1.95507 80.0801 2.92438 80.0531 4.34694 79.7503C5.01274 79.6086 5.95886 79.4113 6.44944 79.3118C12.7162 78.0413 12.9984 77.9452 13.5661 76.889C13.8333 76.3919 13.8416 76.2222 13.9038 70.0072L13.9675 63.6352L14.7957 63.4726C16.8721 63.065 18.6629 62.3523 19.8083 61.4779C20.1363 61.2275 20.4258 61.0227 20.4517 61.0227C20.4776 61.0227 20.5385 62.0406 20.5868 63.2848C20.7818 68.297 21.3914 70.1761 23.5168 72.3153C24.3418 73.1458 24.7566 73.4509 25.6268 73.8675C27.5355 74.7813 27.9059 74.8506 30.8512 74.845C33.2837 74.8403 33.5641 74.8149 34.9287 74.4776C40.2103 73.1716 43.9321 70.4872 45.931 66.5418C46.344 65.7267 46.9066 63.8219 46.9066 63.2387C46.9066 62.4712 47.1221 62.7809 47.2046 63.6671C47.4769 66.5893 47.7814 68.7774 47.965 69.1319C48.4227 70.0154 49.5204 70.5559 50.5328 70.3961C50.8161 70.3513 52.5961 69.9691 54.4883 69.5467C56.3806 69.1242 58.4448 68.6705 59.0756 68.5385C59.7063 68.4065 60.8818 68.149 61.6878 67.9664C64.4094 67.3497 65.9513 67.0113 67.167 66.7634C68.5308 66.4854 69.8568 66.1946 72.4551 65.6034C73.4363 65.3803 75.5728 64.8987 77.2031 64.5332C79.7845 63.9545 80.2285 63.819 80.6435 63.4836C81.534 62.7638 81.5309 62.7754 82.2011 57.7093C82.3449 56.6229 82.5741 54.9884 82.7106 54.0773C82.8471 53.1661 82.975 52.2485 82.995 52.0382C83.015 51.8279 83.0109 53.577 82.9859 55.9251C82.9361 60.6147 82.9777 60.99 83.6291 61.7318C84.4879 62.7102 85.2262 62.7941 87.6823 62.1933C89.8769 61.6564 93.4993 60.7868 96.5383 60.0676C97.9399 59.7358 99.8895 59.2634 100.871 59.018C101.852 58.7724 103.113 58.469 103.674 58.3434C104.235 58.218 107.904 57.3028 111.829 56.3095C115.754 55.3162 119.882 54.273 121.004 53.9911C123.283 53.4181 123.383 53.3789 123.972 52.8213C124.73 52.1033 124.747 51.9149 124.78 44.0732C124.808 37.1467 124.803 36.9791 124.53 35.9808C124.377 35.42 124.08 34.7158 123.87 34.4159C123.66 34.116 123.488 33.8251 123.488 33.7694C123.488 33.7139 123.657 33.3572 123.862 32.9768C124.764 31.3069 125.073 29.0428 124.986 24.7481C124.937 22.3629 124.88 21.6717 124.674 20.934C124.108 18.9135 123.015 17.4403 121.488 16.6406C120.289 16.0126 119.369 15.8584 117.334 15.9444C115.636 16.0163 114.73 16.1751 110.619 17.1215C109.532 17.3715 108.271 17.6563 107.815 17.7543C105.819 18.1841 103.011 18.8741 102.657 19.0221C102.445 19.1108 101.857 19.2241 101.351 19.274C100.845 19.3239 99.8712 19.5001 99.1863 19.6657C98.5014 19.8313 97.9211 19.9469 97.8967 19.9226C97.8724 19.8984 98.0442 19.7799 98.2785 19.6593C99.3653 19.1002 101.215 17.374 102.069 16.1222C102.864 14.9575 103.503 13.4108 103.544 12.5518C103.564 12.1203 103.671 11.5378 103.781 11.2574C104.047 10.5809 104.056 8.27471 103.798 6.79577C103.173 3.21407 100.674 0.672787 97.2267 0.113326C96.2967 -0.0375629 93.857 -0.0378175 92.7025 0.112817ZM92.397 2.77529C88.6051 3.57867 86.0045 5.44975 84.5045 8.45376C83.2272 11.0115 83.1343 14.6226 84.295 16.6033C84.7117 17.3144 85.7207 18.2361 86.5337 18.6481C88.6565 19.7238 92.3435 19.5387 95.6077 18.1926C97.6866 17.3352 99.5155 15.6708 100.449 13.787C100.739 13.2014 100.948 12.6937 100.912 12.6584C100.877 12.6232 100.567 12.6454 100.222 12.708C99.878 12.7704 98.6852 12.9283 97.5717 13.0589C95.67 13.2821 95.5348 13.3158 95.3505 13.6151C94.6293 14.7863 93.5486 15.4178 92.1421 15.49C91.3186 15.5322 91.116 15.4979 90.6771 15.2422C90.0877 14.8988 89.6352 14.1577 89.573 13.4336L89.5299 12.9334L92.7793 12.2682C94.5664 11.9022 97.2471 11.3581 98.7363 11.059L101.444 10.5152L101.442 9.22962C101.436 5.62995 100.007 3.46194 97.1508 2.71795C96.142 2.45516 93.7729 2.48371 92.397 2.77529ZM81.5022 4.9094C79.3968 5.1955 77.6925 6.34731 76.7238 8.13873L76.2778 8.96352L76.2415 7.65599C76.2061 6.37955 76.1985 6.34998 75.923 6.41319C75.7678 6.44875 74.4712 6.70618 73.0418 6.98527C71.6123 7.26436 70.4216 7.51389 70.3956 7.53989C70.3145 7.62107 70.0834 23.0737 70.162 23.1524C70.203 23.1933 71.6304 22.9464 73.334 22.6035L76.4314 21.9801L76.5134 20.1872C76.5586 19.2009 76.5956 17.5316 76.5959 16.4774C76.5964 14.3875 76.7665 13.4263 77.2957 12.523C77.6888 11.8521 78.3182 11.236 78.9354 10.9181C79.517 10.6185 80.8996 10.307 81.6615 10.3038L82.2031 10.3016L82.2285 8.07144C82.2426 6.84483 82.257 5.62702 82.2604 5.36513C82.2673 4.85524 82.1997 4.81459 81.5022 4.9094ZM92.4087 6.41905C91.4673 6.6812 90.6306 7.31279 90.1365 8.13427C89.7329 8.80511 89.4879 9.6011 89.6385 9.75174C89.68 9.79328 91.02 9.57536 92.6164 9.26759L95.5189 8.70787L95.5549 8.32594C95.6044 7.80229 95.0937 6.85133 94.6158 6.57734C94.0563 6.25657 93.2105 6.19591 92.4087 6.41905ZM63.4717 8.78141C62.4555 8.98136 61.1498 9.23051 60.5703 9.33501C59.9906 9.43964 59.4603 9.55981 59.3916 9.60225C59.3144 9.65004 59.2652 11.2226 59.2628 13.7182C59.2583 18.3467 59.1668 19.3476 58.6635 20.2807C57.8719 21.7483 55.8239 22.412 54.8655 21.5116C54.3543 21.0312 54.3024 20.3537 54.3864 15.2459L54.4649 10.4677L51.2431 11.0804C49.4711 11.4174 47.9943 11.72 47.9614 11.7531C47.9284 11.7861 47.8697 14.3569 47.8308 17.4661C47.7554 23.5071 47.7842 23.9081 48.3776 25.0847C48.7597 25.8424 49.2284 26.2686 50.1559 26.7016C50.8607 27.0305 51.0351 27.0577 52.3858 27.0472C53.6746 27.0373 53.9929 26.9879 55.0271 26.6371C55.6738 26.4178 56.4192 26.1014 56.6836 25.9339C57.4605 25.4419 58.4274 24.5111 58.9499 23.7522C59.2175 23.3636 59.47 23.0455 59.5109 23.0454C59.5518 23.0451 59.5669 23.5613 59.5444 24.1923C59.5041 25.3207 59.5083 25.3394 59.7992 25.3334C59.962 25.3301 61.2991 25.0839 62.7709 24.7862L65.4468 24.2452L65.5254 22.7851C65.5686 21.9821 65.6458 18.4148 65.6969 14.8576C65.7866 8.6179 65.7815 8.39055 65.5546 8.40393C65.4253 8.41158 64.4879 8.58146 63.4717 8.78141ZM36.2667 8.98289C35.706 9.08574 33.0813 9.61079 30.4341 10.1499L25.621 11.13L25.5689 12.4044C25.4914 14.2976 25.464 31.4638 25.5383 31.5381C25.5735 31.5733 27.0976 31.3031 28.9253 30.9376L32.2485 30.2733L32.3165 24.0088L34.9864 23.4551C38.0251 22.8249 39.2611 22.3951 40.5902 21.506C42.7266 20.0769 43.9976 17.8383 44.1842 15.1765C44.42 11.81 43.1376 9.65781 40.4717 8.94555C39.6498 8.72597 37.5674 8.74458 36.2667 8.98289ZM80.0904 13.2182C79.8745 13.3499 79.5878 13.6794 79.4532 13.9505C79.2317 14.3969 79.2026 14.8342 79.1449 18.5852C79.0761 23.0604 79.0875 22.9868 78.3332 23.7877C77.9393 24.2058 77.9383 24.2103 78.2529 24.1386C78.4281 24.0985 79.8903 23.803 81.5022 23.4816C83.1141 23.1603 85.0064 22.7642 85.7072 22.6015C86.4081 22.4388 87.4023 22.2327 87.9166 22.1435L88.8519 21.9813L87.7892 21.7627C87.2048 21.6424 86.4028 21.4213 86.0072 21.2712C83.0341 20.1432 80.9557 17.0201 80.9333 13.6469C80.9282 12.8832 80.7708 12.8032 80.0904 13.2182ZM33.4463 14.2227L32.4099 14.4139L32.3172 16.7656C32.2661 18.0592 32.2737 19.1669 32.3341 19.2273C32.5181 19.4113 35.3041 18.7411 36.009 18.3434C37.5186 17.4917 37.8495 15.0413 36.561 14.2556C36.0516 13.9449 35.0114 13.9339 33.4463 14.2227ZM115.97 18.6445C115.375 18.7429 112.766 19.3096 110.173 19.9039C107.58 20.498 105.134 21.0545 104.738 21.1403L104.018 21.2964L103.945 23.2224C103.863 25.4234 103.573 55.548 103.634 55.6089C103.656 55.631 105.136 55.2837 106.923 54.8372C108.71 54.3908 110.617 53.9284 111.16 53.8099L112.148 53.5944L112.148 50.7135C112.149 47.1485 112.295 38.2928 112.354 38.2244C112.441 38.1233 113.672 38.0547 113.986 38.1335C114.168 38.1793 114.408 38.3946 114.535 38.6269C114.744 39.0095 114.757 39.539 114.722 45.953C114.701 49.7554 114.732 52.8666 114.791 52.8666C114.85 52.8666 116.517 52.4365 118.494 51.9108C120.471 51.3851 122.109 50.955 122.134 50.955C122.228 50.955 122.295 38.8879 122.208 37.8301C122.034 35.736 121.214 34.8378 119.167 34.4997L118.265 34.3506L119.173 33.8985C120.844 33.0669 121.733 31.8995 122.162 29.9701C122.417 28.8266 122.546 24.2442 122.365 22.7844C122.107 20.7072 121.338 19.4073 120.035 18.8466C119.189 18.4825 117.468 18.397 115.97 18.6445ZM44.4473 21.5226C43.2684 22.998 40.9277 24.5385 38.8789 25.1875C38.1979 25.4031 36.6461 25.769 35.2348 26.0467C34.9783 26.0972 34.9627 26.2053 34.8525 28.7037C34.7493 31.0436 34.7104 31.3448 34.4706 31.6691L34.2035 32.0301H36.7643C39.0176 32.0301 39.4481 32.0642 40.3523 32.3136C41.5896 32.6547 42.4123 33.0065 43.3093 33.5778C43.6787 33.813 44.0013 34.0055 44.0264 34.0055C44.0514 34.0055 44.0444 33.7612 44.0107 33.4626C43.9375 32.8121 44.1393 31.9895 44.4779 31.559C44.8989 31.0237 45.7409 30.7206 48.1171 30.2484C49.3786 29.9977 50.5828 29.757 50.793 29.7134C51.1242 29.6447 51.056 29.6098 50.2833 29.452C47.8285 28.9509 45.8962 27.0144 45.3836 24.5415C45.2999 24.1375 45.1926 23.1208 45.1452 22.2821L45.0589 20.7572L44.4473 21.5226ZM96.6657 22.9297C94.4931 23.4096 91.2247 24.1233 89.4025 24.5155C87.5804 24.9078 86.0534 25.2679 86.0095 25.316C85.9367 25.3954 85.605 59.8923 85.6765 59.9418C85.6935 59.9535 86.252 59.83 86.9177 59.6674C87.5835 59.5047 90.3072 58.8523 92.9704 58.2174C95.6336 57.5826 98.5435 56.8879 99.4372 56.6737L101.062 56.2843V52.8475C101.062 50.9573 101.017 49.4382 100.963 49.4718C100.832 49.553 95.331 50.8275 95.1121 50.8275C94.9729 50.8275 94.9478 50.1558 94.9754 47.1636L95.0092 43.4997L96.156 43.2247C96.7867 43.0734 97.9766 42.7954 98.8 42.6069L100.297 42.2641V35.7848L100.011 35.8499C99.8529 35.8857 98.8064 36.1171 97.6851 36.3641C96.5638 36.6111 95.5163 36.8423 95.3574 36.8778L95.0687 36.9424L95.1366 30.246L98.0036 29.6176C99.5805 29.272 100.878 28.9852 100.888 28.9804C100.897 28.9755 100.946 27.4088 100.997 25.4988C101.086 22.1626 101.08 22.0267 100.853 22.0415C100.722 22.0501 98.8383 22.4497 96.6657 22.9297ZM67.8666 25.5604C67.743 25.7544 67.4956 26.0337 67.317 26.1813L66.9921 26.4494L69.4976 25.9262L68.9438 25.6909C68.6393 25.5616 68.3228 25.3998 68.2406 25.3316C68.1363 25.2451 68.0233 25.3143 67.8666 25.5604ZM71.7543 25.5014C71.0184 25.6444 70.4737 25.7762 70.5438 25.7941C70.6138 25.8122 70.8278 25.8615 71.0193 25.9037C71.2107 25.9459 71.5621 26.1515 71.8003 26.3606L72.2333 26.7409L72.3937 26.3536C72.4819 26.1405 72.7599 25.7965 73.0115 25.5892C73.5375 25.1555 73.5352 25.1554 71.7543 25.5014ZM112.809 25.3031C112.647 25.3341 112.494 25.4266 112.468 25.5088C112.443 25.5909 112.395 27.2209 112.362 29.1309L112.302 32.6036L112.639 32.6023C113.237 32.6002 114.277 32.0258 114.514 31.5665C114.823 30.969 115.016 28.2092 114.848 26.7744C114.744 25.8807 114.665 25.6226 114.439 25.4393C114.168 25.22 113.525 25.1664 112.809 25.3031ZM79.1449 26.6399C76.7971 27.1293 74.8339 27.5694 74.7823 27.6181C74.7307 27.6667 74.5467 28.7654 74.3734 30.0595C73.1949 38.8582 71.974 48.8142 71.799 51.0506C71.7536 51.6289 71.6791 52.1019 71.6331 52.1019C71.5871 52.1019 71.4487 50.3958 71.3256 48.3106C71.2025 46.2254 70.9649 42.3114 70.7976 39.6128C70.6303 36.9143 70.424 33.3587 70.3392 31.7115C70.2545 30.0644 70.148 28.6735 70.1027 28.6206C70.0343 28.541 66.3993 29.2532 61.6266 30.2818L60.6098 30.5009L60.0074 34.6427C58.9155 42.1516 57.6905 51.2059 57.5363 52.9076C57.4872 53.4495 57.4224 53.8681 57.3922 53.8379C57.362 53.8077 57.2269 51.9281 57.0921 49.6609C56.9572 47.3938 56.7282 43.9044 56.5832 41.9067C56.4382 39.9091 56.2133 36.7644 56.0832 34.9184C55.9532 33.0725 55.8163 31.5316 55.779 31.4943C55.7237 31.4391 46.6786 33.2201 46.5497 33.3116C46.5113 33.3387 46.9094 37.0366 47.7355 44.3281C48.5073 51.1395 50.0239 65.1724 50.1847 66.9906C50.2429 67.6485 50.2939 67.7874 50.4608 67.7442C50.5735 67.7149 53.1026 67.1553 56.0811 66.5006C59.0597 65.8458 61.5684 65.256 61.6559 65.1899C61.7436 65.1237 61.8152 64.9244 61.8152 64.7469C61.8152 64.5694 62.0186 63.1571 62.2672 61.6083C62.5158 60.0597 63.147 56.0155 63.6699 52.6213C64.5295 47.0421 64.7458 45.825 64.7461 46.5689C64.7463 47.7079 66.9241 63.8808 67.101 64.0577C67.1567 64.1134 78.7323 61.5025 78.9063 61.395C79.0294 61.3189 79.2447 59.9445 79.9628 54.6507C80.1387 53.354 80.4598 51.0028 80.6763 49.4257C80.8928 47.8486 81.1513 45.9561 81.2508 45.2202C81.7683 41.3907 82.6464 34.9456 83.2168 30.7886C83.5703 28.2133 83.8596 26.0197 83.8596 25.914C83.8596 25.8084 83.7592 25.7282 83.6366 25.736C83.514 25.7439 81.4927 26.1506 79.1449 26.6399ZM57.5131 28.3391C56.8431 28.6945 56.7577 28.7757 56.98 28.8463C57.1256 28.8926 57.441 29.1027 57.6809 29.3134L58.1171 29.6965L58.2549 29.3343C58.427 28.8811 58.7119 28.5563 59.203 28.253C59.5364 28.0469 59.5506 28.0167 59.3145 28.0163C59.1655 28.016 58.8788 27.9934 58.6774 27.9658C58.4344 27.9327 58.0423 28.0584 57.5131 28.3391ZM34.6135 34.7087C31.4968 35.2174 29.1871 36.1629 27.1468 37.7649C25.6937 38.9059 24.2953 41.0868 23.7148 43.1174C23.2457 44.7583 23.1877 46.3784 23.2335 56.5623C23.2762 66.0616 23.2842 66.3362 23.5494 67.2779C23.9492 68.6979 24.3133 69.3825 25.1369 70.263C26.3978 71.6111 27.8436 72.2049 30.1603 72.3265C33.0779 72.4796 36.4579 71.635 39.0143 70.1143C41.8249 68.4422 43.5177 66.2368 44.2321 63.3166C44.6386 61.6546 44.7622 57.8024 44.7069 48.5162C44.6639 41.3001 44.6319 40.2156 44.4412 39.4972C43.8066 37.1081 42.182 35.5344 39.6834 34.8889C38.3516 34.5448 36.1057 34.465 34.6135 34.7087ZM12.8844 39.6894C12.1485 39.7947 9.51081 40.2936 7.02285 40.7981L2.4993 41.7156L2.54708 59.5572C2.57346 69.37 2.60621 77.4124 2.61997 77.4291C2.63373 77.4458 4.59045 77.0419 6.96831 76.5315L11.2916 75.6036L11.31 61.474L13.1667 61.1359C16.3641 60.5535 17.7643 59.9587 19.1348 58.6014C20.0485 57.6963 20.5252 56.833 20.8847 55.4328C21.0724 54.702 21.1019 53.86 21.1026 49.2345C21.1033 43.3543 21.0617 42.9257 20.3612 41.6004C19.9123 40.7507 19.3341 40.2707 18.2546 39.8516C17.3155 39.487 14.8266 39.4118 12.8844 39.6894ZM33.5361 40.9831C32.9613 41.2762 32.6668 41.7021 32.5009 42.4802C32.3178 43.3392 32.1853 62.2888 32.35 64.0543C32.4521 65.149 32.521 65.4171 32.7671 65.6791C33.1126 66.0469 33.5855 66.0823 34.2047 65.7871C34.7775 65.514 35.0267 65.057 35.1795 64.0006C35.3544 62.7899 35.353 42.2544 35.178 41.6237C34.9501 40.8034 34.3486 40.5686 33.5361 40.9831ZM11.5145 46.1956L11.2278 46.2574V50.7015C11.2278 53.1457 11.2708 55.1707 11.3234 55.2017C11.4708 55.2882 12.7213 54.9349 13.0653 54.7094C13.7417 54.2662 13.8365 53.8075 13.8813 50.7638C13.9285 47.5646 13.8742 47.0048 13.4711 46.5364C13.235 46.2616 13.0566 46.1945 12.4918 46.1672C12.112 46.1488 11.6723 46.1617 11.5145 46.1956Z" fill="#052681"/>
<path fill-rule="evenodd" clip-rule="evenodd" d="M92.397 2.77529C88.6051 3.57867 86.0045 5.44975 84.5045 8.45376C83.2272 11.0115 83.1343 14.6226 84.295 16.6033C84.7117 17.3144 85.7207 18.2361 86.5337 18.6481C88.6565 19.7238 92.3435 19.5387 95.6077 18.1926C97.6866 17.3352 99.5155 15.6708 100.449 13.787C100.739 13.2014 100.948 12.6937 100.912 12.6584C100.877 12.6232 100.567 12.6454 100.222 12.708C99.878 12.7704 98.6852 12.9283 97.5717 13.0589C95.67 13.2821 95.5348 13.3158 95.3505 13.6151C94.6293 14.7863 93.5486 15.4178 92.1421 15.49C91.3186 15.5322 91.116 15.4979 90.6771 15.2422C90.0877 14.8988 89.6352 14.1577 89.573 13.4336L89.5299 12.9334L92.7793 12.2682C94.5664 11.9022 97.2471 11.3581 98.7363 11.059L101.444 10.5152L101.442 9.22962C101.436 5.62995 100.007 3.46194 97.1508 2.71795C96.142 2.45516 93.7729 2.48371 92.397 2.77529ZM81.5022 4.9094C79.3968 5.1955 77.6925 6.34731 76.7238 8.13873L76.2778 8.96352L76.2415 7.65599C76.2061 6.37955 76.1985 6.34998 75.923 6.41319C75.7678 6.44875 74.4712 6.70618 73.0418 6.98527C71.6123 7.26436 70.4216 7.51389 70.3956 7.53989C70.3145 7.62107 70.0834 23.0737 70.162 23.1524C70.203 23.1933 71.6304 22.9464 73.334 22.6035L76.4314 21.9801L76.5134 20.1872C76.5586 19.2009 76.5956 17.5316 76.5959 16.4774C76.5964 14.3875 76.7665 13.4263 77.2957 12.523C77.6888 11.8521 78.3182 11.236 78.9354 10.9181C79.517 10.6185 80.8996 10.307 81.6615 10.3038L82.2031 10.3016L82.2285 8.07144C82.2426 6.84483 82.257 5.62702 82.2604 5.36513C82.2673 4.85524 82.1997 4.81459 81.5022 4.9094ZM92.4087 6.41905C91.4673 6.6812 90.6306 7.31279 90.1365 8.13427C89.7329 8.80511 89.4879 9.6011 89.6385 9.75174C89.68 9.79328 91.02 9.57536 92.6164 9.26759L95.5189 8.70787L95.5549 8.32594C95.6044 7.80229 95.0937 6.85133 94.6158 6.57734C94.0563 6.25657 93.2105 6.19591 92.4087 6.41905ZM63.4717 8.78141C62.4555 8.98136 61.1498 9.23051 60.5703 9.33501C59.9906 9.43964 59.4603 9.55981 59.3916 9.60225C59.3144 9.65004 59.2652 11.2226 59.2628 13.7182C59.2583 18.3467 59.1668 19.3476 58.6635 20.2807C57.8719 21.7483 55.8239 22.412 54.8655 21.5116C54.3543 21.0312 54.3024 20.3537 54.3864 15.2459L54.4649 10.4677L51.2431 11.0804C49.4711 11.4174 47.9943 11.72 47.9614 11.7531C47.9284 11.7861 47.8697 14.3569 47.8308 17.4661C47.7554 23.5071 47.7842 23.9081 48.3776 25.0847C48.7597 25.8424 49.2284 26.2686 50.1559 26.7016C50.8607 27.0305 51.0351 27.0577 52.3858 27.0472C53.6746 27.0373 53.9929 26.9879 55.0271 26.6371C55.6738 26.4178 56.4192 26.1014 56.6836 25.9339C57.4605 25.4419 58.4274 24.5111 58.9499 23.7522C59.2175 23.3636 59.47 23.0455 59.5109 23.0454C59.5518 23.0451 59.5669 23.5613 59.5444 24.1923C59.5041 25.3207 59.5083 25.3394 59.7992 25.3334C59.962 25.3301 61.2991 25.0839 62.7709 24.7862L65.4468 24.2452L65.5254 22.7851C65.5686 21.9821 65.6458 18.4148 65.6969 14.8576C65.7866 8.6179 65.7815 8.39055 65.5546 8.40393C65.4253 8.41158 64.4879 8.58146 63.4717 8.78141ZM36.2667 8.98289C35.706 9.08574 33.0813 9.61079 30.4341 10.1499L25.621 11.13L25.5689 12.4044C25.4914 14.2976 25.464 31.4638 25.5383 31.5381C25.5735 31.5733 27.0976 31.3031 28.9253 30.9376L32.2485 30.2733L32.3165 24.0088L34.9864 23.4551C38.0251 22.8249 39.2611 22.3951 40.5902 21.506C42.7266 20.0769 43.9976 17.8383 44.1842 15.1765C44.42 11.81 43.1376 9.65781 40.4717 8.94555C39.6498 8.72597 37.5674 8.74458 36.2667 8.98289ZM33.4463 14.2227L32.4099 14.4139L32.3172 16.7656C32.2661 18.0592 32.2737 19.1669 32.3341 19.2273C32.5181 19.4113 35.3041 18.7411 36.009 18.3434C37.5186 17.4917 37.8495 15.0413 36.561 14.2556C36.0516 13.9449 35.0114 13.9339 33.4463 14.2227ZM115.97 18.6445C115.375 18.7429 112.766 19.3096 110.173 19.9039C107.58 20.498 105.134 21.0545 104.738 21.1403L104.018 21.2964L103.945 23.2224C103.863 25.4234 103.573 55.548 103.634 55.6089C103.656 55.631 105.136 55.2837 106.923 54.8372C108.71 54.3908 110.617 53.9284 111.16 53.8099L112.148 53.5944L112.148 50.7135C112.149 47.1485 112.295 38.2928 112.354 38.2244C112.441 38.1233 113.672 38.0547 113.986 38.1335C114.168 38.1793 114.408 38.3946 114.535 38.6269C114.744 39.0095 114.757 39.539 114.722 45.953C114.701 49.7554 114.732 52.8666 114.791 52.8666C114.85 52.8666 116.517 52.4365 118.494 51.9108C120.471 51.3851 122.109 50.955 122.134 50.955C122.228 50.955 122.295 38.8879 122.208 37.8301C122.034 35.736 121.214 34.8378 119.167 34.4997L118.265 34.3506L119.173 33.8985C120.844 33.0669 121.733 31.8995 122.162 29.9701C122.417 28.8266 122.546 24.2442 122.365 22.7844C122.107 20.7072 121.338 19.4073 120.035 18.8466C119.189 18.4825 117.468 18.397 115.97 18.6445ZM96.6657 22.9297C94.4931 23.4096 91.2247 24.1233 89.4025 24.5155C87.5804 24.9078 86.0534 25.2679 86.0095 25.316C85.9367 25.3954 85.605 59.8923 85.6765 59.9418C85.6935 59.9535 86.252 59.83 86.9177 59.6674C87.5835 59.5047 90.3072 58.8523 92.9704 58.2174C95.6336 57.5826 98.5435 56.8879 99.4372 56.6737L101.062 56.2843V52.8475C101.062 50.9573 101.017 49.4382 100.963 49.4718C100.832 49.553 95.331 50.8275 95.1121 50.8275C94.9729 50.8275 94.9478 50.1558 94.9754 47.1636L95.0092 43.4997L96.156 43.2247C96.7867 43.0734 97.9766 42.7954 98.8 42.6069L100.297 42.2641V35.7848L100.011 35.8499C99.8529 35.8857 98.8064 36.1171 97.6851 36.3641C96.5638 36.6111 95.5163 36.8423 95.3574 36.8778L95.0687 36.9424L95.1366 30.246L98.0036 29.6176C99.5805 29.272 100.878 28.9852 100.888 28.9804C100.897 28.9755 100.946 27.4088 100.997 25.4988C101.086 22.1626 101.08 22.0267 100.853 22.0415C100.722 22.0501 98.8383 22.4497 96.6657 22.9297ZM112.809 25.3031C112.647 25.3341 112.494 25.4266 112.468 25.5088C112.443 25.5909 112.395 27.2209 112.362 29.1309L112.302 32.6036L112.639 32.6023C113.237 32.6002 114.277 32.0258 114.514 31.5665C114.823 30.969 115.016 28.2092 114.848 26.7744C114.744 25.8807 114.665 25.6226 114.439 25.4393C114.168 25.22 113.525 25.1664 112.809 25.3031ZM79.1449 26.6399C76.7971 27.1293 74.8339 27.5694 74.7823 27.6181C74.7307 27.6667 74.5467 28.7654 74.3734 30.0595C73.1949 38.8582 71.974 48.8142 71.799 51.0506C71.7536 51.6289 71.6791 52.1019 71.6331 52.1019C71.5871 52.1019 71.4487 50.3958 71.3256 48.3106C71.2025 46.2254 70.9649 42.3114 70.7976 39.6128C70.6303 36.9143 70.424 33.3587 70.3392 31.7115C70.2545 30.0644 70.148 28.6735 70.1027 28.6206C70.0343 28.541 66.3993 29.2532 61.6266 30.2818L60.6098 30.5009L60.0074 34.6427C58.9155 42.1516 57.6905 51.2059 57.5363 52.9076C57.4872 53.4495 57.4224 53.8681 57.3922 53.8379C57.362 53.8077 57.2269 51.9281 57.0921 49.6609C56.9572 47.3938 56.7282 43.9044 56.5832 41.9067C56.4382 39.9091 56.2133 36.7644 56.0832 34.9184C55.9532 33.0725 55.8163 31.5316 55.779 31.4943C55.7237 31.4391 46.6786 33.2201 46.5497 33.3116C46.5113 33.3387 46.9094 37.0366 47.7355 44.3281C48.5073 51.1395 50.0239 65.1724 50.1847 66.9906C50.2429 67.6485 50.2939 67.7874 50.4608 67.7442C50.5735 67.7149 53.1026 67.1553 56.0811 66.5006C59.0597 65.8458 61.5684 65.256 61.6559 65.1899C61.7436 65.1237 61.8152 64.9244 61.8152 64.7469C61.8152 64.5694 62.0186 63.1571 62.2672 61.6083C62.5158 60.0597 63.147 56.0155 63.6699 52.6213C64.5295 47.0421 64.7458 45.825 64.7461 46.5689C64.7463 47.7079 66.9241 63.8808 67.101 64.0577C67.1567 64.1134 78.7323 61.5025 78.9063 61.395C79.0294 61.3189 79.2447 59.9445 79.9628 54.6507C80.1387 53.354 80.4598 51.0028 80.6763 49.4257C80.8928 47.8486 81.1513 45.9561 81.2508 45.2202C81.7683 41.3907 82.6464 34.9456 83.2168 30.7886C83.5703 28.2133 83.8596 26.0197 83.8596 25.914C83.8596 25.8084 83.7592 25.7282 83.6366 25.736C83.514 25.7439 81.4927 26.1506 79.1449 26.6399ZM34.6135 34.7087C31.4968 35.2174 29.1871 36.1629 27.1468 37.7649C25.6937 38.9059 24.2953 41.0868 23.7148 43.1174C23.2457 44.7583 23.1877 46.3784 23.2335 56.5623C23.2762 66.0616 23.2842 66.3362 23.5494 67.2779C23.9492 68.6979 24.3133 69.3825 25.1369 70.263C26.3978 71.6111 27.8436 72.2049 30.1603 72.3265C33.0779 72.4796 36.4579 71.635 39.0143 70.1143C41.8249 68.4422 43.5177 66.2368 44.2321 63.3166C44.6386 61.6546 44.7622 57.8024 44.7069 48.5162C44.6639 41.3001 44.6319 40.2156 44.4412 39.4972C43.8066 37.1081 42.182 35.5344 39.6834 34.8889C38.3516 34.5448 36.1057 34.465 34.6135 34.7087ZM12.8844 39.6894C12.1485 39.7947 9.51081 40.2936 7.02285 40.7981L2.4993 41.7156L2.54708 59.5572C2.57346 69.37 2.60621 77.4124 2.61997 77.4291C2.63373 77.4458 4.59045 77.0419 6.96831 76.5315L11.2916 75.6036L11.31 61.474L13.1667 61.1359C16.3641 60.5535 17.7643 59.9587 19.1348 58.6014C20.0485 57.6963 20.5252 56.833 20.8847 55.4328C21.0724 54.702 21.1019 53.86 21.1026 49.2345C21.1033 43.3543 21.0617 42.9257 20.3612 41.6004C19.9123 40.7507 19.3341 40.2707 18.2546 39.8516C17.3155 39.487 14.8266 39.4118 12.8844 39.6894ZM33.5361 40.9831C32.9613 41.2762 32.6668 41.7021 32.5009 42.4802C32.3178 43.3392 32.1853 62.2888 32.35 64.0543C32.4521 65.149 32.521 65.4171 32.7671 65.6791C33.1126 66.0469 33.5855 66.0823 34.2047 65.7871C34.7775 65.514 35.0267 65.057 35.1795 64.0006C35.3544 62.7899 35.353 42.2544 35.178 41.6237C34.9501 40.8034 34.3486 40.5686 33.5361 40.9831ZM11.5145 46.1956L11.2278 46.2574V50.7015C11.2278 53.1457 11.2708 55.1707 11.3234 55.2017C11.4708 55.2882 12.7213 54.9349 13.0653 54.7094C13.7417 54.2662 13.8365 53.8075 13.8813 50.7638C13.9285 47.5646 13.8742 47.0048 13.4711 46.5364C13.235 46.2616 13.0566 46.1945 12.4918 46.1672C12.112 46.1488 11.6723 46.1617 11.5145 46.1956Z" fill="white"/>
<path fill-rule="evenodd" clip-rule="evenodd" d="M92.397 2.77507C88.6051 3.57845 86.0045 5.44952 84.5045 8.45354C83.2272 11.0113 83.1343 14.6224 84.295 16.6031C84.7117 17.3142 85.7207 18.2358 86.5337 18.6478C88.6565 19.7236 92.3435 19.5385 95.6077 18.1924C97.6866 17.335 99.5155 15.6706 100.449 13.7868C100.739 13.2012 100.948 12.6935 100.912 12.6582C100.877 12.623 100.567 12.6452 100.222 12.7077C99.878 12.7702 98.6852 12.9281 97.5717 13.0587C95.67 13.2819 95.5348 13.3156 95.3505 13.6149C94.6293 14.786 93.5486 15.4176 92.1421 15.4898C91.3186 15.5319 91.116 15.4977 90.6771 15.242C90.0877 14.8986 89.6352 14.1575 89.573 13.4334L89.5299 12.9332L92.7792 12.2679C94.5664 11.9019 97.2471 11.3579 98.7363 11.0588L101.444 10.515L101.442 9.22939C101.436 5.62973 100.007 3.46172 97.1508 2.71772C96.142 2.45494 93.7729 2.48349 92.397 2.77507ZM81.5022 4.90918C79.3968 5.19528 77.6925 6.34709 76.7238 8.13851L76.2778 8.9633L76.2415 7.65576C76.2061 6.37932 76.1985 6.34976 75.923 6.41297C75.7678 6.44853 74.4712 6.70595 73.0418 6.98505C71.6123 7.26414 70.4216 7.51367 70.3956 7.53967C70.3145 7.62085 70.0834 23.0734 70.162 23.1522C70.203 23.1931 71.6304 22.9461 73.334 22.6033L76.4314 21.9799L76.5134 20.1869C76.5586 19.2007 76.5956 17.5313 76.5959 16.4772C76.5964 14.3873 76.7665 13.4261 77.2957 12.5228C77.6888 11.8519 78.3182 11.2358 78.9354 10.9178C79.517 10.6182 80.8996 10.3068 81.6615 10.3036L82.2031 10.3014L82.2285 8.07122C82.2426 6.84461 82.257 5.62679 82.2604 5.36491C82.2673 4.85502 82.1997 4.81436 81.5022 4.90918ZM92.4087 6.41883C91.4673 6.68098 90.6306 7.31257 90.1365 8.13405C89.7329 8.80489 89.4879 9.60088 89.6385 9.75151C89.68 9.79306 91.02 9.57514 92.6164 9.26737L95.5189 8.70765L95.5549 8.32572C95.6044 7.80207 95.0937 6.85111 94.6158 6.57711C94.0563 6.25635 93.2104 6.19568 92.4087 6.41883ZM63.4717 8.78119C62.4555 8.98114 61.1498 9.23029 60.5703 9.33479C59.9906 9.43941 59.4603 9.55959 59.3916 9.60203C59.3144 9.64982 59.2652 11.2224 59.2628 13.718C59.2583 18.3464 59.1668 19.3474 58.6635 20.2805C57.8719 21.7481 55.8239 22.4118 54.8655 21.5114C54.3543 21.031 54.3024 20.3535 54.3864 15.2457L54.4649 10.4675L51.2431 11.0802C49.4711 11.4172 47.9943 11.7198 47.9614 11.7528C47.9284 11.7858 47.8697 14.3567 47.8308 17.4658C47.7554 23.5069 47.7842 23.9079 48.3776 25.0844C48.7597 25.8422 49.2284 26.2684 50.1559 26.7014C50.8607 27.0303 51.0351 27.0575 52.3858 27.047C53.6746 27.0371 53.9929 26.9876 55.0271 26.6369C55.6738 26.4176 56.4192 26.1012 56.6836 25.9337C57.4605 25.4417 58.4274 24.5108 58.9499 23.7519C59.2175 23.3634 59.47 23.0453 59.5109 23.0452C59.5518 23.0449 59.5669 23.561 59.5444 24.1921C59.5041 25.3205 59.5083 25.3392 59.7992 25.3332C59.962 25.3299 61.2991 25.0837 62.7709 24.786L65.4468 24.245L65.5254 22.7849C65.5686 21.9819 65.6458 18.4146 65.6969 14.8574C65.7866 8.61768 65.7815 8.39033 65.5546 8.40371C65.4253 8.41136 64.4879 8.58123 63.4717 8.78119ZM36.2667 8.98267C35.706 9.08551 33.0813 9.61056 30.4341 10.1496L25.621 11.1298L25.5689 12.4042C25.4914 14.2974 25.464 31.4636 25.5383 31.5379C25.5735 31.573 27.0976 31.3029 28.9253 30.9374L32.2485 30.273L32.3165 24.0086L34.9864 23.4549C38.0251 22.8247 39.2611 22.3948 40.5902 21.5058C42.7266 20.0767 43.9976 17.8381 44.1842 15.1763C44.42 11.8098 43.1376 9.65759 40.4717 8.94533C39.6498 8.72575 37.5674 8.74436 36.2667 8.98267ZM33.4463 14.2225L32.4099 14.4136L32.3172 16.7654C32.2661 18.0589 32.2737 19.1666 32.3341 19.2271C32.5181 19.4111 35.3041 18.7409 36.009 18.3431C37.5186 17.4914 37.8495 15.041 36.561 14.2554C36.0516 13.9447 35.0114 13.9337 33.4463 14.2225Z" fill="#CFD205"/>
</svg>
