<svg width="1057" height="739" viewBox="0 0 1057 739" fill="none" xmlns="http://www.w3.org/2000/svg">
<path d="M558.009 154.249C558.009 203.474 557.744 243.749 557.421 243.749C557.093 243.75 539.646 248.216 518.646 253.675C497.644 259.134 479.799 263.544 478.983 263.477C478.172 263.409 473.684 265.211 469.009 267.481C447.503 277.92 425.741 279.491 409.287 271.792C396.599 265.854 387.37 253.735 382.831 237.049C380.968 230.201 380.653 225.771 380.254 200.764L379.798 172.279L377.478 181.458C374.712 192.402 368.71 205.614 362.653 214.093C356.494 222.714 342.677 235.669 334.385 240.595C325.972 245.593 315.82 249.346 298.774 253.759L286.039 257.055L285.774 285.584L285.509 314.112L240.203 325.863C215.286 332.327 193.572 337.905 191.948 338.262L189 338.91L189.255 228.685L189.509 118.462L243.009 104.558C272.433 96.9106 299.657 89.9718 303.508 89.1366C312.531 87.1786 327.838 87.2282 335.417 89.2392C356.012 94.7022 372.1 111.341 378.015 133.295L379.889 140.249L379.949 125.207L380.009 110.164L466.759 87.5653C514.467 75.1372 554.516 64.9198 555.759 64.8583L558.009 64.7489V154.249ZM791.009 1.16007C803.029 -0.986916 822.635 -0.0543202 832.587 3.13663C855.155 10.3736 868.926 26.93 874.684 53.7489C876.157 60.6109 876.498 66.5859 876.454 84.7489C876.406 104.813 876.16 108.115 874.181 115.249C864.349 150.71 834.988 175.033 787.757 186.842C771.656 190.868 752.626 191.855 739.966 189.321C713.634 184.051 695.542 165.743 689.989 138.749C688.915 133.524 688.029 126.737 688.022 123.666C688.015 120.595 687.78 117.854 687.5 117.573C686.713 116.787 662.298 123.513 659.657 125.244C654.598 128.559 654.53 129.187 654.21 175.499C654.045 199.287 653.787 218.749 653.635 218.749C653.464 218.754 633.389 223.927 609.009 230.249C584.616 236.574 564.287 241.749 563.833 241.749C563.38 241.749 563.009 201.504 563.009 152.316C563.009 68.0157 563.109 62.8528 564.759 62.3476C565.721 62.0526 582.193 57.7415 601.363 52.7675C624.507 46.7625 638.617 42.5784 643.363 40.3134C647.293 38.4375 653.209 36.102 656.509 35.123C663.799 32.959 678.865 32.6669 684.284 34.5849C692.784 37.5919 697.939 45.0078 698.776 55.4296L699.276 61.6689L702.893 55.7167C720.064 27.4548 750.991 8.30611 791.009 1.16007Z" fill="#FFD600"/>
<path fill-rule="evenodd" clip-rule="evenodd" d="M982.294 151.539C963.833 153.865 935.902 160.683 801.294 195.716C773.794 202.874 735.544 212.791 716.294 217.756C607.175 245.896 377.65 305.672 377.275 306.046C376.908 306.414 379.555 331.701 381.233 343.861L381.716 347.361L377.084 342.017C367.411 330.857 351.528 322.373 335.53 319.821C323.94 317.972 302.784 319.091 290.294 322.215C244.969 333.551 212.108 359.864 196.735 397.131L193.102 405.937L189.216 399.292C184.363 390.993 175.215 382.421 167.22 378.68C157.239 374.009 148.304 372.585 132.794 373.192C115.869 373.855 105.64 376.02 45.7941 391.604L0.294119 403.452L0.0411204 571.157C-0.0978796 663.394 0.12712 738.869 0.54112 738.878C0.95512 738.888 26.8321 732.286 58.0441 724.208L114.794 709.52V591.938L119.044 590.864C145.472 584.185 169.802 569.952 181.968 554.054L186.794 547.748V563.072C186.794 584.769 188.56 608.608 190.838 617.644C197.435 643.825 216.102 663.09 241.658 670.094C252.959 673.191 275.436 673.161 289.585 670.029C304.674 666.689 313.842 663.502 327.294 656.921C362.683 639.607 387.717 607.581 394.378 571.1C395.204 566.573 396.303 548.42 397.024 527.361L398.258 491.361L399.867 505.361C400.752 513.061 404.283 543.886 407.714 573.861C411.144 603.836 414.253 629.066 414.623 629.928C415.198 631.271 424.326 629.148 478.269 615.123C512.906 606.117 541.556 598.247 541.935 597.632C542.315 597.018 542.938 593.403 543.32 589.598C544.585 577.01 545.197 576.64 547.197 587.258C548.866 596.12 549.185 596.872 551.027 596.287C553.697 595.44 631.227 575.411 655.294 569.351C665.744 566.72 674.701 564.204 675.199 563.759C675.697 563.314 679.814 529.068 684.347 487.656L692.59 412.361L692.692 485.611C692.781 549.834 692.978 558.861 694.286 558.861C695.597 558.861 824.199 525.833 865.794 514.814C874.319 512.556 920.669 500.505 968.794 488.034L1056.29 465.361L1056.21 401.361C1056.16 356.624 1055.77 335.104 1054.93 329.861C1053.6 321.585 1049.43 311.717 1044.8 305.87C1043.15 303.782 1041.79 301.83 1041.79 301.534C1041.79 301.237 1043.16 298.794 1044.83 296.104C1052.47 283.825 1055.99 265.569 1056.06 237.861C1056.16 201.586 1050.46 182.174 1035.33 167.256C1023.69 155.777 1010.97 150.735 994.334 151.011C989.362 151.093 983.944 151.331 982.294 151.539ZM828.044 291.076L808.794 296.14V307.662L817.544 305.322C822.357 304.036 831.807 301.548 838.544 299.794L850.794 296.604V291.233C850.794 286.755 850.503 285.874 849.044 285.936C848.082 285.978 838.631 288.29 828.044 291.076ZM832.294 400.788C822.394 403.404 813.057 405.849 811.544 406.221L808.794 406.899V416.997C808.794 426.112 808.964 427.052 810.544 426.661C811.506 426.423 820.957 424.009 831.544 421.296L850.794 416.363V406.112C850.794 400.474 850.682 395.9 850.544 395.947C850.406 395.994 842.194 398.172 832.294 400.788Z" fill="white"/>
<path fill-rule="evenodd" clip-rule="evenodd" d="M790.794 1.15996C750.776 8.30596 719.849 27.455 702.678 55.717L699.061 61.669L698.561 55.43C697.724 45.008 692.569 37.592 684.069 34.585C678.65 32.667 663.584 32.959 656.294 35.123C652.994 36.102 647.078 38.438 643.148 40.314C638.402 42.579 624.292 46.763 601.148 52.768C581.978 57.742 565.506 62.053 564.544 62.348C562.894 62.853 562.794 68.013 562.794 152.316C562.794 201.504 563.165 241.749 563.618 241.749C564.072 241.749 584.401 236.574 608.794 230.249C633.187 223.924 653.269 218.749 653.42 218.749C653.572 218.749 653.83 199.287 653.995 175.499C654.315 129.187 654.383 128.559 659.442 125.244C662.083 123.513 686.498 116.787 687.285 117.573C687.565 117.853 687.8 120.595 687.807 123.666C687.814 126.737 688.7 133.524 689.774 138.749C695.327 165.743 713.419 184.051 739.751 189.321C752.411 191.855 771.441 190.868 787.542 186.842C834.773 175.033 864.134 150.71 873.966 115.249C875.945 108.115 876.191 104.813 876.239 84.749C876.283 66.586 875.942 60.611 874.469 53.749C868.711 26.93 854.94 10.374 832.372 3.13695C822.42 -0.0540452 802.814 -0.987045 790.794 1.15996ZM799.294 21.357C757.641 27.526 728.073 47.202 715.506 77.113C707.012 97.328 706.463 128.637 714.29 146.337C722.586 165.095 744.399 173.26 772.926 168.285C813.273 161.249 842.706 141.412 851.881 115.069C854.087 108.734 855.632 95.773 854.189 95.709C853.697 95.687 843.105 98.264 830.652 101.436L808.011 107.203L806.825 112.499C804.597 122.458 796.184 129.962 783.444 133.354C768.504 137.332 759.386 131.367 758.06 116.75L757.528 110.882L762.911 109.368C770.184 107.322 853.643 85.749 854.285 85.749C855.422 85.749 854.659 62.776 853.311 56.414C848.412 33.292 835.313 22.208 811.794 21.286C806.569 21.081 800.944 21.113 799.294 21.357ZM665.459 54.796C652.162 57.028 636.418 68.777 629.969 81.279C628.276 84.563 626.868 87.024 626.841 86.749C626.643 84.747 623.78 69.403 623.565 69.189C623.416 69.042 614.406 71.222 603.544 74.035L583.794 79.15V147.056C583.794 200.951 584.052 214.872 585.044 214.521C585.732 214.277 596.755 211.417 609.541 208.164L632.787 202.249L632.791 168.548C632.794 133.102 633.294 127.722 637.329 119.709C639.768 114.866 646.669 107.899 651.506 105.398C653.124 104.561 658.688 102.701 663.871 101.264C669.053 99.827 674.082 98.418 675.044 98.133C676.64 97.66 676.794 95.735 676.794 76.298C676.794 55.038 676.788 54.981 674.544 54.379C671.993 53.696 672.021 53.694 665.459 54.796ZM781.63 57.615C769.883 61.481 763.008 68.08 759.755 78.609C758.661 82.154 757.995 85.283 758.275 85.564C758.556 85.844 769.25 83.38 782.04 80.087L805.294 74.099L805.059 70.291C804.353 58.882 794.304 53.445 781.63 57.615ZM466.544 87.565L379.794 110.164L379.734 125.207L379.674 140.249L377.8 133.295C371.885 111.341 355.797 94.702 335.202 89.239C327.623 87.228 312.316 87.179 303.293 89.137C299.443 89.972 272.219 96.911 242.794 104.558L189.294 118.462L189.04 228.686L188.785 338.91L191.733 338.262C193.355 337.906 215.069 332.327 239.988 325.863L285.294 314.112L285.559 285.584L285.824 257.055L298.559 253.759C315.605 249.346 325.757 245.593 334.17 240.595C342.462 235.669 356.279 222.714 362.438 214.093C368.495 205.614 374.497 192.402 377.263 181.458L379.583 172.279L380.039 200.764C380.438 225.772 380.753 230.201 382.616 237.049C387.155 253.735 396.384 265.854 409.072 271.792C425.526 279.491 447.288 277.92 468.794 267.481C473.469 265.211 477.957 263.41 478.768 263.478C479.579 263.546 497.426 259.135 518.43 253.675C539.433 248.216 556.882 243.749 557.206 243.749C557.529 243.749 557.794 203.474 557.794 154.249V64.749L555.544 64.858C554.307 64.918 514.256 75.136 466.544 87.565ZM510.794 98.069L487.294 104.249L486.794 148.249C486.306 191.235 486.243 192.344 484.086 196.377C478.259 207.271 463.13 214.175 456.011 209.188C450.834 205.562 450.794 205.166 450.794 157.78V113.711L448.044 114.4C446.531 114.779 435.394 117.645 423.294 120.769L401.294 126.449L401.014 168.849C400.713 214.405 401.496 228.172 404.909 237.384C407.989 245.695 414.474 252.019 422.229 254.273C433.445 257.534 450.892 254.006 465.121 245.601C473.153 240.856 484.725 230.251 489.337 223.406C493.062 217.878 492.971 217.77 494.867 229.999C495.528 234.261 496.119 237.726 496.181 237.697C496.243 237.669 505.294 235.281 516.294 232.391L536.294 227.136L536.551 159.442C536.755 105.588 536.551 91.763 535.551 91.819C534.86 91.857 523.719 94.67 510.794 98.069ZM286.794 115.094C273.319 118.607 250.482 124.535 236.044 128.267L209.794 135.052V223.468C209.794 307.204 209.887 311.856 211.544 311.367C212.506 311.083 222.294 308.542 233.294 305.72C244.294 302.899 255.657 299.919 258.544 299.099L263.794 297.607V269.217V240.826L267.544 239.846C269.607 239.307 280.069 236.589 290.794 233.806C312.287 228.229 322.469 223.888 331.997 216.239C343.074 207.348 352.892 191.507 356.802 176.217C359.08 167.31 359.523 149.312 357.679 140.548C354.987 127.748 347.635 117.765 337.07 112.564C331.229 109.688 329.327 109.271 320.873 109.005C311.843 108.722 309.891 109.071 286.794 115.094ZM982.294 151.427C963.833 153.753 935.902 160.571 801.294 195.604C773.794 202.762 735.544 212.679 716.294 217.644C607.175 245.784 377.65 305.56 377.275 305.934C376.908 306.302 379.555 331.589 381.233 343.749L381.716 347.249L377.084 341.905C367.411 330.745 351.528 322.261 335.53 319.709C323.94 317.86 302.784 318.979 290.294 322.103C244.969 333.439 212.108 359.752 196.735 397.019L193.102 405.825L189.216 399.18C184.363 390.881 175.215 382.309 167.22 378.568C157.239 373.897 148.304 372.473 132.794 373.08C115.869 373.743 105.64 375.908 45.7941 391.492L0.294119 403.34L0.0411204 571.045C-0.0978796 663.282 0.12712 738.757 0.54112 738.766C0.95512 738.776 26.8321 732.174 58.0441 724.096L114.794 709.408V650.617V591.826L119.044 590.752C145.472 584.073 169.802 569.84 181.968 553.942L186.794 547.636V562.96C186.794 584.657 188.56 608.496 190.838 617.532C197.435 643.713 216.102 662.978 241.658 669.982C252.959 673.079 275.436 673.049 289.585 669.917C304.674 666.577 313.842 663.39 327.294 656.809C362.683 639.495 387.717 607.469 394.378 570.988C395.204 566.461 396.303 548.308 397.024 527.249L398.258 491.249L399.867 505.249C400.752 512.949 404.283 543.774 407.714 573.749C411.144 603.724 414.253 628.954 414.623 629.816C415.198 631.159 424.326 629.036 478.269 615.011C512.906 606.005 541.556 598.135 541.935 597.52C542.315 596.906 542.938 593.291 543.32 589.486C544.585 576.898 545.197 576.528 547.197 587.146C548.866 596.008 549.185 596.76 551.027 596.175C553.697 595.328 631.227 575.299 655.294 569.239C665.744 566.608 674.701 564.092 675.199 563.647C675.697 563.202 679.814 528.956 684.347 487.544L692.59 412.249L692.692 485.499C692.781 549.722 692.978 558.749 694.286 558.749C695.597 558.749 824.199 525.721 865.794 514.702C874.319 512.444 920.669 500.393 968.794 487.922L1056.29 465.249L1056.21 401.249C1056.16 356.512 1055.77 334.992 1054.93 329.749C1053.6 321.473 1049.43 311.605 1044.8 305.758C1043.15 303.67 1041.79 301.718 1041.79 301.422C1041.79 301.125 1043.16 298.682 1044.83 295.992C1052.47 283.713 1055.99 265.457 1056.06 237.749C1056.16 201.474 1050.46 182.062 1035.33 167.144C1023.69 155.665 1010.97 150.623 994.334 150.899C989.362 150.981 983.944 151.219 982.294 151.427ZM290.294 156.413C283.769 157.824 267.949 161.967 266.044 162.764C263.832 163.69 263.794 164.003 263.794 181.228C263.794 192.994 264.145 198.749 264.863 198.749C266.812 198.749 286.226 193.699 290.294 192.134C298.793 188.864 303.735 181.287 303.772 171.467C303.802 163.59 301.761 159.051 297.362 157.213C295.435 156.408 293.506 155.801 293.076 155.865C292.646 155.929 291.394 156.176 290.294 156.413ZM979.794 173.216C965.54 175.56 948.871 179.401 912.294 188.768C893.044 193.697 876.281 198.012 875.044 198.356L872.794 198.982V344.945V490.908L875.544 490.286C877.057 489.944 893.369 485.727 911.794 480.916L945.294 472.167L945.794 406.208L946.294 340.249L951.553 339.357C958.411 338.194 962.887 339.473 964.628 343.095C967.062 348.16 967.74 363.755 967.767 415.325L967.794 466.4L1001.04 457.772L1034.29 449.144V389.697C1034.29 331.084 1034.26 330.184 1032.16 325.627C1029.4 319.664 1023.48 313.137 1018.53 310.613C1016.38 309.518 1010.67 308.135 1005.83 307.54L997.039 306.457L1005.67 302.258C1021.3 294.65 1028.92 285.356 1032.59 269.417C1035.05 258.708 1034.98 215.127 1032.48 205.249C1028.67 190.199 1021.45 180.096 1010.94 175.124C1004.01 171.845 992.436 171.136 979.794 173.216ZM773.544 224.564L713.794 240.16V385.954C713.794 466.141 714.131 531.761 714.544 531.776C714.957 531.791 743.531 524.497 778.044 515.568L840.794 499.334V470.023V440.711L838.044 441.394C836.531 441.77 824.604 444.851 811.538 448.241C798.473 451.631 787.56 454.182 787.288 453.91C787.016 453.638 786.794 439.333 786.794 422.121V390.826L790.544 389.817C792.607 389.262 802.748 386.603 813.08 383.909C823.412 381.215 832.082 378.795 832.346 378.531C832.61 378.266 832.706 365.692 832.56 350.587L832.294 323.123L810.294 328.9C798.194 332.077 787.957 334.693 787.544 334.713C787.131 334.733 786.794 322.395 786.794 307.296V279.843L790.044 278.973C791.832 278.495 802.856 275.661 814.542 272.676L835.79 267.249L835.792 237.999C835.794 215.206 835.518 208.773 834.544 208.858C833.857 208.918 806.406 215.986 773.544 224.564ZM948.044 229.455L945.794 229.888V262.319C945.794 280.155 946.002 294.749 946.256 294.749C948.503 294.749 958.645 289.941 961.281 287.626C966.14 283.36 967.25 277.639 967.274 256.749C967.295 238 966.39 232.98 962.495 230.252C960.451 228.821 953.366 228.43 948.044 229.455ZM652.679 255.942L618.064 264.985L616.933 273.117C610.776 317.402 601.632 411.089 599.206 454.749C598.824 461.624 598.23 468.029 597.886 468.983C597.543 469.937 595.779 450.362 593.967 425.483C587.799 340.797 582.407 276.029 581.446 275.067C581.089 274.711 506.727 293.504 506.145 294.097C505.899 294.349 500.017 343.676 497.362 367.749C492.303 413.623 486.794 476.323 486.794 488.021C486.794 505.065 484.806 484.376 478.208 398.663C474.225 346.922 470.708 304.329 470.391 304.013C470.075 303.696 454.173 307.493 435.055 312.449L400.294 321.462L400.617 325.355C400.795 327.497 405.824 371.999 411.794 424.249C417.763 476.499 424.804 538.314 427.44 561.615C430.491 588.582 432.651 604.141 433.384 604.422C434.28 604.766 473.829 594.837 519.843 582.715L523.393 581.78L527.629 549.014C533.505 503.566 540.415 449.247 541.88 436.988C542.554 431.345 543.248 426.87 543.422 427.043C543.595 427.217 545.31 439.709 547.233 454.804C552.851 498.915 563.774 568.908 565.299 570.562C565.457 570.735 583.971 566.067 606.441 560.191C628.91 554.314 649.254 549.024 651.649 548.435C654.045 547.846 656.17 546.888 656.373 546.306C656.677 545.435 688.794 249.285 688.794 247.356C688.794 246.473 690.191 246.141 652.679 255.942ZM828.044 290.964L808.794 296.028V301.789V307.55L817.544 305.21C822.357 303.924 831.807 301.436 838.544 299.682L850.794 296.492V291.121C850.794 286.643 850.503 285.762 849.044 285.824C848.082 285.866 838.631 288.178 828.044 290.964ZM301.349 341.363C285.152 344.287 265.452 352.198 252.294 361.063C244.4 366.381 232.655 377.743 227.236 385.305C221.691 393.041 214.276 408.464 212.269 416.435C209.161 428.776 208.645 439.32 208.114 501.249C207.577 563.866 208.469 599.257 210.878 610.89C212.721 619.787 218.281 630.183 224.594 636.536C235.3 647.31 246.143 651.178 265.294 651.057C272.432 651.012 280.535 650.298 285.294 649.294C335.325 638.739 369.305 605.124 374.805 560.746C376.506 547.018 377.255 449.333 375.925 414.725C374.729 383.622 373.428 375.452 368.075 365.424C364.311 358.374 354.48 348.689 347.777 345.427C336.448 339.914 318.214 338.318 301.349 341.363ZM290.294 393.703C287.335 394.927 283.908 398.969 282.548 402.839C280.992 407.268 280.222 577.369 281.709 588.111C282.885 596.604 285.173 599.274 290.53 598.404C295.92 597.53 299.558 594.218 301.468 588.448C303.029 583.732 303.223 575.369 303.557 498.416C303.937 411.051 303.519 398.313 300.157 394.597C298.406 392.662 293.816 392.246 290.294 393.703ZM126.294 394.373C113.667 396.285 101.105 399.16 65.2941 408.336C42.7441 414.114 23.5071 419.076 22.5441 419.362C20.8881 419.856 20.7941 427.698 20.7941 565.816C20.7941 646.079 21.1321 711.733 21.5441 711.712C21.9561 711.692 38.2691 707.496 57.7941 702.386L93.2941 693.097L93.7941 634.25L94.2941 575.404L106.561 572.152C123.389 567.692 131.088 565.067 139.294 560.992C159.976 550.721 171.168 537.678 175.542 518.749C177.031 512.304 177.276 505.621 177.285 471.249C177.295 427.808 176.744 421.606 172.023 411.963C168.777 405.335 161.381 398.497 155.038 396.26C150.33 394.599 132.521 393.43 126.294 394.373ZM832.294 400.676C822.394 403.292 813.057 405.737 811.544 406.109L808.794 406.787V416.885C808.794 426 808.964 426.94 810.544 426.549C811.506 426.311 820.957 423.897 831.544 421.184L850.794 416.251V406C850.794 400.362 850.682 395.788 850.544 395.835C850.406 395.882 842.194 398.06 832.294 400.676ZM98.5441 449.927L93.7941 450.965V487.968V524.972L97.4731 524.281C102.864 523.27 109.553 519.871 111.818 516.991C115.925 511.77 116.794 505.705 116.788 482.317C116.783 459.471 116.124 454.262 112.866 451.314C110.46 449.136 104.709 448.579 98.5441 449.927Z" fill="#254CA4"/>
</svg>
