<svg width="80" height="77" viewBox="0 0 80 77" fill="none" xmlns="http://www.w3.org/2000/svg">
<path d="M42.1449 49.9091C45.222 49.9091 47.7164 52.3919 47.7164 55.4545C47.7164 58.5172 45.222 61 42.1449 61C39.0679 61 36.5735 58.5172 36.5735 55.4545C36.5735 52.3919 39.0679 49.9091 42.1449 49.9091Z" fill="#FDD835"/>
<path d="M44.0021 0C58.8592 0 64.4307 11.0576 64.4307 20.3333C64.4307 27.9948 60.2027 33.851 52.5225 36.8217C50.851 37.4705 49.1965 37.9087 47.7164 38.2044V40.6667C47.7164 42.1374 47.129 43.5475 46.0841 44.5875C45.0393 45.6275 43.6226 46.2121 42.1449 46.2121C40.6673 46.2121 39.2506 45.6275 38.2058 44.5875C37.1609 43.5475 36.5735 42.1374 36.5735 40.6667V33.2727C36.5735 31.802 37.1609 30.3919 38.2058 29.3519C39.2506 28.3119 40.6673 27.7273 42.1449 27.7273C43.2648 27.7162 53.2878 25.8788 53.2878 18.4848C53.2878 14.7879 49.5735 11.0909 44.0021 11.0909C39.4688 11.0909 36.5735 14.7879 36.5735 16.6364C36.5735 17.3646 36.4291 18.0864 36.1491 18.7592C35.8691 19.4318 35.4584 20.0424 34.9413 20.5572C34.4241 21.0719 33.8106 21.4807 33.1349 21.7594C32.4589 22.0381 31.7337 22.1818 31.0021 22.1818C30.2704 22.1818 29.5452 22.0381 28.8693 21.7594C28.1936 21.4807 27.5801 21.0719 27.0629 20.5572C26.5457 20.0424 26.135 19.4318 25.855 18.7592C25.5751 18.0864 25.4307 17.3646 25.4307 16.6364C25.4307 7.61946 33.9364 0 44.0021 0Z" fill="#FDD835"/>
<path d="M58.6586 69.222C60.7063 69.8091 61.8951 71.9284 61.3139 73.9554C60.7326 75.9824 58.6014 77.1497 56.5537 76.5625C54.506 75.9753 53.3172 73.8561 53.8984 71.8291C54.4797 69.802 56.6109 68.6348 58.6586 69.222Z" fill="#02399A"/>
<path d="M69.3664 36.5439C79.2537 39.379 80.8628 47.7607 79.1025 53.8999C77.6484 58.9706 73.7234 62.0397 68.0485 62.5403C66.813 62.6508 65.6288 62.6251 64.5877 62.5384L64.1204 64.168C63.8412 65.1414 63.1827 65.9626 62.29 66.4515C61.3973 66.9405 60.3436 67.0571 59.3602 66.7751C58.3769 66.4931 57.545 65.8358 57.0471 64.9482C56.5491 64.0605 56.4258 63.0151 56.7049 62.0417L58.1082 57.148C58.3873 56.1746 59.0458 55.3534 59.9385 54.8645C60.8312 54.3755 61.885 54.2589 62.8683 54.5409C63.6157 54.7472 70.6346 55.4438 72.0378 50.5501C72.7394 48.1033 70.9693 44.9476 67.2615 43.8845C64.2447 43.0194 61.6163 44.9137 61.2655 46.1372C61.1273 46.6191 60.8942 47.0693 60.5802 47.4612C60.2662 47.8529 59.877 48.1787 59.4351 48.4207C58.9933 48.6627 58.5074 48.8162 58.0048 48.8717C57.5021 48.9271 56.9922 48.8839 56.5053 48.7443C56.0184 48.6046 55.5631 48.3711 55.1661 48.0577C54.7693 47.7443 54.4386 47.3567 54.1922 46.9173C53.9457 46.4779 53.7882 45.9954 53.7296 45.4968C53.6709 44.9981 53.7118 44.4928 53.85 44.0108C55.5613 38.043 62.6678 34.6231 69.3664 36.5439Z" fill="#02399A"/>
<path d="M20.0323 52.6409C22.0075 51.8429 24.249 52.781 25.0389 54.7362C25.8289 56.6913 24.8681 58.9232 22.893 59.7212C20.9178 60.5192 18.6763 59.5812 17.8864 57.626C17.0964 55.6708 18.0572 53.4389 20.0323 52.6409Z" fill="#CBDFEE"/>
<path d="M8.35159 20.2979C17.8883 16.4448 24.3167 22.059 26.7091 27.9805C28.6852 32.8715 27.4817 37.7065 23.318 41.5947C22.4125 42.4424 21.4635 43.1512 20.5897 43.7239L21.2248 45.2958C21.6041 46.2347 21.5907 47.2872 21.1883 48.2221C20.7859 49.157 20.0273 49.8976 19.0788 50.2808C18.1303 50.664 17.0701 50.6582 16.1312 50.2653C15.1923 49.8723 14.4515 49.1245 14.0722 48.1856L12.1651 43.4654C11.7858 42.5265 11.7991 41.4739 12.2016 40.5391C12.604 39.6042 13.3626 38.8635 14.3111 38.4803C15.027 38.1828 20.9869 34.4104 19.0798 29.6902C18.1262 27.3301 14.7885 25.9333 11.2122 27.3782C8.30232 28.5539 7.39739 31.6649 7.87417 32.8449C8.062 33.3098 8.15549 33.8081 8.1493 34.3102C8.14304 34.8121 8.03691 35.3085 7.83771 35.7712C7.6385 36.234 7.35013 36.654 6.9883 37.0072C6.62628 37.3604 6.19785 37.6402 5.7282 37.83C5.25856 38.0197 4.75598 38.116 4.25021 38.1134C3.74462 38.1108 3.24536 38.0089 2.78062 37.8144C2.31588 37.6199 1.89474 37.3366 1.54156 36.9799C1.1883 36.623 0.909437 36.1996 0.721605 35.7347C-1.60409 29.9784 1.89045 22.9084 8.35159 20.2979Z" fill="#CBDFEE"/>
</svg>
