<svg width="119" height="80" viewBox="0 0 119 80" fill="none" xmlns="http://www.w3.org/2000/svg">
<g filter="url(#filter0_d_697_5619)">
<path d="M29.3296 41.5568C28.0333 41.8561 26.9122 41.6598 25.9664 40.9679C25.0508 40.2277 24.4388 39.1898 24.1304 37.8542C23.6045 35.5759 23.7448 33.7644 24.5514 32.4197C24.7841 31.9936 25.1814 31.3847 25.7433 30.593C26.3264 29.7136 26.7298 29.0413 26.9533 28.5759C27.1769 28.1106 27.2342 27.6422 27.1254 27.1708C26.8896 26.1495 26.2414 25.7613 25.1809 26.0062C24.7095 26.115 24.3333 26.3673 24.0523 26.7632C23.8106 27.15 23.7442 27.5791 23.853 28.0504C24.1523 29.3467 23.8518 30.5539 22.9514 31.672C22.0813 32.7418 20.8409 33.4625 19.2304 33.8344C17.6199 34.2062 16.1921 33.9359 14.9471 33.0234C13.693 32.0717 12.8257 30.5549 12.345 28.4731C11.946 26.7447 12.112 24.8652 12.8431 22.8346C13.5741 20.8039 14.8295 18.9833 16.6091 17.3725C18.3887 15.7618 20.5551 14.6617 23.1084 14.0723C25.7009 13.4737 28.1258 13.4931 30.3831 14.1305C32.6312 14.7286 34.5093 15.7845 36.0173 17.2982C37.5645 18.8028 38.5648 20.5372 39.0183 22.5012C39.4808 24.5046 39.4976 26.2798 39.0686 27.8269C38.6699 29.3257 38.0657 30.5616 37.256 31.5347C36.4765 32.4594 35.5111 33.3856 34.36 34.3134C33.7043 34.8785 33.2466 35.3152 32.9867 35.6234C32.7269 35.9316 32.6287 36.2232 32.6922 36.4982C32.928 37.5195 32.7528 38.5529 32.1667 39.5985C31.6108 40.5957 30.6651 41.2485 29.3296 41.5568ZM29.7422 43.0752C28.0924 43.456 26.7992 44.3959 25.8626 45.8947C24.926 47.3936 24.6482 48.9679 25.0291 50.6177C25.41 52.2675 26.3498 53.5607 27.8487 54.4973C29.3475 55.4338 30.9218 55.7117 32.5716 55.3308C34.2214 54.9499 35.5146 54.0101 36.4512 52.5112C37.3877 51.0124 37.6656 49.4381 37.2847 47.7883C36.9038 46.1385 35.964 44.8453 34.4651 43.9087C32.9663 42.9721 31.392 42.6943 29.7422 43.0752Z" fill="#FDD835"/>
<path d="M30.1066 44.6559C31.3171 44.3764 32.4535 44.5648 33.6053 45.2844C34.757 46.0041 35.4244 46.9429 35.7038 48.1534C35.9833 49.3639 35.795 50.5003 35.0753 51.652C34.3557 52.8036 33.4167 53.4712 32.2063 53.7506C30.9961 54.0299 29.8601 53.8413 28.7086 53.1219C27.5569 52.4022 26.8895 51.4633 26.61 50.2529C26.3306 49.0423 26.5188 47.906 27.2385 46.7543C27.9582 45.6027 28.8964 44.9354 30.1066 44.6559ZM23.4729 15.6528C25.8357 15.1073 27.9814 15.138 29.9424 15.6917L29.9659 15.6983C31.9623 16.2294 33.5804 17.1505 34.8682 18.4432L34.8864 18.4611C36.2267 19.7645 37.0595 21.2276 37.4378 22.8662C37.8561 24.6782 37.8451 26.1701 37.5059 27.3937L37.5027 27.4015L37.5006 27.41C37.1504 28.7265 36.6415 29.734 36.0155 30.489C35.3158 31.319 34.429 32.1743 33.3416 33.0506L33.3214 33.0673L33.3014 33.085C32.6372 33.6575 32.0952 34.1641 31.7467 34.5775C31.3069 35.0992 30.8899 35.9016 31.1118 36.8629C31.2437 37.4344 31.1705 38.0576 30.7514 38.8052L30.7501 38.8085C30.4619 39.3255 29.9512 39.7486 28.9651 39.9763C28.0765 40.1815 27.4609 40.0371 26.955 39.6787C26.382 39.2032 25.9473 38.5131 25.7109 37.4893C25.2337 35.4223 25.4382 34.0959 25.9429 33.2544L25.9593 33.2255L25.9748 33.1969C26.16 32.8577 26.5119 32.3121 27.0657 31.5319L27.081 31.5113L27.0951 31.49C27.6862 30.5986 28.1413 29.8487 28.4155 29.2779C28.7869 28.5046 28.9031 27.6607 28.7056 26.8055C28.5279 26.0359 28.1252 25.2186 27.2955 24.7217C26.4793 24.2331 25.5748 24.25 24.8156 24.4252C23.9558 24.6238 23.2391 25.1055 22.7291 25.824L22.7021 25.8633L22.6763 25.9034C22.1918 26.6788 22.073 27.5529 22.272 28.4151C22.4495 29.1839 22.3041 29.8891 21.6876 30.6548C21.0878 31.389 20.1927 31.947 18.8655 32.2534C17.6804 32.527 16.7451 32.3273 15.9117 31.7186C15.0599 31.0649 14.3486 29.9406 13.9255 28.108C13.6105 26.7435 13.7209 25.1855 14.3694 23.3842C15.0005 21.631 16.0933 20.0282 17.6982 18.5756C19.2541 17.1673 21.164 16.186 23.4729 15.6528Z" stroke="white" stroke-width="3.24442"/>
</g>
<g filter="url(#filter1_d_697_5619)">
<path d="M82.8664 44.2311C81.1931 43.8448 80.0035 42.9826 79.2976 41.6446C78.6541 40.2676 78.5314 38.7171 78.9294 36.9931C79.6084 34.0521 80.7964 32.0297 82.4932 30.926C83.0042 30.5633 83.8098 30.0817 84.9098 29.4811C86.084 28.7908 86.9324 28.2389 87.4551 27.8255C87.9778 27.4121 88.3094 26.9011 88.4499 26.2927C88.7543 24.9743 88.2219 24.157 86.8528 23.841C86.2444 23.7005 85.6651 23.7804 85.1151 24.0807C84.6158 24.3927 84.2959 24.8529 84.1554 25.4614C83.7691 27.1347 82.7373 28.3653 81.0599 29.1531C79.445 29.9018 77.598 30.0362 75.5191 29.5563C73.4401 29.0763 71.9365 27.9547 71.0083 26.1915C70.0918 24.3777 69.9438 22.127 70.5643 19.4395C71.0794 17.2084 72.3356 15.1217 74.3329 13.1794C76.3302 11.2371 78.8169 9.83504 81.7932 8.97328C84.7694 8.11153 87.9055 8.06111 91.2015 8.82204C94.5481 9.59468 97.3506 10.9894 99.6089 13.0062C101.879 14.9724 103.46 17.2602 104.353 19.8698C105.297 22.4911 105.476 25.0695 104.891 27.6048C104.294 30.1909 103.309 32.26 101.936 33.8124C100.625 35.3257 99.2244 36.4177 97.7343 37.0885C96.3066 37.7202 94.6625 38.2486 92.8018 38.6736C91.7213 38.9583 90.9431 39.2059 90.4672 39.4165C89.9914 39.6271 89.7124 39.9098 89.6305 40.2648C89.3261 41.5832 88.5381 42.6831 87.2664 43.5645C86.0571 44.4069 84.5905 44.6291 82.8664 44.2311ZM82.4859 46.2262C80.3563 45.7345 78.324 46.0932 76.3892 47.3022C74.4544 48.5112 73.2411 50.1806 72.7494 52.3102C72.2577 54.4399 72.6164 56.4722 73.8254 58.407C75.0344 60.3418 76.7038 61.5551 78.8335 62.0468C80.9632 62.5384 82.9954 62.1798 84.9302 60.9708C86.8651 59.7618 88.0783 58.0924 88.57 55.9627C89.0617 53.833 88.703 51.8008 87.494 49.8659C86.285 47.9311 84.6156 46.7179 82.4859 46.2262Z" fill="#39B7FF"/>
<path d="M82.1208 47.8068C83.8112 48.1971 85.1264 49.1376 86.1185 50.7253C87.1107 52.313 87.3794 53.9073 86.9891 55.5977C86.5988 57.2882 85.6585 58.6033 84.0707 59.5955C82.4829 60.5875 80.8886 60.8563 79.1982 60.466C77.508 60.0758 76.1935 59.1353 75.2014 57.5478C74.2093 55.96 73.9396 54.3656 74.3299 52.6751C74.7202 50.9847 75.6615 49.6698 77.2493 48.6776C78.8369 47.6858 80.4306 47.4167 82.1208 47.8068ZM90.8365 10.4025C93.9533 11.1221 96.4997 12.4042 98.5283 14.2159L98.5466 14.2321C100.62 16.0277 102.027 18.0806 102.819 20.395L102.827 20.419C103.673 22.7687 103.82 25.0297 103.31 27.2396C102.757 29.6342 101.871 31.4367 100.721 32.7375L100.715 32.7442L100.71 32.75C99.5225 34.1209 98.3073 35.0495 97.0781 35.6049C95.7637 36.1865 94.2209 36.6851 92.4402 37.0918L92.4147 37.098L92.389 37.1051C91.2973 37.3927 90.4122 37.6667 89.8105 37.933C89.0792 38.2566 88.2899 38.8586 88.0495 39.8998C87.849 40.7683 87.3334 41.544 86.3427 42.2308L86.3392 42.233C85.581 42.7612 84.606 42.9674 83.2312 42.65C81.9642 42.3575 81.2068 41.7644 80.7502 40.9197C80.2991 39.9314 80.1838 38.7714 80.51 37.3583C81.1402 34.6286 82.173 33.0693 83.378 32.2856L83.4051 32.2678L83.4325 32.249C83.8628 31.9436 84.5997 31.4982 85.6873 30.9044L85.7101 30.8926L85.7321 30.8797C86.9187 30.1821 87.8473 29.5834 88.4617 29.0975C89.2523 28.4721 89.8013 27.6496 90.0304 26.6573C90.2423 25.7391 90.2262 24.7081 89.6384 23.8056C89.0591 22.9163 88.1314 22.4715 87.2178 22.2606C86.2208 22.0304 85.2354 22.1672 84.338 22.6571L84.2958 22.6794L84.2557 22.7053C83.3677 23.2601 82.8059 24.0971 82.5752 25.0965C82.3106 26.2423 81.6378 27.089 80.3701 27.6844C79.1453 28.2501 77.68 28.3903 75.8839 27.9756C74.3315 27.6172 73.2737 26.853 72.578 25.677L72.4443 25.4356C71.7615 24.0671 71.5826 22.2394 72.1449 19.804C72.576 17.9369 73.641 16.1145 75.4634 14.3422C77.2494 12.6054 79.4946 11.3278 82.2444 10.5316C84.931 9.75374 87.7847 9.69797 90.8365 10.4025Z" stroke="white" stroke-width="3.24442"/>
</g>
<g filter="url(#filter2_d_697_5619)">
<path d="M54.1082 41.7761C52.1359 41.7761 50.582 41.1187 49.4465 39.8039C48.3707 38.4293 47.8328 36.7259 47.8328 34.6939C47.8328 31.2275 48.6396 28.6576 50.2533 26.9841C50.7314 26.4463 51.5084 25.6992 52.5842 24.7429C53.7197 23.6672 54.5266 22.8304 55.0047 22.2328C55.4828 21.6351 55.7219 20.9777 55.7219 20.2605C55.7219 18.7066 54.915 17.9297 53.3014 17.9297C52.5842 17.9297 51.9566 18.1687 51.4187 18.6469C50.9406 19.125 50.7016 19.7226 50.7016 20.4398C50.7016 22.4121 49.8648 24.0556 48.1914 25.3705C46.5777 26.6256 44.5457 27.2531 42.0953 27.2531C39.6449 27.2531 37.6727 26.3865 36.1785 24.6533C34.6844 22.8603 33.9373 20.3801 33.9373 17.2125C33.9373 14.5828 34.8039 11.9232 36.5371 9.23378C38.2703 6.54433 40.6908 4.33301 43.7986 2.59981C46.9064 0.866602 50.4027 0 54.2875 0C58.232 0 61.7283 0.836718 64.7763 2.51015C67.8244 4.12382 70.1851 6.27538 71.8586 8.96483C73.5918 11.6543 74.4584 14.4931 74.4584 17.4814C74.4584 20.5295 73.8906 23.0994 72.755 25.1912C71.6793 27.2232 70.3943 28.807 68.9002 29.9425C67.4658 31.0183 65.7625 32.0343 63.7902 32.9906C62.6547 33.5882 61.8478 34.0664 61.3697 34.425C60.8916 34.7836 60.6525 35.172 60.6525 35.5904C60.6525 37.1443 60.0549 38.5787 58.8596 39.8935C57.724 41.1486 56.1402 41.7761 54.1082 41.7761ZM54.1978 44.107C51.6877 44.107 49.5062 45.0333 47.6535 46.8861C45.8008 48.7388 44.8744 50.9202 44.8744 53.4304C44.8744 55.9406 45.8008 58.122 47.6535 59.9747C49.5062 61.8275 51.6877 62.7538 54.1978 62.7538C56.708 62.7538 58.8894 61.8275 60.7422 59.9747C62.5949 58.122 63.5213 55.9406 63.5213 53.4304C63.5213 50.9202 62.5949 48.7388 60.7422 46.8861C58.8894 45.0333 56.708 44.107 54.1978 44.107Z" fill="#7CE47C"/>
<path d="M54.1981 45.7295C56.2573 45.7295 58.0322 46.4699 59.5955 48.0332C61.1587 49.5965 61.8992 51.3714 61.8992 53.4307C61.8992 55.4899 61.1588 57.2648 59.5955 58.8281C58.0322 60.3914 56.2573 61.1318 54.1981 61.1318C52.1388 61.1318 50.3639 60.3913 48.8006 58.8281C47.2373 57.2648 46.4969 55.4899 46.4969 53.4307C46.4969 51.3713 47.2372 49.5966 48.8006 48.0332C50.364 46.4698 52.1387 45.7295 54.1981 45.7295ZM54.2879 1.62207C57.9965 1.62213 61.2178 2.4074 63.9959 3.93262L64.0067 3.93848L64.0174 3.94336C66.8352 5.43513 68.9726 7.39768 70.4813 9.82227L70.4949 9.84375C72.0717 12.2905 72.8358 14.8271 72.8358 17.4814C72.8358 20.3331 72.3043 22.6203 71.3289 24.417L71.3211 24.4326C70.3335 26.298 69.1924 27.6803 67.9266 28.6445C66.5913 29.646 64.9813 30.6108 63.0828 31.5312L63.0584 31.543L63.035 31.5547C61.8892 32.1577 60.9845 32.6858 60.3963 33.127C59.6947 33.6531 59.0301 34.468 59.0301 35.5908C59.03 36.683 58.6244 37.7407 57.659 38.8027L57.657 38.8047C56.8903 39.6522 55.7818 40.1543 54.1082 40.1543C52.5526 40.1543 51.4817 39.6603 50.7 38.7705C49.8991 37.7315 49.455 36.4079 49.4549 34.6943C49.4549 31.445 50.2145 29.3614 51.4207 28.1104L51.4442 28.0869L51.4656 28.0615C51.878 27.5976 52.5967 26.9019 53.6619 25.9551L53.6815 25.9385L53.7 25.9209C54.846 24.8352 55.7201 23.9351 56.2713 23.2461C56.9629 22.3816 57.3445 21.3719 57.3445 20.2607C57.3445 19.2178 57.0701 18.1412 56.242 17.3438C55.4254 16.5574 54.3434 16.3077 53.3016 16.3076C52.1856 16.3076 51.1743 16.6935 50.3406 17.4346L50.3055 17.4658L50.2713 17.5C49.4694 18.3021 49.079 19.3213 49.0789 20.4395C49.0789 21.8681 48.5084 23.0557 47.1951 24.0898C45.9197 25.0818 44.259 25.6308 42.0955 25.6309C40.0816 25.6309 38.5734 24.9434 37.4119 23.5986C36.2434 22.1871 35.5595 20.1254 35.5594 17.2129C35.5594 14.9566 36.3 12.5969 37.9012 10.1123C39.4746 7.6709 41.6869 5.6349 44.5887 4.0166C47.4332 2.43025 50.6537 1.62207 54.2879 1.62207Z" stroke="white" stroke-width="3.24442"/>
</g>
<defs>
<filter id="filter0_d_697_5619" x="6.55734" y="13.6367" width="38.3972" height="53.0121" filterUnits="userSpaceOnUse" color-interpolation-filters="sRGB">
<feFlood flood-opacity="0" result="BackgroundImageFix"/>
<feColorMatrix in="SourceAlpha" type="matrix" values="0 0 0 0 0 0 0 0 0 0 0 0 0 0 0 0 0 0 127 0" result="hardAlpha"/>
<feOffset dy="5.57636"/>
<feGaussianBlur stdDeviation="2.78818"/>
<feComposite in2="hardAlpha" operator="out"/>
<feColorMatrix type="matrix" values="0 0 0 0 0 0 0 0 0 0 0 0 0 0 0 0 0 0 0.25 0"/>
<feBlend mode="normal" in2="BackgroundImageFix" result="effect1_dropShadow_697_5619"/>
<feBlend mode="normal" in="SourceGraphic" in2="effect1_dropShadow_697_5619" result="shape"/>
</filter>
<filter id="filter1_d_697_5619" x="62.9901" y="8.28516" width="49.4353" height="68.3734" filterUnits="userSpaceOnUse" color-interpolation-filters="sRGB">
<feFlood flood-opacity="0" result="BackgroundImageFix"/>
<feColorMatrix in="SourceAlpha" type="matrix" values="0 0 0 0 0 0 0 0 0 0 0 0 0 0 0 0 0 0 127 0" result="hardAlpha"/>
<feOffset dy="7.19841"/>
<feGaussianBlur stdDeviation="3.59921"/>
<feComposite in2="hardAlpha" operator="out"/>
<feColorMatrix type="matrix" values="0 0 0 0 0 0 0 0 0 0 0 0 0 0 0 0 0 0 0.25 0"/>
<feBlend mode="normal" in2="BackgroundImageFix" result="effect1_dropShadow_697_5619"/>
<feBlend mode="normal" in="SourceGraphic" in2="effect1_dropShadow_697_5619" result="shape"/>
</filter>
<filter id="filter2_d_697_5619" x="25.6704" y="0" width="57.0549" height="79.2878" filterUnits="userSpaceOnUse" color-interpolation-filters="sRGB">
<feFlood flood-opacity="0" result="BackgroundImageFix"/>
<feColorMatrix in="SourceAlpha" type="matrix" values="0 0 0 0 0 0 0 0 0 0 0 0 0 0 0 0 0 0 127 0" result="hardAlpha"/>
<feOffset dy="8.26693"/>
<feGaussianBlur stdDeviation="4.13346"/>
<feComposite in2="hardAlpha" operator="out"/>
<feColorMatrix type="matrix" values="0 0 0 0 0 0 0 0 0 0 0 0 0 0 0 0 0 0 0.25 0"/>
<feBlend mode="normal" in2="BackgroundImageFix" result="effect1_dropShadow_697_5619"/>
<feBlend mode="normal" in="SourceGraphic" in2="effect1_dropShadow_697_5619" result="shape"/>
</filter>
</defs>
</svg>
