<svg width="87" height="81" viewBox="0 0 87 81" fill="none" xmlns="http://www.w3.org/2000/svg">
<path d="M45.7143 49.9091C48.7913 49.9091 51.2857 52.3919 51.2857 55.4545C51.2857 58.5172 48.7913 61 45.7143 61C42.6373 61 40.1429 58.5172 40.1429 55.4545C40.1429 52.3919 42.6373 49.9091 45.7143 49.9091Z" fill="#FDD835"/>
<path d="M47.5714 0C62.4286 0 68 11.0576 68 20.3333C68 27.9948 63.772 33.851 56.0918 36.8217C54.4204 37.4705 52.7659 37.9087 51.2857 38.2044V40.6667C51.2857 42.1374 50.6983 43.5475 49.6535 44.5875C48.6086 45.6275 47.1919 46.2121 45.7143 46.2121C44.2367 46.2121 42.82 45.6275 41.7751 44.5875C40.7303 43.5475 40.1429 42.1374 40.1429 40.6667V33.2727C40.1429 31.802 40.7303 30.3919 41.7751 29.3519C42.82 28.3119 44.2367 27.7273 45.7143 27.7273C46.8341 27.7162 56.8571 25.8788 56.8571 18.4848C56.8571 14.7879 53.1429 11.0909 47.5714 11.0909C43.0381 11.0909 40.1429 14.7879 40.1429 16.6364C40.1429 17.3646 39.9985 18.0864 39.7185 18.7592C39.4385 19.4318 39.0278 20.0424 38.5106 20.5572C37.9934 21.0719 37.3799 21.4807 36.7042 21.7594C36.0283 22.0381 35.3031 22.1818 34.5714 22.1818C33.8398 22.1818 33.1146 22.0381 32.4386 21.7594C31.7629 21.4807 31.1494 21.0719 30.6323 20.5572C30.1151 20.0424 29.7044 19.4318 29.4244 18.7592C29.1444 18.0864 29 17.3646 29 16.6364C29 7.61946 37.5057 0 47.5714 0Z" fill="#FDD835"/>
<path d="M62.2274 69.222C64.2752 69.8091 65.464 71.9284 64.8827 73.9554C64.3015 75.9824 62.1703 77.1497 60.1226 76.5625C58.0749 75.9753 56.886 73.8561 57.4673 71.8291C58.0485 69.802 60.1797 68.6348 62.2274 69.222Z" fill="#29ABE2"/>
<path d="M72.9353 36.5439C82.8225 39.379 84.4317 47.7607 82.6713 53.8999C81.2173 58.9706 77.2922 62.0397 71.6173 62.5403C70.3819 62.6508 69.1977 62.6251 68.1565 62.5384L67.6892 64.168C67.4101 65.1414 66.7516 65.9626 65.8589 66.4515C64.9662 66.9405 63.9124 67.0571 62.9291 66.7751C61.9457 66.4931 61.1139 65.8358 60.6159 64.9481C60.118 64.0605 59.9947 63.0151 60.2738 62.0417L61.677 57.148C61.9561 56.1746 62.6147 55.3534 63.5074 54.8645C64.4001 54.3755 65.4538 54.2589 66.4372 54.5409C67.1845 54.7472 74.2034 55.4438 75.6067 50.5501C76.3083 48.1033 74.5381 44.9476 70.8304 43.8845C67.8135 43.0194 65.1851 44.9137 64.8343 46.1372C64.6961 46.6191 64.463 47.0693 64.149 47.4612C63.8351 47.8529 63.4458 48.1787 63.004 48.4207C62.5621 48.6627 62.0762 48.8162 61.5737 48.8717C61.071 48.9271 60.5611 48.8839 60.0742 48.7443C59.5873 48.6046 59.1319 48.3711 58.735 48.0577C58.3382 47.7443 58.0075 47.3567 57.761 46.9173C57.5145 46.4779 57.3571 45.9954 57.2984 45.4968C57.2398 44.9981 57.2807 44.4928 57.4189 44.0108C59.1301 38.043 66.2366 34.6231 72.9353 36.5439Z" fill="#29ABE2"/>
<path d="M23.6017 52.64C25.5768 51.842 27.8183 52.78 28.6083 54.7352C29.3982 56.6904 28.4374 58.9223 26.4623 59.7203C24.4872 60.5183 22.2457 59.5802 21.4557 57.625C20.6658 55.6698 21.6266 53.438 23.6017 52.64Z" fill="#CBDFEE"/>
<path d="M11.9209 20.2969C21.4577 16.4438 27.886 22.058 30.2785 27.9795C32.2545 32.8705 31.0511 37.7055 26.8874 41.5938C25.9819 42.4414 25.0328 43.1502 24.159 43.7229L24.7941 45.2948C25.1734 46.2337 25.1601 47.2862 24.7576 48.2211C24.3552 49.156 23.5966 49.8966 22.6481 50.2799C21.6997 50.6631 20.6395 50.6572 19.7006 50.2643C18.7616 49.8714 18.0209 49.1235 17.6415 48.1846L15.7345 43.4644C15.3551 42.5255 15.3685 41.473 15.7709 40.5381C16.1734 39.6032 16.9319 38.8625 17.8804 38.4793C18.5964 38.1818 24.5562 34.4095 22.6491 29.6892C21.6956 27.3291 18.3578 25.9323 14.7816 27.3772C11.8717 28.5529 10.9667 31.6639 11.4435 32.8439C11.6313 33.3088 11.7248 33.8071 11.7186 34.3092C11.7124 34.8111 11.6062 35.3075 11.407 35.7702C11.2078 36.233 10.9195 36.6531 10.5576 37.0062C10.1956 37.3594 9.76719 37.6392 9.29754 37.829C8.8279 38.0187 8.32532 38.1151 7.81955 38.1125C7.31396 38.1098 6.81471 38.0079 6.34996 37.8134C5.88522 37.6189 5.46408 37.3356 5.1109 36.9789C4.75764 36.622 4.47878 36.1987 4.29095 35.7338C1.96525 29.9775 5.45979 22.9074 11.9209 20.2969Z" fill="#CBDFEE"/>
</svg>
