<svg width="67" height="52" viewBox="0 0 67 52" fill="none" xmlns="http://www.w3.org/2000/svg">
<g filter="url(#filter0_d_684_4191)">
<path d="M36.4934 20.5247C36.4934 17.2244 37.2525 14.2211 38.7708 11.5148C40.2231 8.87459 42.0054 6.79538 44.1178 5.27723C46.1642 3.75908 48.0125 3 49.6628 3C51.0491 3 52.1713 3.39604 53.0294 4.18812C53.8216 4.9802 54.2177 5.9703 54.2177 7.15841C54.2177 8.0165 54.0196 8.74257 53.6236 9.33664C53.2275 9.93069 52.6334 10.6898 51.8412 11.6139C51.3131 12.1419 50.818 12.736 50.356 13.396C49.8939 14.0561 49.5638 14.7162 49.3658 15.3762C51.5442 15.9703 53.1945 16.9934 54.3167 18.4455C55.4389 19.9637 56 21.6799 56 23.5941C56 26.0363 55.1418 28.2145 53.4255 30.1287C51.6432 32.0429 49.4318 33 46.7913 33C43.6887 33 41.2133 31.9439 39.3649 29.8317C37.4506 27.7855 36.4934 24.6832 36.4934 20.5247Z" fill="url(#paint0_linear_684_4191)"/>
<path d="M11 20.5247C11 17.2244 11.7591 14.2211 13.2774 11.5148C14.7297 8.87459 16.512 6.79538 18.6244 5.27723C20.6708 3.75908 22.5191 3 24.1694 3C25.5557 3 26.6779 3.39604 27.5361 4.18812C28.3282 4.9802 28.7243 5.9703 28.7243 7.15841C28.7243 8.0165 28.5263 8.74257 28.1302 9.33664C27.7341 9.93069 27.14 10.6898 26.3479 11.6139C25.8198 12.1419 25.3247 12.736 24.8626 13.396C24.4005 14.0561 24.0704 14.7162 23.8724 15.3762C26.0508 15.9703 27.7011 16.9934 28.8233 18.4455C29.9455 19.9637 30.5066 21.6799 30.5066 23.5941C30.5066 26.0363 29.6485 28.2145 27.9321 30.1287C26.1498 32.0429 23.9384 33 21.2979 33C18.1953 33 15.7199 31.9439 13.8715 29.8317C11.9572 27.7855 11 24.6832 11 20.5247Z" fill="url(#paint1_linear_684_4191)"/>
<path d="M46.791 34.5C43.3248 34.4999 40.4312 33.3054 38.2695 30.8564L38.0596 30.625C35.9318 28.2014 34.9932 24.7461 34.9932 20.5244C34.9932 16.9887 35.8094 13.7346 37.457 10.793L37.4561 10.792C38.9949 7.99438 40.9125 5.73955 43.2246 4.07324C45.3975 2.46122 47.5583 1.5 49.6631 1.5C51.3515 1.50005 52.8612 1.99159 54.0469 3.08594L54.0693 3.10645L54.0898 3.12695C55.1817 4.21867 55.7177 5.59909 55.7178 7.1582C55.7178 8.25179 55.4631 9.28246 54.8721 10.1689C54.4274 10.8359 53.7886 11.6471 52.9805 12.5898L52.9424 12.6338L52.9014 12.6748C52.4399 13.1363 52.0006 13.6621 51.585 14.2559C51.5284 14.3366 51.4757 14.4178 51.4248 14.4971C53.0879 15.1895 54.4682 16.1881 55.5039 17.5283L55.5137 17.541L55.5225 17.5537C56.8383 19.3338 57.4999 21.3635 57.5 23.5938C57.5 26.4264 56.4908 28.9564 54.542 31.1299L54.5332 31.1406L54.5234 31.1514C52.4543 33.3735 49.8433 34.5 46.791 34.5ZM21.2979 34.5C17.8316 34.5 14.938 33.3054 12.7764 30.8564L12.5664 30.625C10.4385 28.2014 9.5 24.7461 9.5 20.5244C9.50005 16.9887 10.3162 13.7346 11.9639 10.793L11.9629 10.792C13.5017 7.99433 15.4193 5.73956 17.7314 4.07324C19.9043 2.46128 22.0652 1.5 24.1699 1.5C25.8582 1.50009 27.3681 1.99163 28.5537 3.08594L28.5967 3.12695C29.6885 4.21867 30.2246 5.59909 30.2246 7.1582C30.2246 8.25181 29.969 9.28245 29.3779 10.1689C28.9332 10.836 28.2944 11.6471 27.4863 12.5898L27.4492 12.6338L27.4082 12.6748C26.9467 13.1363 26.5075 13.6621 26.0918 14.2559C26.0353 14.3366 25.9825 14.4178 25.9316 14.4971C27.5946 15.1895 28.9741 16.1883 30.0098 17.5283L30.0293 17.5537C31.3451 19.3338 32.0068 21.3635 32.0068 23.5938C32.0068 26.4263 30.9976 28.9564 29.0488 31.1299L29.04 31.1406L29.0303 31.1514C26.9611 33.3735 24.3502 34.5 21.2979 34.5Z" stroke="white" stroke-width="3"/>
</g>
<defs>
<filter id="filter0_d_684_4191" x="0" y="0" width="67" height="52" filterUnits="userSpaceOnUse" color-interpolation-filters="sRGB">
<feFlood flood-opacity="0" result="BackgroundImageFix"/>
<feColorMatrix in="SourceAlpha" type="matrix" values="0 0 0 0 0 0 0 0 0 0 0 0 0 0 0 0 0 0 127 0" result="hardAlpha"/>
<feOffset dy="8"/>
<feGaussianBlur stdDeviation="4"/>
<feComposite in2="hardAlpha" operator="out"/>
<feColorMatrix type="matrix" values="0 0 0 0 0 0 0 0 0 0 0 0 0 0 0 0 0 0 0.15 0"/>
<feBlend mode="normal" in2="BackgroundImageFix" result="effect1_dropShadow_684_4191"/>
<feBlend mode="normal" in="SourceGraphic" in2="effect1_dropShadow_684_4191" result="shape"/>
</filter>
<linearGradient id="paint0_linear_684_4191" x1="33.5" y1="33" x2="33.5" y2="3" gradientUnits="userSpaceOnUse">
<stop stop-color="#0083AD"/>
<stop offset="1" stop-color="#00A9E0"/>
</linearGradient>
<linearGradient id="paint1_linear_684_4191" x1="33.5" y1="33" x2="33.5" y2="3" gradientUnits="userSpaceOnUse">
<stop stop-color="#0083AD"/>
<stop offset="1" stop-color="#00A9E0"/>
</linearGradient>
</defs>
</svg>
