<svg width="67" height="52" viewBox="0 0 67 52" fill="none" xmlns="http://www.w3.org/2000/svg">
<g filter="url(#filter0_d_684_4186)">
<path d="M30.5066 20.5247C30.5066 17.2244 29.7475 14.2211 28.2292 11.5148C26.7769 8.87459 24.9946 6.79538 22.8822 5.27723C20.8358 3.75908 18.9875 3 17.3372 3C15.9509 3 14.8287 3.39604 13.9706 4.18812C13.1784 4.9802 12.7823 5.9703 12.7823 7.15841C12.7823 8.0165 12.9804 8.74257 13.3764 9.33664C13.7725 9.93069 14.3666 10.6898 15.1588 11.6139C15.6869 12.1419 16.182 12.736 16.644 13.396C17.1061 14.0561 17.4362 14.7162 17.6342 15.3762C15.4558 15.9703 13.8055 16.9934 12.6833 18.4455C11.5611 19.9637 11 21.6799 11 23.5941C11 26.0363 11.8582 28.2145 13.5745 30.1287C15.3568 32.0429 17.5682 33 20.2087 33C23.3113 33 25.7867 31.9439 27.6351 29.8317C29.5494 27.7855 30.5066 24.6832 30.5066 20.5247Z" fill="url(#paint0_linear_684_4186)"/>
<path d="M56 20.5247C56 17.2244 55.2409 14.2211 53.7226 11.5148C52.2703 8.87459 50.488 6.79538 48.3756 5.27723C46.3292 3.75908 44.4809 3 42.8306 3C41.4443 3 40.3221 3.39604 39.4639 4.18812C38.6718 4.9802 38.2757 5.9703 38.2757 7.15841C38.2757 8.0165 38.4737 8.74257 38.8698 9.33664C39.2659 9.93069 39.86 10.6898 40.6521 11.6139C41.1802 12.1419 41.6753 12.736 42.1374 13.396C42.5995 14.0561 42.9296 14.7162 43.1276 15.3762C40.9492 15.9703 39.2989 16.9934 38.1767 18.4455C37.0545 19.9637 36.4934 21.6799 36.4934 23.5941C36.4934 26.0363 37.3515 28.2145 39.0679 30.1287C40.8502 32.0429 43.0616 33 45.7021 33C48.8047 33 51.2801 31.9439 53.1285 29.8317C55.0428 27.7855 56 24.6832 56 20.5247Z" fill="url(#paint1_linear_684_4186)"/>
<path d="M20.209 34.5C23.6752 34.4999 26.5688 33.3054 28.7305 30.8564L28.9404 30.625C31.0682 28.2014 32.0068 24.7461 32.0068 20.5244C32.0068 16.9887 31.1906 13.7346 29.543 10.793L29.5439 10.792C28.0051 7.99438 26.0875 5.73955 23.7754 4.07324C21.6025 2.46122 19.4417 1.5 17.3369 1.5C15.6485 1.50005 14.1388 1.99159 12.9531 3.08594L12.9307 3.10645L12.9102 3.12695C11.8183 4.21867 11.2823 5.59909 11.2822 7.1582C11.2822 8.25179 11.5369 9.28246 12.1279 10.1689C12.5726 10.8359 13.2114 11.6471 14.0195 12.5898L14.0576 12.6338L14.0986 12.6748C14.5601 13.1363 14.9994 13.6621 15.415 14.2559C15.4716 14.3366 15.5243 14.4178 15.5752 14.4971C13.9121 15.1895 12.5318 16.1881 11.4961 17.5283L11.4863 17.541L11.4775 17.5537C10.1617 19.3338 9.50006 21.3635 9.5 23.5938C9.5 26.4264 10.5092 28.9564 12.458 31.1299L12.4668 31.1406L12.4766 31.1514C14.5457 33.3735 17.1567 34.5 20.209 34.5ZM45.7021 34.5C49.1684 34.5 52.062 33.3054 54.2236 30.8564L54.4336 30.625C56.5615 28.2014 57.5 24.7461 57.5 20.5244C57.4999 16.9887 56.6838 13.7346 55.0361 10.793L55.0371 10.792C53.4983 7.99433 51.5807 5.73956 49.2686 4.07324C47.0957 2.46128 44.9348 1.5 42.8301 1.5C41.1418 1.50009 39.6319 1.99163 38.4463 3.08594L38.4033 3.12695C37.3115 4.21867 36.7754 5.59909 36.7754 7.1582C36.7754 8.25181 37.031 9.28245 37.6221 10.1689C38.0668 10.836 38.7056 11.6471 39.5137 12.5898L39.5508 12.6338L39.5918 12.6748C40.0533 13.1363 40.4925 13.6621 40.9082 14.2559C40.9647 14.3366 41.0175 14.4178 41.0684 14.4971C39.4054 15.1895 38.0259 16.1883 36.9902 17.5283L36.9707 17.5537C35.6549 19.3338 34.9932 21.3635 34.9932 23.5938C34.9932 26.4263 36.0024 28.9564 37.9512 31.1299L37.96 31.1406L37.9697 31.1514C40.0389 33.3735 42.6498 34.5 45.7021 34.5Z" stroke="white" stroke-width="3"/>
</g>
<defs>
<filter id="filter0_d_684_4186" x="0" y="0" width="67" height="52" filterUnits="userSpaceOnUse" color-interpolation-filters="sRGB">
<feFlood flood-opacity="0" result="BackgroundImageFix"/>
<feColorMatrix in="SourceAlpha" type="matrix" values="0 0 0 0 0 0 0 0 0 0 0 0 0 0 0 0 0 0 127 0" result="hardAlpha"/>
<feOffset dy="8"/>
<feGaussianBlur stdDeviation="4"/>
<feComposite in2="hardAlpha" operator="out"/>
<feColorMatrix type="matrix" values="0 0 0 0 0 0 0 0 0 0 0 0 0 0 0 0 0 0 0.15 0"/>
<feBlend mode="normal" in2="BackgroundImageFix" result="effect1_dropShadow_684_4186"/>
<feBlend mode="normal" in="SourceGraphic" in2="effect1_dropShadow_684_4186" result="shape"/>
</filter>
<linearGradient id="paint0_linear_684_4186" x1="33.5" y1="33" x2="33.5" y2="3" gradientUnits="userSpaceOnUse">
<stop stop-color="#0083AD"/>
<stop offset="1" stop-color="#00A9E0"/>
</linearGradient>
<linearGradient id="paint1_linear_684_4186" x1="33.5" y1="33" x2="33.5" y2="3" gradientUnits="userSpaceOnUse">
<stop stop-color="#0083AD"/>
<stop offset="1" stop-color="#00A9E0"/>
</linearGradient>
</defs>
</svg>
