<svg width="152" height="152" viewBox="0 0 152 152" fill="none" xmlns="http://www.w3.org/2000/svg">
<path fill-rule="evenodd" clip-rule="evenodd" d="M69.7542 0.131413C55.7261 1.38437 42.9204 6.05742 31.8285 13.9708C28.2808 16.502 25.7571 18.6314 22.4922 21.8488C10.2099 33.9522 2.74699 49.1288 0.422758 66.7292C-0.144723 71.0274 -0.14004 80.7942 0.431654 84.9897C2.66037 101.346 8.97102 115.011 19.8693 127.078C29.8964 138.18 44.2569 146.496 59.1259 149.808C64.1585 150.929 68.0314 151.383 73.7621 151.525C82.636 151.744 89.698 150.821 97.7302 148.392C102.168 147.049 104.642 146.06 109.348 143.744C121.382 137.823 131.46 128.964 138.904 117.765C145.419 107.963 149.24 97.7894 151.035 85.4579C151.62 81.4432 151.621 70.2759 151.037 66.1439C149.75 57.0401 147.302 49.1309 143.391 41.4454C131.79 18.6509 109.72 3.34644 84.1519 0.367395C81.1244 0.0145929 72.6218 -0.124703 69.7542 0.131413ZM70.5982 4.11244C48.1972 5.86498 28.3265 17.477 15.9135 36.0683C4.06924 53.8084 0.803888 76.1499 7.04173 96.7691C9.74218 105.695 14.6194 114.683 20.6575 121.862C23.1428 124.817 28.2092 129.749 31.1927 132.117C42.3182 140.951 55.5559 146.153 70.1054 147.407C76.3198 147.943 84.9549 147.35 91.2922 145.952C114.258 140.885 133.527 124.56 142.398 102.655C148.615 87.3015 149.264 69.439 144.169 53.8532C141.213 44.8102 136.735 36.6969 130.793 29.6229C128.528 26.9252 123.39 21.8923 120.673 19.7086C115.139 15.261 106.799 10.5678 100.257 8.22059C97.0338 7.06385 92.2331 5.75191 89.0682 5.16242C83.7441 4.1712 75.6956 3.71375 70.5982 4.11244ZM93.6333 11.1029C91.4048 11.9141 78.1461 17.8846 76.7304 18.7143C72.8196 21.0065 69.9586 24.0901 67.8469 28.2894C65.9368 32.0878 64.7208 36.5649 64.7208 39.7993V41.5673L62.5553 39.3754C60.2025 36.9935 58.4711 35.7268 55.6533 34.3252C50.2777 31.6516 45.1355 31.0884 35.8826 32.1599C33.2561 32.464 29.983 32.6733 27.6888 32.6841C23.5485 32.7035 22.7596 32.8639 21.649 33.912C20.3878 35.1022 20.3176 35.874 21.0314 40.6876C22.5767 51.108 24.6247 58.1231 27.3235 62.2406C29.9744 66.2848 35.4378 71.0843 39.4953 72.9331C40.4847 73.3837 41.2956 73.8051 41.298 73.8695C41.3001 73.9339 40.7115 74.2422 39.99 74.5547C36.5975 76.024 30.874 81.1168 28.3679 84.896C25.5066 89.2111 23.3854 94.9492 21.059 104.667C19.6012 110.757 19.5624 111.442 20.5861 112.996C21.6092 114.549 22.4297 114.77 30.9382 115.78C45.8399 117.549 48.4652 117.707 52.2086 117.054C57.5398 116.124 63.1844 113.214 66.3442 109.766L67.7003 108.286L67.9909 110.099C68.8135 115.234 71.0097 119.645 74.623 123.422C78.0857 127.041 80.4214 128.316 93.4966 133.725C99.3126 136.132 100.734 136.388 102.509 135.347C104.065 134.436 104.203 134.159 108.747 122.884C112.756 112.935 112.321 104.244 107.461 97.1886C106.796 96.2234 106.507 95.6356 106.741 95.7252C108.944 96.5706 111.13 96.907 114.469 96.914C118.541 96.9227 119.794 96.6551 123.195 95.051C128.373 92.6095 132.15 89.1992 140.659 79.284C144.959 74.2738 145.052 74.5788 136.615 66.0636C133.19 62.6072 129.509 59.1166 128.435 58.3068C123.585 54.6508 117.712 52.8343 111.66 53.118C110.115 53.1906 108.204 53.3917 107.413 53.565L105.977 53.8801L107.244 52.0716C110.358 47.628 111.16 43.8988 110.262 38.0508C109.812 35.1261 109.223 33.0823 107.781 29.4531C106.138 25.3164 101.76 15.257 101.052 13.9897C100.31 12.6619 99.0534 11.4021 98.0549 10.9849C96.9881 10.5392 95.0389 10.5914 93.6333 11.1029ZM89.3484 16.0431C79.6928 20.162 76.872 21.6964 74.1292 24.3212C71.4452 26.8896 69.6514 30.059 68.5431 34.1901C67.9771 36.2999 67.9139 36.942 67.8984 40.743C67.8787 45.5706 67.9633 45.9976 70.6536 54.6725L72.1421 59.4718L72.821 59.4278C73.1944 59.4036 74.3427 59.3142 75.3728 59.2292C79.2955 58.905 83.4133 60.4967 86.4136 63.4968C87.3545 64.4377 88.1915 65.2075 88.2736 65.2075C88.356 65.2075 91.2283 62.957 94.6569 60.2064C102.677 53.7724 104.526 51.8363 106.278 48.0414C107.74 44.8741 108.163 40.972 107.429 37.4217C106.933 35.0193 106.038 32.6283 102.539 24.3554C98.4199 14.6188 97.726 13.4473 96.1062 13.4927C95.6094 13.5068 92.8764 14.538 89.3484 16.0431ZM40.2564 34.4345C39.8702 34.4811 36.2356 34.7475 32.1797 35.0268C28.1237 35.3059 24.5669 35.6242 24.2757 35.7343C23.1477 36.1603 23.1564 36.6094 24.4215 43.3435C26.2951 53.3168 27.2976 56.7545 29.3523 60.2502C32.8008 66.1174 39.5089 70.7664 46.616 72.2148C49.1093 72.7228 53.9474 72.831 59.1996 72.496L61.521 72.3478L61.8088 70.9431C62.5158 67.4898 64.5078 64.2408 67.1291 62.2649C67.9291 61.6621 68.8049 61.0668 69.0755 60.9424C69.5611 60.7189 69.5515 60.6657 68.3107 56.6994C67.6196 54.4902 66.8344 51.8925 66.5656 50.9268C64.4535 43.3384 57.1619 36.5295 49.3867 34.8847C47.6384 34.5148 41.9242 34.2332 40.2564 34.4345ZM109.319 56.1072C106.14 56.5044 102.385 57.9393 99.829 59.733C99.1162 60.2331 96.5026 62.2193 94.0208 64.1465C90.1844 67.1257 89.532 67.7218 89.6645 68.1263C90.563 70.8677 90.736 71.9692 90.6395 74.3377C90.529 77.0583 89.9793 79.0524 88.817 80.9513L88.1362 82.0633L89.9374 83.3954C94.6665 86.8927 103.371 91.5307 108.305 93.183C110.666 93.9734 111.279 94.0827 113.884 94.178C117.364 94.3051 119.089 93.9736 121.935 92.6303C126.01 90.7073 132.216 85.2161 138.249 78.1956C140.842 75.1775 141.137 74.7207 140.844 74.1778C140.387 73.3324 128.243 61.5251 126.725 60.4499C123.474 58.1472 119.359 56.6074 115.06 56.0844C112.808 55.8103 111.656 55.815 109.319 56.1072ZM73.2272 62.2631C67.0512 63.7609 62.998 70.5927 64.611 76.786C66.1194 82.5765 72.2882 86.6235 78.0395 85.5958C83.8738 84.5531 87.9044 79.6653 87.8948 73.6447C87.8845 67.0176 82.6403 61.881 75.9581 61.9533C75.1211 61.9622 73.8923 62.1018 73.2272 62.2631ZM53.5911 75.3975C44.5659 76.0315 42.5903 76.4646 39.0489 78.5856C36.028 80.395 31.3839 85.1847 29.4436 88.4922C27.7051 91.4553 25.8105 97.0859 23.6377 105.747C22.4564 110.456 22.4089 110.869 22.9909 111.38C23.6024 111.917 23.7325 111.94 31.9456 112.949C43.0395 114.312 46.9805 114.662 49.1526 114.477C53.1465 114.138 57.3073 112.662 60.995 110.277C64.6855 107.889 66.3634 105.309 68.0784 99.3827C69.0886 95.8921 70.8077 88.6277 70.8077 87.8498C70.8077 87.6297 70.3015 87.2182 69.5929 86.8623C65.3761 84.7443 62.3692 80.6177 61.7163 76.0528C61.6304 75.4528 61.4548 74.9415 61.3263 74.9164C61.1975 74.8914 57.7165 75.1079 53.5911 75.3975ZM85.1841 85.1599C82.3926 87.3312 78.8257 88.4767 75.2759 88.3419L73.3063 88.2672L72.0688 94.1199C70.2053 102.933 70.0508 105.136 70.947 110.116C72.2273 117.231 76.4689 122.822 83.0984 126.132C83.9997 126.583 86.6204 127.709 88.9221 128.637C91.2239 129.564 94.4356 130.91 96.0592 131.629C99.609 133.2 100.769 133.407 101.487 132.601C102.204 131.796 107.035 119.861 107.692 117.272C109.835 108.823 108.216 101.193 103.135 95.8079C100.997 93.5407 99.8983 92.745 92.6756 88.2304L86.3331 84.266L85.1841 85.1599Z"/>
</svg>
