<svg width="152" height="152" viewBox="0 0 152 152" fill="none" xmlns="http://www.w3.org/2000/svg">
<path fill-rule="evenodd" clip-rule="evenodd" d="M70.9717 0.157065C58.2148 1.03986 46.2225 4.88412 35.6532 11.4788C17.1427 23.0282 4.40194 42.1084 0.928773 63.4816C0.115232 68.4873 -0.0979219 71.9113 0.0380193 77.7921C0.173259 83.6491 0.613371 87.4313 1.74419 92.4595C6.37718 113.057 19.2413 130.575 37.719 141.447C46.7068 146.736 57.4541 150.193 68.4101 151.319C72.2008 151.709 80.2206 151.644 84.0867 151.193C101.614 149.147 116.958 141.738 129.372 129.324C141.709 116.987 149.027 101.689 151.15 83.8042C151.318 82.3886 151.455 78.8088 151.455 75.8489C151.455 70.1825 151.21 67.3436 150.273 62.1612C145.881 37.8554 129.602 17.0014 107.048 6.788C95.9196 1.74858 82.8045 -0.662092 70.9717 0.157065ZM69.58 4.28654C69.194 4.3317 67.8778 4.48074 66.6553 4.61786C54.3555 5.99739 41.3192 11.4872 31.0906 19.595C27.8961 22.1269 22.0811 27.9277 19.6152 31.0422C13.8448 38.3299 9.0918 47.5376 6.63152 56.1948C5.85307 58.9342 4.75712 64.4367 4.37129 67.5427C3.97166 70.7604 3.97166 80.9375 4.37129 84.1552C4.81889 87.7598 5.91508 93.025 6.88187 96.2158C9.57824 105.114 13.9719 113.543 19.621 120.656C22.1269 123.811 27.7073 129.39 30.8567 131.89C41.9528 140.696 54.8731 145.929 68.9614 147.323C72.078 147.632 79.4836 147.632 82.5995 147.323C99.1712 145.682 114.563 138.434 126.313 126.737C138.122 114.981 145.3 100 147.166 83.2193C147.53 79.9389 147.53 71.8201 147.165 68.4786C144.926 47.9883 134.314 29.6338 117.779 17.6504C107.812 10.4266 96.1494 5.92065 83.7357 4.49736C80.8868 4.17072 71.742 4.03455 69.58 4.28654ZM74.3766 11.856C74.3766 14.0521 74.2851 15.5996 74.1552 15.5996C72.7247 15.5996 67.2803 16.2248 64.8813 16.6644C39.0396 21.4016 19.2371 42.399 16.0073 68.4882C15.8098 70.0837 15.6481 72.0506 15.6481 72.8587V74.3281H11.7875H7.92682V75.7261V77.1241L11.729 77.1885L15.5311 77.2528L15.7068 79.9436C16.9027 98.2491 26.883 115.466 42.265 125.759C51.019 131.616 61.5274 135.189 71.7443 135.783L74.3766 135.936V139.76V143.586H75.7804H77.1843V139.725V135.864H78.4141C81.7693 135.864 87.9426 134.831 92.6269 133.484C103.979 130.222 115.032 122.861 122.426 113.636C129.654 104.62 134.402 93.2031 135.439 82.3505C135.584 80.8336 135.757 79.0397 135.824 78.3642L135.946 77.1358H139.673H143.4V75.732V74.3281H139.686H135.971L135.825 73.5969C135.745 73.1947 135.679 72.4104 135.679 71.854C135.679 70.2307 135.009 65.5429 134.361 62.6292C131.879 51.4741 126.37 41.5663 118.031 33.2612C107.244 22.5176 95.1077 17.0889 78.7637 15.6969L77.1843 15.5624V11.8372V8.11232H75.7804H74.3766V11.856ZM70.4308 19.3683C44.3469 21.687 22.9531 42.3569 19.5186 68.5584C19.3201 70.072 19.1578 71.9892 19.1578 72.8192V74.3281H29.4254H39.6933L39.8344 73.8016C39.9118 73.512 39.9769 72.9516 39.9785 72.5559C39.9855 71.0079 40.7642 67.2952 41.6332 64.6676C43.5011 59.0198 46.5159 54.2322 50.8346 50.0543C56.8495 44.2362 64.3721 40.7691 72.5632 40.0398L74.3766 39.8783V29.4939V19.1093L73.4992 19.1416C73.0167 19.1591 71.6357 19.2614 70.4308 19.3683ZM77.1843 29.475V39.873L78.8806 40.0381C84.6541 40.6004 90.3846 42.5878 95.1356 45.6756C104.526 51.7794 110.261 61.3236 111.472 72.8657L111.625 74.3281H122.016H132.406L132.274 72.6318C131.642 64.5169 129.972 58.0582 126.813 51.5152C124.014 45.7175 120.911 41.2024 116.677 36.7678C106.689 26.3074 93.9193 20.3426 79.1146 19.223L77.1843 19.0772V29.475ZM70.5248 42.4102C58.0391 44.3506 47.6565 53.1734 43.6033 65.2874C42.8555 67.5221 42.2837 70.3095 42.0008 73.0969L41.8763 74.3227L51.0485 74.3838L60.2209 74.4451L60.2911 75.7905L60.3613 77.1358H51.111H41.8609L41.998 78.5982C42.7259 86.3632 45.952 93.4722 51.2743 99.0394C55.8121 103.786 61.0642 106.896 67.2213 108.484C69.6245 109.104 74.0146 109.709 74.2682 109.455C74.3279 109.396 74.3766 105.253 74.3766 100.249V91.1511L75.7219 91.2213L77.0673 91.2915L77.1284 100.426L77.1897 109.561L79.3322 109.36C84.9903 108.827 91.1905 106.396 95.8588 102.878C98.323 101.021 102.086 97.0672 103.675 94.665C105.057 92.5744 106.581 89.6693 107.369 87.6199C108.337 85.1016 109.473 79.6661 109.473 77.5514C109.473 77.1604 108.934 77.1358 100.348 77.1358H91.223V75.732V74.3281H100.375H109.528L109.367 72.7487C108.552 64.7282 105.235 57.685 99.6436 52.1002C93.7731 46.2365 86.9342 42.9757 78.7637 42.1451L77.1843 41.9846V51.1371V60.2894H75.7804H74.3766V51.1643V42.0391L73.4992 42.0618C73.0167 42.0742 71.6781 42.231 70.5248 42.4102ZM74.4603 70.565C71.048 71.419 69.4015 75.173 71.0527 78.3338C72.9961 82.054 78.6237 81.9818 80.4481 78.2133C81.3992 76.2488 81.0274 73.6776 79.5702 72.1423C78.3263 70.8318 76.1178 70.1502 74.4603 70.565ZM19.1578 78.7521C19.1578 83.1074 20.7867 90.9 22.7432 95.9034C25.6827 103.421 29.4991 109.395 34.9492 115.01C43.1117 123.42 53.1527 128.999 64.2556 131.295C66.7746 131.816 71.1524 132.355 72.8676 132.355H74.3766V122.07V111.786L73.6161 111.678C73.1978 111.62 71.9081 111.451 70.7499 111.304C57.1078 109.575 45.1506 99.2917 41.2928 85.9713C40.633 83.6933 39.9853 80.2599 39.9795 79.0077C39.9771 78.5572 39.9118 77.9519 39.8344 77.6623L39.6933 77.1358H29.4254H19.1578V78.7521ZM111.467 78.8322C110.891 84.9563 108.712 90.9817 105.184 96.205C103.219 99.1134 98.7784 103.499 95.7856 105.485C90.7113 108.853 84.9835 110.97 79.6844 111.434C78.8884 111.503 78.0004 111.609 77.7108 111.667L77.1843 111.773V122.064V132.355H78.5762C82.1662 132.355 88.9134 131.086 93.6797 129.514C97.2376 128.34 103.709 125.17 106.9 123.038C120.035 114.26 129.006 100.5 131.565 85.2081C131.839 83.5737 132.386 78.4031 132.401 77.3113C132.402 77.2147 127.728 77.1358 122.015 77.1358H111.627L111.467 78.8322Z"/>
</svg>
