<svg width="145" height="24" viewBox="0 0 145 24" fill="none" xmlns="http://www.w3.org/2000/svg">
<path d="M12.9014 2.37402L15.583 8.7207L22.4834 9.32031L23.6602 9.42285L22.7676 10.1963L17.5449 14.7236L19.1025 21.4561L19.3691 22.6064L18.3574 21.9961L12.4404 18.4268L6.52344 21.9961L5.51172 22.6064L5.77832 21.4561L7.33496 14.7236L2.11328 10.1963L1.2207 9.42285L2.39746 9.32031L9.29688 8.7207L11.9795 2.37402L12.4404 1.28418L12.9014 2.37402ZM42.9014 2.37402L45.583 8.7207L52.4834 9.32031L53.6602 9.42285L52.7676 10.1963L47.5449 14.7236L49.1025 21.4561L49.3691 22.6064L48.3574 21.9961L42.4404 18.4268L36.5234 21.9961L35.5117 22.6064L35.7783 21.4561L37.335 14.7236L32.1133 10.1963L31.2207 9.42285L32.3975 9.32031L39.2969 8.7207L41.9795 2.37402L42.4404 1.28418L42.9014 2.37402ZM72.9014 2.37402L75.583 8.7207L82.4834 9.32031L83.6602 9.42285L82.7676 10.1963L77.5449 14.7236L79.1025 21.4561L79.3691 22.6064L78.3574 21.9961L72.4404 18.4268L66.5234 21.9961L65.5117 22.6064L65.7783 21.4561L67.335 14.7236L62.1133 10.1963L61.2207 9.42285L62.3975 9.32031L69.2969 8.7207L71.9795 2.37402L72.4404 1.28418L72.9014 2.37402ZM102.901 2.37402L105.583 8.7207L112.483 9.32031L113.66 9.42285L112.768 10.1963L107.545 14.7236L109.103 21.4561L109.369 22.6064L108.357 21.9961L102.44 18.4268L96.5234 21.9961L95.5117 22.6064L95.7783 21.4561L97.335 14.7236L92.1133 10.1963L91.2207 9.42285L92.3975 9.32031L99.2969 8.7207L101.979 2.37402L102.44 1.28418L102.901 2.37402ZM132.901 2.37402L135.583 8.7207L142.483 9.32031L143.66 9.42285L142.768 10.1963L137.545 14.7236L139.103 21.4561L139.369 22.6064L138.357 21.9961L132.44 18.4268L126.523 21.9961L125.512 22.6064L125.778 21.4561L127.335 14.7236L122.113 10.1963L121.221 9.42285L122.397 9.32031L129.297 8.7207L131.979 2.37402L132.44 1.28418L132.901 2.37402Z" fill="#FDD835" stroke="#333333"/>
</svg>
