<svg width="295" height="295" viewBox="0 0 295 295" fill="none" xmlns="http://www.w3.org/2000/svg">
<path d="M255.364 7.00586C179.921 -8.52113 103.081 14.8549 54.3506 39.1436C30.0405 51.2604 12.4354 63.7471 5.49805 71.9609C3.77988 73.9953 2.50597 76.006 2.12207 77.8535C1.92122 78.8204 1.93924 79.8692 2.40137 80.8516C2.87122 81.8502 3.68609 82.5383 4.62695 82.9736C6.38632 83.7876 8.86829 83.8585 11.7803 83.4912C13.4118 83.2854 15.2795 82.9265 17.3887 82.4102C8.73845 94.3411 4.59564 104.979 3.96973 114.356C3.25669 125.04 7.12349 133.85 13.6211 140.766C26.2079 154.163 48.6539 160.494 67.3691 160.664C67.5689 160.984 67.8178 161.358 68.1289 161.773C69.1177 163.094 70.7061 164.839 73.1709 166.711C78.1049 170.458 86.4871 174.664 100.479 177.047C108.68 178.443 114.016 181.027 117.817 184.293C121.634 187.572 124.063 191.671 126.241 196.404C130.154 204.906 133.221 215.605 142.573 225.146C137.947 226.145 134.315 228.012 131.688 230.543C128.296 233.81 126.736 238.032 126.767 242.443C126.822 250.463 132.081 258.999 140.86 264.319C140.365 264.506 139.787 264.601 139.141 264.621C138.405 264.644 137.701 264.56 137.171 264.466C136.91 264.419 136.7 264.372 136.562 264.338C136.492 264.321 136.441 264.307 136.411 264.299C136.401 264.296 136.393 264.294 136.388 264.292L136.384 264.291H136.383L131.138 262.715L134.136 267.302C143.239 281.228 157.772 290.723 171.497 292.643C178.385 293.606 185.157 292.668 190.902 289.305C196.489 286.034 200.93 280.574 203.563 272.759L203.812 271.995C204.864 268.672 207.194 265.35 210.258 261.942C213.322 258.535 216.928 255.242 220.442 251.854C223.897 248.523 227.267 245.095 229.577 241.586C231.895 238.065 233.322 234.192 232.436 230.069C231.423 225.357 232.886 221.407 235.408 218.011C237.651 214.991 240.661 212.506 243.36 210.464L244.495 209.615C258.526 199.222 262.2 188.434 262.686 179.646C262.924 175.338 262.39 171.562 262.062 168.807C261.893 167.384 261.791 166.329 261.818 165.534C261.847 164.693 262.013 164.597 261.936 164.678C273.915 152.344 277.851 140.68 279.796 130.547C280.278 128.034 280.638 125.62 280.966 123.341C281.296 121.047 281.592 118.913 281.952 116.89C282.629 113.091 283.504 109.886 285.093 107.175L285.42 106.639C295.039 91.536 295.893 71.0132 285.73 55.9736C285.805 55.7481 285.889 55.4876 285.979 55.1953C286.323 54.0744 286.761 52.4744 287.144 50.5293C287.906 46.6523 288.462 41.3325 287.574 35.6768C286.683 29.9996 284.33 23.9599 279.267 18.752C274.207 13.5478 266.575 9.31335 255.364 7.00586ZM165.548 271.906C169.685 272.452 173.847 272.763 178.008 272.867C177.071 273.499 176.177 273.938 175.332 274.225C173.468 274.857 171.708 274.802 170.035 274.307C168.45 273.837 166.944 272.97 165.548 271.906ZM158.69 257.052C162.26 256.814 167.019 256.937 171.244 257.508C173.251 257.779 175.089 258.146 176.598 258.602C176.148 258.638 175.668 258.669 175.165 258.694C171.262 258.888 166.658 258.7 164.789 258.373C162.154 257.91 160.066 257.471 158.445 257.069C158.526 257.063 158.608 257.057 158.69 257.052ZM195.597 235.884C199.063 235.495 202.318 235.439 204.649 235.981C205.807 236.251 206.57 236.631 207.024 237.039C207.419 237.394 207.656 237.829 207.68 238.511C207.699 239.091 207.366 240.238 206.473 241.734C205.624 243.156 204.429 244.624 203.135 245.785C201.805 246.978 200.555 247.683 199.614 247.869C199.176 247.956 198.878 247.917 198.671 247.837C198.478 247.763 198.224 247.599 197.945 247.184L197.919 247.146C197.912 247.136 197.906 247.126 197.899 247.116L197.826 247.007L197.819 246.999C195.789 244.032 191.819 241.015 188.595 238.836C187.868 238.345 187.161 237.886 186.502 237.468C189.048 236.893 192.328 236.251 195.597 235.884ZM157.714 241.743C158.199 241.747 158.721 241.761 159.276 241.786C163.255 241.969 168.497 242.699 173.092 243.857C175.389 244.436 177.471 245.11 179.131 245.849C179.382 245.96 179.618 246.072 179.84 246.182C179.046 246.179 178.146 246.149 177.17 246.088C172.837 245.816 167.771 245.033 165.735 244.434L164.198 243.972C161.422 243.123 159.295 242.379 157.714 241.743ZM159.023 224.549C159.807 224.586 160.699 224.659 161.684 224.771C166.028 225.267 171.71 226.456 176.652 228.065C179.123 228.87 181.358 229.763 183.126 230.699C183.656 230.98 184.122 231.256 184.531 231.521C183.486 231.474 182.23 231.357 180.843 231.175C176.42 230.595 171.318 229.474 168.887 228.666L168.437 228.509C164.075 226.892 161.027 225.58 159.023 224.549ZM188.639 222.492C191.421 222.07 194.257 222.015 196.729 222.656C193.907 222.854 191.11 222.742 188.616 222.495C188.624 222.494 188.631 222.493 188.639 222.492ZM224.793 217.375C224.408 217.954 224.004 218.519 223.611 219.008C223.608 218.629 223.618 218.187 223.646 217.676C223.943 217.566 224.335 217.465 224.793 217.375ZM218.375 207.381C221.652 207.066 224.076 207.039 225.679 207.183C224.161 207.98 221.717 208.961 218.184 210.052L217.22 210.344L217.219 210.345C198.283 215.991 183.815 217.056 173.659 216.391C166.416 215.916 161.447 214.565 158.606 213.421C159.376 213.471 160.227 213.527 161.198 213.583C169.468 214.057 183.276 214.384 200.646 210.428C207.85 208.787 213.817 207.819 218.375 207.381ZM234.256 174.581C232.636 176.001 229.698 178.024 225.196 180.656L224.094 181.296L224.087 181.3C216.658 185.603 208.861 189.238 200.789 192.161L202.015 195.966C215.593 192.121 228.828 186.834 241.123 179.821V179.822C241.345 179.696 241.475 179.682 241.518 179.681C241.552 179.68 241.574 179.684 241.605 179.703C241.689 179.753 241.973 180.002 242.128 180.714C242.429 182.097 242.046 184.648 239.592 187.375C234.703 192.807 221.642 198.694 192.068 195.103L191.688 195.057L191.317 195.154C176.212 199.131 164.263 198.673 155.805 196.825C151.57 195.9 148.215 194.628 145.777 193.392C143.28 192.126 141.909 190.981 141.456 190.404L141.188 190.049C142.031 190.098 143.142 190.222 144.567 190.4C146.537 190.647 149.002 190.981 151.847 191.27C163.284 192.429 181.095 192.885 202.173 184.604C210.909 181.173 218.223 178.623 223.896 176.943C228.653 175.535 232.109 174.785 234.256 174.581ZM261.135 121.511C259.41 123.76 255.378 127.522 248.525 132.912H248.526C233.927 144.389 220.104 152.6 207.414 158.425L208.2 162.242C212.483 162.344 216.706 163.196 220.681 164.747C209.836 171.882 194.139 175.912 179.05 177.75C168.213 179.07 157.921 179.232 150.267 178.689C154.125 177.55 157.812 176.336 161.358 175.104L160.557 171.22C153.258 171.753 147.219 171.421 142.686 170.754C138.072 170.075 135.211 169.076 134.126 168.413C133.782 168.202 133.485 168.006 133.228 167.831C134.582 167.548 136.54 167.3 139.135 167.004C142.001 166.677 145.553 166.302 149.628 165.759C165.964 163.583 190.927 158.699 217.469 143.111C228.564 136.594 237.979 131.492 245.4 127.862C252.882 124.202 258.177 122.12 261.102 121.518C261.113 121.515 261.124 121.513 261.135 121.511ZM103.167 156.808C103.217 157.202 103.239 157.54 103.237 157.827C103.233 158.459 103.12 158.711 103.084 158.775C103.061 158.783 103.016 158.795 102.942 158.804C102.673 158.834 102.201 158.797 101.484 158.591C100.538 158.319 99.4192 157.831 98.1855 157.201C99.2119 157.217 100.236 157.194 101.192 157.107C101.866 157.046 102.536 156.951 103.167 156.808ZM254 72.9961C251.635 75.4382 247.847 78.9384 242.439 83.5947C224.018 99.4497 206.007 111.223 189.344 119.961L190.78 123.666C194.393 122.717 197.8 121.886 200.845 121.208L202.126 120.927C205.229 120.258 209.114 120.289 212.991 120.54C214.913 120.664 216.784 120.839 218.522 120.994C220.239 121.148 221.857 121.286 223.195 121.326C224.425 121.363 225.799 121.341 226.803 120.952C227.339 120.744 228.17 120.275 228.515 119.265C228.853 118.274 228.506 117.388 228.209 116.862C227.634 115.844 226.447 114.76 224.939 113.59C223.904 112.786 222.6 111.858 221.005 110.786C226.404 107.977 232.001 105.805 237.521 105.233C243.487 104.616 249.407 105.857 255.002 110.344C241.382 131.417 218.634 135.861 195.971 137.143C190.194 137.469 184.48 137.589 178.942 137.74C173.424 137.891 168.08 138.073 163.131 138.528C153.338 139.43 144.58 141.433 138.938 146.905C138.436 147.392 137.937 148.022 137.716 148.807C137.464 149.699 137.632 150.591 138.139 151.318C138.584 151.957 139.212 152.363 139.752 152.629C140.315 152.907 140.957 153.117 141.614 153.284C144.186 153.937 148.061 154.166 151.91 154.214C152.279 154.218 152.65 154.219 153.021 154.221C145.996 155.629 136.571 156.629 125.21 155.748C128.349 151.368 133.62 147.142 140.294 143.183L138.789 139.522C125.208 142.911 114.685 143.969 108.502 144.102C108.706 144.056 108.914 144.01 109.124 143.963C112.688 143.163 117.087 142.148 122.146 140.829C142.381 135.556 173.203 125.418 203.849 104.567C228.192 88.0023 245.69 77.0647 254 72.9961ZM254.719 141.267C253.257 146.975 250.701 149.367 248.146 150.251C245.893 151.031 243.222 150.818 240.427 150.011C241.225 149.693 242.089 149.325 243.003 148.897C246.431 147.294 250.592 144.866 254.719 141.267ZM91.5674 45.0312C139.863 26.1581 181.876 19.3384 212.717 19.8584C230.03 20.1504 243.709 22.7535 252.981 26.7441C262.381 30.7893 266.602 35.9283 266.604 40.9951C266.604 41.4737 266.489 41.665 266.404 41.7676C266.292 41.9034 266.019 42.1291 265.35 42.3428C263.932 42.7954 261.579 42.9456 257.959 42.8984C250.938 42.8069 239.899 41.998 225.155 42.5264C195.525 43.5883 150.51 50.0295 88.7539 78.2256C86.1076 79.4339 84.2027 80.3703 83.0186 81.0576C82.4673 81.3776 81.903 81.7375 81.5137 82.125C81.3771 82.261 80.8986 82.7394 80.79 83.4951C80.7221 83.9682 80.8088 84.5004 81.1211 84.9707C81.4041 85.3968 81.7726 85.622 82.0156 85.7363C82.4606 85.9456 82.9035 85.9768 83.1221 85.9863C83.3957 85.9983 83.6838 85.9849 83.9609 85.9609C84.5187 85.9128 85.2081 85.8072 85.9912 85.6631C87.5669 85.3731 89.7023 84.8929 92.29 84.2705C102.76 81.7524 120.724 76.8964 141.602 72.0195C162.397 67.1619 185.77 62.3631 206.558 60.0645C216.952 58.9151 226.653 58.3962 235.034 58.7959C241.467 59.1027 247.025 59.9474 251.492 61.4053C241.728 66.227 229.343 68.7681 215.277 70.6055C207.357 71.6401 198.986 72.4443 190.314 73.3271C181.659 74.2084 172.722 75.167 163.741 76.5068C127.827 81.8648 90.8099 93.3811 66.8496 131.077C64.5424 134.707 62.4409 136.032 61.0059 136.271C59.7604 136.479 58.4697 135.942 57.3613 134.186C55.0462 130.516 54.3892 122.463 58.8574 112.979C61.5931 107.171 63.3256 102.673 64.2246 99.3135C64.6737 97.6355 64.9324 96.1797 64.9844 94.9502C65.0348 93.7568 64.9003 92.5658 64.3564 91.585C63.7409 90.4753 62.7088 89.835 61.5059 89.7227C60.4409 89.6233 59.3768 89.9449 58.4473 90.3721C56.567 91.2363 54.4093 92.922 52.2139 95.0488C47.7752 99.3487 42.6695 105.957 38.6045 113.234C35.3764 119.013 32.7273 125.356 31.6523 131.404C26.825 125.439 24.662 118.765 25.6533 111.845C26.8336 103.606 32.5475 94.5544 44.6152 85.6133C68.7928 67.6999 117.603 50.8963 201.714 42.3955C204.684 42.0955 207.168 41.5907 208.938 40.9453C209.805 40.6288 210.636 40.2313 211.269 39.7119C211.859 39.2269 212.714 38.247 212.466 36.8623C212.242 35.6165 211.25 34.9082 210.576 34.54C209.811 34.1221 208.823 33.797 207.683 33.5342C205.38 33.0038 202.028 32.6345 197.512 32.499C181.185 32.0093 148.503 34.5527 91.5674 45.0312ZM205.116 83.1992C170.156 93.4218 153.741 104.257 141.077 113.593C133.262 119.354 127.164 124.306 119.004 128.221C111.47 131.835 102.119 134.582 88.0889 136.018C94.1584 122.95 109.068 111.035 132.412 101.402C151.456 93.5447 175.883 87.3065 205.116 83.1992ZM271.309 75.7686C271.573 78.2364 271.257 80.8752 270.552 83.5771C269.722 86.7578 268.382 89.9062 266.967 92.7891C263.702 90.726 260.191 89.2184 256.607 88.0518C261.724 84.2765 266.709 80.2456 271.309 75.7686Z" fill="#00F2EA" stroke="#40D2E1" stroke-width="4"/>
</svg>
