<svg width="265" height="265" viewBox="0 0 265 265" fill="none" xmlns="http://www.w3.org/2000/svg">
<path d="M264.853 131.931C264.589 126.762 261.411 122.123 256.513 120.135L204.488 99.3259L249.894 19.8024C251.327 17.2841 251.895 14.3652 251.512 11.4927C251.13 8.62017 249.817 5.95235 247.776 3.89769C245.724 1.85406 243.06 0.540165 240.19 0.157164C237.321 -0.225838 234.406 0.34317 231.891 1.77707L147.962 49.7563L102.158 3.89769C98.3193 0.0540527 92.627 -1.00626 87.7289 0.981827C82.8309 2.96992 79.5214 7.87387 79.5214 13.1754V63.8054L15.4495 53.0698C12.6869 52.5989 9.84632 53.0271 7.34464 54.2913C4.84295 55.5556 2.8119 57.5894 1.54956 60.0943C-1.09804 65.2634 -0.171381 71.4927 3.9324 75.6014L62.1796 133.919L2.47622 217.551C0.779701 219.906 -0.088663 222.758 0.00715895 225.66C0.102981 228.562 1.15757 231.35 3.00574 233.588C6.71238 238.227 13.0666 239.818 18.4942 237.432L96.2012 204.164L106.262 254.397C107.321 259.831 111.557 263.94 116.985 264.867C117.779 264.867 118.441 265 119.235 265C123.869 265 128.105 262.614 130.62 258.506L163.715 203.369L245.129 249.891C247.73 251.348 250.745 251.889 253.689 251.426C256.634 250.963 259.338 249.524 261.368 247.339C263.398 245.153 264.637 242.349 264.884 239.375C265.132 236.401 264.375 233.429 262.735 230.937L218.123 163.873L257.705 144.124C259.991 142.974 261.896 141.185 263.188 138.974C264.48 136.763 265.105 134.225 264.986 131.666L264.853 131.931Z" fill="#FF004F"/>
<path d="M88.4727 2.81445C92.6489 1.11936 97.4931 2.02558 100.759 5.29492L146.562 51.1543L147.631 52.2236L148.943 51.4736L232.872 3.49414L232.871 3.49316C235.01 2.27425 237.489 1.79158 239.929 2.11719C242.216 2.42256 244.351 3.42391 246.048 4.98047L246.381 5.29883C248.113 7.04575 249.227 9.31293 249.552 11.7539C249.857 14.0455 249.451 16.3717 248.396 18.4189L248.177 18.8223L202.771 98.3457L201.645 100.318L203.754 101.162L255.769 121.967H255.77C259.936 123.658 262.651 127.609 262.878 132.032L262.953 133.512C262.781 135.081 262.283 136.603 261.48 137.977C260.382 139.856 258.764 141.376 256.822 142.354L217.24 162.103L215.236 163.103L216.477 164.968L261.083 232.023V232.024C262.48 234.146 263.125 236.677 262.914 239.21C262.703 241.743 261.647 244.131 259.919 245.992C258.19 247.853 255.888 249.079 253.382 249.473C250.876 249.866 248.309 249.406 246.095 248.165L164.696 201.652L163.016 200.691L162.02 202.352L128.934 257.473C126.768 261.01 123.162 263.022 119.235 263.022C118.941 263.022 118.662 262.998 118.289 262.964C117.984 262.936 117.607 262.902 117.189 262.893C112.631 262.06 109.096 258.599 108.203 254.019L108.201 254.009L98.1406 203.776L97.6621 201.388L95.4229 202.347L17.7158 235.614L17.707 235.617L17.6982 235.621C13.0991 237.643 7.70322 236.299 4.55078 232.354L4.54102 232.341L4.53027 232.329L4.24414 231.967C2.85224 230.132 2.05971 227.906 1.9834 225.595C1.90201 223.129 2.64022 220.707 4.08105 218.707L4.08594 218.7L63.7891 135.067L64.7617 133.705L63.5791 132.521L5.33203 74.2041C1.84516 70.713 1.0463 65.415 3.30957 60.9961L3.31543 60.9844C4.38756 58.8569 6.11251 57.13 8.23633 56.0566C10.3603 54.9833 12.772 54.6198 15.1172 55.0195L15.123 55.0205L79.1943 65.7559L81.499 66.1416V13.1758C81.499 8.67983 84.32 4.50003 88.4727 2.81445ZM103.888 79.5771C103.888 82.8376 102.423 86.006 99.9385 88.1543C97.489 90.2723 94.1204 91.1824 90.8457 90.6172L90.8369 90.6162L52.1816 84.1221L46.0889 83.0977L50.4551 87.4697L87.3887 124.448C91.3307 128.395 91.7914 134.483 88.623 139.015L49.9795 193.208L45.8779 198.959L52.3691 196.174L101.471 175.105C103.016 174.454 104.687 174.156 106.362 174.234C108.037 174.312 109.674 174.763 111.152 175.556L111.164 175.562L111.176 175.568C114.11 177.092 116.221 179.896 116.966 183.052L117.034 183.358L123.518 215.949L124.518 220.974L127.153 216.58L149.256 179.742C150.778 177.231 153.218 175.414 156.057 174.678C158.717 173.987 161.532 174.296 163.973 175.535L164.456 175.796L208.403 200.977L211.033 198.166L189.208 165.323C187.562 162.674 186.986 159.508 187.671 156.433L187.741 156.134C188.522 153.006 190.645 150.417 193.592 148.941L193.563 148.822L219.932 135.688L223.883 133.721L219.784 132.082L181.01 116.58C177.925 115.322 175.596 112.958 174.6 109.854C173.574 106.658 173.92 103.252 175.502 100.424L175.501 100.423L204.353 49.8076L207.936 43.5225L201.653 47.1113L151.085 76.0049L151.072 76.0117L151.061 76.0195C146.701 78.5936 141.199 77.8283 137.579 74.2041L107.265 43.8525L103.888 40.4717V79.5771Z" fill="#FDD835" stroke="#FF004F" stroke-width="3.95522"/>
</svg>
