<svg width="161" height="60" viewBox="0 0 161 60" fill="none" xmlns="http://www.w3.org/2000/svg">
<path d="M4.28613 4L59.9053 4C60.4227 4.0001 60.9325 4.12782 61.3887 4.37207C61.8448 4.61632 62.2336 4.96979 62.5205 5.40039L62.5215 5.40137L78.8213 29.8408L78.8223 29.8418C78.8534 29.8886 78.8701 29.9437 78.8701 30C78.8701 30.0563 78.8534 30.1114 78.8223 30.1582L78.8213 30.1592L62.5215 54.5986L62.5205 54.5996C62.2336 55.0302 61.8448 55.3837 61.3887 55.6279C60.9325 55.8722 60.4227 55.9999 59.9053 56H4.28613C4.23437 56.0001 4.1831 55.9865 4.13867 55.96C4.09445 55.9335 4.0586 55.895 4.03418 55.8496C4.00973 55.804 3.99751 55.7519 4 55.7002C4.00254 55.6486 4.0192 55.5986 4.04785 55.5557H4.04883L19.6123 32.2197L21.0928 30L19.6123 27.7803L4.04883 4.44434H4.04785C4.0192 4.40138 4.00254 4.35137 4 4.2998C3.99751 4.24811 4.00973 4.19601 4.03418 4.15039C4.0586 4.10501 4.09445 4.06651 4.13867 4.04004C4.1831 4.01349 4.23438 3.99992 4.28613 4Z" fill="#F96CDA" stroke="white" stroke-width="8"/>
<path d="M82.1562 4L137.775 4C138.293 4.0001 138.803 4.12782 139.259 4.37207C139.715 4.61632 140.104 4.96979 140.391 5.40039L140.392 5.40137L156.691 29.8408L156.692 29.8418C156.723 29.8886 156.74 29.9437 156.74 30C156.74 30.0563 156.723 30.1114 156.692 30.1582L156.691 30.1592L140.392 54.5986L140.391 54.5996C140.104 55.0302 139.715 55.3837 139.259 55.6279C138.803 55.8722 138.293 55.9999 137.775 56H82.1562C82.1045 56.0001 82.0532 55.9865 82.0088 55.96C81.9646 55.9335 81.9287 55.895 81.9043 55.8496C81.8798 55.804 81.8676 55.7519 81.8701 55.7002C81.8727 55.6486 81.8893 55.5986 81.918 55.5557H81.9189L97.4824 32.2197L98.9629 30L97.4824 27.7803L81.9189 4.44434H81.918C81.8893 4.40138 81.8727 4.35137 81.8701 4.2998C81.8676 4.24811 81.8798 4.19601 81.9043 4.15039C81.9287 4.10501 81.9646 4.06651 82.0088 4.04004C82.0532 4.01349 82.1045 3.99992 82.1562 4Z" fill="#F96CDA" stroke="white" stroke-width="8"/>
</svg>
