<svg width="161" height="60" viewBox="0 0 161 60" fill="none" xmlns="http://www.w3.org/2000/svg">
<path d="M100.834 55C100.482 54.9999 100.134 54.9126 99.8228 54.7461C99.5119 54.5796 99.2468 54.3384 99.0513 54.0449L99.0503 54.0439L83.0151 30L99.0503 5.95605L99.0513 5.95508C99.2468 5.66161 99.5119 5.42044 99.8228 5.25391C100.134 5.08737 100.482 5.00007 100.834 5L155.12 5L140.295 27.2256L138.445 30L140.295 32.7744L155.12 55L100.834 55Z" fill="#F96CDA" stroke="white" stroke-width="10"/>
<path d="M22.9648 55C22.6121 54.9999 22.2641 54.9126 21.9531 54.7461C21.6423 54.5796 21.3772 54.3384 21.1816 54.0449L21.1807 54.0439L5.14551 30L21.1807 5.95605L21.1816 5.95508C21.3772 5.66161 21.6423 5.42044 21.9531 5.25391C22.2641 5.08737 22.612 5.00007 22.9648 5L77.25 5L62.4258 27.2256L60.5752 30L62.4258 32.7744L77.25 55L22.9648 55Z" fill="#F96CDA" stroke="white" stroke-width="10"/>
</svg>
