<svg width="161" height="60" viewBox="0 0 161 60" fill="none" xmlns="http://www.w3.org/2000/svg">
<path d="M156.454 56L100.835 56C100.318 55.9999 99.8077 55.8722 99.3516 55.6279C98.8954 55.3837 98.5066 55.0302 98.2197 54.5996L98.2188 54.5986L81.9189 30.1592L81.918 30.1582C81.8869 30.1114 81.8701 30.0563 81.8701 30C81.8701 29.9437 81.8869 29.8886 81.918 29.8418L81.9189 29.8408L98.2188 5.40137L98.2197 5.40039C98.5066 4.96979 98.8954 4.61632 99.3516 4.37207C99.8077 4.12782 100.318 4.0001 100.835 4L156.454 4C156.506 3.99992 156.557 4.01349 156.602 4.04004C156.646 4.06651 156.682 4.105 156.706 4.15039C156.731 4.19601 156.743 4.24811 156.74 4.2998C156.738 4.35137 156.721 4.40138 156.692 4.44434H156.691L141.128 27.7803L139.647 30L141.128 32.2197L156.691 55.5557H156.692C156.721 55.5986 156.738 55.6486 156.74 55.7002C156.743 55.7519 156.731 55.804 156.706 55.8496C156.682 55.895 156.646 55.9335 156.602 55.96C156.557 55.9865 156.506 56.0001 156.454 56Z" fill="#F96CDA" stroke="white" stroke-width="8"/>
<path d="M78.584 56L22.9648 56C22.4474 55.9999 21.9376 55.8722 21.4814 55.6279C21.0253 55.3837 20.6365 55.0302 20.3496 54.5996L20.3486 54.5986L4.04883 30.1592L4.04785 30.1582C4.01674 30.1114 4 30.0563 4 30C4 29.9437 4.01674 29.8886 4.04785 29.8418L4.04883 29.8408L20.3486 5.40137L20.3496 5.40039C20.6365 4.96979 21.0253 4.61632 21.4814 4.37207C21.9376 4.12782 22.4474 4.0001 22.9648 4L78.584 4C78.6357 3.99992 78.687 4.01349 78.7314 4.04004C78.7757 4.06651 78.8115 4.105 78.8359 4.15039C78.8604 4.19601 78.8726 4.24811 78.8701 4.2998C78.8676 4.35137 78.8509 4.40138 78.8223 4.44434H78.8213L63.2578 27.7803L61.7773 30L63.2578 32.2197L78.8213 55.5557H78.8223C78.8509 55.5986 78.8676 55.6486 78.8701 55.7002C78.8726 55.7519 78.8604 55.804 78.8359 55.8496C78.8115 55.895 78.7757 55.9335 78.7314 55.96C78.687 55.9865 78.6357 56.0001 78.584 56Z" fill="#F96CDA" stroke="white" stroke-width="8"/>
</svg>
