<svg width="161" height="60" viewBox="0 0 161 60" fill="none" xmlns="http://www.w3.org/2000/svg">
<path d="M59.9053 5C60.2581 5.00006 60.606 5.08737 60.917 5.25391C61.2278 5.42043 61.4929 5.66161 61.6885 5.95508L61.6895 5.95605L77.7246 30L61.6895 54.0439L61.6885 54.0449C61.4929 54.3384 61.2278 54.5796 60.917 54.7461C60.606 54.9126 60.2581 54.9999 59.9053 55H5.62012L20.4443 32.7744L22.2949 30L20.4443 27.2256L5.62012 5L59.9053 5Z" fill="#F96CDA" stroke="white" stroke-width="10"/>
<path d="M137.775 5C138.128 5.00006 138.476 5.08737 138.787 5.25391C139.098 5.42043 139.363 5.66161 139.559 5.95508L139.56 5.95605L155.595 30L139.56 54.0439L139.559 54.0449C139.363 54.3384 139.098 54.5796 138.787 54.7461C138.476 54.9126 138.128 54.9999 137.775 55H83.4902L98.3145 32.7744L100.165 30L98.3145 27.2256L83.4902 5L137.775 5Z" fill="#F96CDA" stroke="white" stroke-width="10"/>
</svg>
