<svg width="53" height="60" viewBox="0 0 53 60" fill="none" xmlns="http://www.w3.org/2000/svg">
<g clip-path="url(#clip0_291_5517)">
<path d="M38.7738 21.341C42.5911 24.0683 47.2675 25.673 52.3181 25.673V15.9593C51.3621 15.9597 50.4088 15.86 49.4736 15.6618V23.3079C44.4235 23.3079 39.7477 21.7033 35.9296 18.9762V38.7993C35.9296 48.716 27.8864 56.7542 17.9655 56.7542C14.2637 56.7542 10.823 55.6357 7.96484 53.7173C11.227 57.0512 15.7763 59.1192 20.8091 59.1192C30.7309 59.1192 38.7743 51.0809 38.7743 41.1639V21.341H38.7738ZM42.2829 11.541C40.332 9.41089 39.051 6.65803 38.7738 3.61455V2.36523H36.0784C36.7569 6.23335 39.0714 9.53801 42.2829 11.541ZM14.2398 46.1078C13.1498 44.6796 12.5606 42.9321 12.5634 41.1355C12.5634 36.6001 16.2422 32.9227 20.7811 32.9227C21.6268 32.9222 22.4676 33.052 23.2738 33.3075V23.3765C22.3317 23.2476 21.3809 23.1926 20.4306 23.2128V30.9425C19.624 30.687 18.7828 30.5572 17.9367 30.5579C13.398 30.5579 9.71936 34.2349 9.71936 38.7709C9.71936 41.9783 11.5581 44.7551 14.2398 46.1078Z" fill="#FF004F"/>
<path d="M35.9284 18.976C39.7467 21.7031 44.422 23.3077 49.4724 23.3077V15.6616C46.6533 15.0613 44.1578 13.589 42.2815 11.541C39.0698 9.53781 36.7557 6.23314 36.0772 2.36523H28.9972V41.1635C28.9811 45.6866 25.3085 49.3489 20.7795 49.3489C18.1108 49.3489 15.7397 48.0775 14.2382 46.1076C11.5569 44.7551 9.71794 41.9781 9.71794 38.7711C9.71794 34.2355 13.3966 30.5581 17.9353 30.5581C18.8049 30.5581 19.643 30.6934 20.4292 30.9427V23.213C10.6824 23.4143 2.84375 31.3741 2.84375 41.1637C2.84375 46.0506 4.79569 50.4807 7.96383 53.7177C10.822 55.6357 14.2625 56.7547 17.9645 56.7547C27.8856 56.7547 35.9286 48.7158 35.9286 38.7993L35.9284 18.976Z" fill="white"/>
<path d="M49.4729 15.6609V13.5939C46.9307 13.5976 44.4388 12.886 42.2819 11.5406C44.1912 13.6297 46.7052 15.0703 49.4729 15.6613M36.0775 2.36456C36.0128 1.99497 35.9632 1.62292 35.9287 1.24931V0H26.1528V38.7986C26.1373 43.3214 22.4648 46.9837 17.9355 46.9837C16.6515 46.9856 15.3851 46.6855 14.2385 46.1075C15.74 48.077 18.1111 49.3482 20.7797 49.3482C25.3086 49.3482 28.9815 45.6863 28.9975 41.1632V2.36477L36.0775 2.36456ZM20.4301 23.2124V21.0115C19.6132 20.9 18.7896 20.8441 17.9652 20.8443C8.04299 20.8443 0 28.883 0 38.7986C0 45.0154 3.16099 50.4941 7.96451 53.7169C4.79636 50.48 2.84442 46.0497 2.84442 41.163C2.84442 31.3737 10.6828 23.4137 20.4301 23.2124Z" fill="#00F2EA"/>
</g>
<defs>
<clipPath id="clip0_291_5517">
<rect width="52.3187" height="59.2673" fill="white"/>
</clipPath>
</defs>
</svg>
