<svg width="27" height="30" viewBox="0 0 27 30" fill="none" xmlns="http://www.w3.org/2000/svg">
<g clip-path="url(#clip0_716_1507)">
<path d="M19.5648 10.7705C21.4909 12.1467 23.8506 12.9564 26.3992 12.9564V8.05488C25.9168 8.05507 25.4357 8.00474 24.9639 7.90473V11.7629C22.4155 11.7629 20.0561 10.9533 18.1296 9.57721V19.5799C18.1296 24.5839 14.071 28.64 9.06487 28.64C7.19697 28.64 5.46076 28.0756 4.01855 27.1075C5.66464 28.7898 7.9602 29.8333 10.4998 29.8333C15.5063 29.8333 19.565 25.7772 19.565 20.7731V10.7705H19.5648ZM21.3354 5.82542C20.351 4.75055 19.7046 3.36145 19.5648 1.82572V1.19531H18.2046C18.547 3.14716 19.7149 4.81469 21.3354 5.82542ZM7.1849 23.2678C6.63487 22.5471 6.33757 21.6653 6.33897 20.7587C6.33897 18.4702 8.19532 16.6146 10.4856 16.6146C10.9124 16.6143 11.3366 16.6798 11.7434 16.8087V11.7976C11.268 11.7325 10.7883 11.7048 10.3088 11.715V15.6154C9.90175 15.4864 9.47729 15.421 9.05033 15.4213C6.76013 15.4213 4.90388 17.2767 4.90388 19.5656C4.90388 21.184 5.8317 22.5852 7.1849 23.2678Z" fill="#FF004F"/>
<path d="M18.1291 9.57711C20.0557 10.9532 22.4149 11.7628 24.9634 11.7628V7.90462C23.5409 7.60175 22.2816 6.85883 21.3348 5.82542C19.7142 4.81459 18.5465 3.14706 18.2041 1.19531H14.6316V20.7729C14.6234 23.0552 12.7703 24.9032 10.4849 24.9032C9.13832 24.9032 7.94186 24.2617 7.1842 23.2677C5.8312 22.5852 4.90328 21.1839 4.90328 19.5657C4.90328 17.277 6.75953 15.4214 9.04973 15.4214C9.48853 15.4214 9.91144 15.4897 10.3082 15.6155V11.7151C5.38993 11.8167 1.43457 15.8332 1.43457 20.773C1.43457 23.2389 2.41952 25.4743 4.01816 27.1077C5.46036 28.0756 7.19647 28.6402 9.06448 28.6402C14.0707 28.6402 18.1292 24.5838 18.1292 19.5799L18.1291 9.57711Z" fill="#052681"/>
<path d="M24.964 7.90247V6.85946C23.6812 6.86132 22.4238 6.50228 21.3354 5.82337C22.2988 6.87752 23.5674 7.60447 24.964 7.90268M18.2047 1.19316C18.172 1.00666 18.147 0.818924 18.1296 0.630403V0H13.1967V19.5778C13.1889 21.8599 11.3357 23.7079 9.05025 23.7079C8.40234 23.7089 7.76329 23.5574 7.18472 23.2658C7.94238 24.2596 9.13883 24.9011 10.4854 24.9011C12.7707 24.9011 14.6241 23.0533 14.6321 20.7709V1.19326L18.2047 1.19316ZM10.309 11.7129V10.6024C9.89679 10.5461 9.48123 10.5179 9.0652 10.518C4.05848 10.518 0 14.5743 0 19.5778C0 22.7147 1.59503 25.4793 4.01888 27.1055C2.42024 25.4722 1.43529 23.2366 1.43529 20.7708C1.43529 15.8311 5.39055 11.8145 10.309 11.7129Z" fill="#00F2EA"/>
</g>
<defs>
<clipPath id="clip0_716_1507">
<rect width="26.4" height="29.9062" fill="white"/>
</clipPath>
</defs>
</svg>
