<svg width="75" height="85" viewBox="0 0 75 85" fill="none" xmlns="http://www.w3.org/2000/svg">
<path d="M55.1291 30.3425C60.5565 34.2203 67.2055 36.5019 74.3865 36.5019V22.6908C73.0273 22.6913 71.6719 22.5495 70.3423 22.2677V33.139C63.1618 33.139 56.5137 30.8577 51.0852 26.9803V55.165C51.0852 69.2646 39.6493 80.6936 25.5435 80.6936C20.2803 80.6936 15.3882 79.1033 11.3245 76.3756C15.9627 81.1158 22.4309 84.0561 29.5866 84.0561C43.6935 84.0561 55.1297 72.6272 55.1297 58.527L55.1291 30.3425ZM60.1183 16.4088C57.3445 13.3802 55.5232 9.46609 55.1291 5.13883V3.36254H51.2967C52.2614 8.86227 55.5522 13.5609 60.1183 16.4088ZM20.2463 65.5563C18.6965 63.5257 17.8588 61.041 17.8627 58.4866C17.8627 52.0381 23.0934 46.8095 29.5468 46.8095C30.7493 46.8088 31.9447 46.9934 33.091 47.3566V33.2367C31.7514 33.0533 30.3997 32.9752 29.0485 33.0039V43.9941C27.9016 43.6307 26.7056 43.4463 25.5026 43.4472C19.0495 43.4472 13.8191 48.6753 13.8191 55.1246C13.8191 59.6849 16.4334 63.633 20.2463 65.5563Z" fill="#FF004F"/>
<path d="M51.0838 26.98C56.5126 30.8574 63.1601 33.1387 70.3409 33.1387V22.2674C66.3326 21.414 62.7844 19.3207 60.1166 16.4088C55.5502 13.5606 52.26 8.86198 51.2953 3.36254H41.2289V58.5264C41.2059 64.9574 35.9843 70.1646 29.5448 70.1646C25.7505 70.1646 22.3792 68.3569 20.2444 65.556C16.432 63.633 13.8174 59.6846 13.8174 55.1249C13.8174 48.6761 19.0478 43.4475 25.5009 43.4475C26.7373 43.4475 27.9289 43.6399 29.0468 43.9944V33.0042C15.1886 33.2904 4.04358 44.6078 4.04358 58.5267C4.04358 65.4749 6.81887 71.7738 11.3234 76.3762C15.3871 79.1032 20.2789 80.6942 25.5424 80.6942C39.6485 80.6942 51.0841 69.2643 51.0841 55.165L51.0838 26.98Z" fill="black"/>
<path d="M70.3409 22.2674L70.3412 19.328C66.7268 19.3332 63.1834 18.3218 60.1166 16.4088C62.8312 19.3791 66.4057 21.4272 70.3409 22.2674ZM51.2953 3.36254C51.2034 2.83705 51.1329 2.30749 51.0839 1.77629V0H37.1845V55.1644C37.1624 61.5949 31.9407 66.802 25.501 66.802C23.6753 66.8047 21.8746 66.3777 20.2444 65.556C22.3792 68.3569 25.7505 70.1646 29.5448 70.1646C35.9843 70.1646 41.2059 64.9574 41.2289 58.5264V3.36254H51.2953ZM29.0485 33.0039L29.0477 29.8744C27.8863 29.7159 26.7153 29.6364 25.5431 29.6367C11.4356 29.6367 0 41.0663 0 55.1644C0 64.0035 4.49479 71.7935 11.3245 76.3756C6.81998 71.7735 4.04358 65.4746 4.04358 58.5267C4.04358 44.6081 15.1897 33.2901 29.0485 33.0039Z" fill="#00F2EA"/>
</svg>
