<svg width="1280" height="1250" viewBox="0 0 1280 1250" fill="none" xmlns="http://www.w3.org/2000/svg">
<g clip-path="url(#clip0_335_3885)">
<path d="M634.75 -0.437164C636.069 -0.438564 637.388 -0.439964 638.746 -0.441406C665.033 -0.43763 690.943 1.53255 717 5.00034C717.761 5.09937 718.521 5.19841 719.304 5.30045C784.525 13.8278 850.134 38.1957 904 76.0003C904.54 76.3772 905.08 76.7541 905.636 77.1424C922.666 89.0532 938.658 101.982 954 116C955.001 116.908 956.003 117.816 957.004 118.723C964.668 125.684 972.174 132.711 978.918 140.582C980.528 142.452 982.156 144.298 983.801 146.137C1003.28 168.043 1019.83 192.367 1034 218C1034.44 218.782 1034.88 219.564 1035.33 220.369C1054.6 254.878 1067.03 292.402 1075 331C1075.21 332.01 1075.42 333.019 1075.63 334.059C1076.96 340.679 1078.04 347.317 1079 354C1079.15 354.985 1079.3 355.969 1079.45 356.984C1093.32 451.961 1070.47 551.988 1018 632C1017.53 632.717 1017.06 633.434 1016.58 634.173C1004.51 652.415 990.872 669.456 976.16 685.621C974.739 687.186 973.33 688.761 971.934 690.348C963.621 699.763 954.816 709.018 945.207 717.129C943.408 718.655 941.644 720.205 939.887 721.778C919.151 740.229 896.117 756.274 872 770C871.222 770.446 870.444 770.891 869.642 771.349C817.463 801.009 760.317 817.571 701 825C699.449 825.197 699.449 825.197 697.867 825.398C598.952 837.265 487.035 809.458 396 752C395.283 751.53 394.566 751.06 393.828 750.576C376.204 738.922 359.319 725.89 343.801 711.555C341.649 709.592 339.473 707.684 337.266 705.785C332.449 701.583 327.945 697.092 323.438 692.563C322.626 691.755 321.815 690.948 320.979 690.116C316.111 685.24 311.473 680.239 307 675C306.154 674.036 305.309 673.072 304.438 672.078C287.636 652.584 272.735 631.363 260 609C259.52 608.158 259.039 607.316 258.544 606.449C224.792 546.83 206.802 479.713 206.75 411.188C206.749 410.37 206.749 409.553 206.748 408.711C206.866 317.42 238.323 230.494 307 145C308.067 143.775 309.13 142.546 310.188 141.313C319.873 130.241 329.984 119.75 341 110C341.6 109.467 342.199 108.933 342.817 108.383C351.272 100.878 359.918 93.7348 369 87.0003C369.653 86.511 370.306 86.0216 370.978 85.5174C387.16 73.414 404.239 62.7419 421.991 53.0951C423.357 52.3506 424.72 51.5997 426.079 50.8431C474.319 24.0139 529.309 8.23055 584 2.00034C584.752 1.9138 585.504 1.82726 586.278 1.7381C602.428 -0.0693057 618.509 -0.438827 634.75 -0.437164Z" fill="#FEFEFE"/>
<path d="M634.75 -0.437164C636.069 -0.438564 637.388 -0.439964 638.746 -0.441406C665.033 -0.43763 690.943 1.53255 717 5.00034C717.761 5.09937 718.521 5.19841 719.304 5.30045C784.525 13.8278 850.134 38.1957 904 76.0003C904.54 76.3772 905.08 76.7541 905.636 77.1424C922.666 89.0532 938.658 101.982 954 116C955.001 116.908 956.003 117.816 957.004 118.723C964.668 125.684 972.174 132.711 978.918 140.582C980.528 142.452 982.156 144.298 983.801 146.137C1003.28 168.043 1019.83 192.367 1034 218C1034.44 218.782 1034.88 219.564 1035.33 220.369C1054.6 254.878 1067.03 292.402 1075 331C1075.21 332.01 1075.42 333.019 1075.63 334.059C1076.96 340.679 1078.04 347.317 1079 354C1079.15 354.985 1079.3 355.969 1079.45 356.984C1093.32 451.961 1070.47 551.988 1018 632C1017.53 632.717 1017.06 633.434 1016.58 634.173C1004.51 652.415 990.872 669.456 976.16 685.621C974.739 687.186 973.33 688.761 971.934 690.348C963.621 699.763 954.816 709.018 945.207 717.129C943.408 718.655 941.644 720.205 939.887 721.778C919.151 740.229 896.117 756.274 872 770C871.222 770.446 870.444 770.891 869.642 771.349C817.463 801.009 760.317 817.571 701 825C699.449 825.197 699.449 825.197 697.867 825.398C598.952 837.265 487.035 809.458 396 752C395.283 751.53 394.566 751.06 393.828 750.576C376.204 738.922 359.319 725.89 343.801 711.555C341.649 709.592 339.473 707.684 337.266 705.785C332.449 701.583 327.945 697.092 323.438 692.563C322.626 691.755 321.815 690.948 320.979 690.116C316.111 685.24 311.473 680.239 307 675C306.154 674.036 305.309 673.072 304.438 672.078C287.636 652.584 272.735 631.363 260 609C259.52 608.158 259.039 607.316 258.544 606.449C224.792 546.83 206.802 479.713 206.75 411.188C206.749 410.37 206.749 409.553 206.748 408.711C206.866 317.42 238.323 230.494 307 145C308.067 143.775 309.13 142.546 310.188 141.313C319.873 130.241 329.984 119.75 341 110C341.6 109.467 342.199 108.933 342.817 108.383C351.272 100.878 359.918 93.7348 369 87.0003C369.653 86.511 370.306 86.0216 370.978 85.5174C387.16 73.414 404.239 62.7419 421.991 53.0951C423.357 52.3506 424.72 51.5997 426.079 50.8431C474.319 24.0139 529.309 8.23055 584 2.00034C584.752 1.9138 585.504 1.82726 586.278 1.7381C602.428 -0.0693057 618.509 -0.438827 634.75 -0.437164ZM584 46.0003C582.853 46.1719 581.706 46.3435 580.525 46.5204C506.956 57.8502 438.011 90.7462 383.578 141.61C381.326 143.698 379.03 145.703 376.688 147.688C373.414 150.523 370.635 153.609 367.84 156.91C365.862 159.157 363.77 161.227 361.625 163.313C357.581 167.316 353.96 171.529 350.414 175.977C348.766 178.042 347.105 180.071 345.399 182.086C301.923 234.034 276.835 298.776 266.75 365.188C266.587 366.262 266.423 367.336 266.255 368.442C264.059 383.608 263.796 398.645 263.813 413.938C263.813 414.94 263.814 415.941 263.814 416.973C263.838 431.4 264.02 445.687 266 460C266.129 460.961 266.258 461.921 266.391 462.91C271.422 499.386 281.216 534.278 296 568C296.408 568.933 296.817 569.865 297.237 570.826C306.147 590.895 317.295 610.093 330 628C330.781 629.103 330.781 629.103 331.577 630.228C339.493 641.346 347.864 651.866 357 662C357.866 662.977 358.733 663.955 359.625 664.961C371.208 677.85 383.327 690.331 397 701C398.857 702.58 400.711 704.164 402.563 705.75C458.669 752.457 529.764 779.874 602.057 786.718C603.885 786.893 605.711 787.082 607.535 787.293C616.892 788.311 626.287 788.201 635.688 788.188C636.604 788.187 637.521 788.185 638.465 788.184C730.153 787.942 818.524 754.19 907 674.125C910.125 670.954 913.123 667.705 916.016 664.321C917.53 662.55 919.065 660.798 920.609 659.055C957.381 617.328 983.905 566.285 998.276 512.682C998.943 510.212 999.646 507.755 1000.36 505.297C1004.61 490.127 1006.49 474.486 1008.5 458.893C1008.9 455.804 1009.32 452.721 1009.76 449.637C1021.69 358.994 990.11 262.134 935.5 190.313C919.419 169.409 901.392 148.315 880.578 132.02C877.794 129.839 875.123 127.551 872.438 125.25C849.591 106.231 823.78 90.7914 797 78.0003C795.888 77.4669 795.888 77.4669 794.753 76.9227C772.619 66.4018 749.751 58.919 726 53.0003C725.082 52.7633 724.164 52.5263 723.219 52.2821C706.69 48.0253 689.945 45.8457 673 44.0003C672.079 43.8943 671.159 43.7883 670.21 43.679C659.537 42.6043 648.778 42.7564 638.063 42.7503C636.994 42.7497 635.924 42.749 634.823 42.7483C617.682 42.7654 600.97 43.4111 584 46.0003Z" fill="#017E92"/>
<path d="M428.999 237.998C446.837 237.928 464.674 237.875 482.512 237.843C490.795 237.827 499.078 237.806 507.361 237.772C514.582 237.742 521.804 237.723 529.026 237.716C532.848 237.712 536.669 237.703 540.491 237.681C544.093 237.661 547.696 237.654 551.298 237.659C553.239 237.658 555.181 237.642 557.122 237.625C564.604 237.651 571.995 237.886 578.121 242.647C578.555 243.216 578.989 243.786 579.437 244.373C579.889 244.938 580.342 245.502 580.808 246.084C584.132 251.423 584.286 256.032 584.258 262.154C584.261 263.079 584.265 264.004 584.269 264.957C584.279 268.057 584.275 271.157 584.271 274.258C584.275 276.48 584.28 278.703 584.287 280.926C584.298 285.715 584.304 290.504 584.304 295.293C584.306 302.876 584.324 310.458 584.345 318.04C584.373 328.681 584.396 339.323 584.413 349.964C584.414 350.976 584.414 350.976 584.416 352.009C584.428 359.529 584.438 367.048 584.447 374.568C584.45 377.288 584.453 380.009 584.456 382.729C584.457 383.736 584.457 383.736 584.458 384.763C584.471 395.992 584.496 407.222 584.53 418.451C584.551 425.977 584.559 433.504 584.557 441.031C584.559 445.732 584.573 450.433 584.59 455.134C584.596 457.301 584.596 459.468 584.591 461.636C584.55 481.469 585.803 502.97 598.999 518.998C612.156 531.077 628.85 531.682 645.755 531.134C656.717 530.469 668.273 525.9 675.999 517.998C688.9 500.621 689.297 480.411 689.255 459.741C689.258 457.497 689.261 455.252 689.266 453.007C689.274 448.192 689.276 443.378 689.274 438.564C689.271 430.949 689.285 423.335 689.303 415.72C689.326 405.044 689.345 394.369 689.358 383.693C689.359 383.017 689.359 382.341 689.36 381.645C689.372 372.041 689.377 362.438 689.38 352.834C689.38 352.157 689.38 351.48 689.38 350.782C689.381 350.106 689.381 349.429 689.381 348.732C689.385 337.445 689.404 326.158 689.435 314.871C689.456 307.304 689.458 299.736 689.447 292.168C689.445 287.462 689.459 282.756 689.477 278.05C689.483 275.869 689.481 273.689 689.472 271.509C689.461 268.53 689.475 265.552 689.494 262.573C689.485 261.714 689.476 260.854 689.466 259.969C689.547 253.621 691.015 248.23 695.411 243.47C700.243 239.206 704.564 237.746 710.916 237.758C712.101 237.755 713.285 237.752 714.506 237.749C716.443 237.76 716.443 237.76 718.419 237.771C719.799 237.772 721.179 237.771 722.559 237.77C726.298 237.77 730.037 237.782 733.777 237.795C737.687 237.808 741.597 237.809 745.508 237.812C752.91 237.818 760.311 237.834 767.713 237.854C776.141 237.877 784.569 237.888 792.997 237.898C810.331 237.919 827.665 237.954 844.999 237.998C845.045 271.799 845.081 305.601 845.102 339.402C845.104 343.402 845.107 347.402 845.109 351.402C845.11 352.596 845.11 352.596 845.111 353.814C845.12 366.669 845.135 379.524 845.154 392.379C845.173 405.591 845.184 418.803 845.188 432.016C845.19 440.154 845.199 448.292 845.215 456.43C845.226 462.027 845.229 467.624 845.226 473.222C845.225 476.44 845.228 479.659 845.238 482.878C845.353 522.811 839.762 557.546 810.999 586.998C810.345 587.715 809.69 588.432 809.015 589.17C774.385 626.168 712.32 636.075 664.114 637.885C629.284 638.908 594.335 638.598 559.999 631.998C559.243 631.858 558.486 631.718 557.707 631.573C516.724 623.902 474.325 607.174 449.621 571.647C442.923 561.687 438.332 551.657 434.874 540.186C434.633 539.412 434.391 538.637 434.141 537.84C428.724 518.927 428.57 499.312 428.659 479.807C428.66 477.154 428.659 474.5 428.658 471.847C428.656 466.183 428.665 460.519 428.682 454.854C428.707 446.666 428.715 438.477 428.718 430.288C428.725 416.995 428.745 403.702 428.773 390.409C428.801 377.513 428.822 364.616 428.835 351.719C428.836 350.522 428.836 350.522 428.837 349.302C428.841 345.299 428.845 341.296 428.849 337.293C428.88 304.195 428.932 271.097 428.999 237.998Z" fill="#E42313"/>
<path d="M634.75 -0.437164C636.069 -0.438564 637.388 -0.439964 638.746 -0.441406C665.033 -0.43763 690.943 1.53255 717 5.00034C717.761 5.09937 718.521 5.19841 719.304 5.30045C784.525 13.8278 850.134 38.1957 904 76.0003C904.54 76.3772 905.08 76.7541 905.636 77.1424C922.666 89.0532 938.658 101.982 954 116C955.001 116.908 956.003 117.816 957.004 118.723C964.668 125.684 972.174 132.711 978.918 140.582C980.528 142.452 982.156 144.298 983.801 146.137C1003.28 168.043 1019.83 192.367 1034 218C1034.44 218.782 1034.88 219.564 1035.33 220.369C1054.6 254.878 1067.03 292.402 1075 331C1075.21 332.01 1075.42 333.019 1075.63 334.059C1076.96 340.679 1078.04 347.317 1079 354C1079.15 354.985 1079.3 355.969 1079.45 356.984C1093.32 451.961 1070.47 551.988 1018 632C1017.53 632.717 1017.06 633.434 1016.58 634.173C1004.51 652.415 990.872 669.456 976.16 685.621C974.739 687.186 973.33 688.761 971.934 690.348C963.621 699.763 954.816 709.018 945.207 717.129C943.408 718.655 941.644 720.205 939.887 721.778C919.151 740.229 896.117 756.274 872 770C871.222 770.446 870.444 770.891 869.642 771.349C817.463 801.009 760.317 817.571 701 825C699.449 825.197 699.449 825.197 697.867 825.398C598.952 837.265 487.035 809.458 396 752C395.283 751.53 394.566 751.06 393.828 750.576C376.204 738.922 359.319 725.89 343.801 711.555C341.649 709.592 339.473 707.684 337.266 705.785C332.449 701.583 327.945 697.092 323.438 692.563C322.626 691.755 321.815 690.948 320.979 690.116C316.111 685.24 311.473 680.239 307 675C306.154 674.036 305.309 673.072 304.438 672.078C287.636 652.584 272.735 631.363 260 609C259.52 608.158 259.039 607.316 258.544 606.449C224.792 546.83 206.802 479.713 206.75 411.188C206.749 410.37 206.749 409.553 206.748 408.711C206.866 317.42 238.323 230.494 307 145C308.067 143.775 309.13 142.546 310.188 141.313C319.873 130.241 329.984 119.75 341 110C341.6 109.467 342.199 108.933 342.817 108.383C351.272 100.878 359.918 93.7348 369 87.0003C369.653 86.511 370.306 86.0216 370.978 85.5174C387.16 73.414 404.239 62.7419 421.991 53.0951C423.357 52.3506 424.72 51.5997 426.079 50.8431C474.319 24.0139 529.309 8.23055 584 2.00034C584.752 1.9138 585.504 1.82726 586.278 1.7381C602.428 -0.0693057 618.509 -0.438827 634.75 -0.437164ZM452 60.0003C451.298 60.4294 450.596 60.8585 449.873 61.3006C445.855 63.7781 441.906 66.3492 438 69.0003C437.351 69.4402 436.701 69.8801 436.032 70.3333C425.235 77.6926 415.007 85.6047 405 94.0003C404.406 94.495 403.813 94.9897 403.201 95.4994C384.83 110.833 367.13 127.384 352.242 146.176C350.567 148.287 348.869 150.358 347.133 152.418C332.801 169.527 320.487 187.995 309.482 207.392C308.073 209.872 306.641 212.339 305.207 214.805C272.636 271.557 252.895 340.98 252.832 406.438C252.829 407.679 252.825 408.921 252.822 410.2C252.817 412.811 252.815 415.423 252.815 418.035C252.813 421.962 252.794 425.889 252.775 429.817C252.743 444.34 253.241 458.583 255 473C255.13 474.167 255.26 475.333 255.394 476.535C260.103 516.945 271.596 557.683 288.843 594.524C289.973 596.943 291.071 599.373 292.164 601.809C300.985 621.229 311.823 639.512 324 657C324.424 657.617 324.847 658.233 325.283 658.868C331.551 667.984 338.354 676.607 345.431 685.107C346.831 686.796 348.209 688.5 349.582 690.211C356.545 698.747 364.3 706.513 372.063 714.313C372.617 714.873 373.172 715.433 373.744 716.01C380.839 723.158 388.099 729.741 396 736C397.028 736.863 398.051 737.732 399.066 738.61C446.464 779.257 506.892 805.769 568 817C568.986 817.186 569.971 817.371 570.987 817.562C592.623 821.593 613.894 823.172 635.875 823.188C637.098 823.189 637.098 823.189 638.347 823.191C655.642 823.188 672.689 822.37 689.813 819.875C690.558 819.768 691.304 819.661 692.072 819.55C747.922 811.419 803.103 790.462 850 759C850.707 758.53 851.414 758.06 852.142 757.575C861.381 751.409 870.304 744.908 879 738C879.945 737.25 880.89 736.5 881.863 735.727C887.489 731.191 892.891 726.459 898.199 721.555C900.351 719.592 902.527 717.684 904.734 715.785C909.551 711.583 914.055 707.092 918.563 702.563C919.374 701.755 920.186 700.948 921.022 700.116C925.889 695.24 930.528 690.239 935 685C935.846 684.036 936.691 683.072 937.563 682.078C993.218 617.504 1026.69 536.682 1037.13 452.438C1037.21 451.744 1037.3 451.051 1037.39 450.336C1048.31 362.201 1029.51 270.901 969 169C968.521 168.32 968.041 167.64 967.547 166.939C961.008 157.692 954.346 148.629 947 140C946.114 138.941 945.229 137.881 944.344 136.821C933.231 123.594 921.549 110.75 908.543 99.3558C906.893 97.9063 905.261 96.4381 903.629 94.9691C847.649 45.0355 773.741 11.7143 699 4.00034C698.039 3.89882 697.078 3.79731 696.088 3.69272C610.32 -4.94956 525.486 15.0528 452 60.0003Z" fill="#5AC4F1"/>
<path d="M699 3.9999C707.473 3.64103 715.64 4.71096 724 5.9999C724.711 6.10838 725.422 6.21687 726.155 6.32864C811.481 19.5041 890.375 57.8652 954 116C955.001 116.908 956.002 117.815 957.004 118.723C964.668 125.684 972.174 132.711 978.918 140.582C980.528 142.452 982.156 144.298 983.801 146.137C1003.28 168.043 1019.83 192.366 1034 218C1034.44 218.782 1034.88 219.564 1035.33 220.369C1054.6 254.878 1067.03 292.402 1075 331C1075.21 332.009 1075.42 333.019 1075.63 334.059C1076.96 340.679 1078.04 347.316 1079 354C1079.15 354.984 1079.3 355.969 1079.45 356.983C1093.32 451.96 1070.47 551.988 1018 632C1017.53 632.717 1017.06 633.434 1016.58 634.172C1004.51 652.414 990.872 669.456 976.16 685.621C974.739 687.186 973.33 688.761 971.934 690.348C963.62 699.763 954.816 709.017 945.207 717.129C943.408 718.654 941.644 720.204 939.887 721.777C919.151 740.229 896.116 756.274 872 770C871.222 770.445 870.443 770.89 869.642 771.349C817.463 801.009 760.317 817.57 701 825C699.449 825.197 699.449 825.197 697.867 825.398C652.585 830.83 605.331 827.201 561 817C561 816.34 561 815.68 561 815C561.813 815.141 562.627 815.282 563.465 815.427C587.685 819.585 611.265 822.16 635.875 822.187C637.099 822.189 637.099 822.189 638.348 822.191C655.643 822.188 672.69 821.37 689.812 818.875C690.558 818.768 691.304 818.66 692.072 818.55C747.922 810.418 803.103 789.462 850 758C850.707 757.53 851.414 757.059 852.142 756.575C861.381 750.409 870.304 743.908 879 737C880.417 735.875 880.417 735.875 881.863 734.726C887.489 730.191 892.891 725.458 898.199 720.555C900.362 718.582 902.548 716.663 904.766 714.754C909.394 710.716 913.732 706.415 918.062 702.062C918.826 701.302 919.59 700.543 920.377 699.76C925.125 695.003 929.633 690.107 934 685C934.846 684.036 935.691 683.071 936.562 682.078C992.218 617.503 1025.69 536.682 1036.12 452.437C1036.21 451.744 1036.3 451.05 1036.39 450.336C1047.31 362.201 1028.51 270.9 968 169C967.521 168.32 967.041 167.64 966.547 166.939C960.008 157.692 953.346 148.628 946 140C945.114 138.94 944.229 137.88 943.344 136.82C932.387 123.781 920.909 111.134 908 99.9999C906.416 98.5427 904.832 97.0843 903.25 95.6249C897.088 90.088 890.588 85.015 884 79.9999C883.4 79.5433 882.801 79.0866 882.183 78.6161C829.012 38.3738 765.245 12.7543 699 4.9999C699 4.6699 699 4.3399 699 3.9999Z" fill="#53BAAA"/>
<path d="M732.999 1151C737.366 1153.95 740.358 1157.43 742.999 1162C742.999 1162.66 742.999 1163.32 742.999 1164C743.989 1162.98 743.989 1162.98 744.999 1161.94C745.995 1160.96 746.995 1159.98 747.999 1159C748.592 1158.42 749.185 1157.85 749.796 1157.25C759.11 1148.61 768.618 1146.46 781.136 1146.74C789.229 1147.29 794.932 1149.39 800.499 1155.38C812.029 1169.76 809.141 1190.48 809.062 1207.94C809.057 1209.89 809.052 1211.85 809.048 1213.8C809.037 1218.54 809.02 1223.27 808.999 1228C813.619 1228 818.239 1228 822.999 1228C822.999 1234.6 822.999 1241.2 822.999 1248C817.321 1248.02 811.643 1248.04 805.964 1248.06C804.031 1248.06 802.098 1248.07 800.165 1248.08C797.392 1248.09 794.62 1248.09 791.847 1248.1C790.542 1248.11 790.542 1248.11 789.211 1248.12C787.14 1248.12 785.069 1248.06 782.999 1248C781.136 1246.14 781.874 1243.01 781.873 1240.53C781.871 1239.51 781.871 1239.51 781.868 1238.48C781.864 1237 781.862 1235.53 781.861 1234.05C781.858 1230.92 781.836 1227.79 781.816 1224.66C781.778 1218.83 781.747 1212.99 781.749 1207.16C781.75 1203.1 781.726 1199.05 781.687 1195C781.676 1193.45 781.675 1191.9 781.683 1190.36C781.692 1188.19 781.671 1186.03 781.643 1183.87C781.637 1182.02 781.637 1182.02 781.632 1180.13C781.263 1176.84 781.263 1176.84 778.662 1174.63C775.234 1172.53 773.031 1172.07 768.999 1172C765.899 1172.77 762.97 1173.84 759.999 1175C758.514 1175.5 758.514 1175.5 756.999 1176C755.882 1177.87 755.882 1177.87 754.999 1180C754.36 1181.07 753.721 1182.15 753.062 1183.25C746.468 1196.74 747.353 1213.38 746.999 1228C751.619 1228 756.239 1228 760.999 1228C760.999 1234.6 760.999 1241.2 760.999 1248C755.785 1248.02 750.57 1248.04 745.356 1248.06C743.582 1248.06 741.808 1248.07 740.034 1248.08C737.484 1248.09 734.935 1248.09 732.386 1248.1C731.195 1248.11 731.195 1248.11 729.98 1248.12C726.723 1248.12 724.112 1248.04 720.999 1247C720.979 1246.25 720.958 1245.49 720.937 1244.72C720.74 1237.57 720.535 1230.42 720.321 1223.27C720.211 1219.59 720.104 1215.92 720.005 1212.25C719.908 1208.69 719.804 1205.14 719.693 1201.59C719.633 1199.59 719.582 1197.59 719.531 1195.59C719.314 1185.14 719.314 1185.14 716.999 1175C713.522 1172.1 711.567 1171.99 707.062 1172.06C701.235 1173.12 697.422 1175.55 693.312 1179.75C684.71 1193.36 685.821 1212.6 684.999 1228C689.949 1228 694.899 1228 699.999 1228C699.999 1234.27 699.999 1240.54 699.999 1247C696.703 1247.83 694.401 1248.13 691.079 1248.15C690.105 1248.15 689.13 1248.16 688.127 1248.17C686.559 1248.17 686.559 1248.17 684.96 1248.17C683.883 1248.17 682.806 1248.18 681.696 1248.18C679.421 1248.18 677.147 1248.19 674.872 1248.19C671.381 1248.19 667.889 1248.21 664.398 1248.23C662.189 1248.23 659.981 1248.23 657.773 1248.23C656.199 1248.24 656.199 1248.24 654.594 1248.25C653.626 1248.25 652.658 1248.25 651.661 1248.24C650.38 1248.25 650.38 1248.25 649.073 1248.25C646.999 1248 646.999 1248 644.999 1246C644.772 1244.12 644.772 1244.12 644.804 1241.87C644.81 1241.06 644.817 1240.26 644.824 1239.43C644.84 1238.59 644.857 1237.74 644.874 1236.88C644.883 1236.03 644.892 1235.18 644.902 1234.3C644.925 1232.2 644.961 1230.1 644.999 1228C649.949 1228 654.899 1228 659.999 1228C659.881 1221.01 659.756 1214.02 659.627 1207.02C659.584 1204.65 659.542 1202.27 659.502 1199.89C659.444 1196.47 659.38 1193.05 659.316 1189.62C659.299 1188.57 659.282 1187.51 659.265 1186.42C659.161 1181.19 658.892 1176.16 657.999 1171C653.709 1170.67 649.419 1170.34 644.999 1170C644.999 1163.07 644.999 1156.14 644.999 1149C649.18 1148.96 653.361 1148.92 657.542 1148.89C658.963 1148.88 660.384 1148.87 661.805 1148.85C663.853 1148.83 665.9 1148.82 667.949 1148.81C669.179 1148.8 670.41 1148.79 671.678 1148.77C676.308 1149.09 678.987 1149.93 682.187 1153.31C683.894 1155.85 684.921 1158.16 685.999 1161C686.75 1160.33 687.5 1159.65 688.273 1158.95C700.66 1148.04 717.514 1140.82 732.999 1151Z" fill="#007991"/>
<path d="M1033.14 1151.41C1041.94 1158.3 1044.54 1167.31 1046 1178C1046.24 1182.01 1046.24 1186 1046.2 1190.01C1046.19 1191.1 1046.19 1192.2 1046.19 1193.33C1046.18 1196.78 1046.15 1200.23 1046.13 1203.69C1046.12 1206.05 1046.11 1208.4 1046.1 1210.76C1046.08 1216.51 1046.04 1222.25 1046 1228C1050.62 1228 1055.24 1228 1060 1228C1060 1234.6 1060 1241.2 1060 1248C1054.79 1248.02 1049.57 1248.04 1044.36 1248.05C1042.58 1248.06 1040.81 1248.07 1039.03 1248.07C1036.49 1248.09 1033.94 1248.09 1031.39 1248.1C1030.2 1248.1 1030.2 1248.1 1028.98 1248.11C1025.72 1248.11 1023.11 1248.04 1020 1247C1019.98 1245.94 1019.95 1244.88 1019.92 1243.78C1019.36 1219.2 1019.36 1219.2 1018.56 1194.62C1018.52 1193.32 1018.52 1193.32 1018.48 1191.99C1018.2 1185.33 1017.76 1178.64 1014 1173C1007.25 1170.75 1001.3 1171.67 995 1174.81C987.675 1179.17 983.284 1186.99 981 1195C980.774 1197.63 980.63 1200.17 980.586 1202.8C980.567 1203.53 980.547 1204.25 980.527 1205C980.468 1207.29 980.421 1209.58 980.375 1211.87C980.337 1213.44 980.298 1215 980.258 1216.56C980.162 1220.37 980.078 1224.19 980 1228C984.29 1228 988.58 1228 993 1228C993 1234.6 993 1241.2 993 1248C975.51 1248 958.02 1248 940 1248C940 1241.4 940 1234.8 940 1228C944.29 1228 948.58 1228 953 1228C952.505 1199.29 952.505 1199.29 952 1170C947.71 1170 943.42 1170 939 1170C938 1169 938 1169 937.887 1167.05C937.895 1165.8 937.895 1165.8 937.903 1164.53C937.906 1163.63 937.909 1162.73 937.912 1161.8C937.921 1160.86 937.929 1159.91 937.938 1158.94C937.942 1157.99 937.947 1157.04 937.951 1156.06C937.963 1153.71 937.98 1151.35 938 1149C942.466 1148.92 946.931 1148.87 951.397 1148.83C952.915 1148.82 954.433 1148.8 955.951 1148.77C958.138 1148.74 960.325 1148.72 962.512 1148.71C963.826 1148.69 965.141 1148.67 966.495 1148.66C971.048 1149.1 973.607 1150.56 976.75 1153.81C978.289 1156.5 978.551 1158.95 979 1162C979.629 1161.4 980.258 1160.79 980.906 1160.17C994.249 1147.71 1016.38 1140.38 1033.14 1151.41Z" fill="#007991"/>
<path d="M251.999 1149C265.859 1149 279.719 1149 293.999 1149C293.967 1153.98 293.935 1158.97 293.901 1164.1C293.901 1167.26 293.903 1170.43 293.915 1173.59C293.934 1178.61 293.942 1183.62 293.893 1188.64C293.854 1192.69 293.858 1196.73 293.893 1200.78C293.899 1202.32 293.889 1203.86 293.862 1205.4C293.466 1213.9 293.466 1213.9 296.933 1221.29C301.989 1224.82 305.921 1225.96 311.999 1225C318.646 1222.93 323.154 1218.71 326.999 1213C330.554 1205.92 332.063 1199.28 332.316 1191.39C332.357 1190.14 332.399 1188.89 332.442 1187.61C332.482 1186.31 332.521 1185.02 332.562 1183.69C332.626 1181.72 332.626 1181.72 332.692 1179.71C332.798 1176.47 332.899 1173.24 332.999 1170C328.049 1170 323.099 1170 317.999 1170C317.999 1163.07 317.999 1156.14 317.999 1149C331.859 1149 345.719 1149 359.999 1149C360.815 1175.02 361.129 1200.97 360.999 1227C362.985 1226.97 364.97 1226.93 366.956 1226.9C368.999 1227 368.999 1227 371.999 1228C371.999 1234.6 371.999 1241.2 371.999 1248C367.811 1248.05 363.624 1248.09 359.437 1248.12C358.255 1248.14 357.074 1248.16 355.857 1248.18C341.872 1248.25 341.872 1248.25 337.257 1244.63C335.103 1241.77 333.711 1239.5 332.999 1236C332.249 1236.6 331.499 1237.21 330.726 1237.83C319.307 1246.74 308.773 1251.12 293.999 1250C284.542 1248.15 277.529 1243.94 271.999 1236C265.213 1222.43 266.744 1205.3 266.874 1190.56C266.884 1188.56 266.893 1186.56 266.901 1184.55C266.923 1179.7 266.958 1174.85 266.999 1170C260.069 1169.5 260.069 1169.5 252.999 1169C250.888 1162.67 251.999 1155.67 251.999 1149Z" fill="#007991"/>
<path d="M527.75 963.999C532.323 967.508 534.566 972.909 537 977.999C537.681 977.319 538.361 976.638 539.062 975.937C539.524 975.482 539.985 975.027 540.461 974.558C541.513 973.492 542.539 972.399 543.539 971.284C551.376 962.798 561.383 959.082 572.75 958.624C581.387 958.799 590.167 961.041 596.535 967.159C602.777 974.999 604.102 983.244 604.559 992.921C604.601 993.795 604.643 994.669 604.687 995.569C605.138 1005.79 605.11 1016.02 605.062 1026.25C605.057 1028.18 605.053 1030.11 605.049 1032.05C605.038 1036.7 605.021 1041.35 605 1046C609.95 1046 614.9 1046 620 1046C620 1050.29 620 1054.58 620 1059C609.77 1059 599.54 1059 589 1059C588.951 1054.84 588.902 1050.68 588.852 1046.4C588.807 1043.04 588.76 1039.69 588.713 1036.33C588.663 1032.81 588.617 1029.29 588.578 1025.77C588.533 1021.71 588.474 1017.65 588.414 1013.59C588.397 1011.74 588.397 1011.74 588.379 1009.85C588.338 993.303 588.338 993.303 583 977.999C577.899 974.206 573.283 973.493 567 973.999C556.2 976.924 549.692 983.08 544.129 992.57C539.039 1003.52 540.785 1019.46 540.438 1031.44C540.394 1032.86 540.351 1034.29 540.307 1035.71C540.201 1039.14 540.101 1042.57 540 1046C544.95 1046 549.9 1046 555 1046C555 1050.29 555 1054.58 555 1059C545.1 1059 535.2 1059 525 1059C523.875 1048.88 523.875 1048.88 523.811 1045.13C523.794 1044.29 523.777 1043.45 523.76 1042.58C523.746 1041.7 523.733 1040.82 523.719 1039.91C523.7 1038.97 523.682 1038.02 523.663 1037.05C523.605 1034.05 523.552 1031.06 523.5 1028.06C523.365 1020.37 523.212 1012.69 523 1005C522.976 1004.13 522.953 1003.26 522.929 1002.37C522.855 999.929 522.76 997.494 522.656 995.058C522.636 994.355 522.615 993.653 522.594 992.929C522.349 987.974 521.375 983.371 519 978.999C514.333 975.207 510.357 973.615 504.309 973.726C495.039 974.824 488.026 980.061 482.277 987.112C473.795 999.512 474.581 1015.71 474.211 1030.12C474.062 1035.45 473.596 1040.7 473 1046C478.61 1046 484.22 1046 490 1046C490 1050.29 490 1054.58 490 1059C474.16 1059 458.32 1059 442 1059C442 1054.71 442 1050.42 442 1046C447.61 1046 453.22 1046 459 1046C458.892 1041.96 458.892 1041.96 458.781 1037.83C458.235 1016.88 457.833 995.957 458 974.999C456.393 975.017 456.393 975.017 454.754 975.034C453.357 975.044 451.96 975.053 450.562 975.062C449.855 975.07 449.148 975.078 448.42 975.087C446.613 975.096 444.806 975.051 443 974.999C442 973.999 442 973.999 441.902 971.277C441.914 970.174 441.926 969.072 441.938 967.937C441.947 966.832 441.956 965.727 441.965 964.589C441.976 963.734 441.988 962.88 442 961.999C446.062 961.912 450.124 961.859 454.188 961.812C455.913 961.774 455.913 961.774 457.674 961.736C459.342 961.721 459.342 961.721 461.043 961.706C462.064 961.691 463.085 961.675 464.137 961.659C467.744 962.088 470.415 963.414 473 965.999C473.393 967.678 473.741 969.368 474.062 971.062C474.239 971.981 474.416 972.9 474.598 973.847C474.797 974.912 474.797 974.912 475 975.999C475.666 975.347 476.333 974.695 477.02 974.023C491.34 960.443 509.109 952.807 527.75 963.999Z" fill="#007991"/>
<path d="M336 962.001C341.274 965.818 345.759 969.728 348 976.001C348 976.661 348 977.321 348 978.001C348.461 977.589 348.923 977.176 349.398 976.751C363.42 964.337 372.692 957.861 392 959.001C399.164 960.176 404.924 963.884 410 969.001C419.706 983.092 416.125 1006.26 416.062 1022.44C416.057 1024.73 416.053 1027.02 416.049 1029.32C416.038 1034.88 416.021 1040.44 416 1046C421.61 1046 427.22 1046 433 1046C433 1050.29 433 1054.58 433 1059C422.77 1059 412.54 1059 402 1059C401.368 1049.57 400.911 1040.18 400.754 1030.74C400.737 1029.76 400.721 1028.79 400.703 1027.78C400.637 1023.75 400.575 1019.73 400.523 1015.7C401.402 996.782 401.402 996.782 395.938 979.376C390.938 975.334 385.887 973.618 379.438 974.064C371.253 975.416 365.112 979.54 360 986.001C351.391 998.624 351.533 1015.27 351.312 1030C351.279 1031.57 351.245 1033.13 351.209 1034.7C351.123 1038.46 351.062 1042.23 351 1046C356.61 1046 362.22 1046 368 1046C367.67 1050.29 367.34 1054.58 367 1059C357.1 1059 347.2 1059 337 1059C336.428 1048.6 335.933 1038.22 335.754 1027.81C335.737 1026.88 335.721 1025.94 335.703 1024.98C335.637 1021.17 335.575 1017.35 335.523 1013.53C336.299 994.549 336.299 994.549 329 978.001C324.195 974.662 319.892 973.189 314 974.001C304.44 976.654 297.854 981.664 292.625 990.064C285.863 1002.27 286.787 1016.08 286.438 1029.69C286.394 1031.28 286.351 1032.86 286.307 1034.45C286.2 1038.3 286.1 1042.15 286 1046C290.95 1046 295.9 1046 301 1046C301 1050.29 301 1054.58 301 1059C285.82 1059 270.64 1059 255 1059C255 1054.71 255 1050.42 255 1046C259.95 1046 264.9 1046 270 1046C270 1022.57 270 999.141 270 975.001C264.39 975.001 258.78 975.001 253 975.001C253 970.711 253 966.421 253 962.001C257.23 961.92 261.458 961.861 265.688 961.814C266.886 961.789 268.084 961.764 269.318 961.738C270.475 961.728 271.632 961.718 272.824 961.708C273.887 961.693 274.95 961.677 276.046 961.661C279.44 962.052 281.287 962.952 284 965.001C285.145 967.701 285.145 967.701 285.812 970.689C286.162 972.18 286.162 972.18 286.52 973.701C286.678 974.46 286.837 975.219 287 976.001C287.681 974.98 287.681 974.98 288.375 973.939C299.584 961.396 320.149 953.263 336 962.001Z" fill="#007991"/>
<path d="M221.437 1153.75C227.27 1158.62 232.137 1164.83 233.41 1172.46C233.662 1175.43 233.908 1178.4 234.125 1181.38C234.209 1182.5 234.294 1183.61 234.382 1184.77C235.34 1198.83 235.183 1212.91 235 1227C235.603 1226.99 236.206 1226.98 236.828 1226.97C237.627 1226.96 238.426 1226.95 239.25 1226.94C240.038 1226.93 240.827 1226.92 241.64 1226.9C244 1227 244 1227 248 1228C248 1234.27 248 1240.54 248 1247C243.959 1249.02 238.815 1248.23 234.375 1248.25C232.772 1248.28 232.772 1248.28 231.136 1248.31C224.701 1248.35 219.8 1247.87 214 1245C210 1240.1 210 1240.1 210 1237C209.091 1237.8 209.091 1237.8 208.164 1238.61C198.542 1246.72 188.686 1250.98 176 1250C166.353 1248.82 160.415 1245.26 154 1238C147.892 1229.98 147.353 1222.98 148 1213C149.37 1205.91 153.47 1200.63 159.191 1196.37C169.471 1189.79 180.68 1187.43 192.625 1185.81C194.93 1185.49 197.234 1185.16 199.539 1184.83C200.541 1184.7 201.543 1184.56 202.576 1184.42C205 1184.12 205 1184.12 207 1183C206.746 1178.69 206.415 1176.5 203.625 1173.13C198.188 1168.73 191.68 1169.36 185 1170C179.087 1171.36 173.136 1173.38 167.753 1176.17C166 1177 166 1177 163 1177C161.494 1174.38 159.995 1171.75 158.5 1169.13C158.07 1168.38 157.641 1167.63 157.199 1166.86C156.793 1166.15 156.387 1165.43 155.968 1164.7C155.591 1164.04 155.214 1163.38 154.826 1162.7C154 1161 154 1161 154 1159C170.561 1144.69 203.127 1141.15 221.437 1153.75ZM176.625 1212.38C174.624 1215.61 174.454 1217.26 175 1221C176.825 1225.13 178.834 1227.24 183 1229C189.249 1229.72 193.89 1228.78 199 1225C203.913 1219.89 207.719 1213.79 208.25 1206.63C208.288 1204.08 208.288 1204.08 207 1203C195.38 1202.01 185.079 1203.92 176.625 1212.38Z" fill="#007991"/>
<path d="M615.938 1155.32C625.22 1162.89 630.36 1173.21 632.001 1185C632.001 1190.94 632.001 1196.88 632.001 1203C610.221 1203.33 588.441 1203.66 566.001 1204C568.986 1212.96 571.58 1218.59 579.688 1223.44C587.632 1227.18 595.755 1226.97 604.063 1224.31C608.918 1222.55 613.492 1220.4 618.04 1217.95C620.001 1217 620.001 1217 622.001 1217C623.569 1219.74 625.1 1222.49 626.626 1225.25C627.072 1226.03 627.518 1226.8 627.977 1227.6C628.39 1228.36 628.802 1229.11 629.227 1229.89C629.615 1230.58 630.002 1231.27 630.402 1231.98C631.001 1234 631.001 1234 630.336 1236.11C628.844 1238.22 627.671 1239.08 625.403 1240.29C624.323 1240.86 624.323 1240.86 623.221 1241.45C622.468 1241.84 621.715 1242.23 620.938 1242.62C620.212 1243.02 619.486 1243.41 618.737 1243.82C609.365 1248.73 600.601 1249.36 590.126 1249.37C589.018 1249.4 587.911 1249.42 586.77 1249.45C573.543 1249.5 562.212 1244.66 552.485 1235.67C547.402 1230.31 543.702 1224.87 541.001 1218C540.682 1217.19 540.364 1216.39 540.036 1215.56C535.689 1202.44 536.686 1186.48 542.372 1173.99C547.727 1163.96 555.943 1153.8 567.001 1150C567.738 1149.71 568.475 1149.41 569.235 1149.11C584.863 1143.77 602.55 1145.73 615.938 1155.32ZM570.063 1176.44C567.643 1179.61 566.552 1182.04 566.001 1186C570.874 1186.79 575.53 1187.12 580.466 1187.1C581.144 1187.1 581.822 1187.09 582.521 1187.09C584.66 1187.09 586.799 1187.07 588.938 1187.06C590.4 1187.06 591.861 1187.05 593.323 1187.05C596.882 1187.04 600.442 1187.02 604.001 1187C604.179 1181.19 603.762 1178.55 600.001 1174C594.91 1169.18 591.613 1167.61 584.661 1167.73C578.067 1168.39 574.195 1171.4 570.063 1176.44Z" fill="#007991"/>
<path d="M908.313 1154.19C918.259 1161.71 922.594 1170.97 925.001 1183C925.331 1189.6 925.661 1196.2 926.001 1203C903.891 1203.33 881.781 1203.66 859.001 1204C864.721 1217.11 864.721 1217.11 875.626 1224.81C886.926 1228.55 897.554 1224.95 907.938 1220.25C913.075 1218.15 913.075 1218.15 916.001 1219C918.083 1221.45 919.54 1224.14 921.001 1227C921.336 1227.64 921.671 1228.29 922.016 1228.95C923.18 1231.39 924.077 1233.32 923.77 1236.05C921.933 1240.7 916.212 1242.47 911.919 1244.36C896.579 1250.32 878.134 1252.83 862.516 1246.25C849.271 1240.07 839.901 1231.65 834.778 1217.56C830.247 1202.65 830.626 1186.01 837.126 1171.69C843.518 1160.22 852.754 1153.07 864.938 1148.62C879.728 1144.46 895.326 1145.83 908.313 1154.19ZM865.356 1173.54C862.131 1177.8 860.964 1181.76 859.001 1187C872.201 1187 885.401 1187 899.001 1187C897.036 1177.05 897.036 1177.05 890.501 1170.19C882.321 1166.3 872.154 1167.16 865.356 1173.54Z" fill="#007991"/>
<path d="M64.562 920.839C81.687 920.304 99.8951 923.964 112.785 935.613C115.981 938.658 117.886 940.736 118.113 945.268C118.105 946.564 118.105 946.564 118.097 947.886C118.092 949.293 118.092 949.293 118.087 950.728C118.075 952.193 118.075 952.193 118.062 953.687C118.058 954.675 118.053 955.663 118.048 956.681C118.037 959.121 118.019 961.56 118 963.999C113.38 963.999 108.76 963.999 104 963.999C103.69 960.751 103.69 960.751 103.375 957.437C102.577 951.985 101.845 948.183 97.8198 944.324C86.3515 935.981 70.9819 935.977 57.398 937.242C45.2364 939.409 34.297 946.953 26.9644 956.707C17.2669 971.428 14.9009 986.865 17.562 1004.25C20.8996 1017.69 29.4266 1029.72 40.6948 1037.69C55.3706 1046.04 71.5885 1046.87 87.7573 1042.98C93.9486 1041.1 100.736 1038.96 104 1033C104.371 1030.33 104.598 1027.92 104.687 1025.25C104.79 1022.86 104.893 1020.46 105 1018C109.95 1018 114.9 1018 120 1018C120.081 1021.37 120.14 1024.75 120.187 1028.12C120.212 1029.08 120.237 1030.03 120.263 1031.01C120.331 1037.5 119.813 1042.03 115.16 1046.94C102.701 1056.57 87.5357 1060.15 71.9995 1061C71.288 1061.04 70.5764 1061.08 69.8433 1061.12C50.0018 1061.7 32.5839 1053.79 18.2808 1040.37C5.25272 1026.83 -0.603871 1009.18 -0.437982 990.687C-0.429684 989.495 -0.421385 988.303 -0.412836 987.075C-0.0536897 968.377 6.61706 953.223 19.9995 939.999C20.6866 939.29 21.3737 938.582 22.0815 937.851C33.5138 926.779 48.9386 921.816 64.562 920.839Z" fill="#007991"/>
<path d="M1106.38 964.689C1114.53 971.467 1115.97 981.906 1117 992.001C1117.47 1001.33 1117.28 1010.67 1117.19 1020C1117.17 1022.53 1117.16 1025.06 1117.15 1027.59C1117.11 1033.73 1117.06 1039.86 1117 1046C1121.95 1046 1126.9 1046 1132 1046C1132 1050.29 1132 1054.58 1132 1059C1122.1 1059 1112.2 1059 1102 1059C1101.88 1054.77 1101.76 1050.54 1101.63 1046.19C1101.53 1042.77 1101.43 1039.35 1101.32 1035.94C1101.21 1032.36 1101.11 1028.78 1101.01 1025.2C1100.91 1021.73 1100.8 1018.27 1100.69 1014.81C1100.63 1012.87 1100.58 1010.94 1100.53 1009C1100.32 1002.62 1099.94 996.289 1099.21 989.951C1099.08 988.762 1098.94 987.573 1098.81 986.348C1097.88 982.509 1096.42 980.099 1094 977.001C1087.93 973.529 1079.93 974.16 1073.28 975.584C1063.83 978.859 1056.95 985.499 1052.44 994.314C1050.25 999.047 1048.9 1003.1 1048.79 1008.31C1048.77 1009.15 1048.75 1009.99 1048.73 1010.86C1048.71 1012.21 1048.71 1012.21 1048.68 1013.58C1048.66 1014.51 1048.64 1015.43 1048.62 1016.39C1048.56 1019.34 1048.5 1022.3 1048.44 1025.25C1048.39 1027.26 1048.35 1029.26 1048.31 1031.27C1048.2 1036.18 1048.1 1041.09 1048 1046C1052.95 1046 1057.9 1046 1063 1046C1063 1050.29 1063 1054.58 1063 1059C1047.82 1059 1032.64 1059 1017 1059C1017 1054.71 1017 1050.42 1017 1046C1021.95 1046 1026.9 1046 1032 1046C1032 1022.57 1032 999.141 1032 975.001C1026.39 975.001 1020.78 975.001 1015 975.001C1015 970.711 1015 966.421 1015 962.001C1019.42 961.894 1023.83 961.814 1028.25 961.751C1030.13 961.701 1030.13 961.701 1032.05 961.65C1033.26 961.637 1034.46 961.624 1035.7 961.611C1036.81 961.59 1037.92 961.569 1039.07 961.547C1042.67 962.106 1043.78 963.167 1046 966.001C1047.05 968.58 1047.05 968.58 1047.75 971.251C1047.99 972.144 1048.23 973.036 1048.48 973.955C1048.65 974.63 1048.82 975.306 1049 976.001C1049.6 975.156 1050.2 974.31 1050.81 973.439C1063.52 958.244 1089.85 953.52 1106.38 964.689Z" fill="#007991"/>
<path d="M394.999 1123C403.249 1123 411.499 1123 419.999 1123C420.329 1131.58 420.659 1140.16 420.999 1149C427.929 1149 434.859 1149 441.999 1149C441.999 1155.93 441.999 1162.86 441.999 1170C435.069 1170 428.139 1170 420.999 1170C421.097 1175.98 421.199 1181.95 421.317 1187.93C421.355 1189.96 421.39 1191.99 421.421 1194.02C421.467 1196.95 421.525 1199.88 421.585 1202.81C421.597 1203.71 421.608 1204.61 421.62 1205.54C421.746 1210.99 422.313 1215.8 423.999 1221C426.27 1222.51 426.27 1222.51 428.999 1223C429.742 1223.35 430.484 1223.7 431.249 1224.06C434.947 1225.43 434.947 1225.43 442.999 1226C442.999 1233.26 442.999 1240.52 442.999 1248C414.939 1248.64 414.939 1248.64 403.999 1239C397.362 1231.84 393.86 1223.75 393.886 1213.93C393.886 1212.95 393.886 1211.97 393.886 1210.96C393.891 1209.92 393.896 1208.87 393.902 1207.79C393.903 1206.71 393.904 1205.63 393.906 1204.52C393.911 1201.07 393.924 1197.63 393.937 1194.19C393.942 1191.85 393.946 1189.51 393.95 1187.17C393.961 1181.45 393.978 1175.72 393.999 1170C393 1169.95 392.001 1169.9 390.972 1169.85C389.682 1169.78 388.391 1169.7 387.062 1169.62C385.774 1169.56 384.486 1169.49 383.159 1169.41C382.117 1169.28 381.074 1169.14 379.999 1169C378.851 1166.7 378.884 1165.42 378.902 1162.87C378.905 1162.06 378.908 1161.26 378.911 1160.43C378.92 1159.58 378.928 1158.74 378.937 1157.88C378.941 1157.03 378.946 1156.18 378.95 1155.3C378.962 1153.2 378.98 1151.1 378.999 1149C383.949 1149 388.899 1149 393.999 1149C393.988 1147.63 393.976 1146.25 393.964 1144.84C393.955 1143.02 393.946 1141.2 393.937 1139.38C393.928 1138.47 393.92 1137.57 393.911 1136.64C393.908 1135.75 393.905 1134.87 393.902 1133.96C393.896 1133.15 393.891 1132.35 393.886 1131.52C394.015 1128.66 394.529 1125.82 394.999 1123Z" fill="#007991"/>
<path d="M1080 1122C1088.25 1122 1096.5 1122 1105 1122C1105 1130.91 1105 1139.82 1105 1149C1112.59 1149 1120.18 1149 1128 1149C1128 1155.93 1128 1162.86 1128 1170C1120.41 1170 1112.82 1170 1105 1170C1105.1 1174.3 1105.2 1178.6 1105.32 1182.9C1105.36 1184.36 1105.39 1185.82 1105.42 1187.27C1105.11 1204.99 1105.11 1204.99 1111 1221C1112.91 1222.4 1112.91 1222.4 1115.12 1223.25C1116.18 1223.72 1116.18 1223.72 1117.26 1224.2C1121.06 1225.31 1125.06 1225.56 1129 1226C1129 1233.26 1129 1240.52 1129 1248C1114.81 1248.41 1101.95 1248.54 1089.94 1239.84C1081.3 1231.65 1079.15 1220.44 1078.79 1209.05C1078.75 1207.23 1078.72 1205.41 1078.68 1203.59C1078.66 1202.63 1078.64 1201.66 1078.62 1200.67C1078.56 1197.61 1078.5 1194.56 1078.44 1191.5C1078.39 1189.42 1078.35 1187.33 1078.31 1185.25C1078.2 1180.17 1078.1 1175.08 1078 1170C1073.71 1170 1069.42 1170 1065 1170C1065 1163.07 1065 1156.14 1065 1149C1069.95 1149 1074.9 1149 1080 1149C1080 1140.09 1080 1131.18 1080 1122Z" fill="#007991"/>
<path d="M530 1148C531.26 1156.66 531.09 1165.27 531 1174C529.938 1174.1 528.876 1174.19 527.781 1174.3C515.307 1175.21 515.307 1175.21 505.301 1181.94C498.281 1191.7 497.416 1201.87 496.812 1213.56C496.731 1214.97 496.648 1216.37 496.564 1217.77C496.365 1221.18 496.181 1224.59 496 1228C500.62 1228 505.24 1228 510 1228C510 1234.6 510 1241.2 510 1248C492.18 1248 474.36 1248 456 1248C456 1241.4 456 1234.8 456 1228C460.62 1228 465.24 1228 470 1228C470 1208.86 470 1189.72 470 1170C465.05 1169.67 460.1 1169.34 455 1169C454.67 1162.4 454.34 1155.8 454 1149C458.145 1148.95 462.288 1148.91 466.433 1148.89C467.84 1148.88 469.247 1148.86 470.655 1148.85C472.688 1148.82 474.721 1148.81 476.754 1148.8C477.974 1148.79 479.194 1148.78 480.451 1148.77C484.884 1149.05 489.138 1149.73 492.863 1152.27C494.441 1154.67 494.755 1156.86 495.188 1159.69C495.346 1160.68 495.505 1161.67 495.668 1162.7C495.778 1163.46 495.887 1164.22 496 1165C496.364 1164.48 496.727 1163.96 497.102 1163.42C502.712 1155.64 508.216 1150.62 517.875 1148.31C521.927 1147.91 525.932 1147.92 530 1148Z" fill="#007990"/>
<path d="M979 965.998C990.277 976.738 990.04 989.653 990.562 1004.37C990.605 1005.53 990.647 1006.69 990.691 1007.88C991.116 1020.59 991.098 1033.29 991 1046C991.771 1045.97 992.542 1045.95 993.336 1045.93C994.84 1045.9 994.84 1045.9 996.375 1045.87C997.373 1045.85 998.37 1045.83 999.398 1045.8C1002 1046 1002 1046 1004 1048C1004.2 1050.6 1004.2 1050.6 1004.12 1053.62C1004.11 1054.63 1004.09 1055.63 1004.07 1056.66C1004.05 1057.43 1004.02 1058.2 1004 1059C1001.17 1059.08 998.335 1059.14 995.5 1059.19C994.709 1059.21 993.917 1059.24 993.102 1059.26C987.38 1059.33 983.192 1058.46 978 1056C975.434 1052.15 975.449 1049.56 975 1045C973.793 1046.54 973.793 1046.54 972.562 1048.12C965.641 1056.11 957.133 1060.15 946.652 1061.24C936.765 1061.54 927.758 1059.31 920 1053C914.05 1046.42 911.499 1040.39 910.688 1031.62C911.484 1022.38 914.564 1014.74 921.641 1008.57C936.701 998.026 956.386 997.642 974 997.998C973.857 990.216 973.354 983.967 968 977.998C962.198 973.611 956.037 973.466 949 973.998C941.555 975.257 934.94 977.688 928.18 981.01C926 981.998 926 981.998 924 981.998C923.131 980.591 922.28 979.172 921.438 977.748C920.724 976.565 920.724 976.565 919.996 975.357C919 972.998 919 972.998 919.141 970.857C921.209 966.382 926.611 964.549 930.953 962.826C945.529 957.772 966.313 955.082 979 965.998ZM931.457 1019.44C928.64 1022.45 927.154 1024.93 926.844 1029.1C927.104 1035.42 929.676 1039.5 934 1044C938.147 1047.47 942.711 1048.1 948 1048C956.611 1046.96 962.347 1042.36 968 1036C973.557 1027.98 974.339 1018.46 975 1009C961.191 1009 942.226 1010.03 931.457 1019.44Z" fill="#007991"/>
<path d="M701.598 964.544C712.272 972.331 717.557 982.697 719.704 995.521C720.142 1000.66 720 1005.84 720 1011C695.91 1011 671.82 1011 647 1011C649.749 1023.83 652.118 1032.79 663 1040C673.038 1045.23 683.936 1046.89 695.063 1044.28C699.835 1042.43 704.109 1039.87 708.309 1036.95C710 1036 710 1036 713 1036C713.87 1037.41 714.72 1038.83 715.563 1040.25C716.039 1041.04 716.514 1041.83 717.004 1042.64C718 1045 718 1045 717.875 1047.14C716.174 1050.76 712.382 1052.15 709 1054C708.343 1054.38 707.686 1054.75 707.008 1055.14C695.55 1061.33 680.677 1062.45 668.047 1059.92C654.283 1055.76 644.434 1048.27 637 1036C629.998 1022.44 629.423 1004 633.954 989.47C638.996 977.578 646.978 967.963 658.954 962.704C661.62 961.72 664.276 960.81 667 960.001C667.623 959.809 668.246 959.617 668.887 959.419C679.868 957.247 691.965 958.822 701.598 964.544ZM654.176 984.282C651.035 988.846 648 993.318 648 999.001C666.48 999.001 684.96 999.001 704 999.001C702.796 989.365 699.702 982.26 691.922 976.185C678.725 968.057 663.533 972.582 654.176 984.282Z" fill="#007991"/>
<path d="M225.999 972.999C238.197 986.717 241.004 1000.31 239.999 1018C238.392 1030.31 232.68 1041.16 222.999 1049C209.065 1058.84 193.852 1062.83 176.999 1060C163.624 1056.57 151.951 1048.45 144.57 1036.73C137.169 1023.18 136.135 1007.87 139.964 993.066C144.157 980.644 153.739 970.432 164.999 963.999C185.249 954.344 209.47 958.073 225.999 972.999ZM160.503 987.913C153.967 996.979 153.06 1006.05 153.999 1017C156.879 1028.03 163.163 1036.67 172.691 1042.81C181.592 1047.4 192.313 1047.53 201.812 1044.56C211.949 1040.29 218.795 1032.05 223.249 1022.25C225.952 1010.54 225.17 1000.23 219.249 989.624C213.534 980.841 205.207 975.522 194.991 973.316C181.158 971.119 169.202 977.378 160.503 987.913Z" fill="#007991"/>
<path d="M889 966.999C892.186 969.673 894.654 971.962 896 975.999C896.071 978.737 896.094 981.449 896.063 984.186C896.058 984.936 896.054 985.685 896.049 986.458C896.037 988.305 896.019 990.152 896 991.999C891.38 992.329 886.76 992.659 882 992.999C881.897 991.617 881.794 990.235 881.688 988.811C881.212 984.816 880.74 982.092 878 978.999C869.968 973.957 862.061 972.781 852.774 974.647C841.767 977.663 834.906 982.474 829.192 992.374C824.829 1001.98 824.279 1013.07 827.75 1023.06C831.745 1032.47 837.204 1038.41 846.375 1042.87C855.344 1046.36 866.264 1046.77 875.375 1043.44C880.085 1041.19 884.435 1038.31 888.75 1035.39C891 1034 891 1034 893 1034C894.578 1036.05 894.578 1036.05 896.25 1038.75C896.812 1039.63 897.374 1040.51 897.953 1041.42C899 1044 899 1044 898.473 1046.11C892.569 1053.68 881.736 1057 873 1060C872.068 1060.32 871.136 1060.64 870.176 1060.97C868.123 1061.66 866.063 1062.33 864 1063C864 1064.32 864 1065.64 864 1067C865.647 1068.62 865.647 1068.62 867.813 1069.94C871.179 1072.33 873.517 1074.01 875 1078C875.689 1082.69 875.479 1086.02 873.375 1090.31C869.474 1094.73 865.82 1097.16 860 1098C857.563 1098.07 855.125 1098.08 852.688 1098.06C851.433 1098.05 850.179 1098.04 848.887 1098.03C847.458 1098.02 847.458 1098.02 846 1098C844.278 1094.79 843.612 1092.68 844 1089C846.565 1086.43 847.815 1086.69 851.375 1086.5C855.12 1086.3 857.747 1085.91 861 1084C861.043 1082.07 861.043 1082.07 860 1080C856.675 1078.3 856.675 1078.3 853 1077C851.68 1076.34 850.36 1075.68 849 1075C849.33 1070.38 849.66 1065.76 850 1061C848.95 1060.65 847.899 1060.29 846.817 1059.93C831.564 1054.65 820.282 1046.53 813.008 1031.65C808.055 1018.61 807.811 1001.87 812.672 988.757C818.545 976.56 827.878 967.181 840.43 961.995C856.021 956.561 875.265 957.132 889 966.999Z" fill="#007991"/>
<path d="M1273.54 969.413C1275.93 972.006 1276.12 973.709 1276.1 977.132C1276.09 978.341 1276.09 978.341 1276.09 979.574C1276.07 980.836 1276.07 980.836 1276.06 982.124C1276.06 982.974 1276.05 983.823 1276.05 984.699C1276.04 986.799 1276.02 988.899 1276 990.999C1272.04 990.999 1268.08 990.999 1264 990.999C1263.57 989.617 1263.13 988.236 1262.69 986.812C1260.73 980.532 1260.73 980.532 1256.32 975.921C1248.96 972.998 1240.1 973.267 1232.77 976.015C1230.05 977.53 1228.39 979.218 1227 981.999C1226.53 986.18 1226.41 988.222 1229 991.624C1237.36 998.24 1246.6 1001.89 1256.44 1005.81C1264.31 1009.02 1272.58 1012.43 1276.94 1020.19C1277.32 1020.84 1277.7 1021.49 1278.09 1022.17C1281.02 1028.07 1280.61 1034.58 1280 1041C1277.65 1047.89 1271.3 1053.8 1264.92 1057.07C1252.68 1061.91 1234.14 1062.75 1221.87 1057.81C1219.21 1056.41 1219.21 1056.41 1217 1055C1216.38 1054.63 1215.77 1054.25 1215.14 1053.87C1210.69 1050.71 1207.68 1046.12 1206 1041C1205.61 1036.3 1205.7 1031.7 1206 1027C1208.15 1026.97 1210.29 1026.95 1212.44 1026.94C1213.63 1026.93 1214.83 1026.91 1216.06 1026.9C1219 1027 1219 1027 1220 1028C1220.37 1029.62 1220.7 1031.24 1221 1032.87C1221.53 1035.7 1222.09 1038.27 1223 1041C1225.12 1042.12 1225.12 1042.12 1228 1043C1228.93 1043.39 1228.93 1043.39 1229.87 1043.79C1237.71 1046.87 1246.64 1047.55 1254.62 1044.56C1255.74 1044.05 1256.85 1043.53 1258 1043C1258.99 1042.67 1259.98 1042.34 1261 1042C1263.22 1038.03 1263.55 1034.48 1263 1030C1258.12 1021.46 1247.55 1018.62 1238.88 1015.08C1227.68 1010.51 1216.28 1005.77 1210.69 994.312C1209.15 986.898 1208.77 978.585 1213 971.999C1219.39 964.657 1227.72 959.828 1237.55 959.031C1251.15 958.857 1263.14 959.698 1273.54 969.413Z" fill="#007991"/>
<path d="M801 961.001C801.027 963.313 801.046 965.626 801.062 967.938C801.074 969.226 801.086 970.514 801.098 971.841C801 975.001 801 975.001 800 976.001C797.982 976.274 795.96 976.519 793.938 976.751C786.186 977.906 781.735 980.266 776.25 985.751C767.396 998.54 767.641 1012.66 767.375 1027.63C767.337 1029.41 767.298 1031.2 767.258 1032.98C767.163 1037.32 767.078 1041.66 767 1046C771.29 1046 775.58 1046 780 1046C780 1050.29 780 1054.58 780 1059C773.894 1059.03 767.789 1059.04 761.683 1059.06C759.605 1059.06 757.526 1059.07 755.447 1059.08C752.466 1059.09 749.485 1059.09 746.504 1059.1C745.101 1059.11 745.101 1059.11 743.669 1059.11C742.378 1059.11 742.378 1059.11 741.061 1059.11C740.299 1059.12 739.537 1059.12 738.753 1059.12C737 1059 737 1059 736 1058C735.856 1054 735.958 1050.01 736 1046C740.95 1046 745.9 1046 751 1046C751 1022.57 751 999.141 751 975.001C745.39 975.001 739.78 975.001 734 975.001C734 970.711 734 966.421 734 962.001C738.063 961.92 742.124 961.861 746.188 961.813C747.913 961.776 747.913 961.776 749.674 961.737C751.342 961.723 751.342 961.723 753.043 961.708C754.064 961.692 755.085 961.677 756.137 961.66C759.461 962.056 761.317 963.033 764 965.001C765.284 967.57 765.33 969.767 765.562 972.626C765.688 974.13 765.688 974.13 765.816 975.665C765.877 976.436 765.938 977.207 766 978.001C766.496 977.337 766.993 976.673 767.504 975.989C777.168 963.427 785.227 960.574 801 961.001Z" fill="#007991"/>
<path d="M1154 934C1158.95 934 1163.9 934 1169 934C1169 943.24 1169 952.48 1169 962C1176.92 962 1184.84 962 1193 962C1193 966.29 1193 970.58 1193 975C1185.08 975 1177.16 975 1169 975C1169.12 981.529 1169.24 988.058 1169.37 994.586C1169.42 996.804 1169.46 999.022 1169.5 1001.24C1169.56 1004.44 1169.62 1007.64 1169.68 1010.84C1169.7 1011.82 1169.72 1012.8 1169.73 1013.81C1169.52 1025.2 1169.52 1025.2 1173.56 1035.44C1176 1038.86 1176 1038.86 1176 1041C1179.88 1042.62 1183.79 1043.91 1187.81 1045.12C1188.97 1045.48 1190.14 1045.83 1191.33 1046.2C1192.65 1046.59 1192.65 1046.59 1194 1047C1194 1050.96 1194 1054.92 1194 1059C1183.15 1059.53 1174.8 1058.93 1165.19 1053.38C1154.89 1042.19 1153.84 1030.12 1153.9 1015.62C1153.9 1014.46 1153.91 1013.29 1153.91 1012.09C1153.91 1008.4 1153.92 1004.7 1153.94 1001C1153.94 998.483 1153.95 995.966 1153.95 993.449C1153.96 987.299 1153.98 981.15 1154 975C1148.72 975 1143.44 975 1138 975C1138 970.71 1138 966.42 1138 962C1143.28 962 1148.56 962 1154 962C1154 952.76 1154 943.52 1154 934Z" fill="#007991"/>
</g>
<defs>
<clipPath id="clip0_335_3885">
<rect width="1280" height="1250" fill="white"/>
</clipPath>
</defs>
</svg>
