<svg width="60" height="42" viewBox="0 0 60 42" fill="none" xmlns="http://www.w3.org/2000/svg">
<path d="M23.7812 29.7266L39.2093 20.8086L23.7812 11.8906V29.7266ZM58.1452 6.45066C58.5316 7.84781 58.7991 9.72058 58.9775 12.0987C59.1856 14.4768 59.2748 16.528 59.2748 18.3116L59.4531 20.8086C59.4531 27.3187 58.9775 32.1047 58.1452 35.1665C57.402 37.8419 55.6779 39.5661 53.0025 40.3092C51.6053 40.6957 49.0488 40.9632 45.1249 41.1416C41.2605 41.3496 37.723 41.4388 34.4531 41.4388L29.7266 41.6172C17.2711 41.6172 9.5125 41.1416 6.45066 40.3092C3.77527 39.5661 2.05113 37.8419 1.30797 35.1665C0.921524 33.7694 0.653985 31.8966 0.475625 29.5185C0.267539 27.1404 0.178359 25.0892 0.178359 23.3056L0 20.8086C0 14.2985 0.475625 9.5125 1.30797 6.45066C2.05113 3.77527 3.77527 2.05113 6.45066 1.30797C7.84781 0.921524 10.4043 0.653984 14.3282 0.475625C18.1927 0.267539 21.7301 0.178359 25 0.178359L29.7266 0C42.182 0 49.9406 0.475625 53.0025 1.30797C55.6779 2.05113 57.402 3.77527 58.1452 6.45066Z" fill="white"/>
</svg>
