<svg width="85" height="60" viewBox="0 0 85 60" fill="none" xmlns="http://www.w3.org/2000/svg">
<path d="M33.8125 42.2656L55.7484 29.5859L33.8125 16.9062V42.2656ZM82.6716 9.17164C83.221 11.1581 83.6014 13.8209 83.855 17.2021C84.1509 20.5834 84.2777 23.4997 84.2777 26.0356L84.5312 29.5859C84.5312 38.8421 83.855 45.6469 82.6716 50.0002C81.6149 53.8041 79.1635 56.2555 75.3596 57.3122C73.3731 57.8616 69.7383 58.242 64.1592 58.4956C58.6647 58.7915 53.6351 58.9183 48.9859 58.9183L42.2656 59.1719C24.5563 59.1719 13.525 58.4956 9.17164 57.3122C5.36773 56.2555 2.91633 53.8041 1.85969 50.0002C1.31023 48.0137 0.929844 45.351 0.67625 41.9698C0.380391 38.5885 0.253594 35.6722 0.253594 33.1362L0 29.5859C0 20.3298 0.67625 13.525 1.85969 9.17164C2.91633 5.36773 5.36773 2.91633 9.17164 1.85969C11.1581 1.31023 14.793 0.929843 20.372 0.676249C25.8666 0.38039 30.8962 0.253593 35.5454 0.253593L42.2656 0C59.9749 0 71.0062 0.67625 75.3596 1.85969C79.1635 2.91633 81.6149 5.36773 82.6716 9.17164Z" fill="#F70000"/>
</svg>
